<?xml version="1.0" encoding="utf-8" standalone="no"?>
<!DOCTYPE svg PUBLIC "-//W3C//DTD SVG 1.1//EN"
  "http://www.w3.org/Graphics/SVG/1.1/DTD/svg11.dtd">
<!-- Created with matplotlib (https://matplotlib.org/) -->
<svg height="345.6pt" version="1.1" viewBox="0 0 460.8 345.6" width="460.8pt" xmlns="http://www.w3.org/2000/svg" xmlns:xlink="http://www.w3.org/1999/xlink">
 <defs>
  <style type="text/css">
*{stroke-linecap:butt;stroke-linejoin:round;white-space:pre;}
  </style>
 </defs>
 <g id="figure_1">
  <g id="patch_1">
   <path d="M 0 345.6 
L 460.8 345.6 
L 460.8 0 
L 0 0 
z
" style="fill:#ffffff;"/>
  </g>
  <g id="axes_1">
   <g id="patch_2">
    <path d="M 47.72 303.64 
L 450 303.64 
L 450 25.44 
L 47.72 25.44 
z
" style="fill:#ffffff;"/>
   </g>
   <g id="PolyCollection_1">
    <defs>
     <path d="M 66.005455 -54.605455 
L 66.005455 -54.605455 
L 69.699486 -60.261407 
L 73.393517 -65.426199 
L 77.087548 -69.185534 
L 80.781579 -72.509256 
L 84.475611 -78.884748 
L 88.169642 -82.363029 
L 91.863673 -88.376784 
L 95.557704 -95.490588 
L 99.251736 -99.652101 
L 102.945767 -100.865832 
L 106.639798 -102.757546 
L 110.333829 -108.79669 
L 114.02786 -112.306744 
L 117.721892 -120.780851 
L 121.415923 -128.95614 
L 125.109954 -132.344383 
L 128.803985 -133.588609 
L 132.498017 -138.243801 
L 136.192048 -142.31172 
L 139.886079 -144.040136 
L 143.58011 -145.251183 
L 147.274141 -149.185422 
L 150.968173 -153.261897 
L 154.662204 -155.988128 
L 158.356235 -159.970347 
L 162.050266 -163.576965 
L 165.744298 -168.71094 
L 169.438329 -171.31895 
L 173.13236 -174.845873 
L 176.826391 -177.381995 
L 180.520422 -180.427445 
L 184.214454 -181.360391 
L 187.908485 -185.234525 
L 191.602516 -193.387875 
L 195.296547 -195.252976 
L 198.990579 -198.778343 
L 202.68461 -200.246956 
L 206.378641 -202.463134 
L 210.072672 -206.605354 
L 213.766703 -207.565666 
L 217.460735 -209.69493 
L 221.154766 -211.197283 
L 224.848797 -213.530881 
L 228.542828 -218.428112 
L 232.23686 -219.591985 
L 235.930891 -229.818677 
L 239.624922 -231.23709 
L 243.318953 -232.679305 
L 247.012984 -234.577054 
L 250.707016 -236.011084 
L 254.401047 -238.053375 
L 258.095078 -240.760441 
L 261.789109 -242.907549 
L 265.48314 -245.025297 
L 269.177172 -246.430675 
L 272.871203 -247.351271 
L 276.565234 -248.542823 
L 280.259265 -250.788156 
L 283.953297 -251.057138 
L 287.647328 -252.735481 
L 291.341359 -256.961371 
L 295.03539 -259.398289 
L 298.729421 -260.969195 
L 302.423453 -262.013946 
L 306.117484 -264.898163 
L 309.811515 -267.387966 
L 313.505546 -268.074834 
L 317.199578 -268.545153 
L 320.893609 -271.034674 
L 324.58764 -271.390569 
L 328.281671 -272.740298 
L 331.975702 -274.060155 
L 335.669734 -274.193554 
L 339.363765 -274.640302 
L 343.057796 -275.575267 
L 346.751827 -276.536337 
L 350.445859 -279.375454 
L 354.13989 -280.52212 
L 357.833921 -280.658576 
L 361.527952 -281.200004 
L 365.221983 -282.015585 
L 368.916015 -282.892228 
L 372.610046 -283.965838 
L 376.304077 -285.036718 
L 379.998108 -286.237735 
L 383.69214 -287.279595 
L 387.386171 -288.775124 
L 391.080202 -289.414606 
L 394.774233 -289.968836 
L 398.468264 -290.604101 
L 402.162296 -293.765399 
L 405.856327 -294.179815 
L 409.550358 -295.440511 
L 413.244389 -296.900188 
L 416.938421 -299.02306 
L 420.632452 -301.145931 
L 424.326483 -303.268802 
L 428.020514 -305.391674 
L 431.714545 -307.514545 
L 431.714545 -307.514545 
L 431.714545 -307.514545 
L 428.020514 -307.4151 
L 424.326483 -307.315655 
L 420.632452 -307.21621 
L 416.938421 -307.116764 
L 413.244389 -307.017319 
L 409.550358 -306.814213 
L 405.856327 -306.621284 
L 402.162296 -306.257613 
L 398.468264 -306.164106 
L 394.774233 -305.489521 
L 391.080202 -304.947893 
L 387.386171 -304.546258 
L 383.69214 -303.455723 
L 379.998108 -302.515966 
L 376.304077 -301.691462 
L 372.610046 -299.04995 
L 368.916015 -299.11539 
L 365.221983 -298.742086 
L 361.527952 -298.202797 
L 357.833921 -298.296599 
L 354.13989 -297.981431 
L 350.445859 -296.823796 
L 346.751827 -294.28457 
L 343.057796 -292.795279 
L 339.363765 -291.553676 
L 335.669734 -291.224909 
L 331.975702 -290.906684 
L 328.281671 -290.563181 
L 324.58764 -289.194046 
L 320.893609 -288.010316 
L 317.199578 -287.290655 
L 313.505546 -286.74253 
L 309.811515 -286.189705 
L 306.117484 -285.3368 
L 302.423453 -283.914024 
L 298.729421 -282.873442 
L 295.03539 -282.310562 
L 291.341359 -282.079362 
L 287.647328 -280.020735 
L 283.953297 -279.062337 
L 280.259265 -277.549156 
L 276.565234 -277.551746 
L 272.871203 -275.795238 
L 269.177172 -275.196011 
L 265.48314 -274.448934 
L 261.789109 -271.942458 
L 258.095078 -270.535156 
L 254.401047 -266.202154 
L 250.707016 -264.740942 
L 247.012984 -264.610217 
L 243.318953 -263.089483 
L 239.624922 -262.597473 
L 235.930891 -261.862126 
L 232.23686 -257.834766 
L 228.542828 -256.982301 
L 224.848797 -255.612394 
L 221.154766 -251.536549 
L 217.460735 -250.345848 
L 213.766703 -248.286215 
L 210.072672 -245.705009 
L 206.378641 -239.34528 
L 202.68461 -236.151101 
L 198.990579 -235.777251 
L 195.296547 -233.726379 
L 191.602516 -231.420469 
L 187.908485 -226.085246 
L 184.214454 -224.149857 
L 180.520422 -220.447291 
L 176.826391 -218.255064 
L 173.13236 -214.225113 
L 169.438329 -211.572247 
L 165.744298 -210.175442 
L 162.050266 -206.888332 
L 158.356235 -203.766413 
L 154.662204 -201.474584 
L 150.968173 -198.903859 
L 147.274141 -193.162178 
L 143.58011 -190.824839 
L 139.886079 -187.194227 
L 136.192048 -183.529968 
L 132.498017 -180.431217 
L 128.803985 -173.956445 
L 125.109954 -169.609361 
L 121.415923 -167.472218 
L 117.721892 -161.196932 
L 114.02786 -155.791603 
L 110.333829 -147.213273 
L 106.639798 -142.855021 
L 102.945767 -134.652661 
L 99.251736 -125.579146 
L 95.557704 -122.997676 
L 91.863673 -111.015957 
L 88.169642 -108.323612 
L 84.475611 -106.225788 
L 80.781579 -102.5949 
L 77.087548 -89.731027 
L 73.393517 -75.417921 
L 69.699486 -64.615566 
L 66.005455 -54.605455 
z
" id="m51f28f5c9b" style="stroke:#808080;stroke-opacity:0.2;"/>
    </defs>
    <g clip-path="url(#pa266d5bdfa)">
     <use style="fill:#808080;fill-opacity:0.2;stroke:#808080;stroke-opacity:0.2;" x="0" xlink:href="#m51f28f5c9b" y="345.6"/>
    </g>
   </g>
   <g id="matplotlib.axis_1">
    <g id="xtick_1">
     <g id="line2d_1">
      <defs>
       <path d="M 0 0 
L 0 3.5 
" id="m3c8e85c9ff" style="stroke:#000000;stroke-width:0.8;"/>
      </defs>
      <g>
       <use style="stroke:#000000;stroke-width:0.8;" x="66.005455" xlink:href="#m3c8e85c9ff" y="303.64"/>
      </g>
     </g>
     <g id="text_1">
      <!-- 0.0 -->
      <defs>
       <path d="M 31.78125 66.40625 
Q 24.171875 66.40625 20.328125 58.90625 
Q 16.5 51.421875 16.5 36.375 
Q 16.5 21.390625 20.328125 13.890625 
Q 24.171875 6.390625 31.78125 6.390625 
Q 39.453125 6.390625 43.28125 13.890625 
Q 47.125 21.390625 47.125 36.375 
Q 47.125 51.421875 43.28125 58.90625 
Q 39.453125 66.40625 31.78125 66.40625 
z
M 31.78125 74.21875 
Q 44.046875 74.21875 50.515625 64.515625 
Q 56.984375 54.828125 56.984375 36.375 
Q 56.984375 17.96875 50.515625 8.265625 
Q 44.046875 -1.421875 31.78125 -1.421875 
Q 19.53125 -1.421875 13.0625 8.265625 
Q 6.59375 17.96875 6.59375 36.375 
Q 6.59375 54.828125 13.0625 64.515625 
Q 19.53125 74.21875 31.78125 74.21875 
z
" id="DejaVuSans-48"/>
       <path d="M 10.6875 12.40625 
L 21 12.40625 
L 21 0 
L 10.6875 0 
z
" id="DejaVuSans-46"/>
      </defs>
      <g transform="translate(58.053892 318.238437)scale(0.1 -0.1)">
       <use xlink:href="#DejaVuSans-48"/>
       <use x="63.623047" xlink:href="#DejaVuSans-46"/>
       <use x="95.410156" xlink:href="#DejaVuSans-48"/>
      </g>
     </g>
    </g>
    <g id="xtick_2">
     <g id="line2d_2">
      <g>
       <use style="stroke:#000000;stroke-width:0.8;" x="139.147273" xlink:href="#m3c8e85c9ff" y="303.64"/>
      </g>
     </g>
     <g id="text_2">
      <!-- 0.2 -->
      <defs>
       <path d="M 19.1875 8.296875 
L 53.609375 8.296875 
L 53.609375 0 
L 7.328125 0 
L 7.328125 8.296875 
Q 12.9375 14.109375 22.625 23.890625 
Q 32.328125 33.6875 34.8125 36.53125 
Q 39.546875 41.84375 41.421875 45.53125 
Q 43.3125 49.21875 43.3125 52.78125 
Q 43.3125 58.59375 39.234375 62.25 
Q 35.15625 65.921875 28.609375 65.921875 
Q 23.96875 65.921875 18.8125 64.3125 
Q 13.671875 62.703125 7.8125 59.421875 
L 7.8125 69.390625 
Q 13.765625 71.78125 18.9375 73 
Q 24.125 74.21875 28.421875 74.21875 
Q 39.75 74.21875 46.484375 68.546875 
Q 53.21875 62.890625 53.21875 53.421875 
Q 53.21875 48.921875 51.53125 44.890625 
Q 49.859375 40.875 45.40625 35.40625 
Q 44.1875 33.984375 37.640625 27.21875 
Q 31.109375 20.453125 19.1875 8.296875 
z
" id="DejaVuSans-50"/>
      </defs>
      <g transform="translate(131.19571 318.238437)scale(0.1 -0.1)">
       <use xlink:href="#DejaVuSans-48"/>
       <use x="63.623047" xlink:href="#DejaVuSans-46"/>
       <use x="95.410156" xlink:href="#DejaVuSans-50"/>
      </g>
     </g>
    </g>
    <g id="xtick_3">
     <g id="line2d_3">
      <g>
       <use style="stroke:#000000;stroke-width:0.8;" x="212.289091" xlink:href="#m3c8e85c9ff" y="303.64"/>
      </g>
     </g>
     <g id="text_3">
      <!-- 0.4 -->
      <defs>
       <path d="M 37.796875 64.3125 
L 12.890625 25.390625 
L 37.796875 25.390625 
z
M 35.203125 72.90625 
L 47.609375 72.90625 
L 47.609375 25.390625 
L 58.015625 25.390625 
L 58.015625 17.1875 
L 47.609375 17.1875 
L 47.609375 0 
L 37.796875 0 
L 37.796875 17.1875 
L 4.890625 17.1875 
L 4.890625 26.703125 
z
" id="DejaVuSans-52"/>
      </defs>
      <g transform="translate(204.337528 318.238437)scale(0.1 -0.1)">
       <use xlink:href="#DejaVuSans-48"/>
       <use x="63.623047" xlink:href="#DejaVuSans-46"/>
       <use x="95.410156" xlink:href="#DejaVuSans-52"/>
      </g>
     </g>
    </g>
    <g id="xtick_4">
     <g id="line2d_4">
      <g>
       <use style="stroke:#000000;stroke-width:0.8;" x="285.430909" xlink:href="#m3c8e85c9ff" y="303.64"/>
      </g>
     </g>
     <g id="text_4">
      <!-- 0.6 -->
      <defs>
       <path d="M 33.015625 40.375 
Q 26.375 40.375 22.484375 35.828125 
Q 18.609375 31.296875 18.609375 23.390625 
Q 18.609375 15.53125 22.484375 10.953125 
Q 26.375 6.390625 33.015625 6.390625 
Q 39.65625 6.390625 43.53125 10.953125 
Q 47.40625 15.53125 47.40625 23.390625 
Q 47.40625 31.296875 43.53125 35.828125 
Q 39.65625 40.375 33.015625 40.375 
z
M 52.59375 71.296875 
L 52.59375 62.3125 
Q 48.875 64.0625 45.09375 64.984375 
Q 41.3125 65.921875 37.59375 65.921875 
Q 27.828125 65.921875 22.671875 59.328125 
Q 17.53125 52.734375 16.796875 39.40625 
Q 19.671875 43.65625 24.015625 45.921875 
Q 28.375 48.1875 33.59375 48.1875 
Q 44.578125 48.1875 50.953125 41.515625 
Q 57.328125 34.859375 57.328125 23.390625 
Q 57.328125 12.15625 50.6875 5.359375 
Q 44.046875 -1.421875 33.015625 -1.421875 
Q 20.359375 -1.421875 13.671875 8.265625 
Q 6.984375 17.96875 6.984375 36.375 
Q 6.984375 53.65625 15.1875 63.9375 
Q 23.390625 74.21875 37.203125 74.21875 
Q 40.921875 74.21875 44.703125 73.484375 
Q 48.484375 72.75 52.59375 71.296875 
z
" id="DejaVuSans-54"/>
      </defs>
      <g transform="translate(277.479347 318.238437)scale(0.1 -0.1)">
       <use xlink:href="#DejaVuSans-48"/>
       <use x="63.623047" xlink:href="#DejaVuSans-46"/>
       <use x="95.410156" xlink:href="#DejaVuSans-54"/>
      </g>
     </g>
    </g>
    <g id="xtick_5">
     <g id="line2d_5">
      <g>
       <use style="stroke:#000000;stroke-width:0.8;" x="358.572727" xlink:href="#m3c8e85c9ff" y="303.64"/>
      </g>
     </g>
     <g id="text_5">
      <!-- 0.8 -->
      <defs>
       <path d="M 31.78125 34.625 
Q 24.75 34.625 20.71875 30.859375 
Q 16.703125 27.09375 16.703125 20.515625 
Q 16.703125 13.921875 20.71875 10.15625 
Q 24.75 6.390625 31.78125 6.390625 
Q 38.8125 6.390625 42.859375 10.171875 
Q 46.921875 13.96875 46.921875 20.515625 
Q 46.921875 27.09375 42.890625 30.859375 
Q 38.875 34.625 31.78125 34.625 
z
M 21.921875 38.8125 
Q 15.578125 40.375 12.03125 44.71875 
Q 8.5 49.078125 8.5 55.328125 
Q 8.5 64.0625 14.71875 69.140625 
Q 20.953125 74.21875 31.78125 74.21875 
Q 42.671875 74.21875 48.875 69.140625 
Q 55.078125 64.0625 55.078125 55.328125 
Q 55.078125 49.078125 51.53125 44.71875 
Q 48 40.375 41.703125 38.8125 
Q 48.828125 37.15625 52.796875 32.3125 
Q 56.78125 27.484375 56.78125 20.515625 
Q 56.78125 9.90625 50.3125 4.234375 
Q 43.84375 -1.421875 31.78125 -1.421875 
Q 19.734375 -1.421875 13.25 4.234375 
Q 6.78125 9.90625 6.78125 20.515625 
Q 6.78125 27.484375 10.78125 32.3125 
Q 14.796875 37.15625 21.921875 38.8125 
z
M 18.3125 54.390625 
Q 18.3125 48.734375 21.84375 45.5625 
Q 25.390625 42.390625 31.78125 42.390625 
Q 38.140625 42.390625 41.71875 45.5625 
Q 45.3125 48.734375 45.3125 54.390625 
Q 45.3125 60.0625 41.71875 63.234375 
Q 38.140625 66.40625 31.78125 66.40625 
Q 25.390625 66.40625 21.84375 63.234375 
Q 18.3125 60.0625 18.3125 54.390625 
z
" id="DejaVuSans-56"/>
      </defs>
      <g transform="translate(350.621165 318.238437)scale(0.1 -0.1)">
       <use xlink:href="#DejaVuSans-48"/>
       <use x="63.623047" xlink:href="#DejaVuSans-46"/>
       <use x="95.410156" xlink:href="#DejaVuSans-56"/>
      </g>
     </g>
    </g>
    <g id="xtick_6">
     <g id="line2d_6">
      <g>
       <use style="stroke:#000000;stroke-width:0.8;" x="431.714545" xlink:href="#m3c8e85c9ff" y="303.64"/>
      </g>
     </g>
     <g id="text_6">
      <!-- 1.0 -->
      <defs>
       <path d="M 12.40625 8.296875 
L 28.515625 8.296875 
L 28.515625 63.921875 
L 10.984375 60.40625 
L 10.984375 69.390625 
L 28.421875 72.90625 
L 38.28125 72.90625 
L 38.28125 8.296875 
L 54.390625 8.296875 
L 54.390625 0 
L 12.40625 0 
z
" id="DejaVuSans-49"/>
      </defs>
      <g transform="translate(423.762983 318.238437)scale(0.1 -0.1)">
       <use xlink:href="#DejaVuSans-49"/>
       <use x="63.623047" xlink:href="#DejaVuSans-46"/>
       <use x="95.410156" xlink:href="#DejaVuSans-48"/>
      </g>
     </g>
    </g>
    <g id="text_7">
     <!-- False Positive Rate -->
     <defs>
      <path d="M 9.8125 72.90625 
L 51.703125 72.90625 
L 51.703125 64.59375 
L 19.671875 64.59375 
L 19.671875 43.109375 
L 48.578125 43.109375 
L 48.578125 34.8125 
L 19.671875 34.8125 
L 19.671875 0 
L 9.8125 0 
z
" id="DejaVuSans-70"/>
      <path d="M 34.28125 27.484375 
Q 23.390625 27.484375 19.1875 25 
Q 14.984375 22.515625 14.984375 16.5 
Q 14.984375 11.71875 18.140625 8.90625 
Q 21.296875 6.109375 26.703125 6.109375 
Q 34.1875 6.109375 38.703125 11.40625 
Q 43.21875 16.703125 43.21875 25.484375 
L 43.21875 27.484375 
z
M 52.203125 31.203125 
L 52.203125 0 
L 43.21875 0 
L 43.21875 8.296875 
Q 40.140625 3.328125 35.546875 0.953125 
Q 30.953125 -1.421875 24.3125 -1.421875 
Q 15.921875 -1.421875 10.953125 3.296875 
Q 6 8.015625 6 15.921875 
Q 6 25.140625 12.171875 29.828125 
Q 18.359375 34.515625 30.609375 34.515625 
L 43.21875 34.515625 
L 43.21875 35.40625 
Q 43.21875 41.609375 39.140625 45 
Q 35.0625 48.390625 27.6875 48.390625 
Q 23 48.390625 18.546875 47.265625 
Q 14.109375 46.140625 10.015625 43.890625 
L 10.015625 52.203125 
Q 14.9375 54.109375 19.578125 55.046875 
Q 24.21875 56 28.609375 56 
Q 40.484375 56 46.34375 49.84375 
Q 52.203125 43.703125 52.203125 31.203125 
z
" id="DejaVuSans-97"/>
      <path d="M 9.421875 75.984375 
L 18.40625 75.984375 
L 18.40625 0 
L 9.421875 0 
z
" id="DejaVuSans-108"/>
      <path d="M 44.28125 53.078125 
L 44.28125 44.578125 
Q 40.484375 46.53125 36.375 47.5 
Q 32.28125 48.484375 27.875 48.484375 
Q 21.1875 48.484375 17.84375 46.4375 
Q 14.5 44.390625 14.5 40.28125 
Q 14.5 37.15625 16.890625 35.375 
Q 19.28125 33.59375 26.515625 31.984375 
L 29.59375 31.296875 
Q 39.15625 29.25 43.1875 25.515625 
Q 47.21875 21.78125 47.21875 15.09375 
Q 47.21875 7.46875 41.1875 3.015625 
Q 35.15625 -1.421875 24.609375 -1.421875 
Q 20.21875 -1.421875 15.453125 -0.5625 
Q 10.6875 0.296875 5.421875 2 
L 5.421875 11.28125 
Q 10.40625 8.6875 15.234375 7.390625 
Q 20.0625 6.109375 24.8125 6.109375 
Q 31.15625 6.109375 34.5625 8.28125 
Q 37.984375 10.453125 37.984375 14.40625 
Q 37.984375 18.0625 35.515625 20.015625 
Q 33.0625 21.96875 24.703125 23.78125 
L 21.578125 24.515625 
Q 13.234375 26.265625 9.515625 29.90625 
Q 5.8125 33.546875 5.8125 39.890625 
Q 5.8125 47.609375 11.28125 51.796875 
Q 16.75 56 26.8125 56 
Q 31.78125 56 36.171875 55.265625 
Q 40.578125 54.546875 44.28125 53.078125 
z
" id="DejaVuSans-115"/>
      <path d="M 56.203125 29.59375 
L 56.203125 25.203125 
L 14.890625 25.203125 
Q 15.484375 15.921875 20.484375 11.0625 
Q 25.484375 6.203125 34.421875 6.203125 
Q 39.59375 6.203125 44.453125 7.46875 
Q 49.3125 8.734375 54.109375 11.28125 
L 54.109375 2.78125 
Q 49.265625 0.734375 44.1875 -0.34375 
Q 39.109375 -1.421875 33.890625 -1.421875 
Q 20.796875 -1.421875 13.15625 6.1875 
Q 5.515625 13.8125 5.515625 26.8125 
Q 5.515625 40.234375 12.765625 48.109375 
Q 20.015625 56 32.328125 56 
Q 43.359375 56 49.78125 48.890625 
Q 56.203125 41.796875 56.203125 29.59375 
z
M 47.21875 32.234375 
Q 47.125 39.59375 43.09375 43.984375 
Q 39.0625 48.390625 32.421875 48.390625 
Q 24.90625 48.390625 20.390625 44.140625 
Q 15.875 39.890625 15.1875 32.171875 
z
" id="DejaVuSans-101"/>
      <path id="DejaVuSans-32"/>
      <path d="M 19.671875 64.796875 
L 19.671875 37.40625 
L 32.078125 37.40625 
Q 38.96875 37.40625 42.71875 40.96875 
Q 46.484375 44.53125 46.484375 51.125 
Q 46.484375 57.671875 42.71875 61.234375 
Q 38.96875 64.796875 32.078125 64.796875 
z
M 9.8125 72.90625 
L 32.078125 72.90625 
Q 44.34375 72.90625 50.609375 67.359375 
Q 56.890625 61.8125 56.890625 51.125 
Q 56.890625 40.328125 50.609375 34.8125 
Q 44.34375 29.296875 32.078125 29.296875 
L 19.671875 29.296875 
L 19.671875 0 
L 9.8125 0 
z
" id="DejaVuSans-80"/>
      <path d="M 30.609375 48.390625 
Q 23.390625 48.390625 19.1875 42.75 
Q 14.984375 37.109375 14.984375 27.296875 
Q 14.984375 17.484375 19.15625 11.84375 
Q 23.34375 6.203125 30.609375 6.203125 
Q 37.796875 6.203125 41.984375 11.859375 
Q 46.1875 17.53125 46.1875 27.296875 
Q 46.1875 37.015625 41.984375 42.703125 
Q 37.796875 48.390625 30.609375 48.390625 
z
M 30.609375 56 
Q 42.328125 56 49.015625 48.375 
Q 55.71875 40.765625 55.71875 27.296875 
Q 55.71875 13.875 49.015625 6.21875 
Q 42.328125 -1.421875 30.609375 -1.421875 
Q 18.84375 -1.421875 12.171875 6.21875 
Q 5.515625 13.875 5.515625 27.296875 
Q 5.515625 40.765625 12.171875 48.375 
Q 18.84375 56 30.609375 56 
z
" id="DejaVuSans-111"/>
      <path d="M 9.421875 54.6875 
L 18.40625 54.6875 
L 18.40625 0 
L 9.421875 0 
z
M 9.421875 75.984375 
L 18.40625 75.984375 
L 18.40625 64.59375 
L 9.421875 64.59375 
z
" id="DejaVuSans-105"/>
      <path d="M 18.3125 70.21875 
L 18.3125 54.6875 
L 36.8125 54.6875 
L 36.8125 47.703125 
L 18.3125 47.703125 
L 18.3125 18.015625 
Q 18.3125 11.328125 20.140625 9.421875 
Q 21.96875 7.515625 27.59375 7.515625 
L 36.8125 7.515625 
L 36.8125 0 
L 27.59375 0 
Q 17.1875 0 13.234375 3.875 
Q 9.28125 7.765625 9.28125 18.015625 
L 9.28125 47.703125 
L 2.6875 47.703125 
L 2.6875 54.6875 
L 9.28125 54.6875 
L 9.28125 70.21875 
z
" id="DejaVuSans-116"/>
      <path d="M 2.984375 54.6875 
L 12.5 54.6875 
L 29.59375 8.796875 
L 46.6875 54.6875 
L 56.203125 54.6875 
L 35.6875 0 
L 23.484375 0 
z
" id="DejaVuSans-118"/>
      <path d="M 44.390625 34.1875 
Q 47.5625 33.109375 50.5625 29.59375 
Q 53.5625 26.078125 56.59375 19.921875 
L 66.609375 0 
L 56 0 
L 46.6875 18.703125 
Q 43.0625 26.03125 39.671875 28.421875 
Q 36.28125 30.8125 30.421875 30.8125 
L 19.671875 30.8125 
L 19.671875 0 
L 9.8125 0 
L 9.8125 72.90625 
L 32.078125 72.90625 
Q 44.578125 72.90625 50.734375 67.671875 
Q 56.890625 62.453125 56.890625 51.90625 
Q 56.890625 45.015625 53.6875 40.46875 
Q 50.484375 35.9375 44.390625 34.1875 
z
M 19.671875 64.796875 
L 19.671875 38.921875 
L 32.078125 38.921875 
Q 39.203125 38.921875 42.84375 42.21875 
Q 46.484375 45.515625 46.484375 51.90625 
Q 46.484375 58.296875 42.84375 61.546875 
Q 39.203125 64.796875 32.078125 64.796875 
z
" id="DejaVuSans-82"/>
     </defs>
     <g transform="translate(201.654531 331.916562)scale(0.1 -0.1)">
      <use xlink:href="#DejaVuSans-70"/>
      <use x="57.378906" xlink:href="#DejaVuSans-97"/>
      <use x="118.658203" xlink:href="#DejaVuSans-108"/>
      <use x="146.441406" xlink:href="#DejaVuSans-115"/>
      <use x="198.541016" xlink:href="#DejaVuSans-101"/>
      <use x="260.064453" xlink:href="#DejaVuSans-32"/>
      <use x="291.851562" xlink:href="#DejaVuSans-80"/>
      <use x="352.107422" xlink:href="#DejaVuSans-111"/>
      <use x="413.289062" xlink:href="#DejaVuSans-115"/>
      <use x="465.388672" xlink:href="#DejaVuSans-105"/>
      <use x="493.171875" xlink:href="#DejaVuSans-116"/>
      <use x="532.380859" xlink:href="#DejaVuSans-105"/>
      <use x="560.164062" xlink:href="#DejaVuSans-118"/>
      <use x="619.34375" xlink:href="#DejaVuSans-101"/>
      <use x="680.867188" xlink:href="#DejaVuSans-32"/>
      <use x="712.654297" xlink:href="#DejaVuSans-82"/>
      <use x="782.105469" xlink:href="#DejaVuSans-97"/>
      <use x="843.384766" xlink:href="#DejaVuSans-116"/>
      <use x="882.59375" xlink:href="#DejaVuSans-101"/>
     </g>
    </g>
   </g>
   <g id="matplotlib.axis_2">
    <g id="ytick_1">
     <g id="line2d_7">
      <defs>
       <path d="M 0 0 
L -3.5 0 
" id="m9a2c7df10d" style="stroke:#000000;stroke-width:0.8;"/>
      </defs>
      <g>
       <use style="stroke:#000000;stroke-width:0.8;" x="47.72" xlink:href="#m9a2c7df10d" y="290.994545"/>
      </g>
     </g>
     <g id="text_8">
      <!-- 0.0 -->
      <g transform="translate(24.816875 294.793764)scale(0.1 -0.1)">
       <use xlink:href="#DejaVuSans-48"/>
       <use x="63.623047" xlink:href="#DejaVuSans-46"/>
       <use x="95.410156" xlink:href="#DejaVuSans-48"/>
      </g>
     </g>
    </g>
    <g id="ytick_2">
     <g id="line2d_8">
      <g>
       <use style="stroke:#000000;stroke-width:0.8;" x="47.72" xlink:href="#m9a2c7df10d" y="240.412727"/>
      </g>
     </g>
     <g id="text_9">
      <!-- 0.2 -->
      <g transform="translate(24.816875 244.211946)scale(0.1 -0.1)">
       <use xlink:href="#DejaVuSans-48"/>
       <use x="63.623047" xlink:href="#DejaVuSans-46"/>
       <use x="95.410156" xlink:href="#DejaVuSans-50"/>
      </g>
     </g>
    </g>
    <g id="ytick_3">
     <g id="line2d_9">
      <g>
       <use style="stroke:#000000;stroke-width:0.8;" x="47.72" xlink:href="#m9a2c7df10d" y="189.830909"/>
      </g>
     </g>
     <g id="text_10">
      <!-- 0.4 -->
      <g transform="translate(24.816875 193.630128)scale(0.1 -0.1)">
       <use xlink:href="#DejaVuSans-48"/>
       <use x="63.623047" xlink:href="#DejaVuSans-46"/>
       <use x="95.410156" xlink:href="#DejaVuSans-52"/>
      </g>
     </g>
    </g>
    <g id="ytick_4">
     <g id="line2d_10">
      <g>
       <use style="stroke:#000000;stroke-width:0.8;" x="47.72" xlink:href="#m9a2c7df10d" y="139.249091"/>
      </g>
     </g>
     <g id="text_11">
      <!-- 0.6 -->
      <g transform="translate(24.816875 143.04831)scale(0.1 -0.1)">
       <use xlink:href="#DejaVuSans-48"/>
       <use x="63.623047" xlink:href="#DejaVuSans-46"/>
       <use x="95.410156" xlink:href="#DejaVuSans-54"/>
      </g>
     </g>
    </g>
    <g id="ytick_5">
     <g id="line2d_11">
      <g>
       <use style="stroke:#000000;stroke-width:0.8;" x="47.72" xlink:href="#m9a2c7df10d" y="88.667273"/>
      </g>
     </g>
     <g id="text_12">
      <!-- 0.8 -->
      <g transform="translate(24.816875 92.466491)scale(0.1 -0.1)">
       <use xlink:href="#DejaVuSans-48"/>
       <use x="63.623047" xlink:href="#DejaVuSans-46"/>
       <use x="95.410156" xlink:href="#DejaVuSans-56"/>
      </g>
     </g>
    </g>
    <g id="ytick_6">
     <g id="line2d_12">
      <g>
       <use style="stroke:#000000;stroke-width:0.8;" x="47.72" xlink:href="#m9a2c7df10d" y="38.085455"/>
      </g>
     </g>
     <g id="text_13">
      <!-- 1.0 -->
      <g transform="translate(24.816875 41.884673)scale(0.1 -0.1)">
       <use xlink:href="#DejaVuSans-49"/>
       <use x="63.623047" xlink:href="#DejaVuSans-46"/>
       <use x="95.410156" xlink:href="#DejaVuSans-48"/>
      </g>
     </g>
    </g>
    <g id="text_14">
     <!-- True Positive Rate -->
     <defs>
      <path d="M -0.296875 72.90625 
L 61.375 72.90625 
L 61.375 64.59375 
L 35.5 64.59375 
L 35.5 0 
L 25.59375 0 
L 25.59375 64.59375 
L -0.296875 64.59375 
z
" id="DejaVuSans-84"/>
      <path d="M 41.109375 46.296875 
Q 39.59375 47.171875 37.8125 47.578125 
Q 36.03125 48 33.890625 48 
Q 26.265625 48 22.1875 43.046875 
Q 18.109375 38.09375 18.109375 28.8125 
L 18.109375 0 
L 9.078125 0 
L 9.078125 54.6875 
L 18.109375 54.6875 
L 18.109375 46.1875 
Q 20.953125 51.171875 25.484375 53.578125 
Q 30.03125 56 36.53125 56 
Q 37.453125 56 38.578125 55.875 
Q 39.703125 55.765625 41.0625 55.515625 
z
" id="DejaVuSans-114"/>
      <path d="M 8.5 21.578125 
L 8.5 54.6875 
L 17.484375 54.6875 
L 17.484375 21.921875 
Q 17.484375 14.15625 20.5 10.265625 
Q 23.53125 6.390625 29.59375 6.390625 
Q 36.859375 6.390625 41.078125 11.03125 
Q 45.3125 15.671875 45.3125 23.6875 
L 45.3125 54.6875 
L 54.296875 54.6875 
L 54.296875 0 
L 45.3125 0 
L 45.3125 8.40625 
Q 42.046875 3.421875 37.71875 1 
Q 33.40625 -1.421875 27.6875 -1.421875 
Q 18.265625 -1.421875 13.375 4.4375 
Q 8.5 10.296875 8.5 21.578125 
z
M 31.109375 56 
z
" id="DejaVuSans-117"/>
     </defs>
     <g transform="translate(18.737187 210.086094)rotate(-90)scale(0.1 -0.1)">
      <use xlink:href="#DejaVuSans-84"/>
      <use x="60.865234" xlink:href="#DejaVuSans-114"/>
      <use x="101.978516" xlink:href="#DejaVuSans-117"/>
      <use x="165.357422" xlink:href="#DejaVuSans-101"/>
      <use x="226.880859" xlink:href="#DejaVuSans-32"/>
      <use x="258.667969" xlink:href="#DejaVuSans-80"/>
      <use x="318.923828" xlink:href="#DejaVuSans-111"/>
      <use x="380.105469" xlink:href="#DejaVuSans-115"/>
      <use x="432.205078" xlink:href="#DejaVuSans-105"/>
      <use x="459.988281" xlink:href="#DejaVuSans-116"/>
      <use x="499.197266" xlink:href="#DejaVuSans-105"/>
      <use x="526.980469" xlink:href="#DejaVuSans-118"/>
      <use x="586.160156" xlink:href="#DejaVuSans-101"/>
      <use x="647.683594" xlink:href="#DejaVuSans-32"/>
      <use x="679.470703" xlink:href="#DejaVuSans-82"/>
      <use x="748.921875" xlink:href="#DejaVuSans-97"/>
      <use x="810.201172" xlink:href="#DejaVuSans-116"/>
      <use x="849.410156" xlink:href="#DejaVuSans-101"/>
     </g>
    </g>
   </g>
   <g id="line2d_13">
    <path clip-path="url(#pa266d5bdfa)" d="M 66.005455 290.994545 
L 79.066494 261.898809 
L 79.066494 257.422542 
L 79.066494 252.946275 
L 82.331753 252.946275 
L 82.331753 250.708142 
L 88.862273 250.708142 
L 88.862273 248.470008 
L 92.127532 248.470008 
L 92.127532 246.231874 
L 95.392792 246.231874 
L 95.392792 243.993741 
L 98.658052 243.993741 
L 98.658052 241.755607 
L 101.923312 241.755607 
L 105.188571 239.517474 
L 105.188571 235.041207 
L 105.188571 232.803073 
L 108.453831 230.56494 
L 108.453831 223.850539 
L 111.719091 217.136138 
L 118.24961 217.136138 
L 118.24961 214.898005 
L 124.78013 212.659871 
L 131.310649 212.659871 
L 131.310649 210.421738 
L 137.841169 210.421738 
L 137.841169 208.183604 
L 141.106429 208.183604 
L 144.371688 205.945471 
L 147.636948 205.945471 
L 147.636948 201.469204 
L 150.902208 201.469204 
L 154.167468 199.23107 
L 157.432727 199.23107 
L 157.432727 190.278536 
L 160.697987 190.278536 
L 160.697987 188.040402 
L 163.963247 188.040402 
L 163.963247 185.802269 
L 167.228506 183.564135 
L 167.228506 181.326002 
L 173.759026 181.326002 
L 177.024286 179.087868 
L 183.554805 179.087868 
L 183.554805 176.849735 
L 186.820065 174.611601 
L 190.085325 174.611601 
L 190.085325 163.420933 
L 193.350584 163.420933 
L 193.350584 161.1828 
L 196.615844 161.1828 
L 199.881104 158.944666 
L 199.881104 156.706533 
L 206.411623 156.706533 
L 206.411623 154.468399 
L 216.207403 154.468399 
L 216.207403 149.992132 
L 226.003182 143.277731 
L 226.003182 141.039598 
L 235.798961 141.039598 
L 235.798961 132.087064 
L 235.798961 129.84893 
L 239.064221 129.84893 
L 239.064221 127.610796 
L 245.59474 127.610796 
L 245.59474 125.372663 
L 248.86 120.896396 
L 255.390519 120.896396 
L 255.390519 116.420129 
L 258.655779 116.420129 
L 261.921039 114.181995 
L 261.921039 109.705728 
L 265.186299 109.705728 
L 271.716818 107.467595 
L 274.982078 107.467595 
L 278.247338 105.229461 
L 278.247338 100.753194 
L 284.777857 100.753194 
L 284.777857 96.276927 
L 291.308377 96.276927 
L 291.308377 94.038793 
L 294.573636 94.038793 
L 294.573636 91.80066 
L 297.838896 87.324393 
L 301.104156 87.324393 
L 301.104156 85.086259 
L 304.369416 85.086259 
L 317.430455 82.848126 
L 320.695714 80.609992 
L 320.695714 78.371858 
L 330.491494 78.371858 
L 330.491494 76.133725 
L 340.287273 76.133725 
L 340.287273 73.895591 
L 343.552532 73.895591 
L 346.817792 71.657458 
L 353.348312 71.657458 
L 353.348312 69.419324 
L 359.878831 69.419324 
L 359.878831 67.181191 
L 372.93987 67.181191 
L 372.93987 64.943057 
L 379.47039 64.943057 
L 379.47039 62.704924 
L 399.061948 62.704924 
L 399.061948 55.990523 
L 402.327208 53.752389 
L 405.592468 53.752389 
L 412.122987 51.514256 
L 431.714545 38.085455 
" style="fill:none;stroke:#1f77b4;stroke-linecap:square;stroke-opacity:0.3;"/>
   </g>
   <g id="line2d_14">
    <path clip-path="url(#pa266d5bdfa)" d="M 66.005455 290.994545 
L 72.478182 279.703961 
L 72.478182 275.187727 
L 78.950909 268.413377 
L 78.950909 263.897143 
L 82.187273 263.897143 
L 82.187273 261.639026 
L 85.423636 261.639026 
L 85.423636 257.122792 
L 88.66 257.122792 
L 88.66 252.606558 
L 91.896364 252.606558 
L 91.896364 243.574091 
L 95.132727 241.315974 
L 95.132727 239.057857 
L 95.132727 234.541623 
L 95.132727 232.283506 
L 98.369091 232.283506 
L 104.841818 223.251039 
L 108.078182 223.251039 
L 108.078182 220.992922 
L 108.078182 216.476688 
L 108.078182 214.218571 
L 111.314545 214.218571 
L 111.314545 209.702338 
L 114.550909 207.444221 
L 114.550909 200.66987 
L 117.787273 200.66987 
L 117.787273 198.411753 
L 124.26 198.411753 
L 124.26 196.153636 
L 133.969091 193.895519 
L 133.969091 191.637403 
L 140.441818 191.637403 
L 140.441818 189.379286 
L 143.678182 189.379286 
L 143.678182 184.863052 
L 143.678182 180.346818 
L 143.678182 178.088701 
L 150.150909 175.830584 
L 153.387273 173.572468 
L 153.387273 171.314351 
L 156.623636 171.314351 
L 156.623636 166.798117 
L 163.096364 164.54 
L 163.096364 160.023766 
L 166.332727 160.023766 
L 169.569091 157.765649 
L 169.569091 150.991299 
L 172.805455 150.991299 
L 172.805455 144.216948 
L 185.750909 144.216948 
L 185.750909 139.700714 
L 188.987273 137.442597 
L 188.987273 130.668247 
L 195.46 130.668247 
L 201.932727 130.668247 
L 205.169091 130.668247 
L 205.169091 128.41013 
L 208.405455 128.41013 
L 208.405455 126.152013 
L 214.878182 126.152013 
L 214.878182 121.635779 
L 224.587273 121.635779 
L 224.587273 112.603312 
L 234.296364 112.603312 
L 237.532727 110.345195 
L 237.532727 108.087078 
L 247.241818 108.087078 
L 247.241818 105.828961 
L 250.478182 105.828961 
L 253.714545 103.570844 
L 253.714545 99.05461 
L 256.950909 99.05461 
L 256.950909 94.538377 
L 266.66 94.538377 
L 266.66 92.28026 
L 276.369091 92.28026 
L 276.369091 90.022143 
L 286.078182 90.022143 
L 286.078182 87.764026 
L 292.550909 87.764026 
L 295.787273 80.989675 
L 299.023636 80.989675 
L 308.732727 80.989675 
L 308.732727 78.731558 
L 308.732727 74.215325 
L 315.205455 74.215325 
L 321.678182 71.957208 
L 324.914545 71.957208 
L 324.914545 67.440974 
L 347.569091 67.440974 
L 347.569091 65.182857 
L 350.805455 62.92474 
L 354.041818 62.92474 
L 354.041818 60.666623 
L 366.987273 60.666623 
L 366.987273 58.408506 
L 379.932727 58.408506 
L 379.932727 53.892273 
L 383.169091 53.892273 
L 383.169091 51.634156 
L 402.587273 51.634156 
L 409.06 51.634156 
L 412.296364 51.634156 
L 431.714545 38.085455 
" style="fill:none;stroke:#ff7f0e;stroke-linecap:square;stroke-opacity:0.3;"/>
   </g>
   <g id="line2d_15">
    <path clip-path="url(#pa266d5bdfa)" d="M 66.005455 290.994545 
L 72.535974 272.92961 
L 72.535974 266.15526 
L 75.801234 266.15526 
L 75.801234 261.639026 
L 75.801234 257.122792 
L 75.801234 250.348442 
L 85.597013 250.348442 
L 85.597013 248.090325 
L 85.597013 243.574091 
L 88.862273 241.315974 
L 92.127532 241.315974 
L 92.127532 236.79974 
L 95.392792 234.541623 
L 95.392792 227.767273 
L 101.923312 227.767273 
L 101.923312 225.509156 
L 101.923312 218.734805 
L 101.923312 214.218571 
L 101.923312 205.186104 
L 101.923312 200.66987 
L 101.923312 196.153636 
L 105.188571 196.153636 
L 108.453831 193.895519 
L 108.453831 191.637403 
L 111.719091 191.637403 
L 111.719091 182.604935 
L 114.984351 180.346818 
L 114.984351 175.830584 
L 118.24961 173.572468 
L 121.51487 173.572468 
L 121.51487 171.314351 
L 131.310649 171.314351 
L 131.310649 166.798117 
L 134.575909 166.798117 
L 137.841169 164.54 
L 141.106429 164.54 
L 141.106429 157.765649 
L 144.371688 155.507532 
L 147.636948 155.507532 
L 147.636948 150.991299 
L 150.902208 148.733182 
L 150.902208 146.475065 
L 150.902208 141.958831 
L 154.167468 141.958831 
L 154.167468 139.700714 
L 157.432727 139.700714 
L 157.432727 137.442597 
L 167.228506 137.442597 
L 170.493766 135.184481 
L 173.759026 135.184481 
L 173.759026 132.926364 
L 177.024286 130.668247 
L 190.085325 121.635779 
L 190.085325 119.377662 
L 190.085325 114.861429 
L 203.146364 114.861429 
L 203.146364 108.087078 
L 206.411623 108.087078 
L 206.411623 105.828961 
L 212.942143 105.828961 
L 212.942143 101.312727 
L 222.737922 101.312727 
L 222.737922 99.05461 
L 226.003182 96.796494 
L 229.268442 96.796494 
L 232.533701 94.538377 
L 232.533701 92.28026 
L 235.798961 92.28026 
L 235.798961 83.247792 
L 239.064221 83.247792 
L 239.064221 80.989675 
L 245.59474 80.989675 
L 245.59474 78.731558 
L 252.12526 78.731558 
L 255.390519 74.215325 
L 261.921039 74.215325 
L 261.921039 69.699091 
L 281.512597 69.699091 
L 281.512597 67.440974 
L 284.777857 62.92474 
L 288.043117 62.92474 
L 291.308377 60.666623 
L 304.369416 60.666623 
L 307.634675 58.408506 
L 314.165195 58.408506 
L 314.165195 56.15039 
L 327.226234 56.15039 
L 327.226234 53.892273 
L 330.491494 51.634156 
L 333.756753 51.634156 
L 340.287273 51.634156 
L 340.287273 49.376039 
L 346.817792 49.376039 
L 346.817792 47.117922 
L 353.348312 47.117922 
L 353.348312 42.601688 
L 376.20513 42.601688 
L 376.20513 40.343571 
L 386.000909 40.343571 
L 392.531429 40.343571 
L 399.061948 38.085455 
L 402.327208 38.085455 
L 431.714545 38.085455 
" style="fill:none;stroke:#2ca02c;stroke-linecap:square;stroke-opacity:0.3;"/>
   </g>
   <g id="line2d_16">
    <path clip-path="url(#pa266d5bdfa)" d="M 66.005455 290.994545 
L 82.331753 279.703961 
L 82.331753 275.187727 
L 82.331753 268.413377 
L 85.597013 268.413377 
L 85.597013 259.380909 
L 88.862273 257.122792 
L 88.862273 254.864675 
L 95.392792 254.864675 
L 95.392792 250.348442 
L 98.658052 243.574091 
L 98.658052 239.057857 
L 101.923312 236.79974 
L 111.719091 234.541623 
L 114.984351 234.541623 
L 114.984351 232.283506 
L 118.24961 232.283506 
L 118.24961 225.509156 
L 118.24961 220.992922 
L 121.51487 216.476688 
L 124.78013 216.476688 
L 124.78013 214.218571 
L 128.04539 214.218571 
L 128.04539 209.702338 
L 128.04539 207.444221 
L 131.310649 207.444221 
L 131.310649 202.927987 
L 131.310649 193.895519 
L 131.310649 189.379286 
L 134.575909 189.379286 
L 134.575909 184.863052 
L 137.841169 184.863052 
L 137.841169 180.346818 
L 141.106429 180.346818 
L 144.371688 178.088701 
L 144.371688 175.830584 
L 154.167468 175.830584 
L 157.432727 175.830584 
L 157.432727 173.572468 
L 160.697987 173.572468 
L 160.697987 169.056234 
L 163.963247 169.056234 
L 163.963247 166.798117 
L 170.493766 166.798117 
L 170.493766 164.54 
L 173.759026 164.54 
L 173.759026 160.023766 
L 177.024286 160.023766 
L 177.024286 155.507532 
L 180.289545 155.507532 
L 180.289545 148.733182 
L 186.820065 148.733182 
L 190.085325 148.733182 
L 190.085325 144.216948 
L 190.085325 132.926364 
L 196.615844 130.668247 
L 199.881104 130.668247 
L 199.881104 126.152013 
L 203.146364 126.152013 
L 203.146364 123.893896 
L 209.676883 123.893896 
L 209.676883 121.635779 
L 216.207403 121.635779 
L 226.003182 121.635779 
L 226.003182 117.119545 
L 229.268442 117.119545 
L 229.268442 112.603312 
L 232.533701 112.603312 
L 232.533701 108.087078 
L 235.798961 108.087078 
L 248.86 108.087078 
L 258.655779 108.087078 
L 258.655779 103.570844 
L 268.451558 103.570844 
L 268.451558 101.312727 
L 271.716818 101.312727 
L 271.716818 99.05461 
L 278.247338 99.05461 
L 278.247338 96.796494 
L 284.777857 94.538377 
L 288.043117 94.538377 
L 288.043117 87.764026 
L 291.308377 87.764026 
L 294.573636 85.505909 
L 301.104156 85.505909 
L 304.369416 83.247792 
L 304.369416 80.989675 
L 307.634675 78.731558 
L 314.165195 74.215325 
L 317.430455 74.215325 
L 317.430455 71.957208 
L 323.960974 71.957208 
L 330.491494 71.957208 
L 330.491494 69.699091 
L 337.022013 69.699091 
L 337.022013 67.440974 
L 346.817792 67.440974 
L 346.817792 65.182857 
L 350.083052 65.182857 
L 350.083052 62.92474 
L 382.735649 62.92474 
L 389.266169 60.666623 
L 402.327208 56.15039 
L 405.592468 56.15039 
L 431.714545 38.085455 
" style="fill:none;stroke:#d62728;stroke-linecap:square;stroke-opacity:0.3;"/>
   </g>
   <g id="line2d_17">
    <path clip-path="url(#pa266d5bdfa)" d="M 66.005455 290.994545 
L 69.270714 281.962078 
L 75.801234 277.445844 
L 82.331753 275.187727 
L 82.331753 266.15526 
L 88.862273 266.15526 
L 88.862273 250.348442 
L 88.862273 245.832208 
L 92.127532 243.574091 
L 98.658052 243.574091 
L 105.188571 239.057857 
L 105.188571 234.541623 
L 105.188571 230.02539 
L 105.188571 225.509156 
L 111.719091 216.476688 
L 111.719091 214.218571 
L 114.984351 214.218571 
L 114.984351 211.960455 
L 114.984351 205.186104 
L 118.24961 205.186104 
L 118.24961 200.66987 
L 118.24961 198.411753 
L 118.24961 193.895519 
L 118.24961 191.637403 
L 128.04539 191.637403 
L 128.04539 189.379286 
L 131.310649 189.379286 
L 131.310649 187.121169 
L 134.575909 184.863052 
L 137.841169 184.863052 
L 137.841169 178.088701 
L 147.636948 178.088701 
L 147.636948 175.830584 
L 154.167468 171.314351 
L 157.432727 171.314351 
L 157.432727 169.056234 
L 160.697987 169.056234 
L 163.963247 164.54 
L 163.963247 160.023766 
L 170.493766 160.023766 
L 170.493766 157.765649 
L 173.759026 157.765649 
L 177.024286 155.507532 
L 180.289545 155.507532 
L 180.289545 153.249416 
L 196.615844 146.475065 
L 209.676883 146.475065 
L 209.676883 141.958831 
L 212.942143 141.958831 
L 219.472662 141.958831 
L 219.472662 139.700714 
L 226.003182 139.700714 
L 226.003182 135.184481 
L 229.268442 132.926364 
L 232.533701 132.926364 
L 232.533701 128.41013 
L 232.533701 126.152013 
L 235.798961 126.152013 
L 235.798961 112.603312 
L 242.329481 112.603312 
L 242.329481 108.087078 
L 242.329481 103.570844 
L 248.86 103.570844 
L 252.12526 103.570844 
L 252.12526 101.312727 
L 252.12526 96.796494 
L 255.390519 96.796494 
L 255.390519 94.538377 
L 261.921039 94.538377 
L 261.921039 87.764026 
L 265.186299 87.764026 
L 271.716818 83.247792 
L 278.247338 83.247792 
L 294.573636 83.247792 
L 301.104156 80.989675 
L 304.369416 78.731558 
L 304.369416 76.473442 
L 307.634675 76.473442 
L 320.695714 76.473442 
L 323.960974 76.473442 
L 330.491494 71.957208 
L 340.287273 71.957208 
L 343.552532 69.699091 
L 346.817792 69.699091 
L 346.817792 65.182857 
L 350.083052 65.182857 
L 350.083052 62.92474 
L 353.348312 62.92474 
L 353.348312 60.666623 
L 363.144091 60.666623 
L 363.144091 53.892273 
L 376.20513 53.892273 
L 376.20513 51.634156 
L 382.735649 51.634156 
L 382.735649 49.376039 
L 386.000909 49.376039 
L 386.000909 47.117922 
L 392.531429 47.117922 
L 395.796688 47.117922 
L 399.061948 44.859805 
L 399.061948 42.601688 
L 431.714545 38.085455 
" style="fill:none;stroke:#9467bd;stroke-linecap:square;stroke-opacity:0.3;"/>
   </g>
   <g id="line2d_18">
    <path clip-path="url(#pa266d5bdfa)" d="M 66.005455 290.994545 
L 82.331753 261.639026 
L 82.331753 257.122792 
L 92.127532 254.864675 
L 92.127532 252.606558 
L 92.127532 248.090325 
L 95.392792 248.090325 
L 95.392792 245.832208 
L 98.658052 245.832208 
L 98.658052 239.057857 
L 108.453831 239.057857 
L 108.453831 236.79974 
L 114.984351 234.541623 
L 114.984351 216.476688 
L 121.51487 216.476688 
L 121.51487 211.960455 
L 124.78013 209.702338 
L 131.310649 209.702338 
L 134.575909 200.66987 
L 134.575909 198.411753 
L 134.575909 189.379286 
L 144.371688 189.379286 
L 144.371688 187.121169 
L 147.636948 187.121169 
L 150.902208 184.863052 
L 150.902208 180.346818 
L 154.167468 180.346818 
L 154.167468 175.830584 
L 157.432727 175.830584 
L 157.432727 171.314351 
L 163.963247 171.314351 
L 163.963247 169.056234 
L 163.963247 164.54 
L 163.963247 162.281883 
L 167.228506 162.281883 
L 167.228506 160.023766 
L 170.493766 160.023766 
L 170.493766 155.507532 
L 173.759026 155.507532 
L 173.759026 148.733182 
L 177.024286 144.216948 
L 186.820065 144.216948 
L 190.085325 141.958831 
L 190.085325 139.700714 
L 206.411623 139.700714 
L 206.411623 130.668247 
L 209.676883 130.668247 
L 209.676883 128.41013 
L 212.942143 126.152013 
L 216.207403 126.152013 
L 222.737922 126.152013 
L 226.003182 126.152013 
L 226.003182 114.861429 
L 229.268442 112.603312 
L 229.268442 110.345195 
L 232.533701 110.345195 
L 232.533701 108.087078 
L 235.798961 108.087078 
L 235.798961 103.570844 
L 239.064221 103.570844 
L 239.064221 101.312727 
L 245.59474 101.312727 
L 252.12526 96.796494 
L 255.390519 96.796494 
L 255.390519 94.538377 
L 255.390519 90.022143 
L 258.655779 90.022143 
L 261.921039 85.505909 
L 265.186299 85.505909 
L 265.186299 83.247792 
L 271.716818 83.247792 
L 274.982078 83.247792 
L 274.982078 78.731558 
L 278.247338 78.731558 
L 284.777857 78.731558 
L 288.043117 78.731558 
L 291.308377 76.473442 
L 297.838896 76.473442 
L 297.838896 74.215325 
L 301.104156 74.215325 
L 301.104156 71.957208 
L 304.369416 71.957208 
L 304.369416 69.699091 
L 317.430455 69.699091 
L 317.430455 65.182857 
L 323.960974 65.182857 
L 323.960974 62.92474 
L 330.491494 60.666623 
L 333.756753 60.666623 
L 333.756753 58.408506 
L 337.022013 58.408506 
L 340.287273 56.15039 
L 350.083052 56.15039 
L 350.083052 53.892273 
L 356.613571 53.892273 
L 356.613571 51.634156 
L 359.878831 51.634156 
L 366.409351 51.634156 
L 366.409351 49.376039 
L 372.93987 49.376039 
L 372.93987 47.117922 
L 386.000909 47.117922 
L 386.000909 44.859805 
L 389.266169 44.859805 
L 392.531429 42.601688 
L 395.796688 42.601688 
L 431.714545 38.085455 
" style="fill:none;stroke:#8c564b;stroke-linecap:square;stroke-opacity:0.3;"/>
   </g>
   <g id="line2d_19">
    <path clip-path="url(#pa266d5bdfa)" d="M 66.005455 290.994545 
L 79.066494 263.897143 
L 79.066494 259.380909 
L 82.331753 259.380909 
L 82.331753 257.122792 
L 85.597013 257.122792 
L 85.597013 254.864675 
L 88.862273 254.864675 
L 88.862273 248.090325 
L 92.127532 248.090325 
L 92.127532 239.057857 
L 95.392792 239.057857 
L 95.392792 234.541623 
L 101.923312 234.541623 
L 101.923312 230.02539 
L 114.984351 230.02539 
L 114.984351 225.509156 
L 114.984351 220.992922 
L 114.984351 214.218571 
L 114.984351 209.702338 
L 118.24961 209.702338 
L 118.24961 202.927987 
L 121.51487 202.927987 
L 121.51487 198.411753 
L 128.04539 198.411753 
L 128.04539 193.895519 
L 134.575909 193.895519 
L 134.575909 191.637403 
L 141.106429 191.637403 
L 141.106429 189.379286 
L 144.371688 187.121169 
L 147.636948 187.121169 
L 147.636948 180.346818 
L 154.167468 175.830584 
L 154.167468 171.314351 
L 154.167468 169.056234 
L 157.432727 169.056234 
L 160.697987 166.798117 
L 160.697987 153.249416 
L 163.963247 150.991299 
L 163.963247 146.475065 
L 167.228506 146.475065 
L 167.228506 141.958831 
L 177.024286 137.442597 
L 186.820065 130.668247 
L 186.820065 126.152013 
L 190.085325 126.152013 
L 190.085325 121.635779 
L 190.085325 114.861429 
L 193.350584 114.861429 
L 193.350584 112.603312 
L 193.350584 108.087078 
L 196.615844 108.087078 
L 196.615844 103.570844 
L 199.881104 103.570844 
L 206.411623 103.570844 
L 206.411623 96.796494 
L 206.411623 92.28026 
L 206.411623 87.764026 
L 209.676883 85.505909 
L 212.942143 85.505909 
L 212.942143 83.247792 
L 216.207403 83.247792 
L 216.207403 78.731558 
L 222.737922 78.731558 
L 226.003182 74.215325 
L 235.798961 74.215325 
L 248.86 71.957208 
L 255.390519 71.957208 
L 258.655779 71.957208 
L 258.655779 67.440974 
L 265.186299 67.440974 
L 265.186299 62.92474 
L 271.716818 62.92474 
L 274.982078 58.408506 
L 281.512597 58.408506 
L 288.043117 56.15039 
L 297.838896 56.15039 
L 301.104156 53.892273 
L 343.552532 53.892273 
L 343.552532 49.376039 
L 346.817792 49.376039 
L 350.083052 47.117922 
L 353.348312 47.117922 
L 359.878831 47.117922 
L 363.144091 47.117922 
L 372.93987 47.117922 
L 431.714545 38.085455 
" style="fill:none;stroke:#e377c2;stroke-linecap:square;stroke-opacity:0.3;"/>
   </g>
   <g id="line2d_20">
    <path clip-path="url(#pa266d5bdfa)" d="M 66.005455 290.994545 
L 75.801234 270.671494 
L 75.801234 268.413377 
L 75.801234 263.897143 
L 75.801234 261.639026 
L 79.066494 261.639026 
L 79.066494 259.380909 
L 82.331753 259.380909 
L 82.331753 252.606558 
L 88.862273 252.606558 
L 88.862273 250.348442 
L 92.127532 250.348442 
L 92.127532 245.832208 
L 92.127532 241.315974 
L 95.392792 236.79974 
L 98.658052 236.79974 
L 98.658052 230.02539 
L 105.188571 230.02539 
L 108.453831 230.02539 
L 108.453831 227.767273 
L 111.719091 223.251039 
L 111.719091 220.992922 
L 111.719091 214.218571 
L 111.719091 205.186104 
L 111.719091 196.153636 
L 118.24961 196.153636 
L 121.51487 193.895519 
L 124.78013 193.895519 
L 124.78013 189.379286 
L 128.04539 189.379286 
L 128.04539 184.863052 
L 131.310649 184.863052 
L 131.310649 171.314351 
L 134.575909 162.281883 
L 141.106429 162.281883 
L 141.106429 160.023766 
L 147.636948 160.023766 
L 147.636948 157.765649 
L 150.902208 157.765649 
L 150.902208 153.249416 
L 157.432727 153.249416 
L 157.432727 148.733182 
L 160.697987 148.733182 
L 160.697987 144.216948 
L 163.963247 144.216948 
L 163.963247 141.958831 
L 173.759026 141.958831 
L 173.759026 139.700714 
L 180.289545 139.700714 
L 183.554805 137.442597 
L 193.350584 137.442597 
L 193.350584 135.184481 
L 193.350584 130.668247 
L 193.350584 128.41013 
L 203.146364 128.41013 
L 203.146364 119.377662 
L 209.676883 119.377662 
L 212.942143 117.119545 
L 212.942143 112.603312 
L 212.942143 110.345195 
L 216.207403 110.345195 
L 216.207403 108.087078 
L 219.472662 99.05461 
L 219.472662 96.796494 
L 222.737922 96.796494 
L 222.737922 94.538377 
L 232.533701 94.538377 
L 232.533701 92.28026 
L 235.798961 90.022143 
L 235.798961 87.764026 
L 242.329481 87.764026 
L 245.59474 87.764026 
L 245.59474 83.247792 
L 252.12526 83.247792 
L 255.390519 83.247792 
L 255.390519 78.731558 
L 255.390519 74.215325 
L 255.390519 67.440974 
L 261.921039 67.440974 
L 268.451558 67.440974 
L 268.451558 65.182857 
L 271.716818 65.182857 
L 281.512597 62.92474 
L 284.777857 62.92474 
L 297.838896 60.666623 
L 301.104156 58.408506 
L 310.899935 58.408506 
L 310.899935 56.15039 
L 323.960974 56.15039 
L 323.960974 53.892273 
L 340.287273 53.892273 
L 343.552532 51.634156 
L 343.552532 49.376039 
L 350.083052 49.376039 
L 350.083052 47.117922 
L 356.613571 47.117922 
L 372.93987 47.117922 
L 372.93987 44.859805 
L 376.20513 44.859805 
L 376.20513 40.343571 
L 379.47039 40.343571 
L 379.47039 38.085455 
L 386.000909 38.085455 
L 399.061948 38.085455 
L 402.327208 38.085455 
L 431.714545 38.085455 
" style="fill:none;stroke:#7f7f7f;stroke-linecap:square;stroke-opacity:0.3;"/>
   </g>
   <g id="line2d_21">
    <path clip-path="url(#pa266d5bdfa)" d="M 66.005455 290.994545 
L 75.801234 263.897143 
L 75.801234 259.380909 
L 75.801234 248.090325 
L 79.066494 248.090325 
L 79.066494 230.02539 
L 79.066494 225.509156 
L 79.066494 223.251039 
L 82.331753 223.251039 
L 82.331753 216.476688 
L 85.597013 216.476688 
L 92.127532 214.218571 
L 95.392792 211.960455 
L 95.392792 200.66987 
L 98.658052 200.66987 
L 98.658052 198.411753 
L 105.188571 193.895519 
L 105.188571 187.121169 
L 105.188571 184.863052 
L 105.188571 175.830584 
L 108.453831 175.830584 
L 108.453831 173.572468 
L 111.719091 173.572468 
L 111.719091 171.314351 
L 114.984351 169.056234 
L 114.984351 166.798117 
L 118.24961 166.798117 
L 118.24961 162.281883 
L 118.24961 157.765649 
L 118.24961 155.507532 
L 124.78013 153.249416 
L 128.04539 153.249416 
L 128.04539 148.733182 
L 128.04539 144.216948 
L 131.310649 144.216948 
L 131.310649 139.700714 
L 134.575909 139.700714 
L 137.841169 137.442597 
L 137.841169 132.926364 
L 144.371688 126.152013 
L 144.371688 123.893896 
L 150.902208 123.893896 
L 150.902208 121.635779 
L 154.167468 121.635779 
L 154.167468 119.377662 
L 163.963247 117.119545 
L 163.963247 114.861429 
L 167.228506 114.861429 
L 173.759026 112.603312 
L 173.759026 108.087078 
L 177.024286 108.087078 
L 180.289545 105.828961 
L 183.554805 105.828961 
L 183.554805 103.570844 
L 183.554805 99.05461 
L 183.554805 96.796494 
L 196.615844 96.796494 
L 196.615844 94.538377 
L 203.146364 94.538377 
L 216.207403 94.538377 
L 222.737922 94.538377 
L 222.737922 90.022143 
L 229.268442 87.764026 
L 235.798961 87.764026 
L 235.798961 85.505909 
L 265.186299 85.505909 
L 271.716818 85.505909 
L 274.982078 85.505909 
L 274.982078 83.247792 
L 278.247338 83.247792 
L 281.512597 80.989675 
L 284.777857 80.989675 
L 284.777857 78.731558 
L 291.308377 76.473442 
L 291.308377 69.699091 
L 297.838896 69.699091 
L 304.369416 69.699091 
L 304.369416 67.440974 
L 307.634675 62.92474 
L 314.165195 62.92474 
L 317.430455 62.92474 
L 320.695714 60.666623 
L 323.960974 60.666623 
L 323.960974 58.408506 
L 327.226234 58.408506 
L 327.226234 56.15039 
L 333.756753 56.15039 
L 340.287273 56.15039 
L 343.552532 53.892273 
L 350.083052 53.892273 
L 350.083052 51.634156 
L 379.47039 51.634156 
L 386.000909 44.859805 
L 395.796688 42.601688 
L 399.061948 42.601688 
L 431.714545 38.085455 
" style="fill:none;stroke:#bcbd22;stroke-linecap:square;stroke-opacity:0.3;"/>
   </g>
   <g id="line2d_22">
    <path clip-path="url(#pa266d5bdfa)" d="M 66.005455 290.994545 
L 75.801234 266.15526 
L 79.066494 263.897143 
L 79.066494 259.380909 
L 79.066494 250.348442 
L 95.392792 250.348442 
L 95.392792 248.090325 
L 98.658052 248.090325 
L 98.658052 245.832208 
L 101.923312 245.832208 
L 101.923312 243.574091 
L 108.453831 243.574091 
L 108.453831 234.541623 
L 111.719091 230.02539 
L 114.984351 230.02539 
L 114.984351 227.767273 
L 118.24961 227.767273 
L 118.24961 223.251039 
L 118.24961 218.734805 
L 118.24961 214.218571 
L 121.51487 211.960455 
L 121.51487 209.702338 
L 131.310649 209.702338 
L 131.310649 207.444221 
L 137.841169 207.444221 
L 137.841169 202.927987 
L 144.371688 202.927987 
L 144.371688 198.411753 
L 144.371688 193.895519 
L 160.697987 193.895519 
L 160.697987 191.637403 
L 163.963247 191.637403 
L 163.963247 187.121169 
L 167.228506 187.121169 
L 167.228506 182.604935 
L 170.493766 182.604935 
L 170.493766 178.088701 
L 180.289545 178.088701 
L 180.289545 173.572468 
L 183.554805 173.572468 
L 183.554805 171.314351 
L 186.820065 169.056234 
L 186.820065 162.281883 
L 190.085325 157.765649 
L 190.085325 153.249416 
L 196.615844 153.249416 
L 196.615844 139.700714 
L 199.881104 132.926364 
L 203.146364 132.926364 
L 203.146364 130.668247 
L 206.411623 126.152013 
L 206.411623 123.893896 
L 209.676883 123.893896 
L 209.676883 117.119545 
L 212.942143 117.119545 
L 222.737922 114.861429 
L 222.737922 110.345195 
L 226.003182 108.087078 
L 229.268442 108.087078 
L 235.798961 108.087078 
L 235.798961 101.312727 
L 239.064221 101.312727 
L 245.59474 101.312727 
L 245.59474 96.796494 
L 258.655779 96.796494 
L 258.655779 94.538377 
L 268.451558 94.538377 
L 278.247338 92.28026 
L 284.777857 92.28026 
L 288.043117 92.28026 
L 291.308377 87.764026 
L 291.308377 83.247792 
L 294.573636 80.989675 
L 297.838896 80.989675 
L 304.369416 80.989675 
L 304.369416 78.731558 
L 307.634675 74.215325 
L 310.899935 71.957208 
L 314.165195 71.957208 
L 320.695714 69.699091 
L 343.552532 69.699091 
L 343.552532 67.440974 
L 350.083052 67.440974 
L 363.144091 67.440974 
L 366.409351 67.440974 
L 369.67461 65.182857 
L 369.67461 60.666623 
L 376.20513 60.666623 
L 376.20513 58.408506 
L 382.735649 58.408506 
L 386.000909 56.15039 
L 386.000909 53.892273 
L 389.266169 53.892273 
L 392.531429 51.634156 
L 395.796688 51.634156 
L 431.714545 38.085455 
" style="fill:none;stroke:#17becf;stroke-linecap:square;stroke-opacity:0.3;"/>
   </g>
   <g id="line2d_23">
    <path clip-path="url(#pa266d5bdfa)" d="M 66.005455 290.994545 
L 431.714545 38.085455 
" style="fill:none;stroke:#ff0000;stroke-dasharray:7.4,3.2;stroke-dashoffset:0;stroke-opacity:0.8;stroke-width:2;"/>
   </g>
   <g id="line2d_24">
    <path clip-path="url(#pa266d5bdfa)" d="M 66.005455 290.994545 
L 69.699486 283.161513 
L 73.393517 275.17794 
L 77.087548 266.14172 
L 80.781579 258.047922 
L 84.475611 253.044732 
L 88.169642 250.25668 
L 91.863673 245.90363 
L 95.557704 236.355868 
L 99.251736 232.984377 
L 102.945767 227.840754 
L 106.639798 222.793717 
L 110.333829 217.595018 
L 114.02786 211.550826 
L 117.721892 204.611109 
L 121.415923 197.385821 
L 125.109954 194.623128 
L 128.803985 191.827473 
L 132.498017 186.262491 
L 136.192048 182.679156 
L 139.886079 179.982819 
L 143.58011 177.561989 
L 147.274141 174.4262 
L 150.968173 169.517122 
L 154.662204 166.868644 
L 158.356235 163.73162 
L 162.050266 160.367352 
L 165.744298 156.156809 
L 169.438329 154.154402 
L 173.13236 151.064507 
L 176.826391 147.78147 
L 180.520422 145.162632 
L 184.214454 142.844876 
L 187.908485 139.940115 
L 191.602516 133.195828 
L 195.296547 131.110323 
L 198.990579 128.322203 
L 202.68461 127.400971 
L 206.378641 124.695793 
L 210.072672 119.444818 
L 213.766703 117.674059 
L 217.460735 115.579611 
L 221.154766 114.233084 
L 224.848797 111.028362 
L 228.542828 107.894794 
L 232.23686 106.886624 
L 235.930891 99.759598 
L 239.624922 98.682719 
L 243.318953 97.715606 
L 247.012984 96.006365 
L 250.707016 95.223987 
L 254.401047 93.472235 
L 258.095078 89.952201 
L 261.789109 88.174996 
L 265.48314 85.862884 
L 269.177172 84.786657 
L 272.871203 84.026745 
L 276.565234 82.552715 
L 280.259265 81.431344 
L 283.953297 80.540262 
L 287.647328 79.221892 
L 291.341359 76.079634 
L 295.03539 74.745574 
L 298.729421 73.678681 
L 302.423453 72.636015 
L 306.117484 70.482518 
L 309.811515 68.811165 
L 313.505546 68.191318 
L 317.199578 67.682096 
L 320.893609 66.077505 
L 324.58764 65.307692 
L 328.281671 63.94826 
L 331.975702 63.11658 
L 335.669734 62.890769 
L 339.363765 62.503011 
L 343.057796 61.414727 
L 346.751827 60.189546 
L 350.445859 57.500375 
L 354.13989 56.348225 
L 357.833921 56.122413 
L 361.527952 55.8986 
L 365.221983 55.221165 
L 368.916015 54.596191 
L 372.610046 54.092106 
L 376.304077 52.23591 
L 379.998108 51.22315 
L 383.69214 50.232341 
L 387.386171 48.939309 
L 391.080202 48.418751 
L 394.774233 47.870822 
L 398.468264 47.215896 
L 402.162296 45.588494 
L 405.856327 45.19945 
L 409.550358 44.472638 
L 413.244389 43.641246 
L 416.938421 42.530088 
L 420.632452 41.41893 
L 424.326483 40.307771 
L 428.020514 39.196613 
L 431.714545 38.085455 
" style="fill:none;stroke:#0000ff;stroke-linecap:square;stroke-opacity:0.8;stroke-width:2;"/>
   </g>
   <g id="patch_3">
    <path d="M 47.72 303.64 
L 47.72 25.44 
" style="fill:none;stroke:#000000;stroke-linecap:square;stroke-linejoin:miter;stroke-width:0.8;"/>
   </g>
   <g id="patch_4">
    <path d="M 450 303.64 
L 450 25.44 
" style="fill:none;stroke:#000000;stroke-linecap:square;stroke-linejoin:miter;stroke-width:0.8;"/>
   </g>
   <g id="patch_5">
    <path d="M 47.72 303.64 
L 450 303.64 
" style="fill:none;stroke:#000000;stroke-linecap:square;stroke-linejoin:miter;stroke-width:0.8;"/>
   </g>
   <g id="patch_6">
    <path d="M 47.72 25.44 
L 450 25.44 
" style="fill:none;stroke:#000000;stroke-linecap:square;stroke-linejoin:miter;stroke-width:0.8;"/>
   </g>
   <g id="text_15">
    <!-- Receiver operating characteristic: duplications -->
    <defs>
     <path d="M 48.78125 52.59375 
L 48.78125 44.1875 
Q 44.96875 46.296875 41.140625 47.34375 
Q 37.3125 48.390625 33.40625 48.390625 
Q 24.65625 48.390625 19.8125 42.84375 
Q 14.984375 37.3125 14.984375 27.296875 
Q 14.984375 17.28125 19.8125 11.734375 
Q 24.65625 6.203125 33.40625 6.203125 
Q 37.3125 6.203125 41.140625 7.25 
Q 44.96875 8.296875 48.78125 10.40625 
L 48.78125 2.09375 
Q 45.015625 0.34375 40.984375 -0.53125 
Q 36.96875 -1.421875 32.421875 -1.421875 
Q 20.0625 -1.421875 12.78125 6.34375 
Q 5.515625 14.109375 5.515625 27.296875 
Q 5.515625 40.671875 12.859375 48.328125 
Q 20.21875 56 33.015625 56 
Q 37.15625 56 41.109375 55.140625 
Q 45.0625 54.296875 48.78125 52.59375 
z
" id="DejaVuSans-99"/>
     <path d="M 18.109375 8.203125 
L 18.109375 -20.796875 
L 9.078125 -20.796875 
L 9.078125 54.6875 
L 18.109375 54.6875 
L 18.109375 46.390625 
Q 20.953125 51.265625 25.265625 53.625 
Q 29.59375 56 35.59375 56 
Q 45.5625 56 51.78125 48.09375 
Q 58.015625 40.1875 58.015625 27.296875 
Q 58.015625 14.40625 51.78125 6.484375 
Q 45.5625 -1.421875 35.59375 -1.421875 
Q 29.59375 -1.421875 25.265625 0.953125 
Q 20.953125 3.328125 18.109375 8.203125 
z
M 48.6875 27.296875 
Q 48.6875 37.203125 44.609375 42.84375 
Q 40.53125 48.484375 33.40625 48.484375 
Q 26.265625 48.484375 22.1875 42.84375 
Q 18.109375 37.203125 18.109375 27.296875 
Q 18.109375 17.390625 22.1875 11.75 
Q 26.265625 6.109375 33.40625 6.109375 
Q 40.53125 6.109375 44.609375 11.75 
Q 48.6875 17.390625 48.6875 27.296875 
z
" id="DejaVuSans-112"/>
     <path d="M 54.890625 33.015625 
L 54.890625 0 
L 45.90625 0 
L 45.90625 32.71875 
Q 45.90625 40.484375 42.875 44.328125 
Q 39.84375 48.1875 33.796875 48.1875 
Q 26.515625 48.1875 22.3125 43.546875 
Q 18.109375 38.921875 18.109375 30.90625 
L 18.109375 0 
L 9.078125 0 
L 9.078125 54.6875 
L 18.109375 54.6875 
L 18.109375 46.1875 
Q 21.34375 51.125 25.703125 53.5625 
Q 30.078125 56 35.796875 56 
Q 45.21875 56 50.046875 50.171875 
Q 54.890625 44.34375 54.890625 33.015625 
z
" id="DejaVuSans-110"/>
     <path d="M 45.40625 27.984375 
Q 45.40625 37.75 41.375 43.109375 
Q 37.359375 48.484375 30.078125 48.484375 
Q 22.859375 48.484375 18.828125 43.109375 
Q 14.796875 37.75 14.796875 27.984375 
Q 14.796875 18.265625 18.828125 12.890625 
Q 22.859375 7.515625 30.078125 7.515625 
Q 37.359375 7.515625 41.375 12.890625 
Q 45.40625 18.265625 45.40625 27.984375 
z
M 54.390625 6.78125 
Q 54.390625 -7.171875 48.1875 -13.984375 
Q 42 -20.796875 29.203125 -20.796875 
Q 24.46875 -20.796875 20.265625 -20.09375 
Q 16.0625 -19.390625 12.109375 -17.921875 
L 12.109375 -9.1875 
Q 16.0625 -11.328125 19.921875 -12.34375 
Q 23.78125 -13.375 27.78125 -13.375 
Q 36.625 -13.375 41.015625 -8.765625 
Q 45.40625 -4.15625 45.40625 5.171875 
L 45.40625 9.625 
Q 42.625 4.78125 38.28125 2.390625 
Q 33.9375 0 27.875 0 
Q 17.828125 0 11.671875 7.65625 
Q 5.515625 15.328125 5.515625 27.984375 
Q 5.515625 40.671875 11.671875 48.328125 
Q 17.828125 56 27.875 56 
Q 33.9375 56 38.28125 53.609375 
Q 42.625 51.21875 45.40625 46.390625 
L 45.40625 54.6875 
L 54.390625 54.6875 
z
" id="DejaVuSans-103"/>
     <path d="M 54.890625 33.015625 
L 54.890625 0 
L 45.90625 0 
L 45.90625 32.71875 
Q 45.90625 40.484375 42.875 44.328125 
Q 39.84375 48.1875 33.796875 48.1875 
Q 26.515625 48.1875 22.3125 43.546875 
Q 18.109375 38.921875 18.109375 30.90625 
L 18.109375 0 
L 9.078125 0 
L 9.078125 75.984375 
L 18.109375 75.984375 
L 18.109375 46.1875 
Q 21.34375 51.125 25.703125 53.5625 
Q 30.078125 56 35.796875 56 
Q 45.21875 56 50.046875 50.171875 
Q 54.890625 44.34375 54.890625 33.015625 
z
" id="DejaVuSans-104"/>
     <path d="M 11.71875 12.40625 
L 22.015625 12.40625 
L 22.015625 0 
L 11.71875 0 
z
M 11.71875 51.703125 
L 22.015625 51.703125 
L 22.015625 39.3125 
L 11.71875 39.3125 
z
" id="DejaVuSans-58"/>
     <path d="M 45.40625 46.390625 
L 45.40625 75.984375 
L 54.390625 75.984375 
L 54.390625 0 
L 45.40625 0 
L 45.40625 8.203125 
Q 42.578125 3.328125 38.25 0.953125 
Q 33.9375 -1.421875 27.875 -1.421875 
Q 17.96875 -1.421875 11.734375 6.484375 
Q 5.515625 14.40625 5.515625 27.296875 
Q 5.515625 40.1875 11.734375 48.09375 
Q 17.96875 56 27.875 56 
Q 33.9375 56 38.25 53.625 
Q 42.578125 51.265625 45.40625 46.390625 
z
M 14.796875 27.296875 
Q 14.796875 17.390625 18.875 11.75 
Q 22.953125 6.109375 30.078125 6.109375 
Q 37.203125 6.109375 41.296875 11.75 
Q 45.40625 17.390625 45.40625 27.296875 
Q 45.40625 37.203125 41.296875 42.84375 
Q 37.203125 48.484375 30.078125 48.484375 
Q 22.953125 48.484375 18.875 42.84375 
Q 14.796875 37.203125 14.796875 27.296875 
z
" id="DejaVuSans-100"/>
    </defs>
    <g transform="translate(108.75625 19.44)scale(0.12 -0.12)">
     <use xlink:href="#DejaVuSans-82"/>
     <use x="69.419922" xlink:href="#DejaVuSans-101"/>
     <use x="130.943359" xlink:href="#DejaVuSans-99"/>
     <use x="185.923828" xlink:href="#DejaVuSans-101"/>
     <use x="247.447266" xlink:href="#DejaVuSans-105"/>
     <use x="275.230469" xlink:href="#DejaVuSans-118"/>
     <use x="334.410156" xlink:href="#DejaVuSans-101"/>
     <use x="395.933594" xlink:href="#DejaVuSans-114"/>
     <use x="437.046875" xlink:href="#DejaVuSans-32"/>
     <use x="468.833984" xlink:href="#DejaVuSans-111"/>
     <use x="530.015625" xlink:href="#DejaVuSans-112"/>
     <use x="593.492188" xlink:href="#DejaVuSans-101"/>
     <use x="655.015625" xlink:href="#DejaVuSans-114"/>
     <use x="696.128906" xlink:href="#DejaVuSans-97"/>
     <use x="757.408203" xlink:href="#DejaVuSans-116"/>
     <use x="796.617188" xlink:href="#DejaVuSans-105"/>
     <use x="824.400391" xlink:href="#DejaVuSans-110"/>
     <use x="887.779297" xlink:href="#DejaVuSans-103"/>
     <use x="951.255859" xlink:href="#DejaVuSans-32"/>
     <use x="983.042969" xlink:href="#DejaVuSans-99"/>
     <use x="1038.023438" xlink:href="#DejaVuSans-104"/>
     <use x="1101.402344" xlink:href="#DejaVuSans-97"/>
     <use x="1162.681641" xlink:href="#DejaVuSans-114"/>
     <use x="1203.794922" xlink:href="#DejaVuSans-97"/>
     <use x="1265.074219" xlink:href="#DejaVuSans-99"/>
     <use x="1320.054688" xlink:href="#DejaVuSans-116"/>
     <use x="1359.263672" xlink:href="#DejaVuSans-101"/>
     <use x="1420.787109" xlink:href="#DejaVuSans-114"/>
     <use x="1461.900391" xlink:href="#DejaVuSans-105"/>
     <use x="1489.683594" xlink:href="#DejaVuSans-115"/>
     <use x="1541.783203" xlink:href="#DejaVuSans-116"/>
     <use x="1580.992188" xlink:href="#DejaVuSans-105"/>
     <use x="1608.775391" xlink:href="#DejaVuSans-99"/>
     <use x="1663.755859" xlink:href="#DejaVuSans-58"/>
     <use x="1697.447266" xlink:href="#DejaVuSans-32"/>
     <use x="1729.234375" xlink:href="#DejaVuSans-100"/>
     <use x="1792.710938" xlink:href="#DejaVuSans-117"/>
     <use x="1856.089844" xlink:href="#DejaVuSans-112"/>
     <use x="1919.566406" xlink:href="#DejaVuSans-108"/>
     <use x="1947.349609" xlink:href="#DejaVuSans-105"/>
     <use x="1975.132812" xlink:href="#DejaVuSans-99"/>
     <use x="2030.113281" xlink:href="#DejaVuSans-97"/>
     <use x="2091.392578" xlink:href="#DejaVuSans-116"/>
     <use x="2130.601562" xlink:href="#DejaVuSans-105"/>
     <use x="2158.384766" xlink:href="#DejaVuSans-111"/>
     <use x="2219.566406" xlink:href="#DejaVuSans-110"/>
     <use x="2282.945312" xlink:href="#DejaVuSans-115"/>
    </g>
   </g>
   <g id="legend_1">
    <g id="patch_7">
     <path d="M 252.6 298.64 
L 443 298.64 
Q 445 298.64 445 296.64 
L 445 106.824375 
Q 445 104.824375 443 104.824375 
L 252.6 104.824375 
Q 250.6 104.824375 250.6 106.824375 
L 250.6 296.64 
Q 250.6 298.64 252.6 298.64 
z
" style="fill:#ffffff;opacity:0.8;stroke:#cccccc;stroke-linejoin:miter;"/>
    </g>
    <g id="line2d_25">
     <path d="M 254.6 112.922812 
L 274.6 112.922812 
" style="fill:none;stroke:#1f77b4;stroke-linecap:square;stroke-opacity:0.3;"/>
    </g>
    <g id="line2d_26"/>
    <g id="text_16">
     <!-- ROC fold 0 (AUC = 0.61) -->
     <defs>
      <path d="M 39.40625 66.21875 
Q 28.65625 66.21875 22.328125 58.203125 
Q 16.015625 50.203125 16.015625 36.375 
Q 16.015625 22.609375 22.328125 14.59375 
Q 28.65625 6.59375 39.40625 6.59375 
Q 50.140625 6.59375 56.421875 14.59375 
Q 62.703125 22.609375 62.703125 36.375 
Q 62.703125 50.203125 56.421875 58.203125 
Q 50.140625 66.21875 39.40625 66.21875 
z
M 39.40625 74.21875 
Q 54.734375 74.21875 63.90625 63.9375 
Q 73.09375 53.65625 73.09375 36.375 
Q 73.09375 19.140625 63.90625 8.859375 
Q 54.734375 -1.421875 39.40625 -1.421875 
Q 24.03125 -1.421875 14.8125 8.828125 
Q 5.609375 19.09375 5.609375 36.375 
Q 5.609375 53.65625 14.8125 63.9375 
Q 24.03125 74.21875 39.40625 74.21875 
z
" id="DejaVuSans-79"/>
      <path d="M 64.40625 67.28125 
L 64.40625 56.890625 
Q 59.421875 61.53125 53.78125 63.8125 
Q 48.140625 66.109375 41.796875 66.109375 
Q 29.296875 66.109375 22.65625 58.46875 
Q 16.015625 50.828125 16.015625 36.375 
Q 16.015625 21.96875 22.65625 14.328125 
Q 29.296875 6.6875 41.796875 6.6875 
Q 48.140625 6.6875 53.78125 8.984375 
Q 59.421875 11.28125 64.40625 15.921875 
L 64.40625 5.609375 
Q 59.234375 2.09375 53.4375 0.328125 
Q 47.65625 -1.421875 41.21875 -1.421875 
Q 24.65625 -1.421875 15.125 8.703125 
Q 5.609375 18.84375 5.609375 36.375 
Q 5.609375 53.953125 15.125 64.078125 
Q 24.65625 74.21875 41.21875 74.21875 
Q 47.75 74.21875 53.53125 72.484375 
Q 59.328125 70.75 64.40625 67.28125 
z
" id="DejaVuSans-67"/>
      <path d="M 37.109375 75.984375 
L 37.109375 68.5 
L 28.515625 68.5 
Q 23.6875 68.5 21.796875 66.546875 
Q 19.921875 64.59375 19.921875 59.515625 
L 19.921875 54.6875 
L 34.71875 54.6875 
L 34.71875 47.703125 
L 19.921875 47.703125 
L 19.921875 0 
L 10.890625 0 
L 10.890625 47.703125 
L 2.296875 47.703125 
L 2.296875 54.6875 
L 10.890625 54.6875 
L 10.890625 58.5 
Q 10.890625 67.625 15.140625 71.796875 
Q 19.390625 75.984375 28.609375 75.984375 
z
" id="DejaVuSans-102"/>
      <path d="M 31 75.875 
Q 24.46875 64.65625 21.28125 53.65625 
Q 18.109375 42.671875 18.109375 31.390625 
Q 18.109375 20.125 21.3125 9.0625 
Q 24.515625 -2 31 -13.1875 
L 23.1875 -13.1875 
Q 15.875 -1.703125 12.234375 9.375 
Q 8.59375 20.453125 8.59375 31.390625 
Q 8.59375 42.28125 12.203125 53.3125 
Q 15.828125 64.359375 23.1875 75.875 
z
" id="DejaVuSans-40"/>
      <path d="M 34.1875 63.1875 
L 20.796875 26.90625 
L 47.609375 26.90625 
z
M 28.609375 72.90625 
L 39.796875 72.90625 
L 67.578125 0 
L 57.328125 0 
L 50.6875 18.703125 
L 17.828125 18.703125 
L 11.1875 0 
L 0.78125 0 
z
" id="DejaVuSans-65"/>
      <path d="M 8.6875 72.90625 
L 18.609375 72.90625 
L 18.609375 28.609375 
Q 18.609375 16.890625 22.84375 11.734375 
Q 27.09375 6.59375 36.625 6.59375 
Q 46.09375 6.59375 50.34375 11.734375 
Q 54.59375 16.890625 54.59375 28.609375 
L 54.59375 72.90625 
L 64.5 72.90625 
L 64.5 27.390625 
Q 64.5 13.140625 57.4375 5.859375 
Q 50.390625 -1.421875 36.625 -1.421875 
Q 22.796875 -1.421875 15.734375 5.859375 
Q 8.6875 13.140625 8.6875 27.390625 
z
" id="DejaVuSans-85"/>
      <path d="M 10.59375 45.40625 
L 73.1875 45.40625 
L 73.1875 37.203125 
L 10.59375 37.203125 
z
M 10.59375 25.484375 
L 73.1875 25.484375 
L 73.1875 17.1875 
L 10.59375 17.1875 
z
" id="DejaVuSans-61"/>
      <path d="M 8.015625 75.875 
L 15.828125 75.875 
Q 23.140625 64.359375 26.78125 53.3125 
Q 30.421875 42.28125 30.421875 31.390625 
Q 30.421875 20.453125 26.78125 9.375 
Q 23.140625 -1.703125 15.828125 -13.1875 
L 8.015625 -13.1875 
Q 14.5 -2 17.703125 9.0625 
Q 20.90625 20.125 20.90625 31.390625 
Q 20.90625 42.671875 17.703125 53.65625 
Q 14.5 64.65625 8.015625 75.875 
z
" id="DejaVuSans-41"/>
     </defs>
     <g transform="translate(282.6 116.422812)scale(0.1 -0.1)">
      <use xlink:href="#DejaVuSans-82"/>
      <use x="69.482422" xlink:href="#DejaVuSans-79"/>
      <use x="148.193359" xlink:href="#DejaVuSans-67"/>
      <use x="218.017578" xlink:href="#DejaVuSans-32"/>
      <use x="249.804688" xlink:href="#DejaVuSans-102"/>
      <use x="285.009766" xlink:href="#DejaVuSans-111"/>
      <use x="346.191406" xlink:href="#DejaVuSans-108"/>
      <use x="373.974609" xlink:href="#DejaVuSans-100"/>
      <use x="437.451172" xlink:href="#DejaVuSans-32"/>
      <use x="469.238281" xlink:href="#DejaVuSans-48"/>
      <use x="532.861328" xlink:href="#DejaVuSans-32"/>
      <use x="564.648438" xlink:href="#DejaVuSans-40"/>
      <use x="603.662109" xlink:href="#DejaVuSans-65"/>
      <use x="672.070312" xlink:href="#DejaVuSans-85"/>
      <use x="745.263672" xlink:href="#DejaVuSans-67"/>
      <use x="815.087891" xlink:href="#DejaVuSans-32"/>
      <use x="846.875" xlink:href="#DejaVuSans-61"/>
      <use x="930.664062" xlink:href="#DejaVuSans-32"/>
      <use x="962.451172" xlink:href="#DejaVuSans-48"/>
      <use x="1026.074219" xlink:href="#DejaVuSans-46"/>
      <use x="1057.861328" xlink:href="#DejaVuSans-54"/>
      <use x="1121.484375" xlink:href="#DejaVuSans-49"/>
      <use x="1185.107422" xlink:href="#DejaVuSans-41"/>
     </g>
    </g>
    <g id="line2d_27">
     <path d="M 254.6 127.600938 
L 274.6 127.600938 
" style="fill:none;stroke:#ff7f0e;stroke-linecap:square;stroke-opacity:0.3;"/>
    </g>
    <g id="line2d_28"/>
    <g id="text_17">
     <!-- ROC fold 1 (AUC = 0.67) -->
     <defs>
      <path d="M 8.203125 72.90625 
L 55.078125 72.90625 
L 55.078125 68.703125 
L 28.609375 0 
L 18.3125 0 
L 43.21875 64.59375 
L 8.203125 64.59375 
z
" id="DejaVuSans-55"/>
     </defs>
     <g transform="translate(282.6 131.100938)scale(0.1 -0.1)">
      <use xlink:href="#DejaVuSans-82"/>
      <use x="69.482422" xlink:href="#DejaVuSans-79"/>
      <use x="148.193359" xlink:href="#DejaVuSans-67"/>
      <use x="218.017578" xlink:href="#DejaVuSans-32"/>
      <use x="249.804688" xlink:href="#DejaVuSans-102"/>
      <use x="285.009766" xlink:href="#DejaVuSans-111"/>
      <use x="346.191406" xlink:href="#DejaVuSans-108"/>
      <use x="373.974609" xlink:href="#DejaVuSans-100"/>
      <use x="437.451172" xlink:href="#DejaVuSans-32"/>
      <use x="469.238281" xlink:href="#DejaVuSans-49"/>
      <use x="532.861328" xlink:href="#DejaVuSans-32"/>
      <use x="564.648438" xlink:href="#DejaVuSans-40"/>
      <use x="603.662109" xlink:href="#DejaVuSans-65"/>
      <use x="672.070312" xlink:href="#DejaVuSans-85"/>
      <use x="745.263672" xlink:href="#DejaVuSans-67"/>
      <use x="815.087891" xlink:href="#DejaVuSans-32"/>
      <use x="846.875" xlink:href="#DejaVuSans-61"/>
      <use x="930.664062" xlink:href="#DejaVuSans-32"/>
      <use x="962.451172" xlink:href="#DejaVuSans-48"/>
      <use x="1026.074219" xlink:href="#DejaVuSans-46"/>
      <use x="1057.861328" xlink:href="#DejaVuSans-54"/>
      <use x="1121.484375" xlink:href="#DejaVuSans-55"/>
      <use x="1185.107422" xlink:href="#DejaVuSans-41"/>
     </g>
    </g>
    <g id="line2d_29">
     <path d="M 254.6 142.279063 
L 274.6 142.279063 
" style="fill:none;stroke:#2ca02c;stroke-linecap:square;stroke-opacity:0.3;"/>
    </g>
    <g id="line2d_30"/>
    <g id="text_18">
     <!-- ROC fold 2 (AUC = 0.74) -->
     <g transform="translate(282.6 145.779063)scale(0.1 -0.1)">
      <use xlink:href="#DejaVuSans-82"/>
      <use x="69.482422" xlink:href="#DejaVuSans-79"/>
      <use x="148.193359" xlink:href="#DejaVuSans-67"/>
      <use x="218.017578" xlink:href="#DejaVuSans-32"/>
      <use x="249.804688" xlink:href="#DejaVuSans-102"/>
      <use x="285.009766" xlink:href="#DejaVuSans-111"/>
      <use x="346.191406" xlink:href="#DejaVuSans-108"/>
      <use x="373.974609" xlink:href="#DejaVuSans-100"/>
      <use x="437.451172" xlink:href="#DejaVuSans-32"/>
      <use x="469.238281" xlink:href="#DejaVuSans-50"/>
      <use x="532.861328" xlink:href="#DejaVuSans-32"/>
      <use x="564.648438" xlink:href="#DejaVuSans-40"/>
      <use x="603.662109" xlink:href="#DejaVuSans-65"/>
      <use x="672.070312" xlink:href="#DejaVuSans-85"/>
      <use x="745.263672" xlink:href="#DejaVuSans-67"/>
      <use x="815.087891" xlink:href="#DejaVuSans-32"/>
      <use x="846.875" xlink:href="#DejaVuSans-61"/>
      <use x="930.664062" xlink:href="#DejaVuSans-32"/>
      <use x="962.451172" xlink:href="#DejaVuSans-48"/>
      <use x="1026.074219" xlink:href="#DejaVuSans-46"/>
      <use x="1057.861328" xlink:href="#DejaVuSans-55"/>
      <use x="1121.484375" xlink:href="#DejaVuSans-52"/>
      <use x="1185.107422" xlink:href="#DejaVuSans-41"/>
     </g>
    </g>
    <g id="line2d_31">
     <path d="M 254.6 156.957188 
L 274.6 156.957188 
" style="fill:none;stroke:#d62728;stroke-linecap:square;stroke-opacity:0.3;"/>
    </g>
    <g id="line2d_32"/>
    <g id="text_19">
     <!-- ROC fold 3 (AUC = 0.65) -->
     <defs>
      <path d="M 40.578125 39.3125 
Q 47.65625 37.796875 51.625 33 
Q 55.609375 28.21875 55.609375 21.1875 
Q 55.609375 10.40625 48.1875 4.484375 
Q 40.765625 -1.421875 27.09375 -1.421875 
Q 22.515625 -1.421875 17.65625 -0.515625 
Q 12.796875 0.390625 7.625 2.203125 
L 7.625 11.71875 
Q 11.71875 9.328125 16.59375 8.109375 
Q 21.484375 6.890625 26.8125 6.890625 
Q 36.078125 6.890625 40.9375 10.546875 
Q 45.796875 14.203125 45.796875 21.1875 
Q 45.796875 27.640625 41.28125 31.265625 
Q 36.765625 34.90625 28.71875 34.90625 
L 20.21875 34.90625 
L 20.21875 43.015625 
L 29.109375 43.015625 
Q 36.375 43.015625 40.234375 45.921875 
Q 44.09375 48.828125 44.09375 54.296875 
Q 44.09375 59.90625 40.109375 62.90625 
Q 36.140625 65.921875 28.71875 65.921875 
Q 24.65625 65.921875 20.015625 65.03125 
Q 15.375 64.15625 9.8125 62.3125 
L 9.8125 71.09375 
Q 15.4375 72.65625 20.34375 73.4375 
Q 25.25 74.21875 29.59375 74.21875 
Q 40.828125 74.21875 47.359375 69.109375 
Q 53.90625 64.015625 53.90625 55.328125 
Q 53.90625 49.265625 50.4375 45.09375 
Q 46.96875 40.921875 40.578125 39.3125 
z
" id="DejaVuSans-51"/>
      <path d="M 10.796875 72.90625 
L 49.515625 72.90625 
L 49.515625 64.59375 
L 19.828125 64.59375 
L 19.828125 46.734375 
Q 21.96875 47.46875 24.109375 47.828125 
Q 26.265625 48.1875 28.421875 48.1875 
Q 40.625 48.1875 47.75 41.5 
Q 54.890625 34.8125 54.890625 23.390625 
Q 54.890625 11.625 47.5625 5.09375 
Q 40.234375 -1.421875 26.90625 -1.421875 
Q 22.3125 -1.421875 17.546875 -0.640625 
Q 12.796875 0.140625 7.71875 1.703125 
L 7.71875 11.625 
Q 12.109375 9.234375 16.796875 8.0625 
Q 21.484375 6.890625 26.703125 6.890625 
Q 35.15625 6.890625 40.078125 11.328125 
Q 45.015625 15.765625 45.015625 23.390625 
Q 45.015625 31 40.078125 35.4375 
Q 35.15625 39.890625 26.703125 39.890625 
Q 22.75 39.890625 18.8125 39.015625 
Q 14.890625 38.140625 10.796875 36.28125 
z
" id="DejaVuSans-53"/>
     </defs>
     <g transform="translate(282.6 160.457188)scale(0.1 -0.1)">
      <use xlink:href="#DejaVuSans-82"/>
      <use x="69.482422" xlink:href="#DejaVuSans-79"/>
      <use x="148.193359" xlink:href="#DejaVuSans-67"/>
      <use x="218.017578" xlink:href="#DejaVuSans-32"/>
      <use x="249.804688" xlink:href="#DejaVuSans-102"/>
      <use x="285.009766" xlink:href="#DejaVuSans-111"/>
      <use x="346.191406" xlink:href="#DejaVuSans-108"/>
      <use x="373.974609" xlink:href="#DejaVuSans-100"/>
      <use x="437.451172" xlink:href="#DejaVuSans-32"/>
      <use x="469.238281" xlink:href="#DejaVuSans-51"/>
      <use x="532.861328" xlink:href="#DejaVuSans-32"/>
      <use x="564.648438" xlink:href="#DejaVuSans-40"/>
      <use x="603.662109" xlink:href="#DejaVuSans-65"/>
      <use x="672.070312" xlink:href="#DejaVuSans-85"/>
      <use x="745.263672" xlink:href="#DejaVuSans-67"/>
      <use x="815.087891" xlink:href="#DejaVuSans-32"/>
      <use x="846.875" xlink:href="#DejaVuSans-61"/>
      <use x="930.664062" xlink:href="#DejaVuSans-32"/>
      <use x="962.451172" xlink:href="#DejaVuSans-48"/>
      <use x="1026.074219" xlink:href="#DejaVuSans-46"/>
      <use x="1057.861328" xlink:href="#DejaVuSans-54"/>
      <use x="1121.484375" xlink:href="#DejaVuSans-53"/>
      <use x="1185.107422" xlink:href="#DejaVuSans-41"/>
     </g>
    </g>
    <g id="line2d_33">
     <path d="M 254.6 171.635312 
L 274.6 171.635312 
" style="fill:none;stroke:#9467bd;stroke-linecap:square;stroke-opacity:0.3;"/>
    </g>
    <g id="line2d_34"/>
    <g id="text_20">
     <!-- ROC fold 4 (AUC = 0.66) -->
     <g transform="translate(282.6 175.135312)scale(0.1 -0.1)">
      <use xlink:href="#DejaVuSans-82"/>
      <use x="69.482422" xlink:href="#DejaVuSans-79"/>
      <use x="148.193359" xlink:href="#DejaVuSans-67"/>
      <use x="218.017578" xlink:href="#DejaVuSans-32"/>
      <use x="249.804688" xlink:href="#DejaVuSans-102"/>
      <use x="285.009766" xlink:href="#DejaVuSans-111"/>
      <use x="346.191406" xlink:href="#DejaVuSans-108"/>
      <use x="373.974609" xlink:href="#DejaVuSans-100"/>
      <use x="437.451172" xlink:href="#DejaVuSans-32"/>
      <use x="469.238281" xlink:href="#DejaVuSans-52"/>
      <use x="532.861328" xlink:href="#DejaVuSans-32"/>
      <use x="564.648438" xlink:href="#DejaVuSans-40"/>
      <use x="603.662109" xlink:href="#DejaVuSans-65"/>
      <use x="672.070312" xlink:href="#DejaVuSans-85"/>
      <use x="745.263672" xlink:href="#DejaVuSans-67"/>
      <use x="815.087891" xlink:href="#DejaVuSans-32"/>
      <use x="846.875" xlink:href="#DejaVuSans-61"/>
      <use x="930.664062" xlink:href="#DejaVuSans-32"/>
      <use x="962.451172" xlink:href="#DejaVuSans-48"/>
      <use x="1026.074219" xlink:href="#DejaVuSans-46"/>
      <use x="1057.861328" xlink:href="#DejaVuSans-54"/>
      <use x="1121.484375" xlink:href="#DejaVuSans-54"/>
      <use x="1185.107422" xlink:href="#DejaVuSans-41"/>
     </g>
    </g>
    <g id="line2d_35">
     <path d="M 254.6 186.313438 
L 274.6 186.313438 
" style="fill:none;stroke:#8c564b;stroke-linecap:square;stroke-opacity:0.3;"/>
    </g>
    <g id="line2d_36"/>
    <g id="text_21">
     <!-- ROC fold 5 (AUC = 0.67) -->
     <g transform="translate(282.6 189.813438)scale(0.1 -0.1)">
      <use xlink:href="#DejaVuSans-82"/>
      <use x="69.482422" xlink:href="#DejaVuSans-79"/>
      <use x="148.193359" xlink:href="#DejaVuSans-67"/>
      <use x="218.017578" xlink:href="#DejaVuSans-32"/>
      <use x="249.804688" xlink:href="#DejaVuSans-102"/>
      <use x="285.009766" xlink:href="#DejaVuSans-111"/>
      <use x="346.191406" xlink:href="#DejaVuSans-108"/>
      <use x="373.974609" xlink:href="#DejaVuSans-100"/>
      <use x="437.451172" xlink:href="#DejaVuSans-32"/>
      <use x="469.238281" xlink:href="#DejaVuSans-53"/>
      <use x="532.861328" xlink:href="#DejaVuSans-32"/>
      <use x="564.648438" xlink:href="#DejaVuSans-40"/>
      <use x="603.662109" xlink:href="#DejaVuSans-65"/>
      <use x="672.070312" xlink:href="#DejaVuSans-85"/>
      <use x="745.263672" xlink:href="#DejaVuSans-67"/>
      <use x="815.087891" xlink:href="#DejaVuSans-32"/>
      <use x="846.875" xlink:href="#DejaVuSans-61"/>
      <use x="930.664062" xlink:href="#DejaVuSans-32"/>
      <use x="962.451172" xlink:href="#DejaVuSans-48"/>
      <use x="1026.074219" xlink:href="#DejaVuSans-46"/>
      <use x="1057.861328" xlink:href="#DejaVuSans-54"/>
      <use x="1121.484375" xlink:href="#DejaVuSans-55"/>
      <use x="1185.107422" xlink:href="#DejaVuSans-41"/>
     </g>
    </g>
    <g id="line2d_37">
     <path d="M 254.6 200.991562 
L 274.6 200.991562 
" style="fill:none;stroke:#e377c2;stroke-linecap:square;stroke-opacity:0.3;"/>
    </g>
    <g id="line2d_38"/>
    <g id="text_22">
     <!-- ROC fold 6 (AUC = 0.72) -->
     <g transform="translate(282.6 204.491562)scale(0.1 -0.1)">
      <use xlink:href="#DejaVuSans-82"/>
      <use x="69.482422" xlink:href="#DejaVuSans-79"/>
      <use x="148.193359" xlink:href="#DejaVuSans-67"/>
      <use x="218.017578" xlink:href="#DejaVuSans-32"/>
      <use x="249.804688" xlink:href="#DejaVuSans-102"/>
      <use x="285.009766" xlink:href="#DejaVuSans-111"/>
      <use x="346.191406" xlink:href="#DejaVuSans-108"/>
      <use x="373.974609" xlink:href="#DejaVuSans-100"/>
      <use x="437.451172" xlink:href="#DejaVuSans-32"/>
      <use x="469.238281" xlink:href="#DejaVuSans-54"/>
      <use x="532.861328" xlink:href="#DejaVuSans-32"/>
      <use x="564.648438" xlink:href="#DejaVuSans-40"/>
      <use x="603.662109" xlink:href="#DejaVuSans-65"/>
      <use x="672.070312" xlink:href="#DejaVuSans-85"/>
      <use x="745.263672" xlink:href="#DejaVuSans-67"/>
      <use x="815.087891" xlink:href="#DejaVuSans-32"/>
      <use x="846.875" xlink:href="#DejaVuSans-61"/>
      <use x="930.664062" xlink:href="#DejaVuSans-32"/>
      <use x="962.451172" xlink:href="#DejaVuSans-48"/>
      <use x="1026.074219" xlink:href="#DejaVuSans-46"/>
      <use x="1057.861328" xlink:href="#DejaVuSans-55"/>
      <use x="1121.484375" xlink:href="#DejaVuSans-50"/>
      <use x="1185.107422" xlink:href="#DejaVuSans-41"/>
     </g>
    </g>
    <g id="line2d_39">
     <path d="M 254.6 215.669688 
L 274.6 215.669688 
" style="fill:none;stroke:#7f7f7f;stroke-linecap:square;stroke-opacity:0.3;"/>
    </g>
    <g id="line2d_40"/>
    <g id="text_23">
     <!-- ROC fold 7 (AUC = 0.72) -->
     <g transform="translate(282.6 219.169688)scale(0.1 -0.1)">
      <use xlink:href="#DejaVuSans-82"/>
      <use x="69.482422" xlink:href="#DejaVuSans-79"/>
      <use x="148.193359" xlink:href="#DejaVuSans-67"/>
      <use x="218.017578" xlink:href="#DejaVuSans-32"/>
      <use x="249.804688" xlink:href="#DejaVuSans-102"/>
      <use x="285.009766" xlink:href="#DejaVuSans-111"/>
      <use x="346.191406" xlink:href="#DejaVuSans-108"/>
      <use x="373.974609" xlink:href="#DejaVuSans-100"/>
      <use x="437.451172" xlink:href="#DejaVuSans-32"/>
      <use x="469.238281" xlink:href="#DejaVuSans-55"/>
      <use x="532.861328" xlink:href="#DejaVuSans-32"/>
      <use x="564.648438" xlink:href="#DejaVuSans-40"/>
      <use x="603.662109" xlink:href="#DejaVuSans-65"/>
      <use x="672.070312" xlink:href="#DejaVuSans-85"/>
      <use x="745.263672" xlink:href="#DejaVuSans-67"/>
      <use x="815.087891" xlink:href="#DejaVuSans-32"/>
      <use x="846.875" xlink:href="#DejaVuSans-61"/>
      <use x="930.664062" xlink:href="#DejaVuSans-32"/>
      <use x="962.451172" xlink:href="#DejaVuSans-48"/>
      <use x="1026.074219" xlink:href="#DejaVuSans-46"/>
      <use x="1057.861328" xlink:href="#DejaVuSans-55"/>
      <use x="1121.484375" xlink:href="#DejaVuSans-50"/>
      <use x="1185.107422" xlink:href="#DejaVuSans-41"/>
     </g>
    </g>
    <g id="line2d_41">
     <path d="M 254.6 230.347812 
L 274.6 230.347812 
" style="fill:none;stroke:#bcbd22;stroke-linecap:square;stroke-opacity:0.3;"/>
    </g>
    <g id="line2d_42"/>
    <g id="text_24">
     <!-- ROC fold 8 (AUC = 0.76) -->
     <g transform="translate(282.6 233.847812)scale(0.1 -0.1)">
      <use xlink:href="#DejaVuSans-82"/>
      <use x="69.482422" xlink:href="#DejaVuSans-79"/>
      <use x="148.193359" xlink:href="#DejaVuSans-67"/>
      <use x="218.017578" xlink:href="#DejaVuSans-32"/>
      <use x="249.804688" xlink:href="#DejaVuSans-102"/>
      <use x="285.009766" xlink:href="#DejaVuSans-111"/>
      <use x="346.191406" xlink:href="#DejaVuSans-108"/>
      <use x="373.974609" xlink:href="#DejaVuSans-100"/>
      <use x="437.451172" xlink:href="#DejaVuSans-32"/>
      <use x="469.238281" xlink:href="#DejaVuSans-56"/>
      <use x="532.861328" xlink:href="#DejaVuSans-32"/>
      <use x="564.648438" xlink:href="#DejaVuSans-40"/>
      <use x="603.662109" xlink:href="#DejaVuSans-65"/>
      <use x="672.070312" xlink:href="#DejaVuSans-85"/>
      <use x="745.263672" xlink:href="#DejaVuSans-67"/>
      <use x="815.087891" xlink:href="#DejaVuSans-32"/>
      <use x="846.875" xlink:href="#DejaVuSans-61"/>
      <use x="930.664062" xlink:href="#DejaVuSans-32"/>
      <use x="962.451172" xlink:href="#DejaVuSans-48"/>
      <use x="1026.074219" xlink:href="#DejaVuSans-46"/>
      <use x="1057.861328" xlink:href="#DejaVuSans-55"/>
      <use x="1121.484375" xlink:href="#DejaVuSans-54"/>
      <use x="1185.107422" xlink:href="#DejaVuSans-41"/>
     </g>
    </g>
    <g id="line2d_43">
     <path d="M 254.6 245.025937 
L 274.6 245.025937 
" style="fill:none;stroke:#17becf;stroke-linecap:square;stroke-opacity:0.3;"/>
    </g>
    <g id="line2d_44"/>
    <g id="text_25">
     <!-- ROC fold 9 (AUC = 0.65) -->
     <defs>
      <path d="M 10.984375 1.515625 
L 10.984375 10.5 
Q 14.703125 8.734375 18.5 7.8125 
Q 22.3125 6.890625 25.984375 6.890625 
Q 35.75 6.890625 40.890625 13.453125 
Q 46.046875 20.015625 46.78125 33.40625 
Q 43.953125 29.203125 39.59375 26.953125 
Q 35.25 24.703125 29.984375 24.703125 
Q 19.046875 24.703125 12.671875 31.3125 
Q 6.296875 37.9375 6.296875 49.421875 
Q 6.296875 60.640625 12.9375 67.421875 
Q 19.578125 74.21875 30.609375 74.21875 
Q 43.265625 74.21875 49.921875 64.515625 
Q 56.59375 54.828125 56.59375 36.375 
Q 56.59375 19.140625 48.40625 8.859375 
Q 40.234375 -1.421875 26.421875 -1.421875 
Q 22.703125 -1.421875 18.890625 -0.6875 
Q 15.09375 0.046875 10.984375 1.515625 
z
M 30.609375 32.421875 
Q 37.25 32.421875 41.125 36.953125 
Q 45.015625 41.5 45.015625 49.421875 
Q 45.015625 57.28125 41.125 61.84375 
Q 37.25 66.40625 30.609375 66.40625 
Q 23.96875 66.40625 20.09375 61.84375 
Q 16.21875 57.28125 16.21875 49.421875 
Q 16.21875 41.5 20.09375 36.953125 
Q 23.96875 32.421875 30.609375 32.421875 
z
" id="DejaVuSans-57"/>
     </defs>
     <g transform="translate(282.6 248.525937)scale(0.1 -0.1)">
      <use xlink:href="#DejaVuSans-82"/>
      <use x="69.482422" xlink:href="#DejaVuSans-79"/>
      <use x="148.193359" xlink:href="#DejaVuSans-67"/>
      <use x="218.017578" xlink:href="#DejaVuSans-32"/>
      <use x="249.804688" xlink:href="#DejaVuSans-102"/>
      <use x="285.009766" xlink:href="#DejaVuSans-111"/>
      <use x="346.191406" xlink:href="#DejaVuSans-108"/>
      <use x="373.974609" xlink:href="#DejaVuSans-100"/>
      <use x="437.451172" xlink:href="#DejaVuSans-32"/>
      <use x="469.238281" xlink:href="#DejaVuSans-57"/>
      <use x="532.861328" xlink:href="#DejaVuSans-32"/>
      <use x="564.648438" xlink:href="#DejaVuSans-40"/>
      <use x="603.662109" xlink:href="#DejaVuSans-65"/>
      <use x="672.070312" xlink:href="#DejaVuSans-85"/>
      <use x="745.263672" xlink:href="#DejaVuSans-67"/>
      <use x="815.087891" xlink:href="#DejaVuSans-32"/>
      <use x="846.875" xlink:href="#DejaVuSans-61"/>
      <use x="930.664062" xlink:href="#DejaVuSans-32"/>
      <use x="962.451172" xlink:href="#DejaVuSans-48"/>
      <use x="1026.074219" xlink:href="#DejaVuSans-46"/>
      <use x="1057.861328" xlink:href="#DejaVuSans-54"/>
      <use x="1121.484375" xlink:href="#DejaVuSans-53"/>
      <use x="1185.107422" xlink:href="#DejaVuSans-41"/>
     </g>
    </g>
    <g id="line2d_45">
     <path d="M 254.6 259.704062 
L 274.6 259.704062 
" style="fill:none;stroke:#ff0000;stroke-dasharray:7.4,3.2;stroke-dashoffset:0;stroke-opacity:0.8;stroke-width:2;"/>
    </g>
    <g id="line2d_46"/>
    <g id="text_26">
     <!-- Chance -->
     <g transform="translate(282.6 263.204062)scale(0.1 -0.1)">
      <use xlink:href="#DejaVuSans-67"/>
      <use x="69.824219" xlink:href="#DejaVuSans-104"/>
      <use x="133.203125" xlink:href="#DejaVuSans-97"/>
      <use x="194.482422" xlink:href="#DejaVuSans-110"/>
      <use x="257.861328" xlink:href="#DejaVuSans-99"/>
      <use x="312.841797" xlink:href="#DejaVuSans-101"/>
     </g>
    </g>
    <g id="line2d_47">
     <path d="M 254.6 274.382187 
L 274.6 274.382187 
" style="fill:none;stroke:#0000ff;stroke-linecap:square;stroke-opacity:0.8;stroke-width:2;"/>
    </g>
    <g id="line2d_48"/>
    <g id="text_27">
     <!-- Mean ROC (AUC = 0.68 $\pm$ 0.04) -->
     <defs>
      <path d="M 9.8125 72.90625 
L 24.515625 72.90625 
L 43.109375 23.296875 
L 61.8125 72.90625 
L 76.515625 72.90625 
L 76.515625 0 
L 66.890625 0 
L 66.890625 64.015625 
L 48.09375 14.015625 
L 38.1875 14.015625 
L 19.390625 64.015625 
L 19.390625 0 
L 9.8125 0 
z
" id="DejaVuSans-77"/>
      <path d="M 46 62.703125 
L 46 43.796875 
L 73.1875 43.796875 
L 73.1875 35.5 
L 46 35.5 
L 46 16.609375 
L 37.796875 16.609375 
L 37.796875 35.5 
L 10.59375 35.5 
L 10.59375 43.796875 
L 37.796875 43.796875 
L 37.796875 62.703125 
z
M 10.59375 8.296875 
L 73.1875 8.296875 
L 73.1875 0 
L 10.59375 0 
z
" id="DejaVuSans-177"/>
     </defs>
     <g transform="translate(282.6 277.882187)scale(0.1 -0.1)">
      <use transform="translate(0 0.125)" xlink:href="#DejaVuSans-77"/>
      <use transform="translate(86.279297 0.125)" xlink:href="#DejaVuSans-101"/>
      <use transform="translate(147.802734 0.125)" xlink:href="#DejaVuSans-97"/>
      <use transform="translate(209.082031 0.125)" xlink:href="#DejaVuSans-110"/>
      <use transform="translate(272.460938 0.125)" xlink:href="#DejaVuSans-32"/>
      <use transform="translate(304.248047 0.125)" xlink:href="#DejaVuSans-82"/>
      <use transform="translate(373.730469 0.125)" xlink:href="#DejaVuSans-79"/>
      <use transform="translate(452.441406 0.125)" xlink:href="#DejaVuSans-67"/>
      <use transform="translate(522.265625 0.125)" xlink:href="#DejaVuSans-32"/>
      <use transform="translate(554.052734 0.125)" xlink:href="#DejaVuSans-40"/>
      <use transform="translate(593.066406 0.125)" xlink:href="#DejaVuSans-65"/>
      <use transform="translate(661.474609 0.125)" xlink:href="#DejaVuSans-85"/>
      <use transform="translate(734.667969 0.125)" xlink:href="#DejaVuSans-67"/>
      <use transform="translate(804.492188 0.125)" xlink:href="#DejaVuSans-32"/>
      <use transform="translate(836.279297 0.125)" xlink:href="#DejaVuSans-61"/>
      <use transform="translate(920.068359 0.125)" xlink:href="#DejaVuSans-32"/>
      <use transform="translate(951.855469 0.125)" xlink:href="#DejaVuSans-48"/>
      <use transform="translate(1015.478516 0.125)" xlink:href="#DejaVuSans-46"/>
      <use transform="translate(1047.265625 0.125)" xlink:href="#DejaVuSans-54"/>
      <use transform="translate(1110.888672 0.125)" xlink:href="#DejaVuSans-56"/>
      <use transform="translate(1174.511719 0.125)" xlink:href="#DejaVuSans-32"/>
      <use transform="translate(1206.298828 0.125)" xlink:href="#DejaVuSans-177"/>
      <use transform="translate(1290.087891 0.125)" xlink:href="#DejaVuSans-32"/>
      <use transform="translate(1321.875 0.125)" xlink:href="#DejaVuSans-48"/>
      <use transform="translate(1385.498047 0.125)" xlink:href="#DejaVuSans-46"/>
      <use transform="translate(1417.285156 0.125)" xlink:href="#DejaVuSans-48"/>
      <use transform="translate(1480.908203 0.125)" xlink:href="#DejaVuSans-52"/>
      <use transform="translate(1544.53125 0.125)" xlink:href="#DejaVuSans-41"/>
     </g>
    </g>
    <g id="patch_8">
     <path d="M 254.6 292.560312 
L 274.6 292.560312 
L 274.6 285.560312 
L 254.6 285.560312 
z
" style="fill:#808080;opacity:0.2;stroke:#808080;stroke-linejoin:miter;"/>
    </g>
    <g id="text_28">
     <!-- $\pm$ 1 std. dev. -->
     <g transform="translate(282.6 292.560312)scale(0.1 -0.1)">
      <use transform="translate(0 0.015625)" xlink:href="#DejaVuSans-177"/>
      <use transform="translate(83.789062 0.015625)" xlink:href="#DejaVuSans-32"/>
      <use transform="translate(115.576172 0.015625)" xlink:href="#DejaVuSans-49"/>
      <use transform="translate(179.199219 0.015625)" xlink:href="#DejaVuSans-32"/>
      <use transform="translate(210.986328 0.015625)" xlink:href="#DejaVuSans-115"/>
      <use transform="translate(263.085938 0.015625)" xlink:href="#DejaVuSans-116"/>
      <use transform="translate(302.294922 0.015625)" xlink:href="#DejaVuSans-100"/>
      <use transform="translate(365.771484 0.015625)" xlink:href="#DejaVuSans-46"/>
      <use transform="translate(397.558594 0.015625)" xlink:href="#DejaVuSans-32"/>
      <use transform="translate(429.345703 0.015625)" xlink:href="#DejaVuSans-100"/>
      <use transform="translate(492.822266 0.015625)" xlink:href="#DejaVuSans-101"/>
      <use transform="translate(554.345703 0.015625)" xlink:href="#DejaVuSans-118"/>
      <use transform="translate(613.525391 0.015625)" xlink:href="#DejaVuSans-46"/>
     </g>
    </g>
   </g>
  </g>
 </g>
 <defs>
  <clipPath id="pa266d5bdfa">
   <rect height="278.2" width="402.28" x="47.72" y="25.44"/>
  </clipPath>
 </defs>
</svg>
