<?xml version="1.0" encoding="utf-8" standalone="no"?>
<!DOCTYPE svg PUBLIC "-//W3C//DTD SVG 1.1//EN"
  "http://www.w3.org/Graphics/SVG/1.1/DTD/svg11.dtd">
<!-- Created with matplotlib (https://matplotlib.org/) -->
<svg height="345.6pt" version="1.1" viewBox="0 0 460.8 345.6" width="460.8pt" xmlns="http://www.w3.org/2000/svg" xmlns:xlink="http://www.w3.org/1999/xlink">
 <defs>
  <style type="text/css">
*{stroke-linecap:butt;stroke-linejoin:round;white-space:pre;}
  </style>
 </defs>
 <g id="figure_1">
  <g id="patch_1">
   <path d="M 0 345.6 
L 460.8 345.6 
L 460.8 0 
L 0 0 
z
" style="fill:#ffffff;"/>
  </g>
  <g id="axes_1">
   <g id="patch_2">
    <path d="M 47.72 303.64 
L 450 303.64 
L 450 25.44 
L 47.72 25.44 
z
" style="fill:#ffffff;"/>
   </g>
   <g id="PolyCollection_1">
    <defs>
     <path d="M 66.005455 -54.605455 
L 66.005455 -54.605455 
L 69.699486 -61.836674 
L 73.393517 -77.630968 
L 77.087548 -79.229907 
L 80.781579 -92.166876 
L 84.475611 -101.095572 
L 88.169642 -101.166374 
L 91.863673 -106.629275 
L 95.557704 -113.481289 
L 99.251736 -113.855692 
L 102.945767 -118.459995 
L 106.639798 -132.754603 
L 110.333829 -133.265024 
L 114.02786 -148.562012 
L 117.721892 -161.805817 
L 121.415923 -162.371593 
L 125.109954 -164.075856 
L 128.803985 -167.487735 
L 132.498017 -167.101758 
L 136.192048 -169.951946 
L 139.886079 -172.638374 
L 143.58011 -173.063571 
L 147.274141 -178.958025 
L 150.968173 -183.523913 
L 154.662204 -184.685296 
L 158.356235 -188.6711 
L 162.050266 -189.537923 
L 165.744298 -189.844854 
L 169.438329 -192.104312 
L 173.13236 -195.965542 
L 176.826391 -196.996727 
L 180.520422 -199.115434 
L 184.214454 -202.952032 
L 187.908485 -202.862043 
L 191.602516 -206.584997 
L 195.296547 -206.584997 
L 198.990579 -208.842981 
L 202.68461 -211.891729 
L 206.378641 -211.978521 
L 210.072672 -216.070409 
L 213.766703 -219.826093 
L 217.460735 -219.826093 
L 221.154766 -220.675091 
L 224.848797 -221.396597 
L 228.542828 -221.396597 
L 232.23686 -223.881182 
L 235.930891 -227.458853 
L 239.624922 -227.458853 
L 243.318953 -229.623748 
L 247.012984 -233.784021 
L 250.707016 -234.313299 
L 254.401047 -236.175013 
L 258.095078 -237.093087 
L 261.789109 -237.093087 
L 265.48314 -245.147883 
L 269.177172 -247.466153 
L 272.871203 -247.466153 
L 276.565234 -249.91385 
L 280.259265 -254.080775 
L 283.953297 -254.162018 
L 287.647328 -255.123658 
L 291.341359 -256.159887 
L 295.03539 -256.159887 
L 298.729421 -257.059447 
L 302.423453 -257.463869 
L 306.117484 -257.588064 
L 309.811515 -258.579876 
L 313.505546 -258.905467 
L 317.199578 -260.385772 
L 320.893609 -262.013928 
L 324.58764 -262.932364 
L 328.281671 -266.07711 
L 331.975702 -268.891416 
L 335.669734 -269.521589 
L 339.363765 -270.283566 
L 343.057796 -275.077554 
L 346.751827 -275.08497 
L 350.445859 -277.068556 
L 354.13989 -279.551441 
L 357.833921 -279.551441 
L 361.527952 -280.024061 
L 365.221983 -280.046863 
L 368.916015 -280.046863 
L 372.610046 -281.800754 
L 376.304077 -282.289584 
L 379.998108 -282.289584 
L 383.69214 -286.539053 
L 387.386171 -286.85516 
L 391.080202 -286.85516 
L 394.774233 -289.864648 
L 398.468264 -296.619164 
L 402.162296 -296.868127 
L 405.856327 -299.542074 
L 409.550358 -300.880594 
L 413.244389 -300.880594 
L 416.938421 -300.968955 
L 420.632452 -305.697441 
L 424.326483 -305.903279 
L 428.020514 -307.514545 
L 431.714545 -307.514545 
L 431.714545 -307.514545 
L 431.714545 -307.514545 
L 428.020514 -307.514545 
L 424.326483 -307.514545 
L 420.632452 -307.514545 
L 416.938421 -307.514545 
L 413.244389 -307.514545 
L 409.550358 -307.514545 
L 405.856327 -307.514545 
L 402.162296 -307.514545 
L 398.468264 -307.514545 
L 394.774233 -307.514545 
L 391.080202 -307.514545 
L 387.386171 -307.514545 
L 383.69214 -307.514545 
L 379.998108 -307.514545 
L 376.304077 -307.514545 
L 372.610046 -307.298207 
L 368.916015 -306.717552 
L 365.221983 -306.717552 
L 361.527952 -305.962173 
L 357.833921 -305.656611 
L 354.13989 -305.656611 
L 350.445859 -302.999482 
L 346.751827 -302.876474 
L 343.057796 -302.1175 
L 339.363765 -300.08078 
L 335.669734 -298.747955 
L 331.975702 -298.611736 
L 328.281671 -295.841213 
L 324.58764 -293.916688 
L 320.893609 -293.302342 
L 317.199578 -289.519299 
L 313.505546 -288.959823 
L 309.811515 -289.029951 
L 306.117484 -284.888065 
L 302.423453 -284.501332 
L 298.729421 -282.67171 
L 295.03539 -280.953749 
L 291.341359 -280.953749 
L 287.647328 -281.211797 
L 283.953297 -278.078157 
L 280.259265 -277.648472 
L 276.565234 -275.857197 
L 272.871203 -274.862029 
L 269.177172 -274.862029 
L 265.48314 -274.42129 
L 261.789109 -271.880939 
L 258.095078 -271.880939 
L 254.401047 -269.436156 
L 250.707016 -267.851075 
L 247.012984 -267.103034 
L 243.318953 -264.137834 
L 239.624922 -263.241796 
L 235.930891 -263.241796 
L 232.23686 -261.657697 
L 228.542828 -259.840806 
L 224.848797 -259.840806 
L 221.154766 -259.78413 
L 217.460735 -257.520401 
L 213.766703 -257.520401 
L 210.072672 -255.828811 
L 206.378641 -252.877761 
L 202.68461 -250.647132 
L 198.990579 -245.68611 
L 195.296547 -244.831367 
L 191.602516 -244.831367 
L 187.908485 -241.810078 
L 184.214454 -240.698234 
L 180.520422 -238.065705 
L 176.826391 -236.828011 
L 173.13236 -236.837341 
L 169.438329 -234.410233 
L 165.744298 -232.354319 
L 162.050266 -228.929656 
L 158.356235 -228.90825 
L 154.662204 -224.609871 
L 150.968173 -224.7494 
L 147.274141 -223.624342 
L 143.58011 -220.880191 
L 139.886079 -220.794461 
L 136.192048 -212.728533 
L 132.498017 -210.54019 
L 128.803985 -207.444473 
L 125.109954 -206.588143 
L 121.415923 -196.550338 
L 117.721892 -196.264569 
L 114.02786 -183.865055 
L 110.333829 -182.350892 
L 106.639798 -180.987913 
L 102.945767 -172.396293 
L 99.251736 -163.260577 
L 95.557704 -163.124053 
L 91.863673 -153.990073 
L 88.169642 -151.521807 
L 84.475611 -150.689363 
L 80.781579 -141.138206 
L 77.087548 -121.832985 
L 73.393517 -121.899143 
L 69.699486 -102.828112 
L 66.005455 -54.605455 
z
" id="mcf874fe1ee" style="stroke:#808080;stroke-opacity:0.2;"/>
    </defs>
    <g clip-path="url(#p6cc6e7d7f3)">
     <use style="fill:#808080;fill-opacity:0.2;stroke:#808080;stroke-opacity:0.2;" x="0" xlink:href="#mcf874fe1ee" y="345.6"/>
    </g>
   </g>
   <g id="matplotlib.axis_1">
    <g id="xtick_1">
     <g id="line2d_1">
      <defs>
       <path d="M 0 0 
L 0 3.5 
" id="m7de3b0fecd" style="stroke:#000000;stroke-width:0.8;"/>
      </defs>
      <g>
       <use style="stroke:#000000;stroke-width:0.8;" x="66.005455" xlink:href="#m7de3b0fecd" y="303.64"/>
      </g>
     </g>
     <g id="text_1">
      <!-- 0.0 -->
      <defs>
       <path d="M 31.78125 66.40625 
Q 24.171875 66.40625 20.328125 58.90625 
Q 16.5 51.421875 16.5 36.375 
Q 16.5 21.390625 20.328125 13.890625 
Q 24.171875 6.390625 31.78125 6.390625 
Q 39.453125 6.390625 43.28125 13.890625 
Q 47.125 21.390625 47.125 36.375 
Q 47.125 51.421875 43.28125 58.90625 
Q 39.453125 66.40625 31.78125 66.40625 
z
M 31.78125 74.21875 
Q 44.046875 74.21875 50.515625 64.515625 
Q 56.984375 54.828125 56.984375 36.375 
Q 56.984375 17.96875 50.515625 8.265625 
Q 44.046875 -1.421875 31.78125 -1.421875 
Q 19.53125 -1.421875 13.0625 8.265625 
Q 6.59375 17.96875 6.59375 36.375 
Q 6.59375 54.828125 13.0625 64.515625 
Q 19.53125 74.21875 31.78125 74.21875 
z
" id="DejaVuSans-48"/>
       <path d="M 10.6875 12.40625 
L 21 12.40625 
L 21 0 
L 10.6875 0 
z
" id="DejaVuSans-46"/>
      </defs>
      <g transform="translate(58.053892 318.238437)scale(0.1 -0.1)">
       <use xlink:href="#DejaVuSans-48"/>
       <use x="63.623047" xlink:href="#DejaVuSans-46"/>
       <use x="95.410156" xlink:href="#DejaVuSans-48"/>
      </g>
     </g>
    </g>
    <g id="xtick_2">
     <g id="line2d_2">
      <g>
       <use style="stroke:#000000;stroke-width:0.8;" x="139.147273" xlink:href="#m7de3b0fecd" y="303.64"/>
      </g>
     </g>
     <g id="text_2">
      <!-- 0.2 -->
      <defs>
       <path d="M 19.1875 8.296875 
L 53.609375 8.296875 
L 53.609375 0 
L 7.328125 0 
L 7.328125 8.296875 
Q 12.9375 14.109375 22.625 23.890625 
Q 32.328125 33.6875 34.8125 36.53125 
Q 39.546875 41.84375 41.421875 45.53125 
Q 43.3125 49.21875 43.3125 52.78125 
Q 43.3125 58.59375 39.234375 62.25 
Q 35.15625 65.921875 28.609375 65.921875 
Q 23.96875 65.921875 18.8125 64.3125 
Q 13.671875 62.703125 7.8125 59.421875 
L 7.8125 69.390625 
Q 13.765625 71.78125 18.9375 73 
Q 24.125 74.21875 28.421875 74.21875 
Q 39.75 74.21875 46.484375 68.546875 
Q 53.21875 62.890625 53.21875 53.421875 
Q 53.21875 48.921875 51.53125 44.890625 
Q 49.859375 40.875 45.40625 35.40625 
Q 44.1875 33.984375 37.640625 27.21875 
Q 31.109375 20.453125 19.1875 8.296875 
z
" id="DejaVuSans-50"/>
      </defs>
      <g transform="translate(131.19571 318.238437)scale(0.1 -0.1)">
       <use xlink:href="#DejaVuSans-48"/>
       <use x="63.623047" xlink:href="#DejaVuSans-46"/>
       <use x="95.410156" xlink:href="#DejaVuSans-50"/>
      </g>
     </g>
    </g>
    <g id="xtick_3">
     <g id="line2d_3">
      <g>
       <use style="stroke:#000000;stroke-width:0.8;" x="212.289091" xlink:href="#m7de3b0fecd" y="303.64"/>
      </g>
     </g>
     <g id="text_3">
      <!-- 0.4 -->
      <defs>
       <path d="M 37.796875 64.3125 
L 12.890625 25.390625 
L 37.796875 25.390625 
z
M 35.203125 72.90625 
L 47.609375 72.90625 
L 47.609375 25.390625 
L 58.015625 25.390625 
L 58.015625 17.1875 
L 47.609375 17.1875 
L 47.609375 0 
L 37.796875 0 
L 37.796875 17.1875 
L 4.890625 17.1875 
L 4.890625 26.703125 
z
" id="DejaVuSans-52"/>
      </defs>
      <g transform="translate(204.337528 318.238437)scale(0.1 -0.1)">
       <use xlink:href="#DejaVuSans-48"/>
       <use x="63.623047" xlink:href="#DejaVuSans-46"/>
       <use x="95.410156" xlink:href="#DejaVuSans-52"/>
      </g>
     </g>
    </g>
    <g id="xtick_4">
     <g id="line2d_4">
      <g>
       <use style="stroke:#000000;stroke-width:0.8;" x="285.430909" xlink:href="#m7de3b0fecd" y="303.64"/>
      </g>
     </g>
     <g id="text_4">
      <!-- 0.6 -->
      <defs>
       <path d="M 33.015625 40.375 
Q 26.375 40.375 22.484375 35.828125 
Q 18.609375 31.296875 18.609375 23.390625 
Q 18.609375 15.53125 22.484375 10.953125 
Q 26.375 6.390625 33.015625 6.390625 
Q 39.65625 6.390625 43.53125 10.953125 
Q 47.40625 15.53125 47.40625 23.390625 
Q 47.40625 31.296875 43.53125 35.828125 
Q 39.65625 40.375 33.015625 40.375 
z
M 52.59375 71.296875 
L 52.59375 62.3125 
Q 48.875 64.0625 45.09375 64.984375 
Q 41.3125 65.921875 37.59375 65.921875 
Q 27.828125 65.921875 22.671875 59.328125 
Q 17.53125 52.734375 16.796875 39.40625 
Q 19.671875 43.65625 24.015625 45.921875 
Q 28.375 48.1875 33.59375 48.1875 
Q 44.578125 48.1875 50.953125 41.515625 
Q 57.328125 34.859375 57.328125 23.390625 
Q 57.328125 12.15625 50.6875 5.359375 
Q 44.046875 -1.421875 33.015625 -1.421875 
Q 20.359375 -1.421875 13.671875 8.265625 
Q 6.984375 17.96875 6.984375 36.375 
Q 6.984375 53.65625 15.1875 63.9375 
Q 23.390625 74.21875 37.203125 74.21875 
Q 40.921875 74.21875 44.703125 73.484375 
Q 48.484375 72.75 52.59375 71.296875 
z
" id="DejaVuSans-54"/>
      </defs>
      <g transform="translate(277.479347 318.238437)scale(0.1 -0.1)">
       <use xlink:href="#DejaVuSans-48"/>
       <use x="63.623047" xlink:href="#DejaVuSans-46"/>
       <use x="95.410156" xlink:href="#DejaVuSans-54"/>
      </g>
     </g>
    </g>
    <g id="xtick_5">
     <g id="line2d_5">
      <g>
       <use style="stroke:#000000;stroke-width:0.8;" x="358.572727" xlink:href="#m7de3b0fecd" y="303.64"/>
      </g>
     </g>
     <g id="text_5">
      <!-- 0.8 -->
      <defs>
       <path d="M 31.78125 34.625 
Q 24.75 34.625 20.71875 30.859375 
Q 16.703125 27.09375 16.703125 20.515625 
Q 16.703125 13.921875 20.71875 10.15625 
Q 24.75 6.390625 31.78125 6.390625 
Q 38.8125 6.390625 42.859375 10.171875 
Q 46.921875 13.96875 46.921875 20.515625 
Q 46.921875 27.09375 42.890625 30.859375 
Q 38.875 34.625 31.78125 34.625 
z
M 21.921875 38.8125 
Q 15.578125 40.375 12.03125 44.71875 
Q 8.5 49.078125 8.5 55.328125 
Q 8.5 64.0625 14.71875 69.140625 
Q 20.953125 74.21875 31.78125 74.21875 
Q 42.671875 74.21875 48.875 69.140625 
Q 55.078125 64.0625 55.078125 55.328125 
Q 55.078125 49.078125 51.53125 44.71875 
Q 48 40.375 41.703125 38.8125 
Q 48.828125 37.15625 52.796875 32.3125 
Q 56.78125 27.484375 56.78125 20.515625 
Q 56.78125 9.90625 50.3125 4.234375 
Q 43.84375 -1.421875 31.78125 -1.421875 
Q 19.734375 -1.421875 13.25 4.234375 
Q 6.78125 9.90625 6.78125 20.515625 
Q 6.78125 27.484375 10.78125 32.3125 
Q 14.796875 37.15625 21.921875 38.8125 
z
M 18.3125 54.390625 
Q 18.3125 48.734375 21.84375 45.5625 
Q 25.390625 42.390625 31.78125 42.390625 
Q 38.140625 42.390625 41.71875 45.5625 
Q 45.3125 48.734375 45.3125 54.390625 
Q 45.3125 60.0625 41.71875 63.234375 
Q 38.140625 66.40625 31.78125 66.40625 
Q 25.390625 66.40625 21.84375 63.234375 
Q 18.3125 60.0625 18.3125 54.390625 
z
" id="DejaVuSans-56"/>
      </defs>
      <g transform="translate(350.621165 318.238437)scale(0.1 -0.1)">
       <use xlink:href="#DejaVuSans-48"/>
       <use x="63.623047" xlink:href="#DejaVuSans-46"/>
       <use x="95.410156" xlink:href="#DejaVuSans-56"/>
      </g>
     </g>
    </g>
    <g id="xtick_6">
     <g id="line2d_6">
      <g>
       <use style="stroke:#000000;stroke-width:0.8;" x="431.714545" xlink:href="#m7de3b0fecd" y="303.64"/>
      </g>
     </g>
     <g id="text_6">
      <!-- 1.0 -->
      <defs>
       <path d="M 12.40625 8.296875 
L 28.515625 8.296875 
L 28.515625 63.921875 
L 10.984375 60.40625 
L 10.984375 69.390625 
L 28.421875 72.90625 
L 38.28125 72.90625 
L 38.28125 8.296875 
L 54.390625 8.296875 
L 54.390625 0 
L 12.40625 0 
z
" id="DejaVuSans-49"/>
      </defs>
      <g transform="translate(423.762983 318.238437)scale(0.1 -0.1)">
       <use xlink:href="#DejaVuSans-49"/>
       <use x="63.623047" xlink:href="#DejaVuSans-46"/>
       <use x="95.410156" xlink:href="#DejaVuSans-48"/>
      </g>
     </g>
    </g>
    <g id="text_7">
     <!-- False Positive Rate -->
     <defs>
      <path d="M 9.8125 72.90625 
L 51.703125 72.90625 
L 51.703125 64.59375 
L 19.671875 64.59375 
L 19.671875 43.109375 
L 48.578125 43.109375 
L 48.578125 34.8125 
L 19.671875 34.8125 
L 19.671875 0 
L 9.8125 0 
z
" id="DejaVuSans-70"/>
      <path d="M 34.28125 27.484375 
Q 23.390625 27.484375 19.1875 25 
Q 14.984375 22.515625 14.984375 16.5 
Q 14.984375 11.71875 18.140625 8.90625 
Q 21.296875 6.109375 26.703125 6.109375 
Q 34.1875 6.109375 38.703125 11.40625 
Q 43.21875 16.703125 43.21875 25.484375 
L 43.21875 27.484375 
z
M 52.203125 31.203125 
L 52.203125 0 
L 43.21875 0 
L 43.21875 8.296875 
Q 40.140625 3.328125 35.546875 0.953125 
Q 30.953125 -1.421875 24.3125 -1.421875 
Q 15.921875 -1.421875 10.953125 3.296875 
Q 6 8.015625 6 15.921875 
Q 6 25.140625 12.171875 29.828125 
Q 18.359375 34.515625 30.609375 34.515625 
L 43.21875 34.515625 
L 43.21875 35.40625 
Q 43.21875 41.609375 39.140625 45 
Q 35.0625 48.390625 27.6875 48.390625 
Q 23 48.390625 18.546875 47.265625 
Q 14.109375 46.140625 10.015625 43.890625 
L 10.015625 52.203125 
Q 14.9375 54.109375 19.578125 55.046875 
Q 24.21875 56 28.609375 56 
Q 40.484375 56 46.34375 49.84375 
Q 52.203125 43.703125 52.203125 31.203125 
z
" id="DejaVuSans-97"/>
      <path d="M 9.421875 75.984375 
L 18.40625 75.984375 
L 18.40625 0 
L 9.421875 0 
z
" id="DejaVuSans-108"/>
      <path d="M 44.28125 53.078125 
L 44.28125 44.578125 
Q 40.484375 46.53125 36.375 47.5 
Q 32.28125 48.484375 27.875 48.484375 
Q 21.1875 48.484375 17.84375 46.4375 
Q 14.5 44.390625 14.5 40.28125 
Q 14.5 37.15625 16.890625 35.375 
Q 19.28125 33.59375 26.515625 31.984375 
L 29.59375 31.296875 
Q 39.15625 29.25 43.1875 25.515625 
Q 47.21875 21.78125 47.21875 15.09375 
Q 47.21875 7.46875 41.1875 3.015625 
Q 35.15625 -1.421875 24.609375 -1.421875 
Q 20.21875 -1.421875 15.453125 -0.5625 
Q 10.6875 0.296875 5.421875 2 
L 5.421875 11.28125 
Q 10.40625 8.6875 15.234375 7.390625 
Q 20.0625 6.109375 24.8125 6.109375 
Q 31.15625 6.109375 34.5625 8.28125 
Q 37.984375 10.453125 37.984375 14.40625 
Q 37.984375 18.0625 35.515625 20.015625 
Q 33.0625 21.96875 24.703125 23.78125 
L 21.578125 24.515625 
Q 13.234375 26.265625 9.515625 29.90625 
Q 5.8125 33.546875 5.8125 39.890625 
Q 5.8125 47.609375 11.28125 51.796875 
Q 16.75 56 26.8125 56 
Q 31.78125 56 36.171875 55.265625 
Q 40.578125 54.546875 44.28125 53.078125 
z
" id="DejaVuSans-115"/>
      <path d="M 56.203125 29.59375 
L 56.203125 25.203125 
L 14.890625 25.203125 
Q 15.484375 15.921875 20.484375 11.0625 
Q 25.484375 6.203125 34.421875 6.203125 
Q 39.59375 6.203125 44.453125 7.46875 
Q 49.3125 8.734375 54.109375 11.28125 
L 54.109375 2.78125 
Q 49.265625 0.734375 44.1875 -0.34375 
Q 39.109375 -1.421875 33.890625 -1.421875 
Q 20.796875 -1.421875 13.15625 6.1875 
Q 5.515625 13.8125 5.515625 26.8125 
Q 5.515625 40.234375 12.765625 48.109375 
Q 20.015625 56 32.328125 56 
Q 43.359375 56 49.78125 48.890625 
Q 56.203125 41.796875 56.203125 29.59375 
z
M 47.21875 32.234375 
Q 47.125 39.59375 43.09375 43.984375 
Q 39.0625 48.390625 32.421875 48.390625 
Q 24.90625 48.390625 20.390625 44.140625 
Q 15.875 39.890625 15.1875 32.171875 
z
" id="DejaVuSans-101"/>
      <path id="DejaVuSans-32"/>
      <path d="M 19.671875 64.796875 
L 19.671875 37.40625 
L 32.078125 37.40625 
Q 38.96875 37.40625 42.71875 40.96875 
Q 46.484375 44.53125 46.484375 51.125 
Q 46.484375 57.671875 42.71875 61.234375 
Q 38.96875 64.796875 32.078125 64.796875 
z
M 9.8125 72.90625 
L 32.078125 72.90625 
Q 44.34375 72.90625 50.609375 67.359375 
Q 56.890625 61.8125 56.890625 51.125 
Q 56.890625 40.328125 50.609375 34.8125 
Q 44.34375 29.296875 32.078125 29.296875 
L 19.671875 29.296875 
L 19.671875 0 
L 9.8125 0 
z
" id="DejaVuSans-80"/>
      <path d="M 30.609375 48.390625 
Q 23.390625 48.390625 19.1875 42.75 
Q 14.984375 37.109375 14.984375 27.296875 
Q 14.984375 17.484375 19.15625 11.84375 
Q 23.34375 6.203125 30.609375 6.203125 
Q 37.796875 6.203125 41.984375 11.859375 
Q 46.1875 17.53125 46.1875 27.296875 
Q 46.1875 37.015625 41.984375 42.703125 
Q 37.796875 48.390625 30.609375 48.390625 
z
M 30.609375 56 
Q 42.328125 56 49.015625 48.375 
Q 55.71875 40.765625 55.71875 27.296875 
Q 55.71875 13.875 49.015625 6.21875 
Q 42.328125 -1.421875 30.609375 -1.421875 
Q 18.84375 -1.421875 12.171875 6.21875 
Q 5.515625 13.875 5.515625 27.296875 
Q 5.515625 40.765625 12.171875 48.375 
Q 18.84375 56 30.609375 56 
z
" id="DejaVuSans-111"/>
      <path d="M 9.421875 54.6875 
L 18.40625 54.6875 
L 18.40625 0 
L 9.421875 0 
z
M 9.421875 75.984375 
L 18.40625 75.984375 
L 18.40625 64.59375 
L 9.421875 64.59375 
z
" id="DejaVuSans-105"/>
      <path d="M 18.3125 70.21875 
L 18.3125 54.6875 
L 36.8125 54.6875 
L 36.8125 47.703125 
L 18.3125 47.703125 
L 18.3125 18.015625 
Q 18.3125 11.328125 20.140625 9.421875 
Q 21.96875 7.515625 27.59375 7.515625 
L 36.8125 7.515625 
L 36.8125 0 
L 27.59375 0 
Q 17.1875 0 13.234375 3.875 
Q 9.28125 7.765625 9.28125 18.015625 
L 9.28125 47.703125 
L 2.6875 47.703125 
L 2.6875 54.6875 
L 9.28125 54.6875 
L 9.28125 70.21875 
z
" id="DejaVuSans-116"/>
      <path d="M 2.984375 54.6875 
L 12.5 54.6875 
L 29.59375 8.796875 
L 46.6875 54.6875 
L 56.203125 54.6875 
L 35.6875 0 
L 23.484375 0 
z
" id="DejaVuSans-118"/>
      <path d="M 44.390625 34.1875 
Q 47.5625 33.109375 50.5625 29.59375 
Q 53.5625 26.078125 56.59375 19.921875 
L 66.609375 0 
L 56 0 
L 46.6875 18.703125 
Q 43.0625 26.03125 39.671875 28.421875 
Q 36.28125 30.8125 30.421875 30.8125 
L 19.671875 30.8125 
L 19.671875 0 
L 9.8125 0 
L 9.8125 72.90625 
L 32.078125 72.90625 
Q 44.578125 72.90625 50.734375 67.671875 
Q 56.890625 62.453125 56.890625 51.90625 
Q 56.890625 45.015625 53.6875 40.46875 
Q 50.484375 35.9375 44.390625 34.1875 
z
M 19.671875 64.796875 
L 19.671875 38.921875 
L 32.078125 38.921875 
Q 39.203125 38.921875 42.84375 42.21875 
Q 46.484375 45.515625 46.484375 51.90625 
Q 46.484375 58.296875 42.84375 61.546875 
Q 39.203125 64.796875 32.078125 64.796875 
z
" id="DejaVuSans-82"/>
     </defs>
     <g transform="translate(201.654531 331.916562)scale(0.1 -0.1)">
      <use xlink:href="#DejaVuSans-70"/>
      <use x="57.378906" xlink:href="#DejaVuSans-97"/>
      <use x="118.658203" xlink:href="#DejaVuSans-108"/>
      <use x="146.441406" xlink:href="#DejaVuSans-115"/>
      <use x="198.541016" xlink:href="#DejaVuSans-101"/>
      <use x="260.064453" xlink:href="#DejaVuSans-32"/>
      <use x="291.851562" xlink:href="#DejaVuSans-80"/>
      <use x="352.107422" xlink:href="#DejaVuSans-111"/>
      <use x="413.289062" xlink:href="#DejaVuSans-115"/>
      <use x="465.388672" xlink:href="#DejaVuSans-105"/>
      <use x="493.171875" xlink:href="#DejaVuSans-116"/>
      <use x="532.380859" xlink:href="#DejaVuSans-105"/>
      <use x="560.164062" xlink:href="#DejaVuSans-118"/>
      <use x="619.34375" xlink:href="#DejaVuSans-101"/>
      <use x="680.867188" xlink:href="#DejaVuSans-32"/>
      <use x="712.654297" xlink:href="#DejaVuSans-82"/>
      <use x="782.105469" xlink:href="#DejaVuSans-97"/>
      <use x="843.384766" xlink:href="#DejaVuSans-116"/>
      <use x="882.59375" xlink:href="#DejaVuSans-101"/>
     </g>
    </g>
   </g>
   <g id="matplotlib.axis_2">
    <g id="ytick_1">
     <g id="line2d_7">
      <defs>
       <path d="M 0 0 
L -3.5 0 
" id="m1a3d45fc16" style="stroke:#000000;stroke-width:0.8;"/>
      </defs>
      <g>
       <use style="stroke:#000000;stroke-width:0.8;" x="47.72" xlink:href="#m1a3d45fc16" y="290.994545"/>
      </g>
     </g>
     <g id="text_8">
      <!-- 0.0 -->
      <g transform="translate(24.816875 294.793764)scale(0.1 -0.1)">
       <use xlink:href="#DejaVuSans-48"/>
       <use x="63.623047" xlink:href="#DejaVuSans-46"/>
       <use x="95.410156" xlink:href="#DejaVuSans-48"/>
      </g>
     </g>
    </g>
    <g id="ytick_2">
     <g id="line2d_8">
      <g>
       <use style="stroke:#000000;stroke-width:0.8;" x="47.72" xlink:href="#m1a3d45fc16" y="240.412727"/>
      </g>
     </g>
     <g id="text_9">
      <!-- 0.2 -->
      <g transform="translate(24.816875 244.211946)scale(0.1 -0.1)">
       <use xlink:href="#DejaVuSans-48"/>
       <use x="63.623047" xlink:href="#DejaVuSans-46"/>
       <use x="95.410156" xlink:href="#DejaVuSans-50"/>
      </g>
     </g>
    </g>
    <g id="ytick_3">
     <g id="line2d_9">
      <g>
       <use style="stroke:#000000;stroke-width:0.8;" x="47.72" xlink:href="#m1a3d45fc16" y="189.830909"/>
      </g>
     </g>
     <g id="text_10">
      <!-- 0.4 -->
      <g transform="translate(24.816875 193.630128)scale(0.1 -0.1)">
       <use xlink:href="#DejaVuSans-48"/>
       <use x="63.623047" xlink:href="#DejaVuSans-46"/>
       <use x="95.410156" xlink:href="#DejaVuSans-52"/>
      </g>
     </g>
    </g>
    <g id="ytick_4">
     <g id="line2d_10">
      <g>
       <use style="stroke:#000000;stroke-width:0.8;" x="47.72" xlink:href="#m1a3d45fc16" y="139.249091"/>
      </g>
     </g>
     <g id="text_11">
      <!-- 0.6 -->
      <g transform="translate(24.816875 143.04831)scale(0.1 -0.1)">
       <use xlink:href="#DejaVuSans-48"/>
       <use x="63.623047" xlink:href="#DejaVuSans-46"/>
       <use x="95.410156" xlink:href="#DejaVuSans-54"/>
      </g>
     </g>
    </g>
    <g id="ytick_5">
     <g id="line2d_11">
      <g>
       <use style="stroke:#000000;stroke-width:0.8;" x="47.72" xlink:href="#m1a3d45fc16" y="88.667273"/>
      </g>
     </g>
     <g id="text_12">
      <!-- 0.8 -->
      <g transform="translate(24.816875 92.466491)scale(0.1 -0.1)">
       <use xlink:href="#DejaVuSans-48"/>
       <use x="63.623047" xlink:href="#DejaVuSans-46"/>
       <use x="95.410156" xlink:href="#DejaVuSans-56"/>
      </g>
     </g>
    </g>
    <g id="ytick_6">
     <g id="line2d_12">
      <g>
       <use style="stroke:#000000;stroke-width:0.8;" x="47.72" xlink:href="#m1a3d45fc16" y="38.085455"/>
      </g>
     </g>
     <g id="text_13">
      <!-- 1.0 -->
      <g transform="translate(24.816875 41.884673)scale(0.1 -0.1)">
       <use xlink:href="#DejaVuSans-49"/>
       <use x="63.623047" xlink:href="#DejaVuSans-46"/>
       <use x="95.410156" xlink:href="#DejaVuSans-48"/>
      </g>
     </g>
    </g>
    <g id="text_14">
     <!-- True Positive Rate -->
     <defs>
      <path d="M -0.296875 72.90625 
L 61.375 72.90625 
L 61.375 64.59375 
L 35.5 64.59375 
L 35.5 0 
L 25.59375 0 
L 25.59375 64.59375 
L -0.296875 64.59375 
z
" id="DejaVuSans-84"/>
      <path d="M 41.109375 46.296875 
Q 39.59375 47.171875 37.8125 47.578125 
Q 36.03125 48 33.890625 48 
Q 26.265625 48 22.1875 43.046875 
Q 18.109375 38.09375 18.109375 28.8125 
L 18.109375 0 
L 9.078125 0 
L 9.078125 54.6875 
L 18.109375 54.6875 
L 18.109375 46.1875 
Q 20.953125 51.171875 25.484375 53.578125 
Q 30.03125 56 36.53125 56 
Q 37.453125 56 38.578125 55.875 
Q 39.703125 55.765625 41.0625 55.515625 
z
" id="DejaVuSans-114"/>
      <path d="M 8.5 21.578125 
L 8.5 54.6875 
L 17.484375 54.6875 
L 17.484375 21.921875 
Q 17.484375 14.15625 20.5 10.265625 
Q 23.53125 6.390625 29.59375 6.390625 
Q 36.859375 6.390625 41.078125 11.03125 
Q 45.3125 15.671875 45.3125 23.6875 
L 45.3125 54.6875 
L 54.296875 54.6875 
L 54.296875 0 
L 45.3125 0 
L 45.3125 8.40625 
Q 42.046875 3.421875 37.71875 1 
Q 33.40625 -1.421875 27.6875 -1.421875 
Q 18.265625 -1.421875 13.375 4.4375 
Q 8.5 10.296875 8.5 21.578125 
z
M 31.109375 56 
z
" id="DejaVuSans-117"/>
     </defs>
     <g transform="translate(18.737187 210.086094)rotate(-90)scale(0.1 -0.1)">
      <use xlink:href="#DejaVuSans-84"/>
      <use x="60.865234" xlink:href="#DejaVuSans-114"/>
      <use x="101.978516" xlink:href="#DejaVuSans-117"/>
      <use x="165.357422" xlink:href="#DejaVuSans-101"/>
      <use x="226.880859" xlink:href="#DejaVuSans-32"/>
      <use x="258.667969" xlink:href="#DejaVuSans-80"/>
      <use x="318.923828" xlink:href="#DejaVuSans-111"/>
      <use x="380.105469" xlink:href="#DejaVuSans-115"/>
      <use x="432.205078" xlink:href="#DejaVuSans-105"/>
      <use x="459.988281" xlink:href="#DejaVuSans-116"/>
      <use x="499.197266" xlink:href="#DejaVuSans-105"/>
      <use x="526.980469" xlink:href="#DejaVuSans-118"/>
      <use x="586.160156" xlink:href="#DejaVuSans-101"/>
      <use x="647.683594" xlink:href="#DejaVuSans-32"/>
      <use x="679.470703" xlink:href="#DejaVuSans-82"/>
      <use x="748.921875" xlink:href="#DejaVuSans-97"/>
      <use x="810.201172" xlink:href="#DejaVuSans-116"/>
      <use x="849.410156" xlink:href="#DejaVuSans-101"/>
     </g>
    </g>
   </g>
   <g id="line2d_13">
    <path clip-path="url(#p6cc6e7d7f3)" d="M 66.005455 290.994545 
L 66.005455 287.103636 
L 71.631748 287.103636 
L 71.631748 275.430909 
L 77.258042 271.54 
L 77.258042 259.867273 
L 82.884336 255.976364 
L 82.884336 248.194545 
L 82.884336 240.412727 
L 88.510629 240.412727 
L 88.510629 236.521818 
L 94.136923 232.630909 
L 105.38951 232.630909 
L 105.38951 224.849091 
L 105.38951 213.176364 
L 105.38951 205.394545 
L 111.015804 201.503636 
L 111.015804 193.721818 
L 116.642098 193.721818 
L 116.642098 178.158182 
L 122.268392 178.158182 
L 122.268392 174.267273 
L 144.773566 174.267273 
L 144.773566 170.376364 
L 150.39986 170.376364 
L 156.026154 162.594545 
L 156.026154 158.703636 
L 161.652448 158.703636 
L 161.652448 154.812727 
L 167.278741 150.921818 
L 172.905035 150.921818 
L 184.157622 143.14 
L 189.783916 143.14 
L 189.783916 135.358182 
L 195.41021 135.358182 
L 195.41021 131.467273 
L 206.662797 131.467273 
L 206.662797 123.685455 
L 234.794266 123.685455 
L 234.794266 115.903636 
L 240.420559 115.903636 
L 251.673147 112.012727 
L 251.673147 108.121818 
L 268.552028 108.121818 
L 268.552028 104.230909 
L 274.178322 104.230909 
L 279.804615 100.34 
L 291.057203 100.34 
L 302.30979 100.34 
L 324.814965 100.34 
L 324.814965 92.558182 
L 330.441259 92.558182 
L 330.441259 88.667273 
L 341.693846 84.776364 
L 341.693846 76.994545 
L 341.693846 69.212727 
L 352.946434 69.212727 
L 352.946434 61.430909 
L 369.825315 61.430909 
L 369.825315 53.649091 
L 392.33049 53.649091 
L 392.33049 45.867273 
L 397.956783 45.867273 
L 397.956783 38.085455 
L 409.209371 38.085455 
L 426.088252 38.085455 
L 431.714545 38.085455 
" style="fill:none;stroke:#1f77b4;stroke-linecap:square;stroke-opacity:0.3;"/>
   </g>
   <g id="line2d_14">
    <path clip-path="url(#p6cc6e7d7f3)" d="M 66.005455 290.994545 
L 66.005455 287.103636 
L 71.631748 283.212727 
L 71.631748 275.430909 
L 71.631748 255.976364 
L 71.631748 244.303636 
L 77.258042 244.303636 
L 77.258042 240.412727 
L 77.258042 232.630909 
L 77.258042 224.849091 
L 77.258042 217.067273 
L 82.884336 217.067273 
L 82.884336 205.394545 
L 82.884336 189.830909 
L 82.884336 182.049091 
L 94.136923 182.049091 
L 94.136923 174.267273 
L 116.642098 174.267273 
L 116.642098 166.485455 
L 122.268392 166.485455 
L 122.268392 162.594545 
L 133.520979 162.594545 
L 133.520979 154.812727 
L 139.147273 150.921818 
L 144.773566 150.921818 
L 144.773566 147.030909 
L 150.39986 143.14 
L 167.278741 143.14 
L 167.278741 131.467273 
L 167.278741 123.685455 
L 178.531329 123.685455 
L 178.531329 115.903636 
L 184.157622 115.903636 
L 184.157622 112.012727 
L 184.157622 104.230909 
L 189.783916 104.230909 
L 189.783916 96.449091 
L 201.036503 96.449091 
L 201.036503 88.667273 
L 206.662797 88.667273 
L 206.662797 84.776364 
L 212.289091 84.776364 
L 223.541678 84.776364 
L 234.794266 84.776364 
L 234.794266 80.885455 
L 246.046853 80.885455 
L 246.046853 73.103636 
L 257.299441 73.103636 
L 257.299441 69.212727 
L 268.552028 69.212727 
L 274.178322 69.212727 
L 274.178322 65.321818 
L 296.683497 65.321818 
L 296.683497 61.430909 
L 307.936084 61.430909 
L 307.936084 53.649091 
L 319.188671 53.649091 
L 319.188671 49.758182 
L 324.814965 49.758182 
L 324.814965 45.867273 
L 341.693846 45.867273 
L 341.693846 41.976364 
L 381.077902 41.976364 
L 381.077902 38.085455 
L 386.704196 38.085455 
L 397.956783 38.085455 
L 431.714545 38.085455 
" style="fill:none;stroke:#ff7f0e;stroke-linecap:square;stroke-opacity:0.3;"/>
   </g>
   <g id="line2d_15">
    <path clip-path="url(#p6cc6e7d7f3)" d="M 66.005455 290.994545 
L 66.005455 283.212727 
L 66.005455 279.321818 
L 66.005455 263.758182 
L 66.005455 244.303636 
L 77.258042 244.303636 
L 77.258042 232.630909 
L 77.258042 224.849091 
L 77.258042 209.285455 
L 82.884336 209.285455 
L 94.136923 209.285455 
L 99.763217 209.285455 
L 99.763217 201.503636 
L 99.763217 185.94 
L 99.763217 182.049091 
L 105.38951 178.158182 
L 111.015804 178.158182 
L 111.015804 170.376364 
L 116.642098 166.485455 
L 116.642098 158.703636 
L 122.268392 158.703636 
L 122.268392 154.812727 
L 150.39986 154.812727 
L 150.39986 150.921818 
L 156.026154 150.921818 
L 156.026154 147.030909 
L 184.157622 147.030909 
L 184.157622 135.358182 
L 195.41021 135.358182 
L 206.662797 135.358182 
L 206.662797 131.467273 
L 212.289091 131.467273 
L 212.289091 127.576364 
L 223.541678 127.576364 
L 240.420559 127.576364 
L 246.046853 127.576364 
L 246.046853 123.685455 
L 262.925734 123.685455 
L 262.925734 112.012727 
L 268.552028 112.012727 
L 268.552028 108.121818 
L 274.178322 108.121818 
L 274.178322 100.34 
L 279.804615 100.34 
L 279.804615 84.776364 
L 313.562378 84.776364 
L 313.562378 80.885455 
L 319.188671 76.994545 
L 319.188671 73.103636 
L 324.814965 69.212727 
L 324.814965 65.321818 
L 330.441259 65.321818 
L 336.067552 61.430909 
L 347.32014 61.430909 
L 347.32014 57.54 
L 358.572727 57.54 
L 358.572727 53.649091 
L 369.825315 53.649091 
L 392.33049 53.649091 
L 397.956783 53.649091 
L 397.956783 45.867273 
L 420.461958 45.867273 
L 420.461958 38.085455 
L 431.714545 38.085455 
" style="fill:none;stroke:#2ca02c;stroke-linecap:square;stroke-opacity:0.3;"/>
   </g>
   <g id="line2d_16">
    <path clip-path="url(#p6cc6e7d7f3)" d="M 66.005455 290.994545 
L 66.005455 287.103636 
L 66.005455 275.430909 
L 66.005455 271.54 
L 66.005455 263.758182 
L 66.005455 252.085455 
L 71.631748 244.303636 
L 71.631748 228.74 
L 71.631748 220.958182 
L 82.884336 220.958182 
L 82.884336 213.176364 
L 88.510629 213.176364 
L 88.510629 205.394545 
L 94.136923 205.394545 
L 94.136923 197.612727 
L 99.763217 197.612727 
L 99.763217 189.830909 
L 105.38951 189.830909 
L 105.38951 182.049091 
L 111.015804 178.158182 
L 116.642098 178.158182 
L 116.642098 174.267273 
L 122.268392 170.376364 
L 127.894685 158.703636 
L 127.894685 154.812727 
L 139.147273 154.812727 
L 139.147273 147.030909 
L 144.773566 147.030909 
L 144.773566 139.249091 
L 172.905035 139.249091 
L 184.157622 139.249091 
L 189.783916 139.249091 
L 189.783916 135.358182 
L 195.41021 135.358182 
L 195.41021 131.467273 
L 201.036503 131.467273 
L 201.036503 123.685455 
L 206.662797 123.685455 
L 206.662797 119.794545 
L 229.167972 119.794545 
L 229.167972 115.903636 
L 234.794266 115.903636 
L 234.794266 108.121818 
L 251.673147 108.121818 
L 251.673147 104.230909 
L 262.925734 104.230909 
L 262.925734 100.34 
L 291.057203 100.34 
L 291.057203 96.449091 
L 307.936084 96.449091 
L 319.188671 92.558182 
L 324.814965 88.667273 
L 336.067552 88.667273 
L 347.32014 88.667273 
L 347.32014 84.776364 
L 381.077902 84.776364 
L 381.077902 73.103636 
L 392.33049 73.103636 
L 392.33049 69.212727 
L 397.956783 69.212727 
L 397.956783 53.649091 
L 409.209371 53.649091 
L 409.209371 49.758182 
L 420.461958 49.758182 
L 420.461958 41.976364 
L 426.088252 41.976364 
L 426.088252 38.085455 
L 431.714545 38.085455 
" style="fill:none;stroke:#d62728;stroke-linecap:square;stroke-opacity:0.3;"/>
   </g>
   <g id="line2d_17">
    <path clip-path="url(#p6cc6e7d7f3)" d="M 66.005455 290.994545 
L 66.005455 279.321818 
L 66.005455 275.430909 
L 66.005455 259.867273 
L 66.005455 236.521818 
L 71.631748 236.521818 
L 71.631748 228.74 
L 71.631748 217.067273 
L 77.258042 217.067273 
L 77.258042 205.394545 
L 82.884336 205.394545 
L 82.884336 201.503636 
L 94.136923 201.503636 
L 94.136923 197.612727 
L 94.136923 189.830909 
L 99.763217 189.830909 
L 99.763217 178.158182 
L 105.38951 178.158182 
L 122.268392 170.376364 
L 133.520979 170.376364 
L 133.520979 158.703636 
L 139.147273 158.703636 
L 139.147273 154.812727 
L 144.773566 154.812727 
L 144.773566 147.030909 
L 150.39986 147.030909 
L 150.39986 139.249091 
L 161.652448 139.249091 
L 167.278741 135.358182 
L 172.905035 135.358182 
L 172.905035 131.467273 
L 184.157622 131.467273 
L 184.157622 127.576364 
L 217.915385 127.576364 
L 217.915385 123.685455 
L 223.541678 123.685455 
L 223.541678 119.794545 
L 240.420559 119.794545 
L 240.420559 112.012727 
L 246.046853 112.012727 
L 246.046853 92.558182 
L 251.673147 88.667273 
L 251.673147 84.776364 
L 262.925734 84.776364 
L 262.925734 76.994545 
L 274.178322 76.994545 
L 274.178322 73.103636 
L 279.804615 73.103636 
L 279.804615 69.212727 
L 302.30979 69.212727 
L 330.441259 69.212727 
L 330.441259 61.430909 
L 336.067552 61.430909 
L 336.067552 57.54 
L 347.32014 57.54 
L 352.946434 53.649091 
L 352.946434 45.867273 
L 352.946434 41.976364 
L 420.461958 41.976364 
L 420.461958 38.085455 
L 431.714545 38.085455 
" style="fill:none;stroke:#9467bd;stroke-linecap:square;stroke-opacity:0.3;"/>
   </g>
   <g id="line2d_18">
    <path clip-path="url(#p6cc6e7d7f3)" d="M 66.005455 290.994545 
L 71.631748 287.103636 
L 71.631748 275.430909 
L 77.258042 271.54 
L 82.884336 271.54 
L 82.884336 267.649091 
L 94.136923 267.649091 
L 94.136923 263.758182 
L 105.38951 263.758182 
L 105.38951 255.976364 
L 105.38951 248.194545 
L 105.38951 244.303636 
L 111.015804 244.303636 
L 111.015804 232.630909 
L 111.015804 217.067273 
L 111.015804 213.176364 
L 116.642098 209.285455 
L 116.642098 201.503636 
L 122.268392 201.503636 
L 122.268392 197.612727 
L 127.894685 197.612727 
L 127.894685 193.721818 
L 139.147273 193.721818 
L 139.147273 185.94 
L 144.773566 185.94 
L 144.773566 174.267273 
L 150.39986 174.267273 
L 150.39986 166.485455 
L 156.026154 166.485455 
L 156.026154 162.594545 
L 172.905035 162.594545 
L 172.905035 147.030909 
L 172.905035 143.14 
L 178.531329 143.14 
L 178.531329 139.249091 
L 189.783916 139.249091 
L 189.783916 135.358182 
L 195.41021 135.358182 
L 206.662797 135.358182 
L 212.289091 135.358182 
L 212.289091 127.576364 
L 229.167972 127.576364 
L 229.167972 119.794545 
L 234.794266 119.794545 
L 234.794266 115.903636 
L 240.420559 115.903636 
L 246.046853 112.012727 
L 257.299441 112.012727 
L 257.299441 108.121818 
L 262.925734 108.121818 
L 262.925734 92.558182 
L 262.925734 84.776364 
L 268.552028 80.885455 
L 296.683497 80.885455 
L 296.683497 73.103636 
L 302.30979 69.212727 
L 302.30979 65.321818 
L 313.562378 65.321818 
L 324.814965 65.321818 
L 330.441259 61.430909 
L 330.441259 57.54 
L 341.693846 57.54 
L 341.693846 49.758182 
L 375.451608 49.758182 
L 375.451608 41.976364 
L 381.077902 41.976364 
L 381.077902 38.085455 
L 409.209371 38.085455 
L 420.461958 38.085455 
L 431.714545 38.085455 
" style="fill:none;stroke:#8c564b;stroke-linecap:square;stroke-opacity:0.3;"/>
   </g>
   <g id="line2d_19">
    <path clip-path="url(#p6cc6e7d7f3)" d="M 66.005455 290.994545 
L 66.005455 287.103636 
L 66.005455 271.54 
L 66.005455 244.303636 
L 66.005455 236.521818 
L 71.631748 236.521818 
L 71.631748 224.849091 
L 71.631748 217.067273 
L 71.631748 209.285455 
L 88.510629 209.285455 
L 88.510629 201.503636 
L 105.38951 201.503636 
L 105.38951 185.94 
L 111.015804 185.94 
L 111.015804 182.049091 
L 116.642098 178.158182 
L 127.894685 178.158182 
L 127.894685 170.376364 
L 139.147273 170.376364 
L 139.147273 166.485455 
L 150.39986 158.703636 
L 150.39986 154.812727 
L 156.026154 154.812727 
L 156.026154 150.921818 
L 172.905035 150.921818 
L 184.157622 143.14 
L 189.783916 143.14 
L 189.783916 139.249091 
L 195.41021 139.249091 
L 195.41021 135.358182 
L 201.036503 135.358182 
L 201.036503 131.467273 
L 201.036503 123.685455 
L 206.662797 123.685455 
L 206.662797 112.012727 
L 212.289091 112.012727 
L 212.289091 96.449091 
L 217.915385 96.449091 
L 217.915385 92.558182 
L 229.167972 92.558182 
L 229.167972 84.776364 
L 246.046853 84.776364 
L 251.673147 80.885455 
L 262.925734 80.885455 
L 279.804615 80.885455 
L 279.804615 73.103636 
L 285.430909 69.212727 
L 285.430909 65.321818 
L 296.683497 65.321818 
L 313.562378 65.321818 
L 324.814965 65.321818 
L 330.441259 65.321818 
L 341.693846 65.321818 
L 341.693846 61.430909 
L 369.825315 61.430909 
L 369.825315 57.54 
L 392.33049 57.54 
L 392.33049 53.649091 
L 403.583077 53.649091 
L 403.583077 38.085455 
L 431.714545 38.085455 
" style="fill:none;stroke:#e377c2;stroke-linecap:square;stroke-opacity:0.3;"/>
   </g>
   <g id="line2d_20">
    <path clip-path="url(#p6cc6e7d7f3)" d="M 66.005455 290.994545 
L 66.005455 287.103636 
L 66.005455 283.212727 
L 66.005455 275.430909 
L 66.005455 271.54 
L 71.631748 271.54 
L 71.631748 263.758182 
L 77.258042 259.867273 
L 82.884336 259.867273 
L 82.884336 252.085455 
L 88.510629 252.085455 
L 88.510629 248.194545 
L 88.510629 240.412727 
L 94.136923 236.521818 
L 94.136923 220.958182 
L 99.763217 217.067273 
L 99.763217 209.285455 
L 111.015804 209.285455 
L 111.015804 205.394545 
L 116.642098 197.612727 
L 116.642098 147.030909 
L 122.268392 147.030909 
L 122.268392 143.14 
L 133.520979 143.14 
L 133.520979 139.249091 
L 139.147273 139.249091 
L 139.147273 135.358182 
L 156.026154 135.358182 
L 156.026154 115.903636 
L 184.157622 115.903636 
L 189.783916 112.012727 
L 189.783916 108.121818 
L 195.41021 108.121818 
L 195.41021 104.230909 
L 201.036503 104.230909 
L 201.036503 96.449091 
L 201.036503 92.558182 
L 206.662797 88.667273 
L 217.915385 88.667273 
L 217.915385 80.885455 
L 285.430909 80.885455 
L 285.430909 73.103636 
L 307.936084 73.103636 
L 307.936084 69.212727 
L 307.936084 61.430909 
L 313.562378 61.430909 
L 319.188671 57.54 
L 324.814965 57.54 
L 330.441259 53.649091 
L 330.441259 45.867273 
L 336.067552 45.867273 
L 347.32014 41.976364 
L 392.33049 41.976364 
L 403.583077 41.976364 
L 414.835664 41.976364 
L 426.088252 38.085455 
L 431.714545 38.085455 
" style="fill:none;stroke:#7f7f7f;stroke-linecap:square;stroke-opacity:0.3;"/>
   </g>
   <g id="line2d_21">
    <path clip-path="url(#p6cc6e7d7f3)" d="M 66.005455 290.994545 
L 66.005455 283.212727 
L 66.005455 271.54 
L 66.005455 267.649091 
L 66.005455 259.867273 
L 71.631748 252.085455 
L 77.258042 252.085455 
L 77.258042 240.412727 
L 82.884336 236.521818 
L 82.884336 220.958182 
L 88.510629 220.958182 
L 88.510629 217.067273 
L 94.136923 217.067273 
L 94.136923 213.176364 
L 94.136923 205.394545 
L 94.136923 201.503636 
L 99.763217 201.503636 
L 99.763217 193.721818 
L 99.763217 189.830909 
L 105.38951 189.830909 
L 105.38951 182.049091 
L 111.015804 182.049091 
L 111.015804 166.485455 
L 116.642098 166.485455 
L 116.642098 143.14 
L 122.268392 143.14 
L 122.268392 135.358182 
L 122.268392 127.576364 
L 122.268392 119.794545 
L 139.147273 119.794545 
L 139.147273 115.903636 
L 139.147273 104.230909 
L 139.147273 100.34 
L 144.773566 100.34 
L 144.773566 96.449091 
L 172.905035 96.449091 
L 172.905035 88.667273 
L 184.157622 88.667273 
L 189.783916 84.776364 
L 206.662797 84.776364 
L 206.662797 80.885455 
L 251.673147 80.885455 
L 251.673147 76.994545 
L 268.552028 76.994545 
L 268.552028 73.103636 
L 285.430909 73.103636 
L 285.430909 65.321818 
L 302.30979 65.321818 
L 302.30979 61.430909 
L 307.936084 61.430909 
L 319.188671 61.430909 
L 319.188671 53.649091 
L 324.814965 49.758182 
L 336.067552 49.758182 
L 336.067552 45.867273 
L 341.693846 45.867273 
L 347.32014 41.976364 
L 352.946434 41.976364 
L 364.199021 41.976364 
L 364.199021 38.085455 
L 381.077902 38.085455 
L 397.956783 38.085455 
L 420.461958 38.085455 
L 431.714545 38.085455 
" style="fill:none;stroke:#bcbd22;stroke-linecap:square;stroke-opacity:0.3;"/>
   </g>
   <g id="line2d_22">
    <path clip-path="url(#p6cc6e7d7f3)" d="M 66.005455 290.994545 
L 66.005455 281.962078 
L 72.535974 281.962078 
L 72.535974 263.897143 
L 72.535974 259.380909 
L 79.066494 259.380909 
L 79.066494 223.251039 
L 79.066494 214.218571 
L 79.066494 209.702338 
L 79.066494 200.66987 
L 85.597013 200.66987 
L 85.597013 196.153636 
L 92.127532 196.153636 
L 92.127532 191.637403 
L 92.127532 182.604935 
L 105.188571 182.604935 
L 105.188571 150.991299 
L 111.719091 146.475065 
L 124.78013 146.475065 
L 124.78013 137.442597 
L 131.310649 137.442597 
L 131.310649 123.893896 
L 137.841169 123.893896 
L 137.841169 119.377662 
L 157.432727 119.377662 
L 157.432727 114.861429 
L 163.963247 114.861429 
L 163.963247 101.312727 
L 203.146364 101.312727 
L 203.146364 92.28026 
L 229.268442 92.28026 
L 235.798961 87.764026 
L 242.329481 87.764026 
L 242.329481 83.247792 
L 255.390519 83.247792 
L 255.390519 74.215325 
L 261.921039 74.215325 
L 261.921039 69.699091 
L 281.512597 69.699091 
L 294.573636 69.699091 
L 301.104156 69.699091 
L 307.634675 65.182857 
L 307.634675 60.666623 
L 320.695714 60.666623 
L 320.695714 56.15039 
L 327.226234 56.15039 
L 327.226234 51.634156 
L 340.287273 51.634156 
L 353.348312 51.634156 
L 353.348312 47.117922 
L 386.000909 47.117922 
L 386.000909 42.601688 
L 399.061948 42.601688 
L 399.061948 38.085455 
L 418.653506 38.085455 
L 431.714545 38.085455 
" style="fill:none;stroke:#17becf;stroke-linecap:square;stroke-opacity:0.3;"/>
   </g>
   <g id="line2d_23">
    <path clip-path="url(#p6cc6e7d7f3)" d="M 66.005455 290.994545 
L 431.714545 38.085455 
" style="fill:none;stroke:#ff0000;stroke-dasharray:7.4,3.2;stroke-dashoffset:0;stroke-opacity:0.8;stroke-width:2;"/>
   </g>
   <g id="line2d_24">
    <path clip-path="url(#p6cc6e7d7f3)" d="M 66.005455 290.994545 
L 69.699486 263.267607 
L 73.393517 245.834945 
L 77.087548 245.068554 
L 80.781579 228.947459 
L 84.475611 219.707532 
L 88.169642 219.255909 
L 91.863673 215.290326 
L 95.557704 207.297329 
L 99.251736 207.041865 
L 102.945767 200.171856 
L 106.639798 188.728742 
L 110.333829 187.792042 
L 114.02786 179.386466 
L 117.721892 166.564807 
L 121.415923 166.139035 
L 125.109954 160.268001 
L 128.803985 158.133896 
L 132.498017 156.779026 
L 136.192048 154.259761 
L 139.886079 148.883583 
L 143.58011 148.628119 
L 147.274141 144.308817 
L 150.968173 141.463344 
L 154.662204 140.952416 
L 158.356235 136.810325 
L 162.050266 136.366211 
L 165.744298 134.500413 
L 169.438329 132.342727 
L 173.13236 129.198558 
L 176.826391 128.687631 
L 180.520422 127.009431 
L 184.214454 123.774867 
L 187.908485 123.263939 
L 191.602516 119.891818 
L 195.296547 119.891818 
L 198.990579 118.335455 
L 202.68461 114.330569 
L 206.378641 113.171859 
L 210.072672 109.65039 
L 213.766703 106.926753 
L 217.460735 106.926753 
L 221.154766 105.37039 
L 224.848797 104.981299 
L 228.542828 104.981299 
L 232.23686 102.830561 
L 235.930891 100.249675 
L 239.624922 100.249675 
L 243.318953 98.719209 
L 247.012984 95.156473 
L 250.707016 94.517813 
L 254.401047 92.794416 
L 258.095078 91.112987 
L 261.789109 91.112987 
L 265.48314 85.815413 
L 269.177172 84.435909 
L 272.871203 84.435909 
L 276.565234 82.714477 
L 280.259265 79.735376 
L 283.953297 79.479913 
L 287.647328 77.432273 
L 291.341359 77.043182 
L 295.03539 77.043182 
L 298.729421 75.734421 
L 302.423453 74.617399 
L 306.117484 74.361936 
L 309.811515 71.795087 
L 313.505546 71.667355 
L 317.199578 70.647465 
L 320.893609 67.941865 
L 324.58764 67.175474 
L 328.281671 64.640839 
L 331.975702 61.848424 
L 335.669734 61.465228 
L 339.363765 60.417827 
L 343.057796 57.002473 
L 346.751827 56.619278 
L 350.445859 55.565981 
L 354.13989 52.995974 
L 357.833921 52.995974 
L 361.527952 52.606883 
L 365.221983 52.217792 
L 368.916015 52.217792 
L 372.610046 51.050519 
L 376.304077 50.272338 
L 379.998108 50.272338 
L 383.69214 48.326883 
L 387.386171 47.87526 
L 391.080202 47.87526 
L 394.774233 46.318896 
L 398.468264 43.206169 
L 402.162296 42.754545 
L 405.856327 41.198182 
L 409.550358 40.809091 
L 413.244389 40.809091 
L 416.938421 40.736382 
L 420.632452 38.663196 
L 424.326483 38.535464 
L 428.020514 38.085455 
L 431.714545 38.085455 
" style="fill:none;stroke:#0000ff;stroke-linecap:square;stroke-opacity:0.8;stroke-width:2;"/>
   </g>
   <g id="patch_3">
    <path d="M 47.72 303.64 
L 47.72 25.44 
" style="fill:none;stroke:#000000;stroke-linecap:square;stroke-linejoin:miter;stroke-width:0.8;"/>
   </g>
   <g id="patch_4">
    <path d="M 450 303.64 
L 450 25.44 
" style="fill:none;stroke:#000000;stroke-linecap:square;stroke-linejoin:miter;stroke-width:0.8;"/>
   </g>
   <g id="patch_5">
    <path d="M 47.72 303.64 
L 450 303.64 
" style="fill:none;stroke:#000000;stroke-linecap:square;stroke-linejoin:miter;stroke-width:0.8;"/>
   </g>
   <g id="patch_6">
    <path d="M 47.72 25.44 
L 450 25.44 
" style="fill:none;stroke:#000000;stroke-linecap:square;stroke-linejoin:miter;stroke-width:0.8;"/>
   </g>
   <g id="text_15">
    <!-- Receiver operating characteristic: inversions -->
    <defs>
     <path d="M 48.78125 52.59375 
L 48.78125 44.1875 
Q 44.96875 46.296875 41.140625 47.34375 
Q 37.3125 48.390625 33.40625 48.390625 
Q 24.65625 48.390625 19.8125 42.84375 
Q 14.984375 37.3125 14.984375 27.296875 
Q 14.984375 17.28125 19.8125 11.734375 
Q 24.65625 6.203125 33.40625 6.203125 
Q 37.3125 6.203125 41.140625 7.25 
Q 44.96875 8.296875 48.78125 10.40625 
L 48.78125 2.09375 
Q 45.015625 0.34375 40.984375 -0.53125 
Q 36.96875 -1.421875 32.421875 -1.421875 
Q 20.0625 -1.421875 12.78125 6.34375 
Q 5.515625 14.109375 5.515625 27.296875 
Q 5.515625 40.671875 12.859375 48.328125 
Q 20.21875 56 33.015625 56 
Q 37.15625 56 41.109375 55.140625 
Q 45.0625 54.296875 48.78125 52.59375 
z
" id="DejaVuSans-99"/>
     <path d="M 18.109375 8.203125 
L 18.109375 -20.796875 
L 9.078125 -20.796875 
L 9.078125 54.6875 
L 18.109375 54.6875 
L 18.109375 46.390625 
Q 20.953125 51.265625 25.265625 53.625 
Q 29.59375 56 35.59375 56 
Q 45.5625 56 51.78125 48.09375 
Q 58.015625 40.1875 58.015625 27.296875 
Q 58.015625 14.40625 51.78125 6.484375 
Q 45.5625 -1.421875 35.59375 -1.421875 
Q 29.59375 -1.421875 25.265625 0.953125 
Q 20.953125 3.328125 18.109375 8.203125 
z
M 48.6875 27.296875 
Q 48.6875 37.203125 44.609375 42.84375 
Q 40.53125 48.484375 33.40625 48.484375 
Q 26.265625 48.484375 22.1875 42.84375 
Q 18.109375 37.203125 18.109375 27.296875 
Q 18.109375 17.390625 22.1875 11.75 
Q 26.265625 6.109375 33.40625 6.109375 
Q 40.53125 6.109375 44.609375 11.75 
Q 48.6875 17.390625 48.6875 27.296875 
z
" id="DejaVuSans-112"/>
     <path d="M 54.890625 33.015625 
L 54.890625 0 
L 45.90625 0 
L 45.90625 32.71875 
Q 45.90625 40.484375 42.875 44.328125 
Q 39.84375 48.1875 33.796875 48.1875 
Q 26.515625 48.1875 22.3125 43.546875 
Q 18.109375 38.921875 18.109375 30.90625 
L 18.109375 0 
L 9.078125 0 
L 9.078125 54.6875 
L 18.109375 54.6875 
L 18.109375 46.1875 
Q 21.34375 51.125 25.703125 53.5625 
Q 30.078125 56 35.796875 56 
Q 45.21875 56 50.046875 50.171875 
Q 54.890625 44.34375 54.890625 33.015625 
z
" id="DejaVuSans-110"/>
     <path d="M 45.40625 27.984375 
Q 45.40625 37.75 41.375 43.109375 
Q 37.359375 48.484375 30.078125 48.484375 
Q 22.859375 48.484375 18.828125 43.109375 
Q 14.796875 37.75 14.796875 27.984375 
Q 14.796875 18.265625 18.828125 12.890625 
Q 22.859375 7.515625 30.078125 7.515625 
Q 37.359375 7.515625 41.375 12.890625 
Q 45.40625 18.265625 45.40625 27.984375 
z
M 54.390625 6.78125 
Q 54.390625 -7.171875 48.1875 -13.984375 
Q 42 -20.796875 29.203125 -20.796875 
Q 24.46875 -20.796875 20.265625 -20.09375 
Q 16.0625 -19.390625 12.109375 -17.921875 
L 12.109375 -9.1875 
Q 16.0625 -11.328125 19.921875 -12.34375 
Q 23.78125 -13.375 27.78125 -13.375 
Q 36.625 -13.375 41.015625 -8.765625 
Q 45.40625 -4.15625 45.40625 5.171875 
L 45.40625 9.625 
Q 42.625 4.78125 38.28125 2.390625 
Q 33.9375 0 27.875 0 
Q 17.828125 0 11.671875 7.65625 
Q 5.515625 15.328125 5.515625 27.984375 
Q 5.515625 40.671875 11.671875 48.328125 
Q 17.828125 56 27.875 56 
Q 33.9375 56 38.28125 53.609375 
Q 42.625 51.21875 45.40625 46.390625 
L 45.40625 54.6875 
L 54.390625 54.6875 
z
" id="DejaVuSans-103"/>
     <path d="M 54.890625 33.015625 
L 54.890625 0 
L 45.90625 0 
L 45.90625 32.71875 
Q 45.90625 40.484375 42.875 44.328125 
Q 39.84375 48.1875 33.796875 48.1875 
Q 26.515625 48.1875 22.3125 43.546875 
Q 18.109375 38.921875 18.109375 30.90625 
L 18.109375 0 
L 9.078125 0 
L 9.078125 75.984375 
L 18.109375 75.984375 
L 18.109375 46.1875 
Q 21.34375 51.125 25.703125 53.5625 
Q 30.078125 56 35.796875 56 
Q 45.21875 56 50.046875 50.171875 
Q 54.890625 44.34375 54.890625 33.015625 
z
" id="DejaVuSans-104"/>
     <path d="M 11.71875 12.40625 
L 22.015625 12.40625 
L 22.015625 0 
L 11.71875 0 
z
M 11.71875 51.703125 
L 22.015625 51.703125 
L 22.015625 39.3125 
L 11.71875 39.3125 
z
" id="DejaVuSans-58"/>
    </defs>
    <g transform="translate(114.534062 19.44)scale(0.12 -0.12)">
     <use xlink:href="#DejaVuSans-82"/>
     <use x="69.419922" xlink:href="#DejaVuSans-101"/>
     <use x="130.943359" xlink:href="#DejaVuSans-99"/>
     <use x="185.923828" xlink:href="#DejaVuSans-101"/>
     <use x="247.447266" xlink:href="#DejaVuSans-105"/>
     <use x="275.230469" xlink:href="#DejaVuSans-118"/>
     <use x="334.410156" xlink:href="#DejaVuSans-101"/>
     <use x="395.933594" xlink:href="#DejaVuSans-114"/>
     <use x="437.046875" xlink:href="#DejaVuSans-32"/>
     <use x="468.833984" xlink:href="#DejaVuSans-111"/>
     <use x="530.015625" xlink:href="#DejaVuSans-112"/>
     <use x="593.492188" xlink:href="#DejaVuSans-101"/>
     <use x="655.015625" xlink:href="#DejaVuSans-114"/>
     <use x="696.128906" xlink:href="#DejaVuSans-97"/>
     <use x="757.408203" xlink:href="#DejaVuSans-116"/>
     <use x="796.617188" xlink:href="#DejaVuSans-105"/>
     <use x="824.400391" xlink:href="#DejaVuSans-110"/>
     <use x="887.779297" xlink:href="#DejaVuSans-103"/>
     <use x="951.255859" xlink:href="#DejaVuSans-32"/>
     <use x="983.042969" xlink:href="#DejaVuSans-99"/>
     <use x="1038.023438" xlink:href="#DejaVuSans-104"/>
     <use x="1101.402344" xlink:href="#DejaVuSans-97"/>
     <use x="1162.681641" xlink:href="#DejaVuSans-114"/>
     <use x="1203.794922" xlink:href="#DejaVuSans-97"/>
     <use x="1265.074219" xlink:href="#DejaVuSans-99"/>
     <use x="1320.054688" xlink:href="#DejaVuSans-116"/>
     <use x="1359.263672" xlink:href="#DejaVuSans-101"/>
     <use x="1420.787109" xlink:href="#DejaVuSans-114"/>
     <use x="1461.900391" xlink:href="#DejaVuSans-105"/>
     <use x="1489.683594" xlink:href="#DejaVuSans-115"/>
     <use x="1541.783203" xlink:href="#DejaVuSans-116"/>
     <use x="1580.992188" xlink:href="#DejaVuSans-105"/>
     <use x="1608.775391" xlink:href="#DejaVuSans-99"/>
     <use x="1663.755859" xlink:href="#DejaVuSans-58"/>
     <use x="1697.447266" xlink:href="#DejaVuSans-32"/>
     <use x="1729.234375" xlink:href="#DejaVuSans-105"/>
     <use x="1757.017578" xlink:href="#DejaVuSans-110"/>
     <use x="1820.396484" xlink:href="#DejaVuSans-118"/>
     <use x="1879.576172" xlink:href="#DejaVuSans-101"/>
     <use x="1941.099609" xlink:href="#DejaVuSans-114"/>
     <use x="1982.212891" xlink:href="#DejaVuSans-115"/>
     <use x="2034.3125" xlink:href="#DejaVuSans-105"/>
     <use x="2062.095703" xlink:href="#DejaVuSans-111"/>
     <use x="2123.277344" xlink:href="#DejaVuSans-110"/>
     <use x="2186.65625" xlink:href="#DejaVuSans-115"/>
    </g>
   </g>
   <g id="legend_1">
    <g id="patch_7">
     <path d="M 252.6 298.64 
L 443 298.64 
Q 445 298.64 445 296.64 
L 445 106.824375 
Q 445 104.824375 443 104.824375 
L 252.6 104.824375 
Q 250.6 104.824375 250.6 106.824375 
L 250.6 296.64 
Q 250.6 298.64 252.6 298.64 
z
" style="fill:#ffffff;opacity:0.8;stroke:#cccccc;stroke-linejoin:miter;"/>
    </g>
    <g id="line2d_25">
     <path d="M 254.6 112.922812 
L 274.6 112.922812 
" style="fill:none;stroke:#1f77b4;stroke-linecap:square;stroke-opacity:0.3;"/>
    </g>
    <g id="line2d_26"/>
    <g id="text_16">
     <!-- ROC fold 0 (AUC = 0.66) -->
     <defs>
      <path d="M 39.40625 66.21875 
Q 28.65625 66.21875 22.328125 58.203125 
Q 16.015625 50.203125 16.015625 36.375 
Q 16.015625 22.609375 22.328125 14.59375 
Q 28.65625 6.59375 39.40625 6.59375 
Q 50.140625 6.59375 56.421875 14.59375 
Q 62.703125 22.609375 62.703125 36.375 
Q 62.703125 50.203125 56.421875 58.203125 
Q 50.140625 66.21875 39.40625 66.21875 
z
M 39.40625 74.21875 
Q 54.734375 74.21875 63.90625 63.9375 
Q 73.09375 53.65625 73.09375 36.375 
Q 73.09375 19.140625 63.90625 8.859375 
Q 54.734375 -1.421875 39.40625 -1.421875 
Q 24.03125 -1.421875 14.8125 8.828125 
Q 5.609375 19.09375 5.609375 36.375 
Q 5.609375 53.65625 14.8125 63.9375 
Q 24.03125 74.21875 39.40625 74.21875 
z
" id="DejaVuSans-79"/>
      <path d="M 64.40625 67.28125 
L 64.40625 56.890625 
Q 59.421875 61.53125 53.78125 63.8125 
Q 48.140625 66.109375 41.796875 66.109375 
Q 29.296875 66.109375 22.65625 58.46875 
Q 16.015625 50.828125 16.015625 36.375 
Q 16.015625 21.96875 22.65625 14.328125 
Q 29.296875 6.6875 41.796875 6.6875 
Q 48.140625 6.6875 53.78125 8.984375 
Q 59.421875 11.28125 64.40625 15.921875 
L 64.40625 5.609375 
Q 59.234375 2.09375 53.4375 0.328125 
Q 47.65625 -1.421875 41.21875 -1.421875 
Q 24.65625 -1.421875 15.125 8.703125 
Q 5.609375 18.84375 5.609375 36.375 
Q 5.609375 53.953125 15.125 64.078125 
Q 24.65625 74.21875 41.21875 74.21875 
Q 47.75 74.21875 53.53125 72.484375 
Q 59.328125 70.75 64.40625 67.28125 
z
" id="DejaVuSans-67"/>
      <path d="M 37.109375 75.984375 
L 37.109375 68.5 
L 28.515625 68.5 
Q 23.6875 68.5 21.796875 66.546875 
Q 19.921875 64.59375 19.921875 59.515625 
L 19.921875 54.6875 
L 34.71875 54.6875 
L 34.71875 47.703125 
L 19.921875 47.703125 
L 19.921875 0 
L 10.890625 0 
L 10.890625 47.703125 
L 2.296875 47.703125 
L 2.296875 54.6875 
L 10.890625 54.6875 
L 10.890625 58.5 
Q 10.890625 67.625 15.140625 71.796875 
Q 19.390625 75.984375 28.609375 75.984375 
z
" id="DejaVuSans-102"/>
      <path d="M 45.40625 46.390625 
L 45.40625 75.984375 
L 54.390625 75.984375 
L 54.390625 0 
L 45.40625 0 
L 45.40625 8.203125 
Q 42.578125 3.328125 38.25 0.953125 
Q 33.9375 -1.421875 27.875 -1.421875 
Q 17.96875 -1.421875 11.734375 6.484375 
Q 5.515625 14.40625 5.515625 27.296875 
Q 5.515625 40.1875 11.734375 48.09375 
Q 17.96875 56 27.875 56 
Q 33.9375 56 38.25 53.625 
Q 42.578125 51.265625 45.40625 46.390625 
z
M 14.796875 27.296875 
Q 14.796875 17.390625 18.875 11.75 
Q 22.953125 6.109375 30.078125 6.109375 
Q 37.203125 6.109375 41.296875 11.75 
Q 45.40625 17.390625 45.40625 27.296875 
Q 45.40625 37.203125 41.296875 42.84375 
Q 37.203125 48.484375 30.078125 48.484375 
Q 22.953125 48.484375 18.875 42.84375 
Q 14.796875 37.203125 14.796875 27.296875 
z
" id="DejaVuSans-100"/>
      <path d="M 31 75.875 
Q 24.46875 64.65625 21.28125 53.65625 
Q 18.109375 42.671875 18.109375 31.390625 
Q 18.109375 20.125 21.3125 9.0625 
Q 24.515625 -2 31 -13.1875 
L 23.1875 -13.1875 
Q 15.875 -1.703125 12.234375 9.375 
Q 8.59375 20.453125 8.59375 31.390625 
Q 8.59375 42.28125 12.203125 53.3125 
Q 15.828125 64.359375 23.1875 75.875 
z
" id="DejaVuSans-40"/>
      <path d="M 34.1875 63.1875 
L 20.796875 26.90625 
L 47.609375 26.90625 
z
M 28.609375 72.90625 
L 39.796875 72.90625 
L 67.578125 0 
L 57.328125 0 
L 50.6875 18.703125 
L 17.828125 18.703125 
L 11.1875 0 
L 0.78125 0 
z
" id="DejaVuSans-65"/>
      <path d="M 8.6875 72.90625 
L 18.609375 72.90625 
L 18.609375 28.609375 
Q 18.609375 16.890625 22.84375 11.734375 
Q 27.09375 6.59375 36.625 6.59375 
Q 46.09375 6.59375 50.34375 11.734375 
Q 54.59375 16.890625 54.59375 28.609375 
L 54.59375 72.90625 
L 64.5 72.90625 
L 64.5 27.390625 
Q 64.5 13.140625 57.4375 5.859375 
Q 50.390625 -1.421875 36.625 -1.421875 
Q 22.796875 -1.421875 15.734375 5.859375 
Q 8.6875 13.140625 8.6875 27.390625 
z
" id="DejaVuSans-85"/>
      <path d="M 10.59375 45.40625 
L 73.1875 45.40625 
L 73.1875 37.203125 
L 10.59375 37.203125 
z
M 10.59375 25.484375 
L 73.1875 25.484375 
L 73.1875 17.1875 
L 10.59375 17.1875 
z
" id="DejaVuSans-61"/>
      <path d="M 8.015625 75.875 
L 15.828125 75.875 
Q 23.140625 64.359375 26.78125 53.3125 
Q 30.421875 42.28125 30.421875 31.390625 
Q 30.421875 20.453125 26.78125 9.375 
Q 23.140625 -1.703125 15.828125 -13.1875 
L 8.015625 -13.1875 
Q 14.5 -2 17.703125 9.0625 
Q 20.90625 20.125 20.90625 31.390625 
Q 20.90625 42.671875 17.703125 53.65625 
Q 14.5 64.65625 8.015625 75.875 
z
" id="DejaVuSans-41"/>
     </defs>
     <g transform="translate(282.6 116.422812)scale(0.1 -0.1)">
      <use xlink:href="#DejaVuSans-82"/>
      <use x="69.482422" xlink:href="#DejaVuSans-79"/>
      <use x="148.193359" xlink:href="#DejaVuSans-67"/>
      <use x="218.017578" xlink:href="#DejaVuSans-32"/>
      <use x="249.804688" xlink:href="#DejaVuSans-102"/>
      <use x="285.009766" xlink:href="#DejaVuSans-111"/>
      <use x="346.191406" xlink:href="#DejaVuSans-108"/>
      <use x="373.974609" xlink:href="#DejaVuSans-100"/>
      <use x="437.451172" xlink:href="#DejaVuSans-32"/>
      <use x="469.238281" xlink:href="#DejaVuSans-48"/>
      <use x="532.861328" xlink:href="#DejaVuSans-32"/>
      <use x="564.648438" xlink:href="#DejaVuSans-40"/>
      <use x="603.662109" xlink:href="#DejaVuSans-65"/>
      <use x="672.070312" xlink:href="#DejaVuSans-85"/>
      <use x="745.263672" xlink:href="#DejaVuSans-67"/>
      <use x="815.087891" xlink:href="#DejaVuSans-32"/>
      <use x="846.875" xlink:href="#DejaVuSans-61"/>
      <use x="930.664062" xlink:href="#DejaVuSans-32"/>
      <use x="962.451172" xlink:href="#DejaVuSans-48"/>
      <use x="1026.074219" xlink:href="#DejaVuSans-46"/>
      <use x="1057.861328" xlink:href="#DejaVuSans-54"/>
      <use x="1121.484375" xlink:href="#DejaVuSans-54"/>
      <use x="1185.107422" xlink:href="#DejaVuSans-41"/>
     </g>
    </g>
    <g id="line2d_27">
     <path d="M 254.6 127.600938 
L 274.6 127.600938 
" style="fill:none;stroke:#ff7f0e;stroke-linecap:square;stroke-opacity:0.3;"/>
    </g>
    <g id="line2d_28"/>
    <g id="text_17">
     <!-- ROC fold 1 (AUC = 0.77) -->
     <defs>
      <path d="M 8.203125 72.90625 
L 55.078125 72.90625 
L 55.078125 68.703125 
L 28.609375 0 
L 18.3125 0 
L 43.21875 64.59375 
L 8.203125 64.59375 
z
" id="DejaVuSans-55"/>
     </defs>
     <g transform="translate(282.6 131.100938)scale(0.1 -0.1)">
      <use xlink:href="#DejaVuSans-82"/>
      <use x="69.482422" xlink:href="#DejaVuSans-79"/>
      <use x="148.193359" xlink:href="#DejaVuSans-67"/>
      <use x="218.017578" xlink:href="#DejaVuSans-32"/>
      <use x="249.804688" xlink:href="#DejaVuSans-102"/>
      <use x="285.009766" xlink:href="#DejaVuSans-111"/>
      <use x="346.191406" xlink:href="#DejaVuSans-108"/>
      <use x="373.974609" xlink:href="#DejaVuSans-100"/>
      <use x="437.451172" xlink:href="#DejaVuSans-32"/>
      <use x="469.238281" xlink:href="#DejaVuSans-49"/>
      <use x="532.861328" xlink:href="#DejaVuSans-32"/>
      <use x="564.648438" xlink:href="#DejaVuSans-40"/>
      <use x="603.662109" xlink:href="#DejaVuSans-65"/>
      <use x="672.070312" xlink:href="#DejaVuSans-85"/>
      <use x="745.263672" xlink:href="#DejaVuSans-67"/>
      <use x="815.087891" xlink:href="#DejaVuSans-32"/>
      <use x="846.875" xlink:href="#DejaVuSans-61"/>
      <use x="930.664062" xlink:href="#DejaVuSans-32"/>
      <use x="962.451172" xlink:href="#DejaVuSans-48"/>
      <use x="1026.074219" xlink:href="#DejaVuSans-46"/>
      <use x="1057.861328" xlink:href="#DejaVuSans-55"/>
      <use x="1121.484375" xlink:href="#DejaVuSans-55"/>
      <use x="1185.107422" xlink:href="#DejaVuSans-41"/>
     </g>
    </g>
    <g id="line2d_29">
     <path d="M 254.6 142.279063 
L 274.6 142.279063 
" style="fill:none;stroke:#2ca02c;stroke-linecap:square;stroke-opacity:0.3;"/>
    </g>
    <g id="line2d_30"/>
    <g id="text_18">
     <!-- ROC fold 2 (AUC = 0.70) -->
     <g transform="translate(282.6 145.779063)scale(0.1 -0.1)">
      <use xlink:href="#DejaVuSans-82"/>
      <use x="69.482422" xlink:href="#DejaVuSans-79"/>
      <use x="148.193359" xlink:href="#DejaVuSans-67"/>
      <use x="218.017578" xlink:href="#DejaVuSans-32"/>
      <use x="249.804688" xlink:href="#DejaVuSans-102"/>
      <use x="285.009766" xlink:href="#DejaVuSans-111"/>
      <use x="346.191406" xlink:href="#DejaVuSans-108"/>
      <use x="373.974609" xlink:href="#DejaVuSans-100"/>
      <use x="437.451172" xlink:href="#DejaVuSans-32"/>
      <use x="469.238281" xlink:href="#DejaVuSans-50"/>
      <use x="532.861328" xlink:href="#DejaVuSans-32"/>
      <use x="564.648438" xlink:href="#DejaVuSans-40"/>
      <use x="603.662109" xlink:href="#DejaVuSans-65"/>
      <use x="672.070312" xlink:href="#DejaVuSans-85"/>
      <use x="745.263672" xlink:href="#DejaVuSans-67"/>
      <use x="815.087891" xlink:href="#DejaVuSans-32"/>
      <use x="846.875" xlink:href="#DejaVuSans-61"/>
      <use x="930.664062" xlink:href="#DejaVuSans-32"/>
      <use x="962.451172" xlink:href="#DejaVuSans-48"/>
      <use x="1026.074219" xlink:href="#DejaVuSans-46"/>
      <use x="1057.861328" xlink:href="#DejaVuSans-55"/>
      <use x="1121.484375" xlink:href="#DejaVuSans-48"/>
      <use x="1185.107422" xlink:href="#DejaVuSans-41"/>
     </g>
    </g>
    <g id="line2d_31">
     <path d="M 254.6 156.957188 
L 274.6 156.957188 
" style="fill:none;stroke:#d62728;stroke-linecap:square;stroke-opacity:0.3;"/>
    </g>
    <g id="line2d_32"/>
    <g id="text_19">
     <!-- ROC fold 3 (AUC = 0.68) -->
     <defs>
      <path d="M 40.578125 39.3125 
Q 47.65625 37.796875 51.625 33 
Q 55.609375 28.21875 55.609375 21.1875 
Q 55.609375 10.40625 48.1875 4.484375 
Q 40.765625 -1.421875 27.09375 -1.421875 
Q 22.515625 -1.421875 17.65625 -0.515625 
Q 12.796875 0.390625 7.625 2.203125 
L 7.625 11.71875 
Q 11.71875 9.328125 16.59375 8.109375 
Q 21.484375 6.890625 26.8125 6.890625 
Q 36.078125 6.890625 40.9375 10.546875 
Q 45.796875 14.203125 45.796875 21.1875 
Q 45.796875 27.640625 41.28125 31.265625 
Q 36.765625 34.90625 28.71875 34.90625 
L 20.21875 34.90625 
L 20.21875 43.015625 
L 29.109375 43.015625 
Q 36.375 43.015625 40.234375 45.921875 
Q 44.09375 48.828125 44.09375 54.296875 
Q 44.09375 59.90625 40.109375 62.90625 
Q 36.140625 65.921875 28.71875 65.921875 
Q 24.65625 65.921875 20.015625 65.03125 
Q 15.375 64.15625 9.8125 62.3125 
L 9.8125 71.09375 
Q 15.4375 72.65625 20.34375 73.4375 
Q 25.25 74.21875 29.59375 74.21875 
Q 40.828125 74.21875 47.359375 69.109375 
Q 53.90625 64.015625 53.90625 55.328125 
Q 53.90625 49.265625 50.4375 45.09375 
Q 46.96875 40.921875 40.578125 39.3125 
z
" id="DejaVuSans-51"/>
     </defs>
     <g transform="translate(282.6 160.457188)scale(0.1 -0.1)">
      <use xlink:href="#DejaVuSans-82"/>
      <use x="69.482422" xlink:href="#DejaVuSans-79"/>
      <use x="148.193359" xlink:href="#DejaVuSans-67"/>
      <use x="218.017578" xlink:href="#DejaVuSans-32"/>
      <use x="249.804688" xlink:href="#DejaVuSans-102"/>
      <use x="285.009766" xlink:href="#DejaVuSans-111"/>
      <use x="346.191406" xlink:href="#DejaVuSans-108"/>
      <use x="373.974609" xlink:href="#DejaVuSans-100"/>
      <use x="437.451172" xlink:href="#DejaVuSans-32"/>
      <use x="469.238281" xlink:href="#DejaVuSans-51"/>
      <use x="532.861328" xlink:href="#DejaVuSans-32"/>
      <use x="564.648438" xlink:href="#DejaVuSans-40"/>
      <use x="603.662109" xlink:href="#DejaVuSans-65"/>
      <use x="672.070312" xlink:href="#DejaVuSans-85"/>
      <use x="745.263672" xlink:href="#DejaVuSans-67"/>
      <use x="815.087891" xlink:href="#DejaVuSans-32"/>
      <use x="846.875" xlink:href="#DejaVuSans-61"/>
      <use x="930.664062" xlink:href="#DejaVuSans-32"/>
      <use x="962.451172" xlink:href="#DejaVuSans-48"/>
      <use x="1026.074219" xlink:href="#DejaVuSans-46"/>
      <use x="1057.861328" xlink:href="#DejaVuSans-54"/>
      <use x="1121.484375" xlink:href="#DejaVuSans-56"/>
      <use x="1185.107422" xlink:href="#DejaVuSans-41"/>
     </g>
    </g>
    <g id="line2d_33">
     <path d="M 254.6 171.635312 
L 274.6 171.635312 
" style="fill:none;stroke:#9467bd;stroke-linecap:square;stroke-opacity:0.3;"/>
    </g>
    <g id="line2d_34"/>
    <g id="text_20">
     <!-- ROC fold 4 (AUC = 0.73) -->
     <g transform="translate(282.6 175.135312)scale(0.1 -0.1)">
      <use xlink:href="#DejaVuSans-82"/>
      <use x="69.482422" xlink:href="#DejaVuSans-79"/>
      <use x="148.193359" xlink:href="#DejaVuSans-67"/>
      <use x="218.017578" xlink:href="#DejaVuSans-32"/>
      <use x="249.804688" xlink:href="#DejaVuSans-102"/>
      <use x="285.009766" xlink:href="#DejaVuSans-111"/>
      <use x="346.191406" xlink:href="#DejaVuSans-108"/>
      <use x="373.974609" xlink:href="#DejaVuSans-100"/>
      <use x="437.451172" xlink:href="#DejaVuSans-32"/>
      <use x="469.238281" xlink:href="#DejaVuSans-52"/>
      <use x="532.861328" xlink:href="#DejaVuSans-32"/>
      <use x="564.648438" xlink:href="#DejaVuSans-40"/>
      <use x="603.662109" xlink:href="#DejaVuSans-65"/>
      <use x="672.070312" xlink:href="#DejaVuSans-85"/>
      <use x="745.263672" xlink:href="#DejaVuSans-67"/>
      <use x="815.087891" xlink:href="#DejaVuSans-32"/>
      <use x="846.875" xlink:href="#DejaVuSans-61"/>
      <use x="930.664062" xlink:href="#DejaVuSans-32"/>
      <use x="962.451172" xlink:href="#DejaVuSans-48"/>
      <use x="1026.074219" xlink:href="#DejaVuSans-46"/>
      <use x="1057.861328" xlink:href="#DejaVuSans-55"/>
      <use x="1121.484375" xlink:href="#DejaVuSans-51"/>
      <use x="1185.107422" xlink:href="#DejaVuSans-41"/>
     </g>
    </g>
    <g id="line2d_35">
     <path d="M 254.6 186.313438 
L 274.6 186.313438 
" style="fill:none;stroke:#8c564b;stroke-linecap:square;stroke-opacity:0.3;"/>
    </g>
    <g id="line2d_36"/>
    <g id="text_21">
     <!-- ROC fold 5 (AUC = 0.67) -->
     <defs>
      <path d="M 10.796875 72.90625 
L 49.515625 72.90625 
L 49.515625 64.59375 
L 19.828125 64.59375 
L 19.828125 46.734375 
Q 21.96875 47.46875 24.109375 47.828125 
Q 26.265625 48.1875 28.421875 48.1875 
Q 40.625 48.1875 47.75 41.5 
Q 54.890625 34.8125 54.890625 23.390625 
Q 54.890625 11.625 47.5625 5.09375 
Q 40.234375 -1.421875 26.90625 -1.421875 
Q 22.3125 -1.421875 17.546875 -0.640625 
Q 12.796875 0.140625 7.71875 1.703125 
L 7.71875 11.625 
Q 12.109375 9.234375 16.796875 8.0625 
Q 21.484375 6.890625 26.703125 6.890625 
Q 35.15625 6.890625 40.078125 11.328125 
Q 45.015625 15.765625 45.015625 23.390625 
Q 45.015625 31 40.078125 35.4375 
Q 35.15625 39.890625 26.703125 39.890625 
Q 22.75 39.890625 18.8125 39.015625 
Q 14.890625 38.140625 10.796875 36.28125 
z
" id="DejaVuSans-53"/>
     </defs>
     <g transform="translate(282.6 189.813438)scale(0.1 -0.1)">
      <use xlink:href="#DejaVuSans-82"/>
      <use x="69.482422" xlink:href="#DejaVuSans-79"/>
      <use x="148.193359" xlink:href="#DejaVuSans-67"/>
      <use x="218.017578" xlink:href="#DejaVuSans-32"/>
      <use x="249.804688" xlink:href="#DejaVuSans-102"/>
      <use x="285.009766" xlink:href="#DejaVuSans-111"/>
      <use x="346.191406" xlink:href="#DejaVuSans-108"/>
      <use x="373.974609" xlink:href="#DejaVuSans-100"/>
      <use x="437.451172" xlink:href="#DejaVuSans-32"/>
      <use x="469.238281" xlink:href="#DejaVuSans-53"/>
      <use x="532.861328" xlink:href="#DejaVuSans-32"/>
      <use x="564.648438" xlink:href="#DejaVuSans-40"/>
      <use x="603.662109" xlink:href="#DejaVuSans-65"/>
      <use x="672.070312" xlink:href="#DejaVuSans-85"/>
      <use x="745.263672" xlink:href="#DejaVuSans-67"/>
      <use x="815.087891" xlink:href="#DejaVuSans-32"/>
      <use x="846.875" xlink:href="#DejaVuSans-61"/>
      <use x="930.664062" xlink:href="#DejaVuSans-32"/>
      <use x="962.451172" xlink:href="#DejaVuSans-48"/>
      <use x="1026.074219" xlink:href="#DejaVuSans-46"/>
      <use x="1057.861328" xlink:href="#DejaVuSans-54"/>
      <use x="1121.484375" xlink:href="#DejaVuSans-55"/>
      <use x="1185.107422" xlink:href="#DejaVuSans-41"/>
     </g>
    </g>
    <g id="line2d_37">
     <path d="M 254.6 200.991562 
L 274.6 200.991562 
" style="fill:none;stroke:#e377c2;stroke-linecap:square;stroke-opacity:0.3;"/>
    </g>
    <g id="line2d_38"/>
    <g id="text_22">
     <!-- ROC fold 6 (AUC = 0.73) -->
     <g transform="translate(282.6 204.491562)scale(0.1 -0.1)">
      <use xlink:href="#DejaVuSans-82"/>
      <use x="69.482422" xlink:href="#DejaVuSans-79"/>
      <use x="148.193359" xlink:href="#DejaVuSans-67"/>
      <use x="218.017578" xlink:href="#DejaVuSans-32"/>
      <use x="249.804688" xlink:href="#DejaVuSans-102"/>
      <use x="285.009766" xlink:href="#DejaVuSans-111"/>
      <use x="346.191406" xlink:href="#DejaVuSans-108"/>
      <use x="373.974609" xlink:href="#DejaVuSans-100"/>
      <use x="437.451172" xlink:href="#DejaVuSans-32"/>
      <use x="469.238281" xlink:href="#DejaVuSans-54"/>
      <use x="532.861328" xlink:href="#DejaVuSans-32"/>
      <use x="564.648438" xlink:href="#DejaVuSans-40"/>
      <use x="603.662109" xlink:href="#DejaVuSans-65"/>
      <use x="672.070312" xlink:href="#DejaVuSans-85"/>
      <use x="745.263672" xlink:href="#DejaVuSans-67"/>
      <use x="815.087891" xlink:href="#DejaVuSans-32"/>
      <use x="846.875" xlink:href="#DejaVuSans-61"/>
      <use x="930.664062" xlink:href="#DejaVuSans-32"/>
      <use x="962.451172" xlink:href="#DejaVuSans-48"/>
      <use x="1026.074219" xlink:href="#DejaVuSans-46"/>
      <use x="1057.861328" xlink:href="#DejaVuSans-55"/>
      <use x="1121.484375" xlink:href="#DejaVuSans-51"/>
      <use x="1185.107422" xlink:href="#DejaVuSans-41"/>
     </g>
    </g>
    <g id="line2d_39">
     <path d="M 254.6 215.669688 
L 274.6 215.669688 
" style="fill:none;stroke:#7f7f7f;stroke-linecap:square;stroke-opacity:0.3;"/>
    </g>
    <g id="line2d_40"/>
    <g id="text_23">
     <!-- ROC fold 7 (AUC = 0.75) -->
     <g transform="translate(282.6 219.169688)scale(0.1 -0.1)">
      <use xlink:href="#DejaVuSans-82"/>
      <use x="69.482422" xlink:href="#DejaVuSans-79"/>
      <use x="148.193359" xlink:href="#DejaVuSans-67"/>
      <use x="218.017578" xlink:href="#DejaVuSans-32"/>
      <use x="249.804688" xlink:href="#DejaVuSans-102"/>
      <use x="285.009766" xlink:href="#DejaVuSans-111"/>
      <use x="346.191406" xlink:href="#DejaVuSans-108"/>
      <use x="373.974609" xlink:href="#DejaVuSans-100"/>
      <use x="437.451172" xlink:href="#DejaVuSans-32"/>
      <use x="469.238281" xlink:href="#DejaVuSans-55"/>
      <use x="532.861328" xlink:href="#DejaVuSans-32"/>
      <use x="564.648438" xlink:href="#DejaVuSans-40"/>
      <use x="603.662109" xlink:href="#DejaVuSans-65"/>
      <use x="672.070312" xlink:href="#DejaVuSans-85"/>
      <use x="745.263672" xlink:href="#DejaVuSans-67"/>
      <use x="815.087891" xlink:href="#DejaVuSans-32"/>
      <use x="846.875" xlink:href="#DejaVuSans-61"/>
      <use x="930.664062" xlink:href="#DejaVuSans-32"/>
      <use x="962.451172" xlink:href="#DejaVuSans-48"/>
      <use x="1026.074219" xlink:href="#DejaVuSans-46"/>
      <use x="1057.861328" xlink:href="#DejaVuSans-55"/>
      <use x="1121.484375" xlink:href="#DejaVuSans-53"/>
      <use x="1185.107422" xlink:href="#DejaVuSans-41"/>
     </g>
    </g>
    <g id="line2d_41">
     <path d="M 254.6 230.347812 
L 274.6 230.347812 
" style="fill:none;stroke:#bcbd22;stroke-linecap:square;stroke-opacity:0.3;"/>
    </g>
    <g id="line2d_42"/>
    <g id="text_24">
     <!-- ROC fold 8 (AUC = 0.80) -->
     <g transform="translate(282.6 233.847812)scale(0.1 -0.1)">
      <use xlink:href="#DejaVuSans-82"/>
      <use x="69.482422" xlink:href="#DejaVuSans-79"/>
      <use x="148.193359" xlink:href="#DejaVuSans-67"/>
      <use x="218.017578" xlink:href="#DejaVuSans-32"/>
      <use x="249.804688" xlink:href="#DejaVuSans-102"/>
      <use x="285.009766" xlink:href="#DejaVuSans-111"/>
      <use x="346.191406" xlink:href="#DejaVuSans-108"/>
      <use x="373.974609" xlink:href="#DejaVuSans-100"/>
      <use x="437.451172" xlink:href="#DejaVuSans-32"/>
      <use x="469.238281" xlink:href="#DejaVuSans-56"/>
      <use x="532.861328" xlink:href="#DejaVuSans-32"/>
      <use x="564.648438" xlink:href="#DejaVuSans-40"/>
      <use x="603.662109" xlink:href="#DejaVuSans-65"/>
      <use x="672.070312" xlink:href="#DejaVuSans-85"/>
      <use x="745.263672" xlink:href="#DejaVuSans-67"/>
      <use x="815.087891" xlink:href="#DejaVuSans-32"/>
      <use x="846.875" xlink:href="#DejaVuSans-61"/>
      <use x="930.664062" xlink:href="#DejaVuSans-32"/>
      <use x="962.451172" xlink:href="#DejaVuSans-48"/>
      <use x="1026.074219" xlink:href="#DejaVuSans-46"/>
      <use x="1057.861328" xlink:href="#DejaVuSans-56"/>
      <use x="1121.484375" xlink:href="#DejaVuSans-48"/>
      <use x="1185.107422" xlink:href="#DejaVuSans-41"/>
     </g>
    </g>
    <g id="line2d_43">
     <path d="M 254.6 245.025937 
L 274.6 245.025937 
" style="fill:none;stroke:#17becf;stroke-linecap:square;stroke-opacity:0.3;"/>
    </g>
    <g id="line2d_44"/>
    <g id="text_25">
     <!-- ROC fold 9 (AUC = 0.78) -->
     <defs>
      <path d="M 10.984375 1.515625 
L 10.984375 10.5 
Q 14.703125 8.734375 18.5 7.8125 
Q 22.3125 6.890625 25.984375 6.890625 
Q 35.75 6.890625 40.890625 13.453125 
Q 46.046875 20.015625 46.78125 33.40625 
Q 43.953125 29.203125 39.59375 26.953125 
Q 35.25 24.703125 29.984375 24.703125 
Q 19.046875 24.703125 12.671875 31.3125 
Q 6.296875 37.9375 6.296875 49.421875 
Q 6.296875 60.640625 12.9375 67.421875 
Q 19.578125 74.21875 30.609375 74.21875 
Q 43.265625 74.21875 49.921875 64.515625 
Q 56.59375 54.828125 56.59375 36.375 
Q 56.59375 19.140625 48.40625 8.859375 
Q 40.234375 -1.421875 26.421875 -1.421875 
Q 22.703125 -1.421875 18.890625 -0.6875 
Q 15.09375 0.046875 10.984375 1.515625 
z
M 30.609375 32.421875 
Q 37.25 32.421875 41.125 36.953125 
Q 45.015625 41.5 45.015625 49.421875 
Q 45.015625 57.28125 41.125 61.84375 
Q 37.25 66.40625 30.609375 66.40625 
Q 23.96875 66.40625 20.09375 61.84375 
Q 16.21875 57.28125 16.21875 49.421875 
Q 16.21875 41.5 20.09375 36.953125 
Q 23.96875 32.421875 30.609375 32.421875 
z
" id="DejaVuSans-57"/>
     </defs>
     <g transform="translate(282.6 248.525937)scale(0.1 -0.1)">
      <use xlink:href="#DejaVuSans-82"/>
      <use x="69.482422" xlink:href="#DejaVuSans-79"/>
      <use x="148.193359" xlink:href="#DejaVuSans-67"/>
      <use x="218.017578" xlink:href="#DejaVuSans-32"/>
      <use x="249.804688" xlink:href="#DejaVuSans-102"/>
      <use x="285.009766" xlink:href="#DejaVuSans-111"/>
      <use x="346.191406" xlink:href="#DejaVuSans-108"/>
      <use x="373.974609" xlink:href="#DejaVuSans-100"/>
      <use x="437.451172" xlink:href="#DejaVuSans-32"/>
      <use x="469.238281" xlink:href="#DejaVuSans-57"/>
      <use x="532.861328" xlink:href="#DejaVuSans-32"/>
      <use x="564.648438" xlink:href="#DejaVuSans-40"/>
      <use x="603.662109" xlink:href="#DejaVuSans-65"/>
      <use x="672.070312" xlink:href="#DejaVuSans-85"/>
      <use x="745.263672" xlink:href="#DejaVuSans-67"/>
      <use x="815.087891" xlink:href="#DejaVuSans-32"/>
      <use x="846.875" xlink:href="#DejaVuSans-61"/>
      <use x="930.664062" xlink:href="#DejaVuSans-32"/>
      <use x="962.451172" xlink:href="#DejaVuSans-48"/>
      <use x="1026.074219" xlink:href="#DejaVuSans-46"/>
      <use x="1057.861328" xlink:href="#DejaVuSans-55"/>
      <use x="1121.484375" xlink:href="#DejaVuSans-56"/>
      <use x="1185.107422" xlink:href="#DejaVuSans-41"/>
     </g>
    </g>
    <g id="line2d_45">
     <path d="M 254.6 259.704062 
L 274.6 259.704062 
" style="fill:none;stroke:#ff0000;stroke-dasharray:7.4,3.2;stroke-dashoffset:0;stroke-opacity:0.8;stroke-width:2;"/>
    </g>
    <g id="line2d_46"/>
    <g id="text_26">
     <!-- Chance -->
     <g transform="translate(282.6 263.204062)scale(0.1 -0.1)">
      <use xlink:href="#DejaVuSans-67"/>
      <use x="69.824219" xlink:href="#DejaVuSans-104"/>
      <use x="133.203125" xlink:href="#DejaVuSans-97"/>
      <use x="194.482422" xlink:href="#DejaVuSans-110"/>
      <use x="257.861328" xlink:href="#DejaVuSans-99"/>
      <use x="312.841797" xlink:href="#DejaVuSans-101"/>
     </g>
    </g>
    <g id="line2d_47">
     <path d="M 254.6 274.382187 
L 274.6 274.382187 
" style="fill:none;stroke:#0000ff;stroke-linecap:square;stroke-opacity:0.8;stroke-width:2;"/>
    </g>
    <g id="line2d_48"/>
    <g id="text_27">
     <!-- Mean ROC (AUC = 0.73 $\pm$ 0.05) -->
     <defs>
      <path d="M 9.8125 72.90625 
L 24.515625 72.90625 
L 43.109375 23.296875 
L 61.8125 72.90625 
L 76.515625 72.90625 
L 76.515625 0 
L 66.890625 0 
L 66.890625 64.015625 
L 48.09375 14.015625 
L 38.1875 14.015625 
L 19.390625 64.015625 
L 19.390625 0 
L 9.8125 0 
z
" id="DejaVuSans-77"/>
      <path d="M 46 62.703125 
L 46 43.796875 
L 73.1875 43.796875 
L 73.1875 35.5 
L 46 35.5 
L 46 16.609375 
L 37.796875 16.609375 
L 37.796875 35.5 
L 10.59375 35.5 
L 10.59375 43.796875 
L 37.796875 43.796875 
L 37.796875 62.703125 
z
M 10.59375 8.296875 
L 73.1875 8.296875 
L 73.1875 0 
L 10.59375 0 
z
" id="DejaVuSans-177"/>
     </defs>
     <g transform="translate(282.6 277.882187)scale(0.1 -0.1)">
      <use transform="translate(0 0.125)" xlink:href="#DejaVuSans-77"/>
      <use transform="translate(86.279297 0.125)" xlink:href="#DejaVuSans-101"/>
      <use transform="translate(147.802734 0.125)" xlink:href="#DejaVuSans-97"/>
      <use transform="translate(209.082031 0.125)" xlink:href="#DejaVuSans-110"/>
      <use transform="translate(272.460938 0.125)" xlink:href="#DejaVuSans-32"/>
      <use transform="translate(304.248047 0.125)" xlink:href="#DejaVuSans-82"/>
      <use transform="translate(373.730469 0.125)" xlink:href="#DejaVuSans-79"/>
      <use transform="translate(452.441406 0.125)" xlink:href="#DejaVuSans-67"/>
      <use transform="translate(522.265625 0.125)" xlink:href="#DejaVuSans-32"/>
      <use transform="translate(554.052734 0.125)" xlink:href="#DejaVuSans-40"/>
      <use transform="translate(593.066406 0.125)" xlink:href="#DejaVuSans-65"/>
      <use transform="translate(661.474609 0.125)" xlink:href="#DejaVuSans-85"/>
      <use transform="translate(734.667969 0.125)" xlink:href="#DejaVuSans-67"/>
      <use transform="translate(804.492188 0.125)" xlink:href="#DejaVuSans-32"/>
      <use transform="translate(836.279297 0.125)" xlink:href="#DejaVuSans-61"/>
      <use transform="translate(920.068359 0.125)" xlink:href="#DejaVuSans-32"/>
      <use transform="translate(951.855469 0.125)" xlink:href="#DejaVuSans-48"/>
      <use transform="translate(1015.478516 0.125)" xlink:href="#DejaVuSans-46"/>
      <use transform="translate(1047.15625 0.125)" xlink:href="#DejaVuSans-55"/>
      <use transform="translate(1110.779297 0.125)" xlink:href="#DejaVuSans-51"/>
      <use transform="translate(1174.402344 0.125)" xlink:href="#DejaVuSans-32"/>
      <use transform="translate(1206.189453 0.125)" xlink:href="#DejaVuSans-177"/>
      <use transform="translate(1289.978516 0.125)" xlink:href="#DejaVuSans-32"/>
      <use transform="translate(1321.765625 0.125)" xlink:href="#DejaVuSans-48"/>
      <use transform="translate(1385.388672 0.125)" xlink:href="#DejaVuSans-46"/>
      <use transform="translate(1417.175781 0.125)" xlink:href="#DejaVuSans-48"/>
      <use transform="translate(1480.798828 0.125)" xlink:href="#DejaVuSans-53"/>
      <use transform="translate(1544.421875 0.125)" xlink:href="#DejaVuSans-41"/>
     </g>
    </g>
    <g id="patch_8">
     <path d="M 254.6 292.560312 
L 274.6 292.560312 
L 274.6 285.560312 
L 254.6 285.560312 
z
" style="fill:#808080;opacity:0.2;stroke:#808080;stroke-linejoin:miter;"/>
    </g>
    <g id="text_28">
     <!-- $\pm$ 1 std. dev. -->
     <g transform="translate(282.6 292.560312)scale(0.1 -0.1)">
      <use transform="translate(0 0.015625)" xlink:href="#DejaVuSans-177"/>
      <use transform="translate(83.789062 0.015625)" xlink:href="#DejaVuSans-32"/>
      <use transform="translate(115.576172 0.015625)" xlink:href="#DejaVuSans-49"/>
      <use transform="translate(179.199219 0.015625)" xlink:href="#DejaVuSans-32"/>
      <use transform="translate(210.986328 0.015625)" xlink:href="#DejaVuSans-115"/>
      <use transform="translate(263.085938 0.015625)" xlink:href="#DejaVuSans-116"/>
      <use transform="translate(302.294922 0.015625)" xlink:href="#DejaVuSans-100"/>
      <use transform="translate(365.771484 0.015625)" xlink:href="#DejaVuSans-46"/>
      <use transform="translate(397.558594 0.015625)" xlink:href="#DejaVuSans-32"/>
      <use transform="translate(429.345703 0.015625)" xlink:href="#DejaVuSans-100"/>
      <use transform="translate(492.822266 0.015625)" xlink:href="#DejaVuSans-101"/>
      <use transform="translate(554.345703 0.015625)" xlink:href="#DejaVuSans-118"/>
      <use transform="translate(613.525391 0.015625)" xlink:href="#DejaVuSans-46"/>
     </g>
    </g>
   </g>
  </g>
 </g>
 <defs>
  <clipPath id="p6cc6e7d7f3">
   <rect height="278.2" width="402.28" x="47.72" y="25.44"/>
  </clipPath>
 </defs>
</svg>
