<?xml version="1.0" encoding="utf-8" standalone="no"?>
<!DOCTYPE svg PUBLIC "-//W3C//DTD SVG 1.1//EN"
  "http://www.w3.org/Graphics/SVG/1.1/DTD/svg11.dtd">
<!-- Created with matplotlib (https://matplotlib.org/) -->
<svg height="345.6pt" version="1.1" viewBox="0 0 460.8 345.6" width="460.8pt" xmlns="http://www.w3.org/2000/svg" xmlns:xlink="http://www.w3.org/1999/xlink">
 <defs>
  <style type="text/css">
*{stroke-linecap:butt;stroke-linejoin:round;white-space:pre;}
  </style>
 </defs>
 <g id="figure_1">
  <g id="patch_1">
   <path d="M 0 345.6 
L 460.8 345.6 
L 460.8 0 
L 0 0 
z
" style="fill:#ffffff;"/>
  </g>
  <g id="axes_1">
   <g id="patch_2">
    <path d="M 47.72 303.64 
L 450 303.64 
L 450 25.44 
L 47.72 25.44 
z
" style="fill:#ffffff;"/>
   </g>
   <g id="PolyCollection_1">
    <defs>
     <path d="M 66.005455 -54.605455 
L 66.005455 -54.605455 
L 69.699486 -54.605455 
L 73.393517 -54.605455 
L 77.087548 -54.91588 
L 80.781579 -56.781653 
L 84.475611 -57.653676 
L 88.169642 -58.563197 
L 91.863673 -63.446843 
L 95.557704 -64.655677 
L 99.251736 -66.233866 
L 102.945767 -67.661563 
L 106.639798 -66.969803 
L 110.333829 -66.969803 
L 114.02786 -73.34556 
L 117.721892 -78.992665 
L 121.415923 -78.992665 
L 125.109954 -80.092976 
L 128.803985 -86.261919 
L 132.498017 -87.11253 
L 136.192048 -90.495406 
L 139.886079 -92.434302 
L 143.58011 -92.4263 
L 147.274141 -97.431489 
L 150.968173 -102.732923 
L 154.662204 -103.813635 
L 158.356235 -107.695462 
L 162.050266 -113.046583 
L 165.744298 -113.958534 
L 169.438329 -116.732615 
L 173.13236 -122.115931 
L 176.826391 -122.115931 
L 180.520422 -124.778156 
L 184.214454 -127.551196 
L 187.908485 -127.303081 
L 191.602516 -128.727564 
L 195.296547 -129.467978 
L 198.990579 -132.222593 
L 202.68461 -134.156984 
L 206.378641 -134.293163 
L 210.072672 -137.253062 
L 213.766703 -139.542181 
L 217.460735 -141.139808 
L 221.154766 -143.187309 
L 224.848797 -145.452873 
L 228.542828 -145.723885 
L 232.23686 -148.45692 
L 235.930891 -151.757341 
L 239.624922 -151.757341 
L 243.318953 -154.59655 
L 247.012984 -155.575454 
L 250.707016 -157.186617 
L 254.401047 -158.800404 
L 258.095078 -164.54038 
L 261.789109 -164.340059 
L 265.48314 -164.086657 
L 269.177172 -166.702657 
L 272.871203 -166.492191 
L 276.565234 -169.820449 
L 280.259265 -173.824678 
L 283.953297 -174.174972 
L 287.647328 -175.379467 
L 291.341359 -175.790694 
L 295.03539 -176.259195 
L 298.729421 -178.970521 
L 302.423453 -182.081728 
L 306.117484 -182.556841 
L 309.811515 -191.093811 
L 313.505546 -191.093811 
L 317.199578 -207.432199 
L 320.893609 -208.753206 
L 324.58764 -208.753206 
L 328.281671 -213.214174 
L 331.975702 -215.545537 
L 335.669734 -215.888964 
L 339.363765 -218.035726 
L 343.057796 -220.268731 
L 346.751827 -220.823876 
L 350.445859 -222.187823 
L 354.13989 -228.690196 
L 357.833921 -228.690196 
L 361.527952 -236.436337 
L 365.221983 -237.687411 
L 368.916015 -239.457356 
L 372.610046 -244.84128 
L 376.304077 -247.26236 
L 379.998108 -249.552905 
L 383.69214 -251.373135 
L 387.386171 -253.454563 
L 391.080202 -253.574059 
L 394.774233 -258.777478 
L 398.468264 -259.870476 
L 402.162296 -264.703818 
L 405.856327 -270.381841 
L 409.550358 -272.317618 
L 413.244389 -273.322205 
L 416.938421 -283.079484 
L 420.632452 -286.782015 
L 424.326483 -286.782015 
L 428.020514 -297.279334 
L 431.714545 -307.514545 
L 431.714545 -307.514545 
L 431.714545 -307.514545 
L 428.020514 -307.514545 
L 424.326483 -307.514545 
L 420.632452 -307.514545 
L 416.938421 -306.432429 
L 413.244389 -305.688185 
L 409.550358 -305.789525 
L 405.856327 -303.370628 
L 402.162296 -299.074476 
L 398.468264 -299.783904 
L 394.774233 -295.374606 
L 391.080202 -291.881871 
L 387.386171 -291.234977 
L 383.69214 -289.228985 
L 379.998108 -278.055937 
L 376.304077 -277.399525 
L 372.610046 -271.906704 
L 368.916015 -267.771656 
L 365.221983 -268.03619 
L 361.527952 -263.99327 
L 357.833921 -259.328505 
L 354.13989 -259.328505 
L 350.445859 -250.795294 
L 346.751827 -248.084922 
L 343.057796 -247.447903 
L 339.363765 -243.819653 
L 335.669734 -240.160183 
L 331.975702 -239.822373 
L 328.281671 -236.305582 
L 324.58764 -233.88082 
L 320.893609 -233.88082 
L 317.199578 -233.664974 
L 313.505546 -233.294631 
L 309.811515 -233.294631 
L 306.117484 -228.249492 
L 302.423453 -226.680896 
L 298.729421 -223.61746 
L 295.03539 -219.562928 
L 291.341359 -219.584367 
L 287.647328 -217.584409 
L 283.953297 -215.866792 
L 280.259265 -215.916004 
L 276.565234 -213.946312 
L 272.871203 -212.858838 
L 269.177172 -212.137444 
L 265.48314 -211.554253 
L 261.789109 -201.80546 
L 258.095078 -201.094212 
L 254.401047 -198.164142 
L 250.707016 -194.97521 
L 247.012984 -195.172199 
L 243.318953 -189.792021 
L 239.624922 -185.627594 
L 235.930891 -185.627594 
L 232.23686 -183.728346 
L 228.542828 -182.457198 
L 224.848797 -181.961818 
L 221.154766 -178.218791 
L 217.460735 -176.835217 
L 213.766703 -176.42563 
L 210.072672 -174.949607 
L 206.378641 -167.514378 
L 202.68461 -166.884165 
L 198.990579 -163.100099 
L 195.296547 -157.581619 
L 191.602516 -157.300178 
L 187.908485 -155.627655 
L 184.214454 -154.868613 
L 180.520422 -153.892933 
L 176.826391 -146.941861 
L 173.13236 -146.941861 
L 169.438329 -143.619198 
L 165.744298 -142.345161 
L 162.050266 -141.988918 
L 158.356235 -138.536365 
L 154.662204 -137.90631 
L 150.968173 -136.943312 
L 147.274141 -135.493345 
L 143.58011 -130.541485 
L 139.886079 -129.511628 
L 136.192048 -126.498457 
L 132.498017 -115.66969 
L 128.803985 -115.498446 
L 125.109954 -107.801603 
L 121.415923 -105.924218 
L 117.721892 -105.924218 
L 114.02786 -103.482949 
L 110.333829 -100.451885 
L 106.639798 -100.451885 
L 102.945767 -96.3094 
L 99.251736 -92.415591 
L 95.557704 -90.654504 
L 91.863673 -81.621208 
L 88.169642 -75.099381 
L 84.475611 -74.594728 
L 80.781579 -73.305135 
L 77.087548 -67.488748 
L 73.393517 -67.171231 
L 69.699486 -58.814839 
L 66.005455 -54.605455 
z
" id="me5dee9be06" style="stroke:#808080;stroke-opacity:0.2;"/>
    </defs>
    <g clip-path="url(#pb2fcd905c9)">
     <use style="fill:#808080;fill-opacity:0.2;stroke:#808080;stroke-opacity:0.2;" x="0" xlink:href="#me5dee9be06" y="345.6"/>
    </g>
   </g>
   <g id="matplotlib.axis_1">
    <g id="xtick_1">
     <g id="line2d_1">
      <defs>
       <path d="M 0 0 
L 0 3.5 
" id="med584b1be5" style="stroke:#000000;stroke-width:0.8;"/>
      </defs>
      <g>
       <use style="stroke:#000000;stroke-width:0.8;" x="66.005455" xlink:href="#med584b1be5" y="303.64"/>
      </g>
     </g>
     <g id="text_1">
      <!-- 0.0 -->
      <defs>
       <path d="M 31.78125 66.40625 
Q 24.171875 66.40625 20.328125 58.90625 
Q 16.5 51.421875 16.5 36.375 
Q 16.5 21.390625 20.328125 13.890625 
Q 24.171875 6.390625 31.78125 6.390625 
Q 39.453125 6.390625 43.28125 13.890625 
Q 47.125 21.390625 47.125 36.375 
Q 47.125 51.421875 43.28125 58.90625 
Q 39.453125 66.40625 31.78125 66.40625 
z
M 31.78125 74.21875 
Q 44.046875 74.21875 50.515625 64.515625 
Q 56.984375 54.828125 56.984375 36.375 
Q 56.984375 17.96875 50.515625 8.265625 
Q 44.046875 -1.421875 31.78125 -1.421875 
Q 19.53125 -1.421875 13.0625 8.265625 
Q 6.59375 17.96875 6.59375 36.375 
Q 6.59375 54.828125 13.0625 64.515625 
Q 19.53125 74.21875 31.78125 74.21875 
z
" id="DejaVuSans-48"/>
       <path d="M 10.6875 12.40625 
L 21 12.40625 
L 21 0 
L 10.6875 0 
z
" id="DejaVuSans-46"/>
      </defs>
      <g transform="translate(58.053892 318.238437)scale(0.1 -0.1)">
       <use xlink:href="#DejaVuSans-48"/>
       <use x="63.623047" xlink:href="#DejaVuSans-46"/>
       <use x="95.410156" xlink:href="#DejaVuSans-48"/>
      </g>
     </g>
    </g>
    <g id="xtick_2">
     <g id="line2d_2">
      <g>
       <use style="stroke:#000000;stroke-width:0.8;" x="139.147273" xlink:href="#med584b1be5" y="303.64"/>
      </g>
     </g>
     <g id="text_2">
      <!-- 0.2 -->
      <defs>
       <path d="M 19.1875 8.296875 
L 53.609375 8.296875 
L 53.609375 0 
L 7.328125 0 
L 7.328125 8.296875 
Q 12.9375 14.109375 22.625 23.890625 
Q 32.328125 33.6875 34.8125 36.53125 
Q 39.546875 41.84375 41.421875 45.53125 
Q 43.3125 49.21875 43.3125 52.78125 
Q 43.3125 58.59375 39.234375 62.25 
Q 35.15625 65.921875 28.609375 65.921875 
Q 23.96875 65.921875 18.8125 64.3125 
Q 13.671875 62.703125 7.8125 59.421875 
L 7.8125 69.390625 
Q 13.765625 71.78125 18.9375 73 
Q 24.125 74.21875 28.421875 74.21875 
Q 39.75 74.21875 46.484375 68.546875 
Q 53.21875 62.890625 53.21875 53.421875 
Q 53.21875 48.921875 51.53125 44.890625 
Q 49.859375 40.875 45.40625 35.40625 
Q 44.1875 33.984375 37.640625 27.21875 
Q 31.109375 20.453125 19.1875 8.296875 
z
" id="DejaVuSans-50"/>
      </defs>
      <g transform="translate(131.19571 318.238437)scale(0.1 -0.1)">
       <use xlink:href="#DejaVuSans-48"/>
       <use x="63.623047" xlink:href="#DejaVuSans-46"/>
       <use x="95.410156" xlink:href="#DejaVuSans-50"/>
      </g>
     </g>
    </g>
    <g id="xtick_3">
     <g id="line2d_3">
      <g>
       <use style="stroke:#000000;stroke-width:0.8;" x="212.289091" xlink:href="#med584b1be5" y="303.64"/>
      </g>
     </g>
     <g id="text_3">
      <!-- 0.4 -->
      <defs>
       <path d="M 37.796875 64.3125 
L 12.890625 25.390625 
L 37.796875 25.390625 
z
M 35.203125 72.90625 
L 47.609375 72.90625 
L 47.609375 25.390625 
L 58.015625 25.390625 
L 58.015625 17.1875 
L 47.609375 17.1875 
L 47.609375 0 
L 37.796875 0 
L 37.796875 17.1875 
L 4.890625 17.1875 
L 4.890625 26.703125 
z
" id="DejaVuSans-52"/>
      </defs>
      <g transform="translate(204.337528 318.238437)scale(0.1 -0.1)">
       <use xlink:href="#DejaVuSans-48"/>
       <use x="63.623047" xlink:href="#DejaVuSans-46"/>
       <use x="95.410156" xlink:href="#DejaVuSans-52"/>
      </g>
     </g>
    </g>
    <g id="xtick_4">
     <g id="line2d_4">
      <g>
       <use style="stroke:#000000;stroke-width:0.8;" x="285.430909" xlink:href="#med584b1be5" y="303.64"/>
      </g>
     </g>
     <g id="text_4">
      <!-- 0.6 -->
      <defs>
       <path d="M 33.015625 40.375 
Q 26.375 40.375 22.484375 35.828125 
Q 18.609375 31.296875 18.609375 23.390625 
Q 18.609375 15.53125 22.484375 10.953125 
Q 26.375 6.390625 33.015625 6.390625 
Q 39.65625 6.390625 43.53125 10.953125 
Q 47.40625 15.53125 47.40625 23.390625 
Q 47.40625 31.296875 43.53125 35.828125 
Q 39.65625 40.375 33.015625 40.375 
z
M 52.59375 71.296875 
L 52.59375 62.3125 
Q 48.875 64.0625 45.09375 64.984375 
Q 41.3125 65.921875 37.59375 65.921875 
Q 27.828125 65.921875 22.671875 59.328125 
Q 17.53125 52.734375 16.796875 39.40625 
Q 19.671875 43.65625 24.015625 45.921875 
Q 28.375 48.1875 33.59375 48.1875 
Q 44.578125 48.1875 50.953125 41.515625 
Q 57.328125 34.859375 57.328125 23.390625 
Q 57.328125 12.15625 50.6875 5.359375 
Q 44.046875 -1.421875 33.015625 -1.421875 
Q 20.359375 -1.421875 13.671875 8.265625 
Q 6.984375 17.96875 6.984375 36.375 
Q 6.984375 53.65625 15.1875 63.9375 
Q 23.390625 74.21875 37.203125 74.21875 
Q 40.921875 74.21875 44.703125 73.484375 
Q 48.484375 72.75 52.59375 71.296875 
z
" id="DejaVuSans-54"/>
      </defs>
      <g transform="translate(277.479347 318.238437)scale(0.1 -0.1)">
       <use xlink:href="#DejaVuSans-48"/>
       <use x="63.623047" xlink:href="#DejaVuSans-46"/>
       <use x="95.410156" xlink:href="#DejaVuSans-54"/>
      </g>
     </g>
    </g>
    <g id="xtick_5">
     <g id="line2d_5">
      <g>
       <use style="stroke:#000000;stroke-width:0.8;" x="358.572727" xlink:href="#med584b1be5" y="303.64"/>
      </g>
     </g>
     <g id="text_5">
      <!-- 0.8 -->
      <defs>
       <path d="M 31.78125 34.625 
Q 24.75 34.625 20.71875 30.859375 
Q 16.703125 27.09375 16.703125 20.515625 
Q 16.703125 13.921875 20.71875 10.15625 
Q 24.75 6.390625 31.78125 6.390625 
Q 38.8125 6.390625 42.859375 10.171875 
Q 46.921875 13.96875 46.921875 20.515625 
Q 46.921875 27.09375 42.890625 30.859375 
Q 38.875 34.625 31.78125 34.625 
z
M 21.921875 38.8125 
Q 15.578125 40.375 12.03125 44.71875 
Q 8.5 49.078125 8.5 55.328125 
Q 8.5 64.0625 14.71875 69.140625 
Q 20.953125 74.21875 31.78125 74.21875 
Q 42.671875 74.21875 48.875 69.140625 
Q 55.078125 64.0625 55.078125 55.328125 
Q 55.078125 49.078125 51.53125 44.71875 
Q 48 40.375 41.703125 38.8125 
Q 48.828125 37.15625 52.796875 32.3125 
Q 56.78125 27.484375 56.78125 20.515625 
Q 56.78125 9.90625 50.3125 4.234375 
Q 43.84375 -1.421875 31.78125 -1.421875 
Q 19.734375 -1.421875 13.25 4.234375 
Q 6.78125 9.90625 6.78125 20.515625 
Q 6.78125 27.484375 10.78125 32.3125 
Q 14.796875 37.15625 21.921875 38.8125 
z
M 18.3125 54.390625 
Q 18.3125 48.734375 21.84375 45.5625 
Q 25.390625 42.390625 31.78125 42.390625 
Q 38.140625 42.390625 41.71875 45.5625 
Q 45.3125 48.734375 45.3125 54.390625 
Q 45.3125 60.0625 41.71875 63.234375 
Q 38.140625 66.40625 31.78125 66.40625 
Q 25.390625 66.40625 21.84375 63.234375 
Q 18.3125 60.0625 18.3125 54.390625 
z
" id="DejaVuSans-56"/>
      </defs>
      <g transform="translate(350.621165 318.238437)scale(0.1 -0.1)">
       <use xlink:href="#DejaVuSans-48"/>
       <use x="63.623047" xlink:href="#DejaVuSans-46"/>
       <use x="95.410156" xlink:href="#DejaVuSans-56"/>
      </g>
     </g>
    </g>
    <g id="xtick_6">
     <g id="line2d_6">
      <g>
       <use style="stroke:#000000;stroke-width:0.8;" x="431.714545" xlink:href="#med584b1be5" y="303.64"/>
      </g>
     </g>
     <g id="text_6">
      <!-- 1.0 -->
      <defs>
       <path d="M 12.40625 8.296875 
L 28.515625 8.296875 
L 28.515625 63.921875 
L 10.984375 60.40625 
L 10.984375 69.390625 
L 28.421875 72.90625 
L 38.28125 72.90625 
L 38.28125 8.296875 
L 54.390625 8.296875 
L 54.390625 0 
L 12.40625 0 
z
" id="DejaVuSans-49"/>
      </defs>
      <g transform="translate(423.762983 318.238437)scale(0.1 -0.1)">
       <use xlink:href="#DejaVuSans-49"/>
       <use x="63.623047" xlink:href="#DejaVuSans-46"/>
       <use x="95.410156" xlink:href="#DejaVuSans-48"/>
      </g>
     </g>
    </g>
    <g id="text_7">
     <!-- False Positive Rate -->
     <defs>
      <path d="M 9.8125 72.90625 
L 51.703125 72.90625 
L 51.703125 64.59375 
L 19.671875 64.59375 
L 19.671875 43.109375 
L 48.578125 43.109375 
L 48.578125 34.8125 
L 19.671875 34.8125 
L 19.671875 0 
L 9.8125 0 
z
" id="DejaVuSans-70"/>
      <path d="M 34.28125 27.484375 
Q 23.390625 27.484375 19.1875 25 
Q 14.984375 22.515625 14.984375 16.5 
Q 14.984375 11.71875 18.140625 8.90625 
Q 21.296875 6.109375 26.703125 6.109375 
Q 34.1875 6.109375 38.703125 11.40625 
Q 43.21875 16.703125 43.21875 25.484375 
L 43.21875 27.484375 
z
M 52.203125 31.203125 
L 52.203125 0 
L 43.21875 0 
L 43.21875 8.296875 
Q 40.140625 3.328125 35.546875 0.953125 
Q 30.953125 -1.421875 24.3125 -1.421875 
Q 15.921875 -1.421875 10.953125 3.296875 
Q 6 8.015625 6 15.921875 
Q 6 25.140625 12.171875 29.828125 
Q 18.359375 34.515625 30.609375 34.515625 
L 43.21875 34.515625 
L 43.21875 35.40625 
Q 43.21875 41.609375 39.140625 45 
Q 35.0625 48.390625 27.6875 48.390625 
Q 23 48.390625 18.546875 47.265625 
Q 14.109375 46.140625 10.015625 43.890625 
L 10.015625 52.203125 
Q 14.9375 54.109375 19.578125 55.046875 
Q 24.21875 56 28.609375 56 
Q 40.484375 56 46.34375 49.84375 
Q 52.203125 43.703125 52.203125 31.203125 
z
" id="DejaVuSans-97"/>
      <path d="M 9.421875 75.984375 
L 18.40625 75.984375 
L 18.40625 0 
L 9.421875 0 
z
" id="DejaVuSans-108"/>
      <path d="M 44.28125 53.078125 
L 44.28125 44.578125 
Q 40.484375 46.53125 36.375 47.5 
Q 32.28125 48.484375 27.875 48.484375 
Q 21.1875 48.484375 17.84375 46.4375 
Q 14.5 44.390625 14.5 40.28125 
Q 14.5 37.15625 16.890625 35.375 
Q 19.28125 33.59375 26.515625 31.984375 
L 29.59375 31.296875 
Q 39.15625 29.25 43.1875 25.515625 
Q 47.21875 21.78125 47.21875 15.09375 
Q 47.21875 7.46875 41.1875 3.015625 
Q 35.15625 -1.421875 24.609375 -1.421875 
Q 20.21875 -1.421875 15.453125 -0.5625 
Q 10.6875 0.296875 5.421875 2 
L 5.421875 11.28125 
Q 10.40625 8.6875 15.234375 7.390625 
Q 20.0625 6.109375 24.8125 6.109375 
Q 31.15625 6.109375 34.5625 8.28125 
Q 37.984375 10.453125 37.984375 14.40625 
Q 37.984375 18.0625 35.515625 20.015625 
Q 33.0625 21.96875 24.703125 23.78125 
L 21.578125 24.515625 
Q 13.234375 26.265625 9.515625 29.90625 
Q 5.8125 33.546875 5.8125 39.890625 
Q 5.8125 47.609375 11.28125 51.796875 
Q 16.75 56 26.8125 56 
Q 31.78125 56 36.171875 55.265625 
Q 40.578125 54.546875 44.28125 53.078125 
z
" id="DejaVuSans-115"/>
      <path d="M 56.203125 29.59375 
L 56.203125 25.203125 
L 14.890625 25.203125 
Q 15.484375 15.921875 20.484375 11.0625 
Q 25.484375 6.203125 34.421875 6.203125 
Q 39.59375 6.203125 44.453125 7.46875 
Q 49.3125 8.734375 54.109375 11.28125 
L 54.109375 2.78125 
Q 49.265625 0.734375 44.1875 -0.34375 
Q 39.109375 -1.421875 33.890625 -1.421875 
Q 20.796875 -1.421875 13.15625 6.1875 
Q 5.515625 13.8125 5.515625 26.8125 
Q 5.515625 40.234375 12.765625 48.109375 
Q 20.015625 56 32.328125 56 
Q 43.359375 56 49.78125 48.890625 
Q 56.203125 41.796875 56.203125 29.59375 
z
M 47.21875 32.234375 
Q 47.125 39.59375 43.09375 43.984375 
Q 39.0625 48.390625 32.421875 48.390625 
Q 24.90625 48.390625 20.390625 44.140625 
Q 15.875 39.890625 15.1875 32.171875 
z
" id="DejaVuSans-101"/>
      <path id="DejaVuSans-32"/>
      <path d="M 19.671875 64.796875 
L 19.671875 37.40625 
L 32.078125 37.40625 
Q 38.96875 37.40625 42.71875 40.96875 
Q 46.484375 44.53125 46.484375 51.125 
Q 46.484375 57.671875 42.71875 61.234375 
Q 38.96875 64.796875 32.078125 64.796875 
z
M 9.8125 72.90625 
L 32.078125 72.90625 
Q 44.34375 72.90625 50.609375 67.359375 
Q 56.890625 61.8125 56.890625 51.125 
Q 56.890625 40.328125 50.609375 34.8125 
Q 44.34375 29.296875 32.078125 29.296875 
L 19.671875 29.296875 
L 19.671875 0 
L 9.8125 0 
z
" id="DejaVuSans-80"/>
      <path d="M 30.609375 48.390625 
Q 23.390625 48.390625 19.1875 42.75 
Q 14.984375 37.109375 14.984375 27.296875 
Q 14.984375 17.484375 19.15625 11.84375 
Q 23.34375 6.203125 30.609375 6.203125 
Q 37.796875 6.203125 41.984375 11.859375 
Q 46.1875 17.53125 46.1875 27.296875 
Q 46.1875 37.015625 41.984375 42.703125 
Q 37.796875 48.390625 30.609375 48.390625 
z
M 30.609375 56 
Q 42.328125 56 49.015625 48.375 
Q 55.71875 40.765625 55.71875 27.296875 
Q 55.71875 13.875 49.015625 6.21875 
Q 42.328125 -1.421875 30.609375 -1.421875 
Q 18.84375 -1.421875 12.171875 6.21875 
Q 5.515625 13.875 5.515625 27.296875 
Q 5.515625 40.765625 12.171875 48.375 
Q 18.84375 56 30.609375 56 
z
" id="DejaVuSans-111"/>
      <path d="M 9.421875 54.6875 
L 18.40625 54.6875 
L 18.40625 0 
L 9.421875 0 
z
M 9.421875 75.984375 
L 18.40625 75.984375 
L 18.40625 64.59375 
L 9.421875 64.59375 
z
" id="DejaVuSans-105"/>
      <path d="M 18.3125 70.21875 
L 18.3125 54.6875 
L 36.8125 54.6875 
L 36.8125 47.703125 
L 18.3125 47.703125 
L 18.3125 18.015625 
Q 18.3125 11.328125 20.140625 9.421875 
Q 21.96875 7.515625 27.59375 7.515625 
L 36.8125 7.515625 
L 36.8125 0 
L 27.59375 0 
Q 17.1875 0 13.234375 3.875 
Q 9.28125 7.765625 9.28125 18.015625 
L 9.28125 47.703125 
L 2.6875 47.703125 
L 2.6875 54.6875 
L 9.28125 54.6875 
L 9.28125 70.21875 
z
" id="DejaVuSans-116"/>
      <path d="M 2.984375 54.6875 
L 12.5 54.6875 
L 29.59375 8.796875 
L 46.6875 54.6875 
L 56.203125 54.6875 
L 35.6875 0 
L 23.484375 0 
z
" id="DejaVuSans-118"/>
      <path d="M 44.390625 34.1875 
Q 47.5625 33.109375 50.5625 29.59375 
Q 53.5625 26.078125 56.59375 19.921875 
L 66.609375 0 
L 56 0 
L 46.6875 18.703125 
Q 43.0625 26.03125 39.671875 28.421875 
Q 36.28125 30.8125 30.421875 30.8125 
L 19.671875 30.8125 
L 19.671875 0 
L 9.8125 0 
L 9.8125 72.90625 
L 32.078125 72.90625 
Q 44.578125 72.90625 50.734375 67.671875 
Q 56.890625 62.453125 56.890625 51.90625 
Q 56.890625 45.015625 53.6875 40.46875 
Q 50.484375 35.9375 44.390625 34.1875 
z
M 19.671875 64.796875 
L 19.671875 38.921875 
L 32.078125 38.921875 
Q 39.203125 38.921875 42.84375 42.21875 
Q 46.484375 45.515625 46.484375 51.90625 
Q 46.484375 58.296875 42.84375 61.546875 
Q 39.203125 64.796875 32.078125 64.796875 
z
" id="DejaVuSans-82"/>
     </defs>
     <g transform="translate(201.654531 331.916562)scale(0.1 -0.1)">
      <use xlink:href="#DejaVuSans-70"/>
      <use x="57.378906" xlink:href="#DejaVuSans-97"/>
      <use x="118.658203" xlink:href="#DejaVuSans-108"/>
      <use x="146.441406" xlink:href="#DejaVuSans-115"/>
      <use x="198.541016" xlink:href="#DejaVuSans-101"/>
      <use x="260.064453" xlink:href="#DejaVuSans-32"/>
      <use x="291.851562" xlink:href="#DejaVuSans-80"/>
      <use x="352.107422" xlink:href="#DejaVuSans-111"/>
      <use x="413.289062" xlink:href="#DejaVuSans-115"/>
      <use x="465.388672" xlink:href="#DejaVuSans-105"/>
      <use x="493.171875" xlink:href="#DejaVuSans-116"/>
      <use x="532.380859" xlink:href="#DejaVuSans-105"/>
      <use x="560.164062" xlink:href="#DejaVuSans-118"/>
      <use x="619.34375" xlink:href="#DejaVuSans-101"/>
      <use x="680.867188" xlink:href="#DejaVuSans-32"/>
      <use x="712.654297" xlink:href="#DejaVuSans-82"/>
      <use x="782.105469" xlink:href="#DejaVuSans-97"/>
      <use x="843.384766" xlink:href="#DejaVuSans-116"/>
      <use x="882.59375" xlink:href="#DejaVuSans-101"/>
     </g>
    </g>
   </g>
   <g id="matplotlib.axis_2">
    <g id="ytick_1">
     <g id="line2d_7">
      <defs>
       <path d="M 0 0 
L -3.5 0 
" id="m2ea8288f0b" style="stroke:#000000;stroke-width:0.8;"/>
      </defs>
      <g>
       <use style="stroke:#000000;stroke-width:0.8;" x="47.72" xlink:href="#m2ea8288f0b" y="290.994545"/>
      </g>
     </g>
     <g id="text_8">
      <!-- 0.0 -->
      <g transform="translate(24.816875 294.793764)scale(0.1 -0.1)">
       <use xlink:href="#DejaVuSans-48"/>
       <use x="63.623047" xlink:href="#DejaVuSans-46"/>
       <use x="95.410156" xlink:href="#DejaVuSans-48"/>
      </g>
     </g>
    </g>
    <g id="ytick_2">
     <g id="line2d_8">
      <g>
       <use style="stroke:#000000;stroke-width:0.8;" x="47.72" xlink:href="#m2ea8288f0b" y="240.412727"/>
      </g>
     </g>
     <g id="text_9">
      <!-- 0.2 -->
      <g transform="translate(24.816875 244.211946)scale(0.1 -0.1)">
       <use xlink:href="#DejaVuSans-48"/>
       <use x="63.623047" xlink:href="#DejaVuSans-46"/>
       <use x="95.410156" xlink:href="#DejaVuSans-50"/>
      </g>
     </g>
    </g>
    <g id="ytick_3">
     <g id="line2d_9">
      <g>
       <use style="stroke:#000000;stroke-width:0.8;" x="47.72" xlink:href="#m2ea8288f0b" y="189.830909"/>
      </g>
     </g>
     <g id="text_10">
      <!-- 0.4 -->
      <g transform="translate(24.816875 193.630128)scale(0.1 -0.1)">
       <use xlink:href="#DejaVuSans-48"/>
       <use x="63.623047" xlink:href="#DejaVuSans-46"/>
       <use x="95.410156" xlink:href="#DejaVuSans-52"/>
      </g>
     </g>
    </g>
    <g id="ytick_4">
     <g id="line2d_10">
      <g>
       <use style="stroke:#000000;stroke-width:0.8;" x="47.72" xlink:href="#m2ea8288f0b" y="139.249091"/>
      </g>
     </g>
     <g id="text_11">
      <!-- 0.6 -->
      <g transform="translate(24.816875 143.04831)scale(0.1 -0.1)">
       <use xlink:href="#DejaVuSans-48"/>
       <use x="63.623047" xlink:href="#DejaVuSans-46"/>
       <use x="95.410156" xlink:href="#DejaVuSans-54"/>
      </g>
     </g>
    </g>
    <g id="ytick_5">
     <g id="line2d_11">
      <g>
       <use style="stroke:#000000;stroke-width:0.8;" x="47.72" xlink:href="#m2ea8288f0b" y="88.667273"/>
      </g>
     </g>
     <g id="text_12">
      <!-- 0.8 -->
      <g transform="translate(24.816875 92.466491)scale(0.1 -0.1)">
       <use xlink:href="#DejaVuSans-48"/>
       <use x="63.623047" xlink:href="#DejaVuSans-46"/>
       <use x="95.410156" xlink:href="#DejaVuSans-56"/>
      </g>
     </g>
    </g>
    <g id="ytick_6">
     <g id="line2d_12">
      <g>
       <use style="stroke:#000000;stroke-width:0.8;" x="47.72" xlink:href="#m2ea8288f0b" y="38.085455"/>
      </g>
     </g>
     <g id="text_13">
      <!-- 1.0 -->
      <g transform="translate(24.816875 41.884673)scale(0.1 -0.1)">
       <use xlink:href="#DejaVuSans-49"/>
       <use x="63.623047" xlink:href="#DejaVuSans-46"/>
       <use x="95.410156" xlink:href="#DejaVuSans-48"/>
      </g>
     </g>
    </g>
    <g id="text_14">
     <!-- True Positive Rate -->
     <defs>
      <path d="M -0.296875 72.90625 
L 61.375 72.90625 
L 61.375 64.59375 
L 35.5 64.59375 
L 35.5 0 
L 25.59375 0 
L 25.59375 64.59375 
L -0.296875 64.59375 
z
" id="DejaVuSans-84"/>
      <path d="M 41.109375 46.296875 
Q 39.59375 47.171875 37.8125 47.578125 
Q 36.03125 48 33.890625 48 
Q 26.265625 48 22.1875 43.046875 
Q 18.109375 38.09375 18.109375 28.8125 
L 18.109375 0 
L 9.078125 0 
L 9.078125 54.6875 
L 18.109375 54.6875 
L 18.109375 46.1875 
Q 20.953125 51.171875 25.484375 53.578125 
Q 30.03125 56 36.53125 56 
Q 37.453125 56 38.578125 55.875 
Q 39.703125 55.765625 41.0625 55.515625 
z
" id="DejaVuSans-114"/>
      <path d="M 8.5 21.578125 
L 8.5 54.6875 
L 17.484375 54.6875 
L 17.484375 21.921875 
Q 17.484375 14.15625 20.5 10.265625 
Q 23.53125 6.390625 29.59375 6.390625 
Q 36.859375 6.390625 41.078125 11.03125 
Q 45.3125 15.671875 45.3125 23.6875 
L 45.3125 54.6875 
L 54.296875 54.6875 
L 54.296875 0 
L 45.3125 0 
L 45.3125 8.40625 
Q 42.046875 3.421875 37.71875 1 
Q 33.40625 -1.421875 27.6875 -1.421875 
Q 18.265625 -1.421875 13.375 4.4375 
Q 8.5 10.296875 8.5 21.578125 
z
M 31.109375 56 
z
" id="DejaVuSans-117"/>
     </defs>
     <g transform="translate(18.737187 210.086094)rotate(-90)scale(0.1 -0.1)">
      <use xlink:href="#DejaVuSans-84"/>
      <use x="60.865234" xlink:href="#DejaVuSans-114"/>
      <use x="101.978516" xlink:href="#DejaVuSans-117"/>
      <use x="165.357422" xlink:href="#DejaVuSans-101"/>
      <use x="226.880859" xlink:href="#DejaVuSans-32"/>
      <use x="258.667969" xlink:href="#DejaVuSans-80"/>
      <use x="318.923828" xlink:href="#DejaVuSans-111"/>
      <use x="380.105469" xlink:href="#DejaVuSans-115"/>
      <use x="432.205078" xlink:href="#DejaVuSans-105"/>
      <use x="459.988281" xlink:href="#DejaVuSans-116"/>
      <use x="499.197266" xlink:href="#DejaVuSans-105"/>
      <use x="526.980469" xlink:href="#DejaVuSans-118"/>
      <use x="586.160156" xlink:href="#DejaVuSans-101"/>
      <use x="647.683594" xlink:href="#DejaVuSans-32"/>
      <use x="679.470703" xlink:href="#DejaVuSans-82"/>
      <use x="748.921875" xlink:href="#DejaVuSans-97"/>
      <use x="810.201172" xlink:href="#DejaVuSans-116"/>
      <use x="849.410156" xlink:href="#DejaVuSans-101"/>
     </g>
    </g>
   </g>
   <g id="line2d_13">
    <path clip-path="url(#pb2fcd905c9)" d="M 66.005455 290.994545 
L 71.631748 290.994545 
L 71.631748 283.212727 
L 77.258042 283.212727 
L 82.884336 275.430909 
L 94.136923 275.430909 
L 94.136923 267.649091 
L 111.015804 267.649091 
L 111.015804 259.867273 
L 133.520979 259.867273 
L 139.147273 255.976364 
L 150.39986 255.976364 
L 150.39986 244.303636 
L 156.026154 244.303636 
L 156.026154 236.521818 
L 167.278741 236.521818 
L 167.278741 232.630909 
L 172.905035 232.630909 
L 172.905035 228.74 
L 178.531329 228.74 
L 178.531329 224.849091 
L 184.157622 224.849091 
L 184.157622 220.958182 
L 189.783916 220.958182 
L 195.41021 217.067273 
L 195.41021 213.176364 
L 201.036503 213.176364 
L 201.036503 209.285455 
L 212.289091 209.285455 
L 212.289091 201.503636 
L 223.541678 201.503636 
L 223.541678 193.721818 
L 234.794266 189.830909 
L 246.046853 189.830909 
L 251.673147 185.94 
L 251.673147 178.158182 
L 257.299441 178.158182 
L 257.299441 174.267273 
L 268.552028 174.267273 
L 268.552028 170.376364 
L 274.178322 170.376364 
L 274.178322 162.594545 
L 279.804615 162.594545 
L 279.804615 154.812727 
L 285.430909 154.812727 
L 285.430909 150.921818 
L 296.683497 150.921818 
L 296.683497 147.030909 
L 302.30979 147.030909 
L 302.30979 139.249091 
L 307.936084 139.249091 
L 307.936084 127.576364 
L 330.441259 127.576364 
L 330.441259 123.685455 
L 336.067552 119.794545 
L 336.067552 115.903636 
L 341.693846 115.903636 
L 347.32014 108.121818 
L 358.572727 108.121818 
L 358.572727 104.230909 
L 364.199021 100.34 
L 369.825315 100.34 
L 369.825315 92.558182 
L 369.825315 84.776364 
L 369.825315 80.885455 
L 375.451608 76.994545 
L 375.451608 69.212727 
L 381.077902 65.321818 
L 381.077902 57.54 
L 386.704196 53.649091 
L 397.956783 49.758182 
L 397.956783 45.867273 
L 409.209371 45.867273 
L 414.835664 45.867273 
L 414.835664 38.085455 
L 431.714545 38.085455 
" style="fill:none;stroke:#1f77b4;stroke-linecap:square;stroke-opacity:0.3;"/>
   </g>
   <g id="line2d_14">
    <path clip-path="url(#pb2fcd905c9)" d="M 66.005455 290.994545 
L 71.631748 290.994545 
L 71.631748 287.103636 
L 82.884336 287.103636 
L 94.136923 279.321818 
L 111.015804 279.321818 
L 111.015804 275.430909 
L 116.642098 271.54 
L 116.642098 252.085455 
L 127.894685 252.085455 
L 127.894685 244.303636 
L 133.520979 244.303636 
L 133.520979 240.412727 
L 133.520979 232.630909 
L 133.520979 217.067273 
L 144.773566 217.067273 
L 156.026154 217.067273 
L 161.652448 217.067273 
L 172.905035 217.067273 
L 206.662797 217.067273 
L 206.662797 209.285455 
L 217.915385 209.285455 
L 217.915385 205.394545 
L 229.167972 205.394545 
L 229.167972 201.503636 
L 234.794266 197.612727 
L 234.794266 193.721818 
L 240.420559 193.721818 
L 240.420559 182.049091 
L 246.046853 182.049091 
L 257.299441 182.049091 
L 257.299441 174.267273 
L 268.552028 174.267273 
L 268.552028 166.485455 
L 279.804615 166.485455 
L 302.30979 162.594545 
L 302.30979 154.812727 
L 307.936084 154.812727 
L 307.936084 139.249091 
L 313.562378 139.249091 
L 313.562378 135.358182 
L 324.814965 135.358182 
L 324.814965 131.467273 
L 330.441259 131.467273 
L 330.441259 123.685455 
L 336.067552 123.685455 
L 336.067552 119.794545 
L 341.693846 119.794545 
L 341.693846 115.903636 
L 341.693846 108.121818 
L 341.693846 100.34 
L 358.572727 100.34 
L 358.572727 92.558182 
L 369.825315 92.558182 
L 369.825315 88.667273 
L 375.451608 88.667273 
L 375.451608 84.776364 
L 381.077902 80.885455 
L 381.077902 76.994545 
L 386.704196 76.994545 
L 386.704196 73.103636 
L 392.33049 73.103636 
L 392.33049 61.430909 
L 397.956783 61.430909 
L 397.956783 57.54 
L 403.583077 57.54 
L 403.583077 53.649091 
L 409.209371 49.758182 
L 409.209371 41.976364 
L 426.088252 41.976364 
L 426.088252 38.085455 
L 431.714545 38.085455 
" style="fill:none;stroke:#ff7f0e;stroke-linecap:square;stroke-opacity:0.3;"/>
   </g>
   <g id="line2d_15">
    <path clip-path="url(#pb2fcd905c9)" d="M 66.005455 290.994545 
L 66.005455 287.103636 
L 71.631748 287.103636 
L 71.631748 267.649091 
L 77.258042 267.649091 
L 77.258042 259.867273 
L 94.136923 259.867273 
L 94.136923 252.085455 
L 99.763217 248.194545 
L 99.763217 240.412727 
L 105.38951 236.521818 
L 105.38951 224.849091 
L 122.268392 224.849091 
L 127.894685 220.958182 
L 127.894685 213.176364 
L 133.520979 213.176364 
L 133.520979 205.394545 
L 133.520979 201.503636 
L 139.147273 197.612727 
L 150.39986 189.830909 
L 161.652448 189.830909 
L 161.652448 185.94 
L 178.531329 185.94 
L 178.531329 178.158182 
L 184.157622 178.158182 
L 189.783916 174.267273 
L 201.036503 174.267273 
L 201.036503 170.376364 
L 212.289091 170.376364 
L 229.167972 170.376364 
L 229.167972 162.594545 
L 251.673147 162.594545 
L 251.673147 150.921818 
L 257.299441 150.921818 
L 257.299441 147.030909 
L 274.178322 147.030909 
L 274.178322 143.14 
L 285.430909 143.14 
L 291.057203 139.249091 
L 296.683497 139.249091 
L 296.683497 131.467273 
L 296.683497 127.576364 
L 307.936084 123.685455 
L 307.936084 112.012727 
L 313.562378 112.012727 
L 313.562378 108.121818 
L 330.441259 108.121818 
L 347.32014 104.230909 
L 358.572727 104.230909 
L 358.572727 92.558182 
L 364.199021 92.558182 
L 364.199021 84.776364 
L 369.825315 84.776364 
L 369.825315 80.885455 
L 375.451608 80.885455 
L 375.451608 76.994545 
L 381.077902 76.994545 
L 381.077902 61.430909 
L 386.704196 61.430909 
L 386.704196 57.54 
L 392.33049 57.54 
L 392.33049 49.758182 
L 397.956783 45.867273 
L 397.956783 41.976364 
L 431.714545 41.976364 
L 431.714545 38.085455 
" style="fill:none;stroke:#2ca02c;stroke-linecap:square;stroke-opacity:0.3;"/>
   </g>
   <g id="line2d_16">
    <path clip-path="url(#pb2fcd905c9)" d="M 66.005455 290.994545 
L 66.005455 287.103636 
L 66.005455 283.212727 
L 82.884336 283.212727 
L 82.884336 279.321818 
L 88.510629 279.321818 
L 88.510629 271.54 
L 94.136923 271.54 
L 94.136923 267.649091 
L 99.763217 259.867273 
L 99.763217 255.976364 
L 127.894685 255.976364 
L 127.894685 252.085455 
L 133.520979 252.085455 
L 133.520979 248.194545 
L 144.773566 248.194545 
L 144.773566 240.412727 
L 150.39986 240.412727 
L 150.39986 232.630909 
L 156.026154 232.630909 
L 167.278741 224.849091 
L 167.278741 217.067273 
L 172.905035 217.067273 
L 172.905035 213.176364 
L 178.531329 213.176364 
L 178.531329 209.285455 
L 184.157622 209.285455 
L 184.157622 205.394545 
L 195.41021 205.394545 
L 195.41021 193.721818 
L 206.662797 193.721818 
L 206.662797 185.94 
L 206.662797 170.376364 
L 212.289091 162.594545 
L 223.541678 158.703636 
L 223.541678 150.921818 
L 234.794266 150.921818 
L 234.794266 143.14 
L 246.046853 143.14 
L 246.046853 135.358182 
L 251.673147 135.358182 
L 251.673147 131.467273 
L 257.299441 131.467273 
L 262.925734 127.576364 
L 262.925734 123.685455 
L 262.925734 115.903636 
L 268.552028 115.903636 
L 274.178322 112.012727 
L 302.30979 112.012727 
L 302.30979 108.121818 
L 324.814965 108.121818 
L 336.067552 108.121818 
L 336.067552 104.230909 
L 347.32014 104.230909 
L 347.32014 96.449091 
L 375.451608 96.449091 
L 375.451608 92.558182 
L 386.704196 92.558182 
L 386.704196 84.776364 
L 414.835664 84.776364 
L 414.835664 76.994545 
L 414.835664 61.430909 
L 420.461958 57.54 
L 420.461958 53.649091 
L 426.088252 53.649091 
L 426.088252 38.085455 
L 431.714545 38.085455 
" style="fill:none;stroke:#d62728;stroke-linecap:square;stroke-opacity:0.3;"/>
   </g>
   <g id="line2d_17">
    <path clip-path="url(#pb2fcd905c9)" d="M 66.005455 290.994545 
L 71.631748 287.103636 
L 77.258042 283.212727 
L 88.510629 283.212727 
L 88.510629 279.321818 
L 94.136923 279.321818 
L 94.136923 275.430909 
L 105.38951 275.430909 
L 105.38951 271.54 
L 111.015804 271.54 
L 111.015804 267.649091 
L 116.642098 263.758182 
L 127.894685 263.758182 
L 127.894685 255.976364 
L 133.520979 252.085455 
L 133.520979 248.194545 
L 139.147273 248.194545 
L 139.147273 236.521818 
L 150.39986 228.74 
L 156.026154 228.74 
L 156.026154 224.849091 
L 161.652448 224.849091 
L 161.652448 220.958182 
L 167.278741 217.067273 
L 172.905035 217.067273 
L 172.905035 201.503636 
L 184.157622 201.503636 
L 184.157622 197.612727 
L 195.41021 197.612727 
L 195.41021 193.721818 
L 206.662797 182.049091 
L 212.289091 182.049091 
L 217.915385 178.158182 
L 240.420559 178.158182 
L 240.420559 174.267273 
L 246.046853 174.267273 
L 246.046853 170.376364 
L 257.299441 170.376364 
L 257.299441 162.594545 
L 262.925734 162.594545 
L 274.178322 162.594545 
L 274.178322 158.703636 
L 279.804615 158.703636 
L 279.804615 143.14 
L 285.430909 143.14 
L 285.430909 135.358182 
L 296.683497 135.358182 
L 296.683497 127.576364 
L 302.30979 127.576364 
L 302.30979 123.685455 
L 313.562378 123.685455 
L 313.562378 119.794545 
L 324.814965 119.794545 
L 330.441259 112.012727 
L 330.441259 100.34 
L 336.067552 100.34 
L 336.067552 96.449091 
L 347.32014 96.449091 
L 347.32014 92.558182 
L 352.946434 92.558182 
L 352.946434 88.667273 
L 364.199021 88.667273 
L 364.199021 80.885455 
L 369.825315 80.885455 
L 369.825315 73.103636 
L 375.451608 73.103636 
L 375.451608 69.212727 
L 381.077902 69.212727 
L 381.077902 65.321818 
L 386.704196 65.321818 
L 392.33049 61.430909 
L 397.956783 61.430909 
L 397.956783 53.649091 
L 403.583077 53.649091 
L 403.583077 41.976364 
L 426.088252 41.976364 
L 431.714545 38.085455 
" style="fill:none;stroke:#9467bd;stroke-linecap:square;stroke-opacity:0.3;"/>
   </g>
   <g id="line2d_18">
    <path clip-path="url(#pb2fcd905c9)" d="M 66.005455 290.994545 
L 71.631748 290.994545 
L 99.763217 290.994545 
L 99.763217 283.212727 
L 111.015804 283.212727 
L 111.015804 279.321818 
L 116.642098 275.430909 
L 127.894685 275.430909 
L 127.894685 255.976364 
L 133.520979 252.085455 
L 133.520979 244.303636 
L 133.520979 236.521818 
L 139.147273 232.630909 
L 144.773566 232.630909 
L 144.773566 213.176364 
L 150.39986 213.176364 
L 156.026154 209.285455 
L 161.652448 209.285455 
L 161.652448 201.503636 
L 167.278741 201.503636 
L 178.531329 201.503636 
L 178.531329 189.830909 
L 184.157622 189.830909 
L 195.41021 189.830909 
L 195.41021 185.94 
L 201.036503 182.049091 
L 201.036503 178.158182 
L 217.915385 178.158182 
L 217.915385 174.267273 
L 240.420559 174.267273 
L 240.420559 170.376364 
L 246.046853 170.376364 
L 246.046853 162.594545 
L 257.299441 162.594545 
L 257.299441 158.703636 
L 262.925734 158.703636 
L 262.925734 143.14 
L 274.178322 143.14 
L 296.683497 143.14 
L 296.683497 139.249091 
L 307.936084 131.467273 
L 324.814965 131.467273 
L 324.814965 127.576364 
L 336.067552 127.576364 
L 336.067552 123.685455 
L 358.572727 123.685455 
L 358.572727 112.012727 
L 369.825315 112.012727 
L 369.825315 104.230909 
L 375.451608 104.230909 
L 381.077902 100.34 
L 392.33049 100.34 
L 392.33049 96.449091 
L 397.956783 92.558182 
L 403.583077 92.558182 
L 403.583077 84.776364 
L 409.209371 84.776364 
L 409.209371 80.885455 
L 414.835664 80.885455 
L 414.835664 69.212727 
L 420.461958 65.321818 
L 426.088252 65.321818 
L 426.088252 38.085455 
L 431.714545 38.085455 
" style="fill:none;stroke:#8c564b;stroke-linecap:square;stroke-opacity:0.3;"/>
   </g>
   <g id="line2d_19">
    <path clip-path="url(#pb2fcd905c9)" d="M 66.005455 290.994545 
L 77.258042 287.103636 
L 88.510629 287.103636 
L 88.510629 263.758182 
L 94.136923 263.758182 
L 94.136923 252.085455 
L 94.136923 244.303636 
L 99.763217 244.303636 
L 99.763217 240.412727 
L 111.015804 240.412727 
L 111.015804 236.521818 
L 127.894685 236.521818 
L 127.894685 220.958182 
L 133.520979 220.958182 
L 139.147273 217.067273 
L 139.147273 213.176364 
L 150.39986 213.176364 
L 156.026154 209.285455 
L 167.278741 209.285455 
L 167.278741 205.394545 
L 172.905035 205.394545 
L 172.905035 201.503636 
L 178.531329 201.503636 
L 178.531329 193.721818 
L 189.783916 193.721818 
L 189.783916 189.830909 
L 195.41021 189.830909 
L 195.41021 182.049091 
L 206.662797 182.049091 
L 206.662797 170.376364 
L 223.541678 170.376364 
L 229.167972 166.485455 
L 246.046853 166.485455 
L 246.046853 154.812727 
L 251.673147 154.812727 
L 262.925734 154.812727 
L 291.057203 154.812727 
L 302.30979 154.812727 
L 307.936084 154.812727 
L 307.936084 147.030909 
L 307.936084 143.14 
L 319.188671 143.14 
L 319.188671 139.249091 
L 324.814965 139.249091 
L 324.814965 131.467273 
L 330.441259 127.576364 
L 336.067552 127.576364 
L 336.067552 123.685455 
L 352.946434 123.685455 
L 352.946434 112.012727 
L 352.946434 96.449091 
L 352.946434 73.103636 
L 358.572727 73.103636 
L 369.825315 69.212727 
L 381.077902 69.212727 
L 381.077902 49.758182 
L 392.33049 49.758182 
L 397.956783 45.867273 
L 409.209371 45.867273 
L 414.835664 45.867273 
L 420.461958 41.976364 
L 420.461958 38.085455 
L 431.714545 38.085455 
" style="fill:none;stroke:#e377c2;stroke-linecap:square;stroke-opacity:0.3;"/>
   </g>
   <g id="line2d_20">
    <path clip-path="url(#pb2fcd905c9)" d="M 66.005455 290.994545 
L 71.631748 290.994545 
L 71.631748 283.212727 
L 77.258042 283.212727 
L 77.258042 279.321818 
L 88.510629 279.321818 
L 88.510629 267.649091 
L 88.510629 263.758182 
L 116.642098 263.758182 
L 116.642098 259.867273 
L 122.268392 259.867273 
L 122.268392 255.976364 
L 127.894685 255.976364 
L 127.894685 252.085455 
L 144.773566 252.085455 
L 144.773566 248.194545 
L 156.026154 248.194545 
L 156.026154 244.303636 
L 161.652448 244.303636 
L 161.652448 228.74 
L 172.905035 228.74 
L 172.905035 217.067273 
L 189.783916 217.067273 
L 189.783916 213.176364 
L 201.036503 213.176364 
L 201.036503 209.285455 
L 206.662797 209.285455 
L 217.915385 209.285455 
L 217.915385 205.394545 
L 234.794266 205.394545 
L 234.794266 201.503636 
L 234.794266 193.721818 
L 246.046853 193.721818 
L 257.299441 193.721818 
L 257.299441 182.049091 
L 268.552028 182.049091 
L 268.552028 178.158182 
L 279.804615 178.158182 
L 279.804615 174.267273 
L 285.430909 174.267273 
L 307.936084 166.485455 
L 307.936084 158.703636 
L 313.562378 158.703636 
L 313.562378 131.467273 
L 324.814965 131.467273 
L 324.814965 123.685455 
L 336.067552 123.685455 
L 341.693846 123.685455 
L 341.693846 119.794545 
L 347.32014 119.794545 
L 347.32014 112.012727 
L 352.946434 112.012727 
L 352.946434 100.34 
L 358.572727 100.34 
L 358.572727 92.558182 
L 358.572727 84.776364 
L 364.199021 84.776364 
L 364.199021 80.885455 
L 375.451608 80.885455 
L 375.451608 73.103636 
L 381.077902 69.212727 
L 381.077902 65.321818 
L 392.33049 65.321818 
L 392.33049 61.430909 
L 403.583077 61.430909 
L 403.583077 53.649091 
L 409.209371 53.649091 
L 409.209371 49.758182 
L 420.461958 49.758182 
L 420.461958 45.867273 
L 426.088252 45.867273 
L 426.088252 38.085455 
L 431.714545 38.085455 
" style="fill:none;stroke:#7f7f7f;stroke-linecap:square;stroke-opacity:0.3;"/>
   </g>
   <g id="line2d_21">
    <path clip-path="url(#pb2fcd905c9)" d="M 66.005455 290.994545 
L 71.631748 287.103636 
L 77.258042 287.103636 
L 77.258042 279.321818 
L 82.884336 271.54 
L 88.510629 271.54 
L 88.510629 267.649091 
L 94.136923 267.649091 
L 94.136923 263.758182 
L 99.763217 263.758182 
L 111.015804 263.758182 
L 111.015804 259.867273 
L 116.642098 259.867273 
L 116.642098 248.194545 
L 127.894685 248.194545 
L 150.39986 248.194545 
L 150.39986 244.303636 
L 156.026154 236.521818 
L 161.652448 232.630909 
L 161.652448 224.849091 
L 172.905035 224.849091 
L 172.905035 220.958182 
L 178.531329 220.958182 
L 178.531329 209.285455 
L 184.157622 205.394545 
L 189.783916 205.394545 
L 189.783916 201.503636 
L 195.41021 197.612727 
L 195.41021 193.721818 
L 201.036503 193.721818 
L 201.036503 185.94 
L 206.662797 185.94 
L 206.662797 182.049091 
L 212.289091 182.049091 
L 212.289091 178.158182 
L 217.915385 178.158182 
L 217.915385 174.267273 
L 223.541678 174.267273 
L 223.541678 166.485455 
L 240.420559 166.485455 
L 240.420559 158.703636 
L 240.420559 150.921818 
L 257.299441 150.921818 
L 257.299441 147.030909 
L 262.925734 147.030909 
L 262.925734 135.358182 
L 262.925734 127.576364 
L 291.057203 127.576364 
L 291.057203 119.794545 
L 302.30979 119.794545 
L 307.936084 112.012727 
L 313.562378 112.012727 
L 313.562378 108.121818 
L 319.188671 104.230909 
L 324.814965 104.230909 
L 324.814965 100.34 
L 336.067552 100.34 
L 341.693846 92.558182 
L 358.572727 92.558182 
L 358.572727 88.667273 
L 364.199021 88.667273 
L 364.199021 84.776364 
L 375.451608 84.776364 
L 375.451608 80.885455 
L 381.077902 80.885455 
L 381.077902 76.994545 
L 386.704196 73.103636 
L 397.956783 73.103636 
L 403.583077 69.212727 
L 403.583077 57.54 
L 409.209371 57.54 
L 409.209371 53.649091 
L 414.835664 53.649091 
L 414.835664 49.758182 
L 420.461958 45.867273 
L 426.088252 45.867273 
L 431.714545 41.976364 
L 431.714545 38.085455 
" style="fill:none;stroke:#bcbd22;stroke-linecap:square;stroke-opacity:0.3;"/>
   </g>
   <g id="line2d_22">
    <path clip-path="url(#pb2fcd905c9)" d="M 66.005455 290.994545 
L 72.535974 290.994545 
L 79.066494 290.994545 
L 79.066494 281.962078 
L 85.597013 281.962078 
L 85.597013 277.445844 
L 98.658052 277.445844 
L 98.658052 268.413377 
L 111.719091 268.413377 
L 111.719091 254.864675 
L 124.78013 254.864675 
L 124.78013 245.832208 
L 131.310649 245.832208 
L 144.371688 245.832208 
L 144.371688 232.283506 
L 150.902208 232.283506 
L 150.902208 227.767273 
L 163.963247 227.767273 
L 170.493766 223.251039 
L 183.554805 223.251039 
L 183.554805 218.734805 
L 209.676883 218.734805 
L 216.207403 214.218571 
L 216.207403 209.702338 
L 222.737922 209.702338 
L 222.737922 205.186104 
L 229.268442 205.186104 
L 229.268442 200.66987 
L 248.86 200.66987 
L 248.86 196.153636 
L 274.982078 196.153636 
L 274.982078 191.637403 
L 281.512597 187.121169 
L 294.573636 187.121169 
L 301.104156 182.604935 
L 307.634675 182.604935 
L 307.634675 178.088701 
L 314.165195 178.088701 
L 314.165195 160.023766 
L 314.165195 141.958831 
L 320.695714 137.442597 
L 327.226234 137.442597 
L 340.287273 137.442597 
L 353.348312 137.442597 
L 353.348312 128.41013 
L 359.878831 128.41013 
L 359.878831 123.893896 
L 366.409351 123.893896 
L 366.409351 119.377662 
L 372.93987 114.861429 
L 379.47039 114.861429 
L 379.47039 110.345195 
L 392.531429 110.345195 
L 392.531429 101.312727 
L 399.061948 101.312727 
L 399.061948 92.28026 
L 399.061948 83.247792 
L 405.592468 83.247792 
L 405.592468 78.731558 
L 412.122987 78.731558 
L 412.122987 74.215325 
L 418.653506 74.215325 
L 418.653506 69.699091 
L 425.184026 69.699091 
L 425.184026 60.666623 
L 431.714545 60.666623 
L 431.714545 51.634156 
L 431.714545 42.601688 
L 431.714545 38.085455 
" style="fill:none;stroke:#17becf;stroke-linecap:square;stroke-opacity:0.3;"/>
   </g>
   <g id="line2d_23">
    <path clip-path="url(#pb2fcd905c9)" d="M 66.005455 290.994545 
L 431.714545 38.085455 
" style="fill:none;stroke:#ff0000;stroke-dasharray:7.4,3.2;stroke-dashoffset:0;stroke-opacity:0.8;stroke-width:2;"/>
   </g>
   <g id="line2d_24">
    <path clip-path="url(#pb2fcd905c9)" d="M 66.005455 290.994545 
L 69.699486 289.188613 
L 73.393517 284.780882 
L 77.087548 284.397686 
L 80.781579 280.556606 
L 84.475611 279.475798 
L 88.169642 278.768711 
L 91.863673 273.065975 
L 95.557704 267.944909 
L 99.251736 266.275272 
L 102.945767 263.614519 
L 106.639798 261.889156 
L 110.333829 261.889156 
L 114.02786 257.185746 
L 117.721892 253.141558 
L 121.415923 253.141558 
L 125.109954 251.65271 
L 128.803985 244.719818 
L 132.498017 244.20889 
L 136.192048 237.103068 
L 139.886079 234.627035 
L 143.58011 234.116108 
L 147.274141 229.137583 
L 150.968173 225.761882 
L 154.662204 224.740028 
L 158.356235 222.484086 
L 162.050266 218.08225 
L 165.744298 217.448152 
L 169.438329 215.424094 
L 173.13236 211.071104 
L 176.826391 211.071104 
L 180.520422 206.264456 
L 184.214454 204.390096 
L 187.908485 204.134632 
L 191.602516 202.586129 
L 195.296547 202.075201 
L 198.990579 197.938654 
L 202.68461 195.079425 
L 206.378641 194.69623 
L 210.072672 189.498666 
L 213.766703 187.616095 
L 217.460735 186.612487 
L 221.154766 184.89695 
L 224.848797 181.892654 
L 228.542828 181.509459 
L 232.23686 179.507367 
L 235.930891 176.907532 
L 239.624922 176.907532 
L 243.318953 173.405714 
L 247.012984 170.226173 
L 250.707016 169.519086 
L 254.401047 167.117727 
L 258.095078 162.782704 
L 261.789109 162.527241 
L 265.48314 157.779545 
L 269.177172 156.179949 
L 272.871203 155.924486 
L 276.565234 153.716619 
L 280.259265 150.729659 
L 283.953297 150.579118 
L 287.647328 149.118062 
L 291.341359 147.91247 
L 295.03539 147.688939 
L 298.729421 144.306009 
L 302.423453 141.218688 
L 306.117484 140.196833 
L 309.811515 133.405779 
L 313.505546 133.405779 
L 317.199578 125.051413 
L 320.893609 124.282987 
L 324.58764 124.282987 
L 328.281671 120.840122 
L 331.975702 117.916045 
L 335.669734 117.575427 
L 339.363765 114.672311 
L 343.057796 111.741683 
L 346.751827 111.145601 
L 350.445859 109.108442 
L 354.13989 101.590649 
L 357.833921 101.590649 
L 361.527952 95.385197 
L 365.221983 92.7382 
L 368.916015 91.985494 
L 372.610046 87.226008 
L 376.304077 83.269057 
L 379.998108 81.795579 
L 383.69214 75.29894 
L 387.386171 73.25523 
L 391.080202 72.872035 
L 394.774233 68.523958 
L 398.468264 65.77281 
L 402.162296 63.710853 
L 405.856327 58.723766 
L 409.550358 56.546429 
L 413.244389 56.094805 
L 416.938421 50.844043 
L 420.632452 48.250455 
L 424.326483 48.250455 
L 428.020514 41.632681 
L 431.714545 38.085455 
" style="fill:none;stroke:#0000ff;stroke-linecap:square;stroke-opacity:0.8;stroke-width:2;"/>
   </g>
   <g id="patch_3">
    <path d="M 47.72 303.64 
L 47.72 25.44 
" style="fill:none;stroke:#000000;stroke-linecap:square;stroke-linejoin:miter;stroke-width:0.8;"/>
   </g>
   <g id="patch_4">
    <path d="M 450 303.64 
L 450 25.44 
" style="fill:none;stroke:#000000;stroke-linecap:square;stroke-linejoin:miter;stroke-width:0.8;"/>
   </g>
   <g id="patch_5">
    <path d="M 47.72 303.64 
L 450 303.64 
" style="fill:none;stroke:#000000;stroke-linecap:square;stroke-linejoin:miter;stroke-width:0.8;"/>
   </g>
   <g id="patch_6">
    <path d="M 47.72 25.44 
L 450 25.44 
" style="fill:none;stroke:#000000;stroke-linecap:square;stroke-linejoin:miter;stroke-width:0.8;"/>
   </g>
   <g id="text_15">
    <!-- Receiver operating characteristic: inversions -->
    <defs>
     <path d="M 48.78125 52.59375 
L 48.78125 44.1875 
Q 44.96875 46.296875 41.140625 47.34375 
Q 37.3125 48.390625 33.40625 48.390625 
Q 24.65625 48.390625 19.8125 42.84375 
Q 14.984375 37.3125 14.984375 27.296875 
Q 14.984375 17.28125 19.8125 11.734375 
Q 24.65625 6.203125 33.40625 6.203125 
Q 37.3125 6.203125 41.140625 7.25 
Q 44.96875 8.296875 48.78125 10.40625 
L 48.78125 2.09375 
Q 45.015625 0.34375 40.984375 -0.53125 
Q 36.96875 -1.421875 32.421875 -1.421875 
Q 20.0625 -1.421875 12.78125 6.34375 
Q 5.515625 14.109375 5.515625 27.296875 
Q 5.515625 40.671875 12.859375 48.328125 
Q 20.21875 56 33.015625 56 
Q 37.15625 56 41.109375 55.140625 
Q 45.0625 54.296875 48.78125 52.59375 
z
" id="DejaVuSans-99"/>
     <path d="M 18.109375 8.203125 
L 18.109375 -20.796875 
L 9.078125 -20.796875 
L 9.078125 54.6875 
L 18.109375 54.6875 
L 18.109375 46.390625 
Q 20.953125 51.265625 25.265625 53.625 
Q 29.59375 56 35.59375 56 
Q 45.5625 56 51.78125 48.09375 
Q 58.015625 40.1875 58.015625 27.296875 
Q 58.015625 14.40625 51.78125 6.484375 
Q 45.5625 -1.421875 35.59375 -1.421875 
Q 29.59375 -1.421875 25.265625 0.953125 
Q 20.953125 3.328125 18.109375 8.203125 
z
M 48.6875 27.296875 
Q 48.6875 37.203125 44.609375 42.84375 
Q 40.53125 48.484375 33.40625 48.484375 
Q 26.265625 48.484375 22.1875 42.84375 
Q 18.109375 37.203125 18.109375 27.296875 
Q 18.109375 17.390625 22.1875 11.75 
Q 26.265625 6.109375 33.40625 6.109375 
Q 40.53125 6.109375 44.609375 11.75 
Q 48.6875 17.390625 48.6875 27.296875 
z
" id="DejaVuSans-112"/>
     <path d="M 54.890625 33.015625 
L 54.890625 0 
L 45.90625 0 
L 45.90625 32.71875 
Q 45.90625 40.484375 42.875 44.328125 
Q 39.84375 48.1875 33.796875 48.1875 
Q 26.515625 48.1875 22.3125 43.546875 
Q 18.109375 38.921875 18.109375 30.90625 
L 18.109375 0 
L 9.078125 0 
L 9.078125 54.6875 
L 18.109375 54.6875 
L 18.109375 46.1875 
Q 21.34375 51.125 25.703125 53.5625 
Q 30.078125 56 35.796875 56 
Q 45.21875 56 50.046875 50.171875 
Q 54.890625 44.34375 54.890625 33.015625 
z
" id="DejaVuSans-110"/>
     <path d="M 45.40625 27.984375 
Q 45.40625 37.75 41.375 43.109375 
Q 37.359375 48.484375 30.078125 48.484375 
Q 22.859375 48.484375 18.828125 43.109375 
Q 14.796875 37.75 14.796875 27.984375 
Q 14.796875 18.265625 18.828125 12.890625 
Q 22.859375 7.515625 30.078125 7.515625 
Q 37.359375 7.515625 41.375 12.890625 
Q 45.40625 18.265625 45.40625 27.984375 
z
M 54.390625 6.78125 
Q 54.390625 -7.171875 48.1875 -13.984375 
Q 42 -20.796875 29.203125 -20.796875 
Q 24.46875 -20.796875 20.265625 -20.09375 
Q 16.0625 -19.390625 12.109375 -17.921875 
L 12.109375 -9.1875 
Q 16.0625 -11.328125 19.921875 -12.34375 
Q 23.78125 -13.375 27.78125 -13.375 
Q 36.625 -13.375 41.015625 -8.765625 
Q 45.40625 -4.15625 45.40625 5.171875 
L 45.40625 9.625 
Q 42.625 4.78125 38.28125 2.390625 
Q 33.9375 0 27.875 0 
Q 17.828125 0 11.671875 7.65625 
Q 5.515625 15.328125 5.515625 27.984375 
Q 5.515625 40.671875 11.671875 48.328125 
Q 17.828125 56 27.875 56 
Q 33.9375 56 38.28125 53.609375 
Q 42.625 51.21875 45.40625 46.390625 
L 45.40625 54.6875 
L 54.390625 54.6875 
z
" id="DejaVuSans-103"/>
     <path d="M 54.890625 33.015625 
L 54.890625 0 
L 45.90625 0 
L 45.90625 32.71875 
Q 45.90625 40.484375 42.875 44.328125 
Q 39.84375 48.1875 33.796875 48.1875 
Q 26.515625 48.1875 22.3125 43.546875 
Q 18.109375 38.921875 18.109375 30.90625 
L 18.109375 0 
L 9.078125 0 
L 9.078125 75.984375 
L 18.109375 75.984375 
L 18.109375 46.1875 
Q 21.34375 51.125 25.703125 53.5625 
Q 30.078125 56 35.796875 56 
Q 45.21875 56 50.046875 50.171875 
Q 54.890625 44.34375 54.890625 33.015625 
z
" id="DejaVuSans-104"/>
     <path d="M 11.71875 12.40625 
L 22.015625 12.40625 
L 22.015625 0 
L 11.71875 0 
z
M 11.71875 51.703125 
L 22.015625 51.703125 
L 22.015625 39.3125 
L 11.71875 39.3125 
z
" id="DejaVuSans-58"/>
    </defs>
    <g transform="translate(114.534062 19.44)scale(0.12 -0.12)">
     <use xlink:href="#DejaVuSans-82"/>
     <use x="69.419922" xlink:href="#DejaVuSans-101"/>
     <use x="130.943359" xlink:href="#DejaVuSans-99"/>
     <use x="185.923828" xlink:href="#DejaVuSans-101"/>
     <use x="247.447266" xlink:href="#DejaVuSans-105"/>
     <use x="275.230469" xlink:href="#DejaVuSans-118"/>
     <use x="334.410156" xlink:href="#DejaVuSans-101"/>
     <use x="395.933594" xlink:href="#DejaVuSans-114"/>
     <use x="437.046875" xlink:href="#DejaVuSans-32"/>
     <use x="468.833984" xlink:href="#DejaVuSans-111"/>
     <use x="530.015625" xlink:href="#DejaVuSans-112"/>
     <use x="593.492188" xlink:href="#DejaVuSans-101"/>
     <use x="655.015625" xlink:href="#DejaVuSans-114"/>
     <use x="696.128906" xlink:href="#DejaVuSans-97"/>
     <use x="757.408203" xlink:href="#DejaVuSans-116"/>
     <use x="796.617188" xlink:href="#DejaVuSans-105"/>
     <use x="824.400391" xlink:href="#DejaVuSans-110"/>
     <use x="887.779297" xlink:href="#DejaVuSans-103"/>
     <use x="951.255859" xlink:href="#DejaVuSans-32"/>
     <use x="983.042969" xlink:href="#DejaVuSans-99"/>
     <use x="1038.023438" xlink:href="#DejaVuSans-104"/>
     <use x="1101.402344" xlink:href="#DejaVuSans-97"/>
     <use x="1162.681641" xlink:href="#DejaVuSans-114"/>
     <use x="1203.794922" xlink:href="#DejaVuSans-97"/>
     <use x="1265.074219" xlink:href="#DejaVuSans-99"/>
     <use x="1320.054688" xlink:href="#DejaVuSans-116"/>
     <use x="1359.263672" xlink:href="#DejaVuSans-101"/>
     <use x="1420.787109" xlink:href="#DejaVuSans-114"/>
     <use x="1461.900391" xlink:href="#DejaVuSans-105"/>
     <use x="1489.683594" xlink:href="#DejaVuSans-115"/>
     <use x="1541.783203" xlink:href="#DejaVuSans-116"/>
     <use x="1580.992188" xlink:href="#DejaVuSans-105"/>
     <use x="1608.775391" xlink:href="#DejaVuSans-99"/>
     <use x="1663.755859" xlink:href="#DejaVuSans-58"/>
     <use x="1697.447266" xlink:href="#DejaVuSans-32"/>
     <use x="1729.234375" xlink:href="#DejaVuSans-105"/>
     <use x="1757.017578" xlink:href="#DejaVuSans-110"/>
     <use x="1820.396484" xlink:href="#DejaVuSans-118"/>
     <use x="1879.576172" xlink:href="#DejaVuSans-101"/>
     <use x="1941.099609" xlink:href="#DejaVuSans-114"/>
     <use x="1982.212891" xlink:href="#DejaVuSans-115"/>
     <use x="2034.3125" xlink:href="#DejaVuSans-105"/>
     <use x="2062.095703" xlink:href="#DejaVuSans-111"/>
     <use x="2123.277344" xlink:href="#DejaVuSans-110"/>
     <use x="2186.65625" xlink:href="#DejaVuSans-115"/>
    </g>
   </g>
   <g id="legend_1">
    <g id="patch_7">
     <path d="M 252.6 298.64 
L 443 298.64 
Q 445 298.64 445 296.64 
L 445 106.824375 
Q 445 104.824375 443 104.824375 
L 252.6 104.824375 
Q 250.6 104.824375 250.6 106.824375 
L 250.6 296.64 
Q 250.6 298.64 252.6 298.64 
z
" style="fill:#ffffff;opacity:0.8;stroke:#cccccc;stroke-linejoin:miter;"/>
    </g>
    <g id="line2d_25">
     <path d="M 254.6 112.922812 
L 274.6 112.922812 
" style="fill:none;stroke:#1f77b4;stroke-linecap:square;stroke-opacity:0.3;"/>
    </g>
    <g id="line2d_26"/>
    <g id="text_16">
     <!-- ROC fold 0 (AUC = 0.46) -->
     <defs>
      <path d="M 39.40625 66.21875 
Q 28.65625 66.21875 22.328125 58.203125 
Q 16.015625 50.203125 16.015625 36.375 
Q 16.015625 22.609375 22.328125 14.59375 
Q 28.65625 6.59375 39.40625 6.59375 
Q 50.140625 6.59375 56.421875 14.59375 
Q 62.703125 22.609375 62.703125 36.375 
Q 62.703125 50.203125 56.421875 58.203125 
Q 50.140625 66.21875 39.40625 66.21875 
z
M 39.40625 74.21875 
Q 54.734375 74.21875 63.90625 63.9375 
Q 73.09375 53.65625 73.09375 36.375 
Q 73.09375 19.140625 63.90625 8.859375 
Q 54.734375 -1.421875 39.40625 -1.421875 
Q 24.03125 -1.421875 14.8125 8.828125 
Q 5.609375 19.09375 5.609375 36.375 
Q 5.609375 53.65625 14.8125 63.9375 
Q 24.03125 74.21875 39.40625 74.21875 
z
" id="DejaVuSans-79"/>
      <path d="M 64.40625 67.28125 
L 64.40625 56.890625 
Q 59.421875 61.53125 53.78125 63.8125 
Q 48.140625 66.109375 41.796875 66.109375 
Q 29.296875 66.109375 22.65625 58.46875 
Q 16.015625 50.828125 16.015625 36.375 
Q 16.015625 21.96875 22.65625 14.328125 
Q 29.296875 6.6875 41.796875 6.6875 
Q 48.140625 6.6875 53.78125 8.984375 
Q 59.421875 11.28125 64.40625 15.921875 
L 64.40625 5.609375 
Q 59.234375 2.09375 53.4375 0.328125 
Q 47.65625 -1.421875 41.21875 -1.421875 
Q 24.65625 -1.421875 15.125 8.703125 
Q 5.609375 18.84375 5.609375 36.375 
Q 5.609375 53.953125 15.125 64.078125 
Q 24.65625 74.21875 41.21875 74.21875 
Q 47.75 74.21875 53.53125 72.484375 
Q 59.328125 70.75 64.40625 67.28125 
z
" id="DejaVuSans-67"/>
      <path d="M 37.109375 75.984375 
L 37.109375 68.5 
L 28.515625 68.5 
Q 23.6875 68.5 21.796875 66.546875 
Q 19.921875 64.59375 19.921875 59.515625 
L 19.921875 54.6875 
L 34.71875 54.6875 
L 34.71875 47.703125 
L 19.921875 47.703125 
L 19.921875 0 
L 10.890625 0 
L 10.890625 47.703125 
L 2.296875 47.703125 
L 2.296875 54.6875 
L 10.890625 54.6875 
L 10.890625 58.5 
Q 10.890625 67.625 15.140625 71.796875 
Q 19.390625 75.984375 28.609375 75.984375 
z
" id="DejaVuSans-102"/>
      <path d="M 45.40625 46.390625 
L 45.40625 75.984375 
L 54.390625 75.984375 
L 54.390625 0 
L 45.40625 0 
L 45.40625 8.203125 
Q 42.578125 3.328125 38.25 0.953125 
Q 33.9375 -1.421875 27.875 -1.421875 
Q 17.96875 -1.421875 11.734375 6.484375 
Q 5.515625 14.40625 5.515625 27.296875 
Q 5.515625 40.1875 11.734375 48.09375 
Q 17.96875 56 27.875 56 
Q 33.9375 56 38.25 53.625 
Q 42.578125 51.265625 45.40625 46.390625 
z
M 14.796875 27.296875 
Q 14.796875 17.390625 18.875 11.75 
Q 22.953125 6.109375 30.078125 6.109375 
Q 37.203125 6.109375 41.296875 11.75 
Q 45.40625 17.390625 45.40625 27.296875 
Q 45.40625 37.203125 41.296875 42.84375 
Q 37.203125 48.484375 30.078125 48.484375 
Q 22.953125 48.484375 18.875 42.84375 
Q 14.796875 37.203125 14.796875 27.296875 
z
" id="DejaVuSans-100"/>
      <path d="M 31 75.875 
Q 24.46875 64.65625 21.28125 53.65625 
Q 18.109375 42.671875 18.109375 31.390625 
Q 18.109375 20.125 21.3125 9.0625 
Q 24.515625 -2 31 -13.1875 
L 23.1875 -13.1875 
Q 15.875 -1.703125 12.234375 9.375 
Q 8.59375 20.453125 8.59375 31.390625 
Q 8.59375 42.28125 12.203125 53.3125 
Q 15.828125 64.359375 23.1875 75.875 
z
" id="DejaVuSans-40"/>
      <path d="M 34.1875 63.1875 
L 20.796875 26.90625 
L 47.609375 26.90625 
z
M 28.609375 72.90625 
L 39.796875 72.90625 
L 67.578125 0 
L 57.328125 0 
L 50.6875 18.703125 
L 17.828125 18.703125 
L 11.1875 0 
L 0.78125 0 
z
" id="DejaVuSans-65"/>
      <path d="M 8.6875 72.90625 
L 18.609375 72.90625 
L 18.609375 28.609375 
Q 18.609375 16.890625 22.84375 11.734375 
Q 27.09375 6.59375 36.625 6.59375 
Q 46.09375 6.59375 50.34375 11.734375 
Q 54.59375 16.890625 54.59375 28.609375 
L 54.59375 72.90625 
L 64.5 72.90625 
L 64.5 27.390625 
Q 64.5 13.140625 57.4375 5.859375 
Q 50.390625 -1.421875 36.625 -1.421875 
Q 22.796875 -1.421875 15.734375 5.859375 
Q 8.6875 13.140625 8.6875 27.390625 
z
" id="DejaVuSans-85"/>
      <path d="M 10.59375 45.40625 
L 73.1875 45.40625 
L 73.1875 37.203125 
L 10.59375 37.203125 
z
M 10.59375 25.484375 
L 73.1875 25.484375 
L 73.1875 17.1875 
L 10.59375 17.1875 
z
" id="DejaVuSans-61"/>
      <path d="M 8.015625 75.875 
L 15.828125 75.875 
Q 23.140625 64.359375 26.78125 53.3125 
Q 30.421875 42.28125 30.421875 31.390625 
Q 30.421875 20.453125 26.78125 9.375 
Q 23.140625 -1.703125 15.828125 -13.1875 
L 8.015625 -13.1875 
Q 14.5 -2 17.703125 9.0625 
Q 20.90625 20.125 20.90625 31.390625 
Q 20.90625 42.671875 17.703125 53.65625 
Q 14.5 64.65625 8.015625 75.875 
z
" id="DejaVuSans-41"/>
     </defs>
     <g transform="translate(282.6 116.422812)scale(0.1 -0.1)">
      <use xlink:href="#DejaVuSans-82"/>
      <use x="69.482422" xlink:href="#DejaVuSans-79"/>
      <use x="148.193359" xlink:href="#DejaVuSans-67"/>
      <use x="218.017578" xlink:href="#DejaVuSans-32"/>
      <use x="249.804688" xlink:href="#DejaVuSans-102"/>
      <use x="285.009766" xlink:href="#DejaVuSans-111"/>
      <use x="346.191406" xlink:href="#DejaVuSans-108"/>
      <use x="373.974609" xlink:href="#DejaVuSans-100"/>
      <use x="437.451172" xlink:href="#DejaVuSans-32"/>
      <use x="469.238281" xlink:href="#DejaVuSans-48"/>
      <use x="532.861328" xlink:href="#DejaVuSans-32"/>
      <use x="564.648438" xlink:href="#DejaVuSans-40"/>
      <use x="603.662109" xlink:href="#DejaVuSans-65"/>
      <use x="672.070312" xlink:href="#DejaVuSans-85"/>
      <use x="745.263672" xlink:href="#DejaVuSans-67"/>
      <use x="815.087891" xlink:href="#DejaVuSans-32"/>
      <use x="846.875" xlink:href="#DejaVuSans-61"/>
      <use x="930.664062" xlink:href="#DejaVuSans-32"/>
      <use x="962.451172" xlink:href="#DejaVuSans-48"/>
      <use x="1026.074219" xlink:href="#DejaVuSans-46"/>
      <use x="1057.861328" xlink:href="#DejaVuSans-52"/>
      <use x="1121.484375" xlink:href="#DejaVuSans-54"/>
      <use x="1185.107422" xlink:href="#DejaVuSans-41"/>
     </g>
    </g>
    <g id="line2d_27">
     <path d="M 254.6 127.600938 
L 274.6 127.600938 
" style="fill:none;stroke:#ff7f0e;stroke-linecap:square;stroke-opacity:0.3;"/>
    </g>
    <g id="line2d_28"/>
    <g id="text_17">
     <!-- ROC fold 1 (AUC = 0.46) -->
     <g transform="translate(282.6 131.100938)scale(0.1 -0.1)">
      <use xlink:href="#DejaVuSans-82"/>
      <use x="69.482422" xlink:href="#DejaVuSans-79"/>
      <use x="148.193359" xlink:href="#DejaVuSans-67"/>
      <use x="218.017578" xlink:href="#DejaVuSans-32"/>
      <use x="249.804688" xlink:href="#DejaVuSans-102"/>
      <use x="285.009766" xlink:href="#DejaVuSans-111"/>
      <use x="346.191406" xlink:href="#DejaVuSans-108"/>
      <use x="373.974609" xlink:href="#DejaVuSans-100"/>
      <use x="437.451172" xlink:href="#DejaVuSans-32"/>
      <use x="469.238281" xlink:href="#DejaVuSans-49"/>
      <use x="532.861328" xlink:href="#DejaVuSans-32"/>
      <use x="564.648438" xlink:href="#DejaVuSans-40"/>
      <use x="603.662109" xlink:href="#DejaVuSans-65"/>
      <use x="672.070312" xlink:href="#DejaVuSans-85"/>
      <use x="745.263672" xlink:href="#DejaVuSans-67"/>
      <use x="815.087891" xlink:href="#DejaVuSans-32"/>
      <use x="846.875" xlink:href="#DejaVuSans-61"/>
      <use x="930.664062" xlink:href="#DejaVuSans-32"/>
      <use x="962.451172" xlink:href="#DejaVuSans-48"/>
      <use x="1026.074219" xlink:href="#DejaVuSans-46"/>
      <use x="1057.861328" xlink:href="#DejaVuSans-52"/>
      <use x="1121.484375" xlink:href="#DejaVuSans-54"/>
      <use x="1185.107422" xlink:href="#DejaVuSans-41"/>
     </g>
    </g>
    <g id="line2d_29">
     <path d="M 254.6 142.279063 
L 274.6 142.279063 
" style="fill:none;stroke:#2ca02c;stroke-linecap:square;stroke-opacity:0.3;"/>
    </g>
    <g id="line2d_30"/>
    <g id="text_18">
     <!-- ROC fold 2 (AUC = 0.56) -->
     <defs>
      <path d="M 10.796875 72.90625 
L 49.515625 72.90625 
L 49.515625 64.59375 
L 19.828125 64.59375 
L 19.828125 46.734375 
Q 21.96875 47.46875 24.109375 47.828125 
Q 26.265625 48.1875 28.421875 48.1875 
Q 40.625 48.1875 47.75 41.5 
Q 54.890625 34.8125 54.890625 23.390625 
Q 54.890625 11.625 47.5625 5.09375 
Q 40.234375 -1.421875 26.90625 -1.421875 
Q 22.3125 -1.421875 17.546875 -0.640625 
Q 12.796875 0.140625 7.71875 1.703125 
L 7.71875 11.625 
Q 12.109375 9.234375 16.796875 8.0625 
Q 21.484375 6.890625 26.703125 6.890625 
Q 35.15625 6.890625 40.078125 11.328125 
Q 45.015625 15.765625 45.015625 23.390625 
Q 45.015625 31 40.078125 35.4375 
Q 35.15625 39.890625 26.703125 39.890625 
Q 22.75 39.890625 18.8125 39.015625 
Q 14.890625 38.140625 10.796875 36.28125 
z
" id="DejaVuSans-53"/>
     </defs>
     <g transform="translate(282.6 145.779063)scale(0.1 -0.1)">
      <use xlink:href="#DejaVuSans-82"/>
      <use x="69.482422" xlink:href="#DejaVuSans-79"/>
      <use x="148.193359" xlink:href="#DejaVuSans-67"/>
      <use x="218.017578" xlink:href="#DejaVuSans-32"/>
      <use x="249.804688" xlink:href="#DejaVuSans-102"/>
      <use x="285.009766" xlink:href="#DejaVuSans-111"/>
      <use x="346.191406" xlink:href="#DejaVuSans-108"/>
      <use x="373.974609" xlink:href="#DejaVuSans-100"/>
      <use x="437.451172" xlink:href="#DejaVuSans-32"/>
      <use x="469.238281" xlink:href="#DejaVuSans-50"/>
      <use x="532.861328" xlink:href="#DejaVuSans-32"/>
      <use x="564.648438" xlink:href="#DejaVuSans-40"/>
      <use x="603.662109" xlink:href="#DejaVuSans-65"/>
      <use x="672.070312" xlink:href="#DejaVuSans-85"/>
      <use x="745.263672" xlink:href="#DejaVuSans-67"/>
      <use x="815.087891" xlink:href="#DejaVuSans-32"/>
      <use x="846.875" xlink:href="#DejaVuSans-61"/>
      <use x="930.664062" xlink:href="#DejaVuSans-32"/>
      <use x="962.451172" xlink:href="#DejaVuSans-48"/>
      <use x="1026.074219" xlink:href="#DejaVuSans-46"/>
      <use x="1057.861328" xlink:href="#DejaVuSans-53"/>
      <use x="1121.484375" xlink:href="#DejaVuSans-54"/>
      <use x="1185.107422" xlink:href="#DejaVuSans-41"/>
     </g>
    </g>
    <g id="line2d_31">
     <path d="M 254.6 156.957188 
L 274.6 156.957188 
" style="fill:none;stroke:#d62728;stroke-linecap:square;stroke-opacity:0.3;"/>
    </g>
    <g id="line2d_32"/>
    <g id="text_19">
     <!-- ROC fold 3 (AUC = 0.52) -->
     <defs>
      <path d="M 40.578125 39.3125 
Q 47.65625 37.796875 51.625 33 
Q 55.609375 28.21875 55.609375 21.1875 
Q 55.609375 10.40625 48.1875 4.484375 
Q 40.765625 -1.421875 27.09375 -1.421875 
Q 22.515625 -1.421875 17.65625 -0.515625 
Q 12.796875 0.390625 7.625 2.203125 
L 7.625 11.71875 
Q 11.71875 9.328125 16.59375 8.109375 
Q 21.484375 6.890625 26.8125 6.890625 
Q 36.078125 6.890625 40.9375 10.546875 
Q 45.796875 14.203125 45.796875 21.1875 
Q 45.796875 27.640625 41.28125 31.265625 
Q 36.765625 34.90625 28.71875 34.90625 
L 20.21875 34.90625 
L 20.21875 43.015625 
L 29.109375 43.015625 
Q 36.375 43.015625 40.234375 45.921875 
Q 44.09375 48.828125 44.09375 54.296875 
Q 44.09375 59.90625 40.109375 62.90625 
Q 36.140625 65.921875 28.71875 65.921875 
Q 24.65625 65.921875 20.015625 65.03125 
Q 15.375 64.15625 9.8125 62.3125 
L 9.8125 71.09375 
Q 15.4375 72.65625 20.34375 73.4375 
Q 25.25 74.21875 29.59375 74.21875 
Q 40.828125 74.21875 47.359375 69.109375 
Q 53.90625 64.015625 53.90625 55.328125 
Q 53.90625 49.265625 50.4375 45.09375 
Q 46.96875 40.921875 40.578125 39.3125 
z
" id="DejaVuSans-51"/>
     </defs>
     <g transform="translate(282.6 160.457188)scale(0.1 -0.1)">
      <use xlink:href="#DejaVuSans-82"/>
      <use x="69.482422" xlink:href="#DejaVuSans-79"/>
      <use x="148.193359" xlink:href="#DejaVuSans-67"/>
      <use x="218.017578" xlink:href="#DejaVuSans-32"/>
      <use x="249.804688" xlink:href="#DejaVuSans-102"/>
      <use x="285.009766" xlink:href="#DejaVuSans-111"/>
      <use x="346.191406" xlink:href="#DejaVuSans-108"/>
      <use x="373.974609" xlink:href="#DejaVuSans-100"/>
      <use x="437.451172" xlink:href="#DejaVuSans-32"/>
      <use x="469.238281" xlink:href="#DejaVuSans-51"/>
      <use x="532.861328" xlink:href="#DejaVuSans-32"/>
      <use x="564.648438" xlink:href="#DejaVuSans-40"/>
      <use x="603.662109" xlink:href="#DejaVuSans-65"/>
      <use x="672.070312" xlink:href="#DejaVuSans-85"/>
      <use x="745.263672" xlink:href="#DejaVuSans-67"/>
      <use x="815.087891" xlink:href="#DejaVuSans-32"/>
      <use x="846.875" xlink:href="#DejaVuSans-61"/>
      <use x="930.664062" xlink:href="#DejaVuSans-32"/>
      <use x="962.451172" xlink:href="#DejaVuSans-48"/>
      <use x="1026.074219" xlink:href="#DejaVuSans-46"/>
      <use x="1057.861328" xlink:href="#DejaVuSans-53"/>
      <use x="1121.484375" xlink:href="#DejaVuSans-50"/>
      <use x="1185.107422" xlink:href="#DejaVuSans-41"/>
     </g>
    </g>
    <g id="line2d_33">
     <path d="M 254.6 171.635312 
L 274.6 171.635312 
" style="fill:none;stroke:#9467bd;stroke-linecap:square;stroke-opacity:0.3;"/>
    </g>
    <g id="line2d_34"/>
    <g id="text_20">
     <!-- ROC fold 4 (AUC = 0.50) -->
     <g transform="translate(282.6 175.135312)scale(0.1 -0.1)">
      <use xlink:href="#DejaVuSans-82"/>
      <use x="69.482422" xlink:href="#DejaVuSans-79"/>
      <use x="148.193359" xlink:href="#DejaVuSans-67"/>
      <use x="218.017578" xlink:href="#DejaVuSans-32"/>
      <use x="249.804688" xlink:href="#DejaVuSans-102"/>
      <use x="285.009766" xlink:href="#DejaVuSans-111"/>
      <use x="346.191406" xlink:href="#DejaVuSans-108"/>
      <use x="373.974609" xlink:href="#DejaVuSans-100"/>
      <use x="437.451172" xlink:href="#DejaVuSans-32"/>
      <use x="469.238281" xlink:href="#DejaVuSans-52"/>
      <use x="532.861328" xlink:href="#DejaVuSans-32"/>
      <use x="564.648438" xlink:href="#DejaVuSans-40"/>
      <use x="603.662109" xlink:href="#DejaVuSans-65"/>
      <use x="672.070312" xlink:href="#DejaVuSans-85"/>
      <use x="745.263672" xlink:href="#DejaVuSans-67"/>
      <use x="815.087891" xlink:href="#DejaVuSans-32"/>
      <use x="846.875" xlink:href="#DejaVuSans-61"/>
      <use x="930.664062" xlink:href="#DejaVuSans-32"/>
      <use x="962.451172" xlink:href="#DejaVuSans-48"/>
      <use x="1026.074219" xlink:href="#DejaVuSans-46"/>
      <use x="1057.861328" xlink:href="#DejaVuSans-53"/>
      <use x="1121.484375" xlink:href="#DejaVuSans-48"/>
      <use x="1185.107422" xlink:href="#DejaVuSans-41"/>
     </g>
    </g>
    <g id="line2d_35">
     <path d="M 254.6 186.313438 
L 274.6 186.313438 
" style="fill:none;stroke:#8c564b;stroke-linecap:square;stroke-opacity:0.3;"/>
    </g>
    <g id="line2d_36"/>
    <g id="text_21">
     <!-- ROC fold 5 (AUC = 0.47) -->
     <defs>
      <path d="M 8.203125 72.90625 
L 55.078125 72.90625 
L 55.078125 68.703125 
L 28.609375 0 
L 18.3125 0 
L 43.21875 64.59375 
L 8.203125 64.59375 
z
" id="DejaVuSans-55"/>
     </defs>
     <g transform="translate(282.6 189.813438)scale(0.1 -0.1)">
      <use xlink:href="#DejaVuSans-82"/>
      <use x="69.482422" xlink:href="#DejaVuSans-79"/>
      <use x="148.193359" xlink:href="#DejaVuSans-67"/>
      <use x="218.017578" xlink:href="#DejaVuSans-32"/>
      <use x="249.804688" xlink:href="#DejaVuSans-102"/>
      <use x="285.009766" xlink:href="#DejaVuSans-111"/>
      <use x="346.191406" xlink:href="#DejaVuSans-108"/>
      <use x="373.974609" xlink:href="#DejaVuSans-100"/>
      <use x="437.451172" xlink:href="#DejaVuSans-32"/>
      <use x="469.238281" xlink:href="#DejaVuSans-53"/>
      <use x="532.861328" xlink:href="#DejaVuSans-32"/>
      <use x="564.648438" xlink:href="#DejaVuSans-40"/>
      <use x="603.662109" xlink:href="#DejaVuSans-65"/>
      <use x="672.070312" xlink:href="#DejaVuSans-85"/>
      <use x="745.263672" xlink:href="#DejaVuSans-67"/>
      <use x="815.087891" xlink:href="#DejaVuSans-32"/>
      <use x="846.875" xlink:href="#DejaVuSans-61"/>
      <use x="930.664062" xlink:href="#DejaVuSans-32"/>
      <use x="962.451172" xlink:href="#DejaVuSans-48"/>
      <use x="1026.074219" xlink:href="#DejaVuSans-46"/>
      <use x="1057.861328" xlink:href="#DejaVuSans-52"/>
      <use x="1121.484375" xlink:href="#DejaVuSans-55"/>
      <use x="1185.107422" xlink:href="#DejaVuSans-41"/>
     </g>
    </g>
    <g id="line2d_37">
     <path d="M 254.6 200.991562 
L 274.6 200.991562 
" style="fill:none;stroke:#e377c2;stroke-linecap:square;stroke-opacity:0.3;"/>
    </g>
    <g id="line2d_38"/>
    <g id="text_22">
     <!-- ROC fold 6 (AUC = 0.52) -->
     <g transform="translate(282.6 204.491562)scale(0.1 -0.1)">
      <use xlink:href="#DejaVuSans-82"/>
      <use x="69.482422" xlink:href="#DejaVuSans-79"/>
      <use x="148.193359" xlink:href="#DejaVuSans-67"/>
      <use x="218.017578" xlink:href="#DejaVuSans-32"/>
      <use x="249.804688" xlink:href="#DejaVuSans-102"/>
      <use x="285.009766" xlink:href="#DejaVuSans-111"/>
      <use x="346.191406" xlink:href="#DejaVuSans-108"/>
      <use x="373.974609" xlink:href="#DejaVuSans-100"/>
      <use x="437.451172" xlink:href="#DejaVuSans-32"/>
      <use x="469.238281" xlink:href="#DejaVuSans-54"/>
      <use x="532.861328" xlink:href="#DejaVuSans-32"/>
      <use x="564.648438" xlink:href="#DejaVuSans-40"/>
      <use x="603.662109" xlink:href="#DejaVuSans-65"/>
      <use x="672.070312" xlink:href="#DejaVuSans-85"/>
      <use x="745.263672" xlink:href="#DejaVuSans-67"/>
      <use x="815.087891" xlink:href="#DejaVuSans-32"/>
      <use x="846.875" xlink:href="#DejaVuSans-61"/>
      <use x="930.664062" xlink:href="#DejaVuSans-32"/>
      <use x="962.451172" xlink:href="#DejaVuSans-48"/>
      <use x="1026.074219" xlink:href="#DejaVuSans-46"/>
      <use x="1057.861328" xlink:href="#DejaVuSans-53"/>
      <use x="1121.484375" xlink:href="#DejaVuSans-50"/>
      <use x="1185.107422" xlink:href="#DejaVuSans-41"/>
     </g>
    </g>
    <g id="line2d_39">
     <path d="M 254.6 215.669688 
L 274.6 215.669688 
" style="fill:none;stroke:#7f7f7f;stroke-linecap:square;stroke-opacity:0.3;"/>
    </g>
    <g id="line2d_40"/>
    <g id="text_23">
     <!-- ROC fold 7 (AUC = 0.45) -->
     <g transform="translate(282.6 219.169688)scale(0.1 -0.1)">
      <use xlink:href="#DejaVuSans-82"/>
      <use x="69.482422" xlink:href="#DejaVuSans-79"/>
      <use x="148.193359" xlink:href="#DejaVuSans-67"/>
      <use x="218.017578" xlink:href="#DejaVuSans-32"/>
      <use x="249.804688" xlink:href="#DejaVuSans-102"/>
      <use x="285.009766" xlink:href="#DejaVuSans-111"/>
      <use x="346.191406" xlink:href="#DejaVuSans-108"/>
      <use x="373.974609" xlink:href="#DejaVuSans-100"/>
      <use x="437.451172" xlink:href="#DejaVuSans-32"/>
      <use x="469.238281" xlink:href="#DejaVuSans-55"/>
      <use x="532.861328" xlink:href="#DejaVuSans-32"/>
      <use x="564.648438" xlink:href="#DejaVuSans-40"/>
      <use x="603.662109" xlink:href="#DejaVuSans-65"/>
      <use x="672.070312" xlink:href="#DejaVuSans-85"/>
      <use x="745.263672" xlink:href="#DejaVuSans-67"/>
      <use x="815.087891" xlink:href="#DejaVuSans-32"/>
      <use x="846.875" xlink:href="#DejaVuSans-61"/>
      <use x="930.664062" xlink:href="#DejaVuSans-32"/>
      <use x="962.451172" xlink:href="#DejaVuSans-48"/>
      <use x="1026.074219" xlink:href="#DejaVuSans-46"/>
      <use x="1057.861328" xlink:href="#DejaVuSans-52"/>
      <use x="1121.484375" xlink:href="#DejaVuSans-53"/>
      <use x="1185.107422" xlink:href="#DejaVuSans-41"/>
     </g>
    </g>
    <g id="line2d_41">
     <path d="M 254.6 230.347812 
L 274.6 230.347812 
" style="fill:none;stroke:#bcbd22;stroke-linecap:square;stroke-opacity:0.3;"/>
    </g>
    <g id="line2d_42"/>
    <g id="text_24">
     <!-- ROC fold 8 (AUC = 0.51) -->
     <g transform="translate(282.6 233.847812)scale(0.1 -0.1)">
      <use xlink:href="#DejaVuSans-82"/>
      <use x="69.482422" xlink:href="#DejaVuSans-79"/>
      <use x="148.193359" xlink:href="#DejaVuSans-67"/>
      <use x="218.017578" xlink:href="#DejaVuSans-32"/>
      <use x="249.804688" xlink:href="#DejaVuSans-102"/>
      <use x="285.009766" xlink:href="#DejaVuSans-111"/>
      <use x="346.191406" xlink:href="#DejaVuSans-108"/>
      <use x="373.974609" xlink:href="#DejaVuSans-100"/>
      <use x="437.451172" xlink:href="#DejaVuSans-32"/>
      <use x="469.238281" xlink:href="#DejaVuSans-56"/>
      <use x="532.861328" xlink:href="#DejaVuSans-32"/>
      <use x="564.648438" xlink:href="#DejaVuSans-40"/>
      <use x="603.662109" xlink:href="#DejaVuSans-65"/>
      <use x="672.070312" xlink:href="#DejaVuSans-85"/>
      <use x="745.263672" xlink:href="#DejaVuSans-67"/>
      <use x="815.087891" xlink:href="#DejaVuSans-32"/>
      <use x="846.875" xlink:href="#DejaVuSans-61"/>
      <use x="930.664062" xlink:href="#DejaVuSans-32"/>
      <use x="962.451172" xlink:href="#DejaVuSans-48"/>
      <use x="1026.074219" xlink:href="#DejaVuSans-46"/>
      <use x="1057.861328" xlink:href="#DejaVuSans-53"/>
      <use x="1121.484375" xlink:href="#DejaVuSans-49"/>
      <use x="1185.107422" xlink:href="#DejaVuSans-41"/>
     </g>
    </g>
    <g id="line2d_43">
     <path d="M 254.6 245.025937 
L 274.6 245.025937 
" style="fill:none;stroke:#17becf;stroke-linecap:square;stroke-opacity:0.3;"/>
    </g>
    <g id="line2d_44"/>
    <g id="text_25">
     <!-- ROC fold 9 (AUC = 0.40) -->
     <defs>
      <path d="M 10.984375 1.515625 
L 10.984375 10.5 
Q 14.703125 8.734375 18.5 7.8125 
Q 22.3125 6.890625 25.984375 6.890625 
Q 35.75 6.890625 40.890625 13.453125 
Q 46.046875 20.015625 46.78125 33.40625 
Q 43.953125 29.203125 39.59375 26.953125 
Q 35.25 24.703125 29.984375 24.703125 
Q 19.046875 24.703125 12.671875 31.3125 
Q 6.296875 37.9375 6.296875 49.421875 
Q 6.296875 60.640625 12.9375 67.421875 
Q 19.578125 74.21875 30.609375 74.21875 
Q 43.265625 74.21875 49.921875 64.515625 
Q 56.59375 54.828125 56.59375 36.375 
Q 56.59375 19.140625 48.40625 8.859375 
Q 40.234375 -1.421875 26.421875 -1.421875 
Q 22.703125 -1.421875 18.890625 -0.6875 
Q 15.09375 0.046875 10.984375 1.515625 
z
M 30.609375 32.421875 
Q 37.25 32.421875 41.125 36.953125 
Q 45.015625 41.5 45.015625 49.421875 
Q 45.015625 57.28125 41.125 61.84375 
Q 37.25 66.40625 30.609375 66.40625 
Q 23.96875 66.40625 20.09375 61.84375 
Q 16.21875 57.28125 16.21875 49.421875 
Q 16.21875 41.5 20.09375 36.953125 
Q 23.96875 32.421875 30.609375 32.421875 
z
" id="DejaVuSans-57"/>
     </defs>
     <g transform="translate(282.6 248.525937)scale(0.1 -0.1)">
      <use xlink:href="#DejaVuSans-82"/>
      <use x="69.482422" xlink:href="#DejaVuSans-79"/>
      <use x="148.193359" xlink:href="#DejaVuSans-67"/>
      <use x="218.017578" xlink:href="#DejaVuSans-32"/>
      <use x="249.804688" xlink:href="#DejaVuSans-102"/>
      <use x="285.009766" xlink:href="#DejaVuSans-111"/>
      <use x="346.191406" xlink:href="#DejaVuSans-108"/>
      <use x="373.974609" xlink:href="#DejaVuSans-100"/>
      <use x="437.451172" xlink:href="#DejaVuSans-32"/>
      <use x="469.238281" xlink:href="#DejaVuSans-57"/>
      <use x="532.861328" xlink:href="#DejaVuSans-32"/>
      <use x="564.648438" xlink:href="#DejaVuSans-40"/>
      <use x="603.662109" xlink:href="#DejaVuSans-65"/>
      <use x="672.070312" xlink:href="#DejaVuSans-85"/>
      <use x="745.263672" xlink:href="#DejaVuSans-67"/>
      <use x="815.087891" xlink:href="#DejaVuSans-32"/>
      <use x="846.875" xlink:href="#DejaVuSans-61"/>
      <use x="930.664062" xlink:href="#DejaVuSans-32"/>
      <use x="962.451172" xlink:href="#DejaVuSans-48"/>
      <use x="1026.074219" xlink:href="#DejaVuSans-46"/>
      <use x="1057.861328" xlink:href="#DejaVuSans-52"/>
      <use x="1121.484375" xlink:href="#DejaVuSans-48"/>
      <use x="1185.107422" xlink:href="#DejaVuSans-41"/>
     </g>
    </g>
    <g id="line2d_45">
     <path d="M 254.6 259.704062 
L 274.6 259.704062 
" style="fill:none;stroke:#ff0000;stroke-dasharray:7.4,3.2;stroke-dashoffset:0;stroke-opacity:0.8;stroke-width:2;"/>
    </g>
    <g id="line2d_46"/>
    <g id="text_26">
     <!-- Chance -->
     <g transform="translate(282.6 263.204062)scale(0.1 -0.1)">
      <use xlink:href="#DejaVuSans-67"/>
      <use x="69.824219" xlink:href="#DejaVuSans-104"/>
      <use x="133.203125" xlink:href="#DejaVuSans-97"/>
      <use x="194.482422" xlink:href="#DejaVuSans-110"/>
      <use x="257.861328" xlink:href="#DejaVuSans-99"/>
      <use x="312.841797" xlink:href="#DejaVuSans-101"/>
     </g>
    </g>
    <g id="line2d_47">
     <path d="M 254.6 274.382187 
L 274.6 274.382187 
" style="fill:none;stroke:#0000ff;stroke-linecap:square;stroke-opacity:0.8;stroke-width:2;"/>
    </g>
    <g id="line2d_48"/>
    <g id="text_27">
     <!-- Mean ROC (AUC = 0.49 $\pm$ 0.04) -->
     <defs>
      <path d="M 9.8125 72.90625 
L 24.515625 72.90625 
L 43.109375 23.296875 
L 61.8125 72.90625 
L 76.515625 72.90625 
L 76.515625 0 
L 66.890625 0 
L 66.890625 64.015625 
L 48.09375 14.015625 
L 38.1875 14.015625 
L 19.390625 64.015625 
L 19.390625 0 
L 9.8125 0 
z
" id="DejaVuSans-77"/>
      <path d="M 46 62.703125 
L 46 43.796875 
L 73.1875 43.796875 
L 73.1875 35.5 
L 46 35.5 
L 46 16.609375 
L 37.796875 16.609375 
L 37.796875 35.5 
L 10.59375 35.5 
L 10.59375 43.796875 
L 37.796875 43.796875 
L 37.796875 62.703125 
z
M 10.59375 8.296875 
L 73.1875 8.296875 
L 73.1875 0 
L 10.59375 0 
z
" id="DejaVuSans-177"/>
     </defs>
     <g transform="translate(282.6 277.882187)scale(0.1 -0.1)">
      <use transform="translate(0 0.125)" xlink:href="#DejaVuSans-77"/>
      <use transform="translate(86.279297 0.125)" xlink:href="#DejaVuSans-101"/>
      <use transform="translate(147.802734 0.125)" xlink:href="#DejaVuSans-97"/>
      <use transform="translate(209.082031 0.125)" xlink:href="#DejaVuSans-110"/>
      <use transform="translate(272.460938 0.125)" xlink:href="#DejaVuSans-32"/>
      <use transform="translate(304.248047 0.125)" xlink:href="#DejaVuSans-82"/>
      <use transform="translate(373.730469 0.125)" xlink:href="#DejaVuSans-79"/>
      <use transform="translate(452.441406 0.125)" xlink:href="#DejaVuSans-67"/>
      <use transform="translate(522.265625 0.125)" xlink:href="#DejaVuSans-32"/>
      <use transform="translate(554.052734 0.125)" xlink:href="#DejaVuSans-40"/>
      <use transform="translate(593.066406 0.125)" xlink:href="#DejaVuSans-65"/>
      <use transform="translate(661.474609 0.125)" xlink:href="#DejaVuSans-85"/>
      <use transform="translate(734.667969 0.125)" xlink:href="#DejaVuSans-67"/>
      <use transform="translate(804.492188 0.125)" xlink:href="#DejaVuSans-32"/>
      <use transform="translate(836.279297 0.125)" xlink:href="#DejaVuSans-61"/>
      <use transform="translate(920.068359 0.125)" xlink:href="#DejaVuSans-32"/>
      <use transform="translate(951.855469 0.125)" xlink:href="#DejaVuSans-48"/>
      <use transform="translate(1015.478516 0.125)" xlink:href="#DejaVuSans-46"/>
      <use transform="translate(1047.265625 0.125)" xlink:href="#DejaVuSans-52"/>
      <use transform="translate(1110.888672 0.125)" xlink:href="#DejaVuSans-57"/>
      <use transform="translate(1174.511719 0.125)" xlink:href="#DejaVuSans-32"/>
      <use transform="translate(1206.298828 0.125)" xlink:href="#DejaVuSans-177"/>
      <use transform="translate(1290.087891 0.125)" xlink:href="#DejaVuSans-32"/>
      <use transform="translate(1321.875 0.125)" xlink:href="#DejaVuSans-48"/>
      <use transform="translate(1385.498047 0.125)" xlink:href="#DejaVuSans-46"/>
      <use transform="translate(1417.285156 0.125)" xlink:href="#DejaVuSans-48"/>
      <use transform="translate(1480.908203 0.125)" xlink:href="#DejaVuSans-52"/>
      <use transform="translate(1544.53125 0.125)" xlink:href="#DejaVuSans-41"/>
     </g>
    </g>
    <g id="patch_8">
     <path d="M 254.6 292.560312 
L 274.6 292.560312 
L 274.6 285.560312 
L 254.6 285.560312 
z
" style="fill:#808080;opacity:0.2;stroke:#808080;stroke-linejoin:miter;"/>
    </g>
    <g id="text_28">
     <!-- $\pm$ 1 std. dev. -->
     <g transform="translate(282.6 292.560312)scale(0.1 -0.1)">
      <use transform="translate(0 0.015625)" xlink:href="#DejaVuSans-177"/>
      <use transform="translate(83.789062 0.015625)" xlink:href="#DejaVuSans-32"/>
      <use transform="translate(115.576172 0.015625)" xlink:href="#DejaVuSans-49"/>
      <use transform="translate(179.199219 0.015625)" xlink:href="#DejaVuSans-32"/>
      <use transform="translate(210.986328 0.015625)" xlink:href="#DejaVuSans-115"/>
      <use transform="translate(263.085938 0.015625)" xlink:href="#DejaVuSans-116"/>
      <use transform="translate(302.294922 0.015625)" xlink:href="#DejaVuSans-100"/>
      <use transform="translate(365.771484 0.015625)" xlink:href="#DejaVuSans-46"/>
      <use transform="translate(397.558594 0.015625)" xlink:href="#DejaVuSans-32"/>
      <use transform="translate(429.345703 0.015625)" xlink:href="#DejaVuSans-100"/>
      <use transform="translate(492.822266 0.015625)" xlink:href="#DejaVuSans-101"/>
      <use transform="translate(554.345703 0.015625)" xlink:href="#DejaVuSans-118"/>
      <use transform="translate(613.525391 0.015625)" xlink:href="#DejaVuSans-46"/>
     </g>
    </g>
   </g>
  </g>
 </g>
 <defs>
  <clipPath id="pb2fcd905c9">
   <rect height="278.2" width="402.28" x="47.72" y="25.44"/>
  </clipPath>
 </defs>
</svg>
