<?xml version="1.0" encoding="utf-8" standalone="no"?>
<!DOCTYPE svg PUBLIC "-//W3C//DTD SVG 1.1//EN"
  "http://www.w3.org/Graphics/SVG/1.1/DTD/svg11.dtd">
<!-- Created with matplotlib (https://matplotlib.org/) -->
<svg height="345.6pt" version="1.1" viewBox="0 0 460.8 345.6" width="460.8pt" xmlns="http://www.w3.org/2000/svg" xmlns:xlink="http://www.w3.org/1999/xlink">
 <defs>
  <style type="text/css">
*{stroke-linecap:butt;stroke-linejoin:round;white-space:pre;}
  </style>
 </defs>
 <g id="figure_1">
  <g id="patch_1">
   <path d="M 0 345.6 
L 460.8 345.6 
L 460.8 0 
L 0 0 
z
" style="fill:#ffffff;"/>
  </g>
  <g id="axes_1">
   <g id="patch_2">
    <path d="M 47.72 303.64 
L 450 303.64 
L 450 25.44 
L 47.72 25.44 
z
" style="fill:#ffffff;"/>
   </g>
   <g id="PolyCollection_1">
    <defs>
     <path d="M 66.005455 -54.605455 
L 66.005455 -54.605455 
L 69.699486 -54.605455 
L 73.393517 -56.167836 
L 77.087548 -57.730653 
L 80.781579 -59.525828 
L 84.475611 -60.236296 
L 88.169642 -61.909086 
L 91.863673 -63.176502 
L 95.557704 -67.054568 
L 99.251736 -67.802607 
L 102.945767 -69.201015 
L 106.639798 -70.802136 
L 110.333829 -72.997679 
L 114.02786 -76.202487 
L 117.721892 -79.42689 
L 121.415923 -84.614415 
L 125.109954 -87.458573 
L 128.803985 -88.553116 
L 132.498017 -89.831963 
L 136.192048 -93.695545 
L 139.886079 -97.606895 
L 143.58011 -98.573378 
L 147.274141 -101.393049 
L 150.968173 -102.113902 
L 154.662204 -103.974595 
L 158.356235 -106.241005 
L 162.050266 -108.995339 
L 165.744298 -111.874748 
L 169.438329 -112.767153 
L 173.13236 -116.560494 
L 176.826391 -119.654331 
L 180.520422 -124.682988 
L 184.214454 -127.108782 
L 187.908485 -128.489774 
L 191.602516 -129.983456 
L 195.296547 -136.565868 
L 198.990579 -138.837146 
L 202.68461 -140.657947 
L 206.378641 -142.585915 
L 210.072672 -145.547936 
L 213.766703 -148.314516 
L 217.460735 -150.121053 
L 221.154766 -154.81599 
L 224.848797 -155.528069 
L 228.542828 -159.033719 
L 232.23686 -161.058792 
L 235.930891 -166.126404 
L 239.624922 -166.818829 
L 243.318953 -169.985503 
L 247.012984 -173.03875 
L 250.707016 -178.319818 
L 254.401047 -180.664333 
L 258.095078 -185.197252 
L 261.789109 -186.413921 
L 265.48314 -187.423487 
L 269.177172 -189.082613 
L 272.871203 -190.890316 
L 276.565234 -193.847039 
L 280.259265 -195.015082 
L 283.953297 -196.540402 
L 287.647328 -198.420585 
L 291.341359 -201.720857 
L 295.03539 -202.55112 
L 298.729421 -204.921943 
L 302.423453 -206.761781 
L 306.117484 -208.098302 
L 309.811515 -208.257765 
L 313.505546 -210.271869 
L 317.199578 -211.623099 
L 320.893609 -212.635724 
L 324.58764 -216.259246 
L 328.281671 -218.115983 
L 331.975702 -220.585534 
L 335.669734 -222.730453 
L 339.363765 -226.084252 
L 343.057796 -232.130875 
L 346.751827 -233.771728 
L 350.445859 -238.99256 
L 354.13989 -239.753285 
L 357.833921 -243.866972 
L 361.527952 -247.263311 
L 365.221983 -250.749193 
L 368.916015 -251.014428 
L 372.610046 -252.891938 
L 376.304077 -254.701012 
L 379.998108 -256.441861 
L 383.69214 -260.77673 
L 387.386171 -262.472212 
L 391.080202 -263.732404 
L 394.774233 -265.372393 
L 398.468264 -267.99231 
L 402.162296 -271.722549 
L 405.856327 -277.639187 
L 409.550358 -279.118265 
L 413.244389 -281.763283 
L 416.938421 -284.776744 
L 420.632452 -287.161614 
L 424.326483 -288.774462 
L 428.020514 -293.893458 
L 431.714545 -307.514545 
L 431.714545 -307.514545 
L 431.714545 -307.514545 
L 428.020514 -305.687685 
L 424.326483 -302.6861 
L 420.632452 -300.9324 
L 416.938421 -300.572731 
L 413.244389 -296.736886 
L 409.550358 -292.413692 
L 405.856327 -291.383347 
L 402.162296 -290.468026 
L 398.468264 -289.109033 
L 394.774233 -286.060664 
L 391.080202 -283.289947 
L 387.386171 -281.521572 
L 383.69214 -280.852884 
L 379.998108 -278.051986 
L 376.304077 -275.249266 
L 372.610046 -274.208445 
L 368.916015 -271.783011 
L 365.221983 -267.4921 
L 361.527952 -263.434237 
L 357.833921 -259.250544 
L 354.13989 -258.369673 
L 350.445859 -253.684274 
L 346.751827 -250.296204 
L 343.057796 -249.07948 
L 339.363765 -246.702844 
L 335.669734 -244.555347 
L 331.975702 -241.100107 
L 328.281671 -238.867316 
L 324.58764 -235.494507 
L 320.893609 -235.384337 
L 317.199578 -233.743904 
L 313.505546 -231.85082 
L 309.811515 -230.54796 
L 306.117484 -229.130932 
L 302.423453 -228.05991 
L 298.729421 -224.627699 
L 295.03539 -220.609669 
L 291.341359 -219.446146 
L 287.647328 -215.007148 
L 283.953297 -213.869199 
L 280.259265 -212.22496 
L 276.565234 -211.412593 
L 272.871203 -208.133889 
L 269.177172 -205.885823 
L 265.48314 -203.03251 
L 261.789109 -202.834087 
L 258.095078 -201.352938 
L 254.401047 -199.950658 
L 250.707016 -197.78017 
L 247.012984 -192.877338 
L 243.318953 -191.300805 
L 239.624922 -189.466633 
L 235.930891 -188.359132 
L 232.23686 -185.369231 
L 228.542828 -183.611331 
L 224.848797 -180.534153 
L 221.154766 -173.749615 
L 217.460735 -171.600375 
L 213.766703 -170.137881 
L 210.072672 -169.159761 
L 206.378641 -166.470756 
L 202.68461 -162.221249 
L 198.990579 -161.983037 
L 195.296547 -158.277742 
L 191.602516 -158.179491 
L 187.908485 -154.846491 
L 184.214454 -152.754985 
L 180.520422 -150.337967 
L 176.826391 -146.956059 
L 173.13236 -143.279731 
L 169.438329 -135.874868 
L 165.744298 -134.375409 
L 162.050266 -129.578849 
L 158.356235 -124.107853 
L 154.662204 -122.855797 
L 150.968173 -120.341202 
L 147.274141 -116.972302 
L 143.58011 -113.014272 
L 139.886079 -113.022202 
L 136.192048 -109.108736 
L 132.498017 -106.594158 
L 128.803985 -102.926504 
L 125.109954 -98.547489 
L 121.415923 -95.146872 
L 117.721892 -90.840937 
L 114.02786 -87.442412 
L 110.333829 -86.949996 
L 106.639798 -85.813207 
L 102.945767 -82.689379 
L 99.251736 -80.303307 
L 95.557704 -78.569053 
L 91.863673 -74.159242 
L 88.169642 -73.351297 
L 84.475611 -72.815039 
L 80.781579 -71.696264 
L 77.087548 -69.652701 
L 73.393517 -68.339855 
L 69.699486 -66.3402 
L 66.005455 -54.605455 
z
" id="m729d8f102b" style="stroke:#808080;stroke-opacity:0.2;"/>
    </defs>
    <g clip-path="url(#paa21d86c9b)">
     <use style="fill:#808080;fill-opacity:0.2;stroke:#808080;stroke-opacity:0.2;" x="0" xlink:href="#m729d8f102b" y="345.6"/>
    </g>
   </g>
   <g id="matplotlib.axis_1">
    <g id="xtick_1">
     <g id="line2d_1">
      <defs>
       <path d="M 0 0 
L 0 3.5 
" id="m857a0e2f1d" style="stroke:#000000;stroke-width:0.8;"/>
      </defs>
      <g>
       <use style="stroke:#000000;stroke-width:0.8;" x="66.005455" xlink:href="#m857a0e2f1d" y="303.64"/>
      </g>
     </g>
     <g id="text_1">
      <!-- 0.0 -->
      <defs>
       <path d="M 31.78125 66.40625 
Q 24.171875 66.40625 20.328125 58.90625 
Q 16.5 51.421875 16.5 36.375 
Q 16.5 21.390625 20.328125 13.890625 
Q 24.171875 6.390625 31.78125 6.390625 
Q 39.453125 6.390625 43.28125 13.890625 
Q 47.125 21.390625 47.125 36.375 
Q 47.125 51.421875 43.28125 58.90625 
Q 39.453125 66.40625 31.78125 66.40625 
z
M 31.78125 74.21875 
Q 44.046875 74.21875 50.515625 64.515625 
Q 56.984375 54.828125 56.984375 36.375 
Q 56.984375 17.96875 50.515625 8.265625 
Q 44.046875 -1.421875 31.78125 -1.421875 
Q 19.53125 -1.421875 13.0625 8.265625 
Q 6.59375 17.96875 6.59375 36.375 
Q 6.59375 54.828125 13.0625 64.515625 
Q 19.53125 74.21875 31.78125 74.21875 
z
" id="DejaVuSans-48"/>
       <path d="M 10.6875 12.40625 
L 21 12.40625 
L 21 0 
L 10.6875 0 
z
" id="DejaVuSans-46"/>
      </defs>
      <g transform="translate(58.053892 318.238437)scale(0.1 -0.1)">
       <use xlink:href="#DejaVuSans-48"/>
       <use x="63.623047" xlink:href="#DejaVuSans-46"/>
       <use x="95.410156" xlink:href="#DejaVuSans-48"/>
      </g>
     </g>
    </g>
    <g id="xtick_2">
     <g id="line2d_2">
      <g>
       <use style="stroke:#000000;stroke-width:0.8;" x="139.147273" xlink:href="#m857a0e2f1d" y="303.64"/>
      </g>
     </g>
     <g id="text_2">
      <!-- 0.2 -->
      <defs>
       <path d="M 19.1875 8.296875 
L 53.609375 8.296875 
L 53.609375 0 
L 7.328125 0 
L 7.328125 8.296875 
Q 12.9375 14.109375 22.625 23.890625 
Q 32.328125 33.6875 34.8125 36.53125 
Q 39.546875 41.84375 41.421875 45.53125 
Q 43.3125 49.21875 43.3125 52.78125 
Q 43.3125 58.59375 39.234375 62.25 
Q 35.15625 65.921875 28.609375 65.921875 
Q 23.96875 65.921875 18.8125 64.3125 
Q 13.671875 62.703125 7.8125 59.421875 
L 7.8125 69.390625 
Q 13.765625 71.78125 18.9375 73 
Q 24.125 74.21875 28.421875 74.21875 
Q 39.75 74.21875 46.484375 68.546875 
Q 53.21875 62.890625 53.21875 53.421875 
Q 53.21875 48.921875 51.53125 44.890625 
Q 49.859375 40.875 45.40625 35.40625 
Q 44.1875 33.984375 37.640625 27.21875 
Q 31.109375 20.453125 19.1875 8.296875 
z
" id="DejaVuSans-50"/>
      </defs>
      <g transform="translate(131.19571 318.238437)scale(0.1 -0.1)">
       <use xlink:href="#DejaVuSans-48"/>
       <use x="63.623047" xlink:href="#DejaVuSans-46"/>
       <use x="95.410156" xlink:href="#DejaVuSans-50"/>
      </g>
     </g>
    </g>
    <g id="xtick_3">
     <g id="line2d_3">
      <g>
       <use style="stroke:#000000;stroke-width:0.8;" x="212.289091" xlink:href="#m857a0e2f1d" y="303.64"/>
      </g>
     </g>
     <g id="text_3">
      <!-- 0.4 -->
      <defs>
       <path d="M 37.796875 64.3125 
L 12.890625 25.390625 
L 37.796875 25.390625 
z
M 35.203125 72.90625 
L 47.609375 72.90625 
L 47.609375 25.390625 
L 58.015625 25.390625 
L 58.015625 17.1875 
L 47.609375 17.1875 
L 47.609375 0 
L 37.796875 0 
L 37.796875 17.1875 
L 4.890625 17.1875 
L 4.890625 26.703125 
z
" id="DejaVuSans-52"/>
      </defs>
      <g transform="translate(204.337528 318.238437)scale(0.1 -0.1)">
       <use xlink:href="#DejaVuSans-48"/>
       <use x="63.623047" xlink:href="#DejaVuSans-46"/>
       <use x="95.410156" xlink:href="#DejaVuSans-52"/>
      </g>
     </g>
    </g>
    <g id="xtick_4">
     <g id="line2d_4">
      <g>
       <use style="stroke:#000000;stroke-width:0.8;" x="285.430909" xlink:href="#m857a0e2f1d" y="303.64"/>
      </g>
     </g>
     <g id="text_4">
      <!-- 0.6 -->
      <defs>
       <path d="M 33.015625 40.375 
Q 26.375 40.375 22.484375 35.828125 
Q 18.609375 31.296875 18.609375 23.390625 
Q 18.609375 15.53125 22.484375 10.953125 
Q 26.375 6.390625 33.015625 6.390625 
Q 39.65625 6.390625 43.53125 10.953125 
Q 47.40625 15.53125 47.40625 23.390625 
Q 47.40625 31.296875 43.53125 35.828125 
Q 39.65625 40.375 33.015625 40.375 
z
M 52.59375 71.296875 
L 52.59375 62.3125 
Q 48.875 64.0625 45.09375 64.984375 
Q 41.3125 65.921875 37.59375 65.921875 
Q 27.828125 65.921875 22.671875 59.328125 
Q 17.53125 52.734375 16.796875 39.40625 
Q 19.671875 43.65625 24.015625 45.921875 
Q 28.375 48.1875 33.59375 48.1875 
Q 44.578125 48.1875 50.953125 41.515625 
Q 57.328125 34.859375 57.328125 23.390625 
Q 57.328125 12.15625 50.6875 5.359375 
Q 44.046875 -1.421875 33.015625 -1.421875 
Q 20.359375 -1.421875 13.671875 8.265625 
Q 6.984375 17.96875 6.984375 36.375 
Q 6.984375 53.65625 15.1875 63.9375 
Q 23.390625 74.21875 37.203125 74.21875 
Q 40.921875 74.21875 44.703125 73.484375 
Q 48.484375 72.75 52.59375 71.296875 
z
" id="DejaVuSans-54"/>
      </defs>
      <g transform="translate(277.479347 318.238437)scale(0.1 -0.1)">
       <use xlink:href="#DejaVuSans-48"/>
       <use x="63.623047" xlink:href="#DejaVuSans-46"/>
       <use x="95.410156" xlink:href="#DejaVuSans-54"/>
      </g>
     </g>
    </g>
    <g id="xtick_5">
     <g id="line2d_5">
      <g>
       <use style="stroke:#000000;stroke-width:0.8;" x="358.572727" xlink:href="#m857a0e2f1d" y="303.64"/>
      </g>
     </g>
     <g id="text_5">
      <!-- 0.8 -->
      <defs>
       <path d="M 31.78125 34.625 
Q 24.75 34.625 20.71875 30.859375 
Q 16.703125 27.09375 16.703125 20.515625 
Q 16.703125 13.921875 20.71875 10.15625 
Q 24.75 6.390625 31.78125 6.390625 
Q 38.8125 6.390625 42.859375 10.171875 
Q 46.921875 13.96875 46.921875 20.515625 
Q 46.921875 27.09375 42.890625 30.859375 
Q 38.875 34.625 31.78125 34.625 
z
M 21.921875 38.8125 
Q 15.578125 40.375 12.03125 44.71875 
Q 8.5 49.078125 8.5 55.328125 
Q 8.5 64.0625 14.71875 69.140625 
Q 20.953125 74.21875 31.78125 74.21875 
Q 42.671875 74.21875 48.875 69.140625 
Q 55.078125 64.0625 55.078125 55.328125 
Q 55.078125 49.078125 51.53125 44.71875 
Q 48 40.375 41.703125 38.8125 
Q 48.828125 37.15625 52.796875 32.3125 
Q 56.78125 27.484375 56.78125 20.515625 
Q 56.78125 9.90625 50.3125 4.234375 
Q 43.84375 -1.421875 31.78125 -1.421875 
Q 19.734375 -1.421875 13.25 4.234375 
Q 6.78125 9.90625 6.78125 20.515625 
Q 6.78125 27.484375 10.78125 32.3125 
Q 14.796875 37.15625 21.921875 38.8125 
z
M 18.3125 54.390625 
Q 18.3125 48.734375 21.84375 45.5625 
Q 25.390625 42.390625 31.78125 42.390625 
Q 38.140625 42.390625 41.71875 45.5625 
Q 45.3125 48.734375 45.3125 54.390625 
Q 45.3125 60.0625 41.71875 63.234375 
Q 38.140625 66.40625 31.78125 66.40625 
Q 25.390625 66.40625 21.84375 63.234375 
Q 18.3125 60.0625 18.3125 54.390625 
z
" id="DejaVuSans-56"/>
      </defs>
      <g transform="translate(350.621165 318.238437)scale(0.1 -0.1)">
       <use xlink:href="#DejaVuSans-48"/>
       <use x="63.623047" xlink:href="#DejaVuSans-46"/>
       <use x="95.410156" xlink:href="#DejaVuSans-56"/>
      </g>
     </g>
    </g>
    <g id="xtick_6">
     <g id="line2d_6">
      <g>
       <use style="stroke:#000000;stroke-width:0.8;" x="431.714545" xlink:href="#m857a0e2f1d" y="303.64"/>
      </g>
     </g>
     <g id="text_6">
      <!-- 1.0 -->
      <defs>
       <path d="M 12.40625 8.296875 
L 28.515625 8.296875 
L 28.515625 63.921875 
L 10.984375 60.40625 
L 10.984375 69.390625 
L 28.421875 72.90625 
L 38.28125 72.90625 
L 38.28125 8.296875 
L 54.390625 8.296875 
L 54.390625 0 
L 12.40625 0 
z
" id="DejaVuSans-49"/>
      </defs>
      <g transform="translate(423.762983 318.238437)scale(0.1 -0.1)">
       <use xlink:href="#DejaVuSans-49"/>
       <use x="63.623047" xlink:href="#DejaVuSans-46"/>
       <use x="95.410156" xlink:href="#DejaVuSans-48"/>
      </g>
     </g>
    </g>
    <g id="text_7">
     <!-- False Positive Rate -->
     <defs>
      <path d="M 9.8125 72.90625 
L 51.703125 72.90625 
L 51.703125 64.59375 
L 19.671875 64.59375 
L 19.671875 43.109375 
L 48.578125 43.109375 
L 48.578125 34.8125 
L 19.671875 34.8125 
L 19.671875 0 
L 9.8125 0 
z
" id="DejaVuSans-70"/>
      <path d="M 34.28125 27.484375 
Q 23.390625 27.484375 19.1875 25 
Q 14.984375 22.515625 14.984375 16.5 
Q 14.984375 11.71875 18.140625 8.90625 
Q 21.296875 6.109375 26.703125 6.109375 
Q 34.1875 6.109375 38.703125 11.40625 
Q 43.21875 16.703125 43.21875 25.484375 
L 43.21875 27.484375 
z
M 52.203125 31.203125 
L 52.203125 0 
L 43.21875 0 
L 43.21875 8.296875 
Q 40.140625 3.328125 35.546875 0.953125 
Q 30.953125 -1.421875 24.3125 -1.421875 
Q 15.921875 -1.421875 10.953125 3.296875 
Q 6 8.015625 6 15.921875 
Q 6 25.140625 12.171875 29.828125 
Q 18.359375 34.515625 30.609375 34.515625 
L 43.21875 34.515625 
L 43.21875 35.40625 
Q 43.21875 41.609375 39.140625 45 
Q 35.0625 48.390625 27.6875 48.390625 
Q 23 48.390625 18.546875 47.265625 
Q 14.109375 46.140625 10.015625 43.890625 
L 10.015625 52.203125 
Q 14.9375 54.109375 19.578125 55.046875 
Q 24.21875 56 28.609375 56 
Q 40.484375 56 46.34375 49.84375 
Q 52.203125 43.703125 52.203125 31.203125 
z
" id="DejaVuSans-97"/>
      <path d="M 9.421875 75.984375 
L 18.40625 75.984375 
L 18.40625 0 
L 9.421875 0 
z
" id="DejaVuSans-108"/>
      <path d="M 44.28125 53.078125 
L 44.28125 44.578125 
Q 40.484375 46.53125 36.375 47.5 
Q 32.28125 48.484375 27.875 48.484375 
Q 21.1875 48.484375 17.84375 46.4375 
Q 14.5 44.390625 14.5 40.28125 
Q 14.5 37.15625 16.890625 35.375 
Q 19.28125 33.59375 26.515625 31.984375 
L 29.59375 31.296875 
Q 39.15625 29.25 43.1875 25.515625 
Q 47.21875 21.78125 47.21875 15.09375 
Q 47.21875 7.46875 41.1875 3.015625 
Q 35.15625 -1.421875 24.609375 -1.421875 
Q 20.21875 -1.421875 15.453125 -0.5625 
Q 10.6875 0.296875 5.421875 2 
L 5.421875 11.28125 
Q 10.40625 8.6875 15.234375 7.390625 
Q 20.0625 6.109375 24.8125 6.109375 
Q 31.15625 6.109375 34.5625 8.28125 
Q 37.984375 10.453125 37.984375 14.40625 
Q 37.984375 18.0625 35.515625 20.015625 
Q 33.0625 21.96875 24.703125 23.78125 
L 21.578125 24.515625 
Q 13.234375 26.265625 9.515625 29.90625 
Q 5.8125 33.546875 5.8125 39.890625 
Q 5.8125 47.609375 11.28125 51.796875 
Q 16.75 56 26.8125 56 
Q 31.78125 56 36.171875 55.265625 
Q 40.578125 54.546875 44.28125 53.078125 
z
" id="DejaVuSans-115"/>
      <path d="M 56.203125 29.59375 
L 56.203125 25.203125 
L 14.890625 25.203125 
Q 15.484375 15.921875 20.484375 11.0625 
Q 25.484375 6.203125 34.421875 6.203125 
Q 39.59375 6.203125 44.453125 7.46875 
Q 49.3125 8.734375 54.109375 11.28125 
L 54.109375 2.78125 
Q 49.265625 0.734375 44.1875 -0.34375 
Q 39.109375 -1.421875 33.890625 -1.421875 
Q 20.796875 -1.421875 13.15625 6.1875 
Q 5.515625 13.8125 5.515625 26.8125 
Q 5.515625 40.234375 12.765625 48.109375 
Q 20.015625 56 32.328125 56 
Q 43.359375 56 49.78125 48.890625 
Q 56.203125 41.796875 56.203125 29.59375 
z
M 47.21875 32.234375 
Q 47.125 39.59375 43.09375 43.984375 
Q 39.0625 48.390625 32.421875 48.390625 
Q 24.90625 48.390625 20.390625 44.140625 
Q 15.875 39.890625 15.1875 32.171875 
z
" id="DejaVuSans-101"/>
      <path id="DejaVuSans-32"/>
      <path d="M 19.671875 64.796875 
L 19.671875 37.40625 
L 32.078125 37.40625 
Q 38.96875 37.40625 42.71875 40.96875 
Q 46.484375 44.53125 46.484375 51.125 
Q 46.484375 57.671875 42.71875 61.234375 
Q 38.96875 64.796875 32.078125 64.796875 
z
M 9.8125 72.90625 
L 32.078125 72.90625 
Q 44.34375 72.90625 50.609375 67.359375 
Q 56.890625 61.8125 56.890625 51.125 
Q 56.890625 40.328125 50.609375 34.8125 
Q 44.34375 29.296875 32.078125 29.296875 
L 19.671875 29.296875 
L 19.671875 0 
L 9.8125 0 
z
" id="DejaVuSans-80"/>
      <path d="M 30.609375 48.390625 
Q 23.390625 48.390625 19.1875 42.75 
Q 14.984375 37.109375 14.984375 27.296875 
Q 14.984375 17.484375 19.15625 11.84375 
Q 23.34375 6.203125 30.609375 6.203125 
Q 37.796875 6.203125 41.984375 11.859375 
Q 46.1875 17.53125 46.1875 27.296875 
Q 46.1875 37.015625 41.984375 42.703125 
Q 37.796875 48.390625 30.609375 48.390625 
z
M 30.609375 56 
Q 42.328125 56 49.015625 48.375 
Q 55.71875 40.765625 55.71875 27.296875 
Q 55.71875 13.875 49.015625 6.21875 
Q 42.328125 -1.421875 30.609375 -1.421875 
Q 18.84375 -1.421875 12.171875 6.21875 
Q 5.515625 13.875 5.515625 27.296875 
Q 5.515625 40.765625 12.171875 48.375 
Q 18.84375 56 30.609375 56 
z
" id="DejaVuSans-111"/>
      <path d="M 9.421875 54.6875 
L 18.40625 54.6875 
L 18.40625 0 
L 9.421875 0 
z
M 9.421875 75.984375 
L 18.40625 75.984375 
L 18.40625 64.59375 
L 9.421875 64.59375 
z
" id="DejaVuSans-105"/>
      <path d="M 18.3125 70.21875 
L 18.3125 54.6875 
L 36.8125 54.6875 
L 36.8125 47.703125 
L 18.3125 47.703125 
L 18.3125 18.015625 
Q 18.3125 11.328125 20.140625 9.421875 
Q 21.96875 7.515625 27.59375 7.515625 
L 36.8125 7.515625 
L 36.8125 0 
L 27.59375 0 
Q 17.1875 0 13.234375 3.875 
Q 9.28125 7.765625 9.28125 18.015625 
L 9.28125 47.703125 
L 2.6875 47.703125 
L 2.6875 54.6875 
L 9.28125 54.6875 
L 9.28125 70.21875 
z
" id="DejaVuSans-116"/>
      <path d="M 2.984375 54.6875 
L 12.5 54.6875 
L 29.59375 8.796875 
L 46.6875 54.6875 
L 56.203125 54.6875 
L 35.6875 0 
L 23.484375 0 
z
" id="DejaVuSans-118"/>
      <path d="M 44.390625 34.1875 
Q 47.5625 33.109375 50.5625 29.59375 
Q 53.5625 26.078125 56.59375 19.921875 
L 66.609375 0 
L 56 0 
L 46.6875 18.703125 
Q 43.0625 26.03125 39.671875 28.421875 
Q 36.28125 30.8125 30.421875 30.8125 
L 19.671875 30.8125 
L 19.671875 0 
L 9.8125 0 
L 9.8125 72.90625 
L 32.078125 72.90625 
Q 44.578125 72.90625 50.734375 67.671875 
Q 56.890625 62.453125 56.890625 51.90625 
Q 56.890625 45.015625 53.6875 40.46875 
Q 50.484375 35.9375 44.390625 34.1875 
z
M 19.671875 64.796875 
L 19.671875 38.921875 
L 32.078125 38.921875 
Q 39.203125 38.921875 42.84375 42.21875 
Q 46.484375 45.515625 46.484375 51.90625 
Q 46.484375 58.296875 42.84375 61.546875 
Q 39.203125 64.796875 32.078125 64.796875 
z
" id="DejaVuSans-82"/>
     </defs>
     <g transform="translate(201.654531 331.916562)scale(0.1 -0.1)">
      <use xlink:href="#DejaVuSans-70"/>
      <use x="57.378906" xlink:href="#DejaVuSans-97"/>
      <use x="118.658203" xlink:href="#DejaVuSans-108"/>
      <use x="146.441406" xlink:href="#DejaVuSans-115"/>
      <use x="198.541016" xlink:href="#DejaVuSans-101"/>
      <use x="260.064453" xlink:href="#DejaVuSans-32"/>
      <use x="291.851562" xlink:href="#DejaVuSans-80"/>
      <use x="352.107422" xlink:href="#DejaVuSans-111"/>
      <use x="413.289062" xlink:href="#DejaVuSans-115"/>
      <use x="465.388672" xlink:href="#DejaVuSans-105"/>
      <use x="493.171875" xlink:href="#DejaVuSans-116"/>
      <use x="532.380859" xlink:href="#DejaVuSans-105"/>
      <use x="560.164062" xlink:href="#DejaVuSans-118"/>
      <use x="619.34375" xlink:href="#DejaVuSans-101"/>
      <use x="680.867188" xlink:href="#DejaVuSans-32"/>
      <use x="712.654297" xlink:href="#DejaVuSans-82"/>
      <use x="782.105469" xlink:href="#DejaVuSans-97"/>
      <use x="843.384766" xlink:href="#DejaVuSans-116"/>
      <use x="882.59375" xlink:href="#DejaVuSans-101"/>
     </g>
    </g>
   </g>
   <g id="matplotlib.axis_2">
    <g id="ytick_1">
     <g id="line2d_7">
      <defs>
       <path d="M 0 0 
L -3.5 0 
" id="m0d36e74ceb" style="stroke:#000000;stroke-width:0.8;"/>
      </defs>
      <g>
       <use style="stroke:#000000;stroke-width:0.8;" x="47.72" xlink:href="#m0d36e74ceb" y="290.994545"/>
      </g>
     </g>
     <g id="text_8">
      <!-- 0.0 -->
      <g transform="translate(24.816875 294.793764)scale(0.1 -0.1)">
       <use xlink:href="#DejaVuSans-48"/>
       <use x="63.623047" xlink:href="#DejaVuSans-46"/>
       <use x="95.410156" xlink:href="#DejaVuSans-48"/>
      </g>
     </g>
    </g>
    <g id="ytick_2">
     <g id="line2d_8">
      <g>
       <use style="stroke:#000000;stroke-width:0.8;" x="47.72" xlink:href="#m0d36e74ceb" y="240.412727"/>
      </g>
     </g>
     <g id="text_9">
      <!-- 0.2 -->
      <g transform="translate(24.816875 244.211946)scale(0.1 -0.1)">
       <use xlink:href="#DejaVuSans-48"/>
       <use x="63.623047" xlink:href="#DejaVuSans-46"/>
       <use x="95.410156" xlink:href="#DejaVuSans-50"/>
      </g>
     </g>
    </g>
    <g id="ytick_3">
     <g id="line2d_9">
      <g>
       <use style="stroke:#000000;stroke-width:0.8;" x="47.72" xlink:href="#m0d36e74ceb" y="189.830909"/>
      </g>
     </g>
     <g id="text_10">
      <!-- 0.4 -->
      <g transform="translate(24.816875 193.630128)scale(0.1 -0.1)">
       <use xlink:href="#DejaVuSans-48"/>
       <use x="63.623047" xlink:href="#DejaVuSans-46"/>
       <use x="95.410156" xlink:href="#DejaVuSans-52"/>
      </g>
     </g>
    </g>
    <g id="ytick_4">
     <g id="line2d_10">
      <g>
       <use style="stroke:#000000;stroke-width:0.8;" x="47.72" xlink:href="#m0d36e74ceb" y="139.249091"/>
      </g>
     </g>
     <g id="text_11">
      <!-- 0.6 -->
      <g transform="translate(24.816875 143.04831)scale(0.1 -0.1)">
       <use xlink:href="#DejaVuSans-48"/>
       <use x="63.623047" xlink:href="#DejaVuSans-46"/>
       <use x="95.410156" xlink:href="#DejaVuSans-54"/>
      </g>
     </g>
    </g>
    <g id="ytick_5">
     <g id="line2d_11">
      <g>
       <use style="stroke:#000000;stroke-width:0.8;" x="47.72" xlink:href="#m0d36e74ceb" y="88.667273"/>
      </g>
     </g>
     <g id="text_12">
      <!-- 0.8 -->
      <g transform="translate(24.816875 92.466491)scale(0.1 -0.1)">
       <use xlink:href="#DejaVuSans-48"/>
       <use x="63.623047" xlink:href="#DejaVuSans-46"/>
       <use x="95.410156" xlink:href="#DejaVuSans-56"/>
      </g>
     </g>
    </g>
    <g id="ytick_6">
     <g id="line2d_12">
      <g>
       <use style="stroke:#000000;stroke-width:0.8;" x="47.72" xlink:href="#m0d36e74ceb" y="38.085455"/>
      </g>
     </g>
     <g id="text_13">
      <!-- 1.0 -->
      <g transform="translate(24.816875 41.884673)scale(0.1 -0.1)">
       <use xlink:href="#DejaVuSans-49"/>
       <use x="63.623047" xlink:href="#DejaVuSans-46"/>
       <use x="95.410156" xlink:href="#DejaVuSans-48"/>
      </g>
     </g>
    </g>
    <g id="text_14">
     <!-- True Positive Rate -->
     <defs>
      <path d="M -0.296875 72.90625 
L 61.375 72.90625 
L 61.375 64.59375 
L 35.5 64.59375 
L 35.5 0 
L 25.59375 0 
L 25.59375 64.59375 
L -0.296875 64.59375 
z
" id="DejaVuSans-84"/>
      <path d="M 41.109375 46.296875 
Q 39.59375 47.171875 37.8125 47.578125 
Q 36.03125 48 33.890625 48 
Q 26.265625 48 22.1875 43.046875 
Q 18.109375 38.09375 18.109375 28.8125 
L 18.109375 0 
L 9.078125 0 
L 9.078125 54.6875 
L 18.109375 54.6875 
L 18.109375 46.1875 
Q 20.953125 51.171875 25.484375 53.578125 
Q 30.03125 56 36.53125 56 
Q 37.453125 56 38.578125 55.875 
Q 39.703125 55.765625 41.0625 55.515625 
z
" id="DejaVuSans-114"/>
      <path d="M 8.5 21.578125 
L 8.5 54.6875 
L 17.484375 54.6875 
L 17.484375 21.921875 
Q 17.484375 14.15625 20.5 10.265625 
Q 23.53125 6.390625 29.59375 6.390625 
Q 36.859375 6.390625 41.078125 11.03125 
Q 45.3125 15.671875 45.3125 23.6875 
L 45.3125 54.6875 
L 54.296875 54.6875 
L 54.296875 0 
L 45.3125 0 
L 45.3125 8.40625 
Q 42.046875 3.421875 37.71875 1 
Q 33.40625 -1.421875 27.6875 -1.421875 
Q 18.265625 -1.421875 13.375 4.4375 
Q 8.5 10.296875 8.5 21.578125 
z
M 31.109375 56 
z
" id="DejaVuSans-117"/>
     </defs>
     <g transform="translate(18.737187 210.086094)rotate(-90)scale(0.1 -0.1)">
      <use xlink:href="#DejaVuSans-84"/>
      <use x="60.865234" xlink:href="#DejaVuSans-114"/>
      <use x="101.978516" xlink:href="#DejaVuSans-117"/>
      <use x="165.357422" xlink:href="#DejaVuSans-101"/>
      <use x="226.880859" xlink:href="#DejaVuSans-32"/>
      <use x="258.667969" xlink:href="#DejaVuSans-80"/>
      <use x="318.923828" xlink:href="#DejaVuSans-111"/>
      <use x="380.105469" xlink:href="#DejaVuSans-115"/>
      <use x="432.205078" xlink:href="#DejaVuSans-105"/>
      <use x="459.988281" xlink:href="#DejaVuSans-116"/>
      <use x="499.197266" xlink:href="#DejaVuSans-105"/>
      <use x="526.980469" xlink:href="#DejaVuSans-118"/>
      <use x="586.160156" xlink:href="#DejaVuSans-101"/>
      <use x="647.683594" xlink:href="#DejaVuSans-32"/>
      <use x="679.470703" xlink:href="#DejaVuSans-82"/>
      <use x="748.921875" xlink:href="#DejaVuSans-97"/>
      <use x="810.201172" xlink:href="#DejaVuSans-116"/>
      <use x="849.410156" xlink:href="#DejaVuSans-101"/>
     </g>
    </g>
   </g>
   <g id="line2d_13">
    <path clip-path="url(#paa21d86c9b)" d="M 66.005455 290.994545 
L 69.241818 290.994545 
L 69.241818 286.518278 
L 75.714545 286.518278 
L 78.950909 286.518278 
L 78.950909 282.042011 
L 78.950909 279.803878 
L 91.896364 279.803878 
L 91.896364 277.565744 
L 98.369091 277.565744 
L 98.369091 273.089477 
L 101.605455 273.089477 
L 101.605455 270.851344 
L 101.605455 266.375076 
L 104.841818 266.375076 
L 104.841818 264.136943 
L 111.314545 264.136943 
L 111.314545 261.898809 
L 117.787273 261.898809 
L 121.023636 259.660676 
L 121.023636 255.184409 
L 124.26 248.470008 
L 133.969091 248.470008 
L 133.969091 243.993741 
L 137.205455 243.993741 
L 137.205455 237.27934 
L 137.205455 235.041207 
L 143.678182 235.041207 
L 143.678182 232.803073 
L 146.914545 232.803073 
L 153.387273 232.803073 
L 156.623636 232.803073 
L 159.86 230.56494 
L 159.86 226.088673 
L 163.096364 226.088673 
L 163.096364 214.898005 
L 166.332727 214.898005 
L 166.332727 212.659871 
L 169.569091 212.659871 
L 169.569091 210.421738 
L 179.278182 210.421738 
L 185.750909 205.945471 
L 188.987273 203.707337 
L 192.223636 203.707337 
L 192.223636 201.469204 
L 198.696364 201.469204 
L 198.696364 199.23107 
L 201.932727 199.23107 
L 201.932727 196.992936 
L 205.169091 196.992936 
L 205.169091 194.754803 
L 214.878182 194.754803 
L 214.878182 190.278536 
L 218.114545 190.278536 
L 218.114545 185.802269 
L 221.350909 183.564135 
L 221.350909 181.326002 
L 224.587273 179.087868 
L 227.823636 179.087868 
L 227.823636 174.611601 
L 234.296364 174.611601 
L 234.296364 170.135334 
L 240.769091 170.135334 
L 240.769091 167.8972 
L 244.005455 167.8972 
L 244.005455 165.659067 
L 253.714545 165.659067 
L 253.714545 163.420933 
L 256.950909 163.420933 
L 256.950909 158.944666 
L 266.66 158.944666 
L 273.132727 158.944666 
L 273.132727 154.468399 
L 282.841818 147.753998 
L 282.841818 145.515865 
L 286.078182 145.515865 
L 286.078182 143.277731 
L 289.314545 143.277731 
L 292.550909 138.801464 
L 292.550909 134.325197 
L 299.023636 134.325197 
L 311.969091 134.325197 
L 328.150909 129.84893 
L 328.150909 127.610796 
L 334.623636 127.610796 
L 334.623636 125.372663 
L 337.86 123.134529 
L 341.096364 123.134529 
L 341.096364 116.420129 
L 344.332727 116.420129 
L 347.569091 111.943862 
L 347.569091 105.229461 
L 354.041818 105.229461 
L 360.514545 105.229461 
L 360.514545 102.991327 
L 363.750909 100.753194 
L 363.750909 96.276927 
L 373.46 94.038793 
L 373.46 91.80066 
L 379.932727 91.80066 
L 379.932727 89.562526 
L 383.169091 89.562526 
L 383.169091 76.133725 
L 392.878182 76.133725 
L 392.878182 73.895591 
L 396.114545 71.657458 
L 396.114545 64.943057 
L 399.350909 64.943057 
L 402.587273 62.704924 
L 409.06 62.704924 
L 412.296364 58.228656 
L 415.532727 58.228656 
L 415.532727 53.752389 
L 425.241818 53.752389 
L 428.478182 49.276122 
L 428.478182 40.323588 
L 431.714545 40.323588 
L 431.714545 38.085455 
" style="fill:none;stroke:#1f77b4;stroke-linecap:square;stroke-opacity:0.3;"/>
   </g>
   <g id="line2d_14">
    <path clip-path="url(#paa21d86c9b)" d="M 66.005455 290.994545 
L 69.241818 290.994545 
L 69.241818 288.756412 
L 75.714545 288.756412 
L 78.950909 286.518278 
L 85.423636 286.518278 
L 85.423636 284.280145 
L 91.896364 284.280145 
L 91.896364 277.565744 
L 104.841818 277.565744 
L 104.841818 275.327611 
L 108.078182 275.327611 
L 108.078182 273.089477 
L 111.314545 273.089477 
L 111.314545 270.851344 
L 121.023636 270.851344 
L 121.023636 266.375076 
L 133.969091 266.375076 
L 133.969091 259.660676 
L 137.205455 257.422542 
L 137.205455 255.184409 
L 137.205455 250.708142 
L 140.441818 250.708142 
L 140.441818 248.470008 
L 143.678182 248.470008 
L 146.914545 246.231874 
L 146.914545 241.755607 
L 146.914545 239.517474 
L 153.387273 239.517474 
L 153.387273 237.27934 
L 156.623636 237.27934 
L 156.623636 232.803073 
L 159.86 232.803073 
L 163.096364 230.56494 
L 163.096364 228.326806 
L 166.332727 228.326806 
L 172.805455 223.850539 
L 172.805455 219.374272 
L 176.041818 219.374272 
L 182.514545 214.898005 
L 185.750909 214.898005 
L 185.750909 210.421738 
L 192.223636 210.421738 
L 198.696364 205.945471 
L 211.641818 203.707337 
L 214.878182 203.707337 
L 218.114545 201.469204 
L 224.587273 199.23107 
L 227.823636 194.754803 
L 234.296364 183.564135 
L 234.296364 179.087868 
L 234.296364 176.849735 
L 234.296364 172.373467 
L 234.296364 165.659067 
L 240.769091 165.659067 
L 240.769091 161.1828 
L 244.005455 161.1828 
L 244.005455 158.944666 
L 253.714545 158.944666 
L 253.714545 154.468399 
L 256.950909 154.468399 
L 256.950909 152.230265 
L 263.423636 152.230265 
L 269.896364 152.230265 
L 269.896364 145.515865 
L 279.605455 145.515865 
L 289.314545 138.801464 
L 289.314545 134.325197 
L 289.314545 132.087064 
L 289.314545 127.610796 
L 289.314545 125.372663 
L 295.787273 125.372663 
L 295.787273 123.134529 
L 295.787273 118.658262 
L 295.787273 116.420129 
L 308.732727 116.420129 
L 308.732727 114.181995 
L 311.969091 114.181995 
L 311.969091 111.943862 
L 315.205455 111.943862 
L 318.441818 109.705728 
L 318.441818 105.229461 
L 331.387273 105.229461 
L 331.387273 102.991327 
L 334.623636 98.51506 
L 337.86 98.51506 
L 337.86 96.276927 
L 341.096364 96.276927 
L 341.096364 94.038793 
L 360.514545 94.038793 
L 360.514545 91.80066 
L 363.750909 89.562526 
L 366.987273 89.562526 
L 366.987273 87.324393 
L 370.223636 82.848126 
L 370.223636 78.371858 
L 373.46 76.133725 
L 376.696364 76.133725 
L 389.641818 73.895591 
L 389.641818 71.657458 
L 405.823636 71.657458 
L 405.823636 67.181191 
L 412.296364 67.181191 
L 412.296364 62.704924 
L 415.532727 62.704924 
L 415.532727 58.228656 
L 415.532727 55.990523 
L 418.769091 55.990523 
L 418.769091 53.752389 
L 425.241818 53.752389 
L 425.241818 49.276122 
L 428.478182 49.276122 
L 428.478182 47.037989 
L 431.714545 47.037989 
L 431.714545 38.085455 
" style="fill:none;stroke:#ff7f0e;stroke-linecap:square;stroke-opacity:0.3;"/>
   </g>
   <g id="line2d_15">
    <path clip-path="url(#paa21d86c9b)" d="M 66.005455 290.994545 
L 66.005455 288.756412 
L 66.005455 286.518278 
L 69.241818 286.518278 
L 69.241818 275.327611 
L 75.714545 275.327611 
L 75.714545 270.851344 
L 78.950909 270.851344 
L 78.950909 268.61321 
L 91.896364 268.61321 
L 91.896364 266.375076 
L 104.841818 266.375076 
L 104.841818 261.898809 
L 104.841818 257.422542 
L 114.550909 257.422542 
L 114.550909 255.184409 
L 117.787273 255.184409 
L 117.787273 252.946275 
L 117.787273 248.470008 
L 124.26 248.470008 
L 127.496364 246.231874 
L 130.732727 246.231874 
L 130.732727 243.993741 
L 133.969091 241.755607 
L 133.969091 235.041207 
L 137.205455 235.041207 
L 137.205455 226.088673 
L 143.678182 226.088673 
L 143.678182 221.612405 
L 146.914545 221.612405 
L 146.914545 217.136138 
L 153.387273 217.136138 
L 153.387273 212.659871 
L 159.86 212.659871 
L 163.096364 208.183604 
L 172.805455 208.183604 
L 172.805455 205.945471 
L 176.041818 203.707337 
L 179.278182 203.707337 
L 179.278182 199.23107 
L 182.514545 199.23107 
L 182.514545 194.754803 
L 185.750909 194.754803 
L 185.750909 192.516669 
L 188.987273 192.516669 
L 188.987273 190.278536 
L 198.696364 190.278536 
L 198.696364 181.326002 
L 205.169091 181.326002 
L 205.169091 179.087868 
L 208.405455 179.087868 
L 208.405455 174.611601 
L 221.350909 174.611601 
L 221.350909 172.373467 
L 224.587273 172.373467 
L 224.587273 167.8972 
L 227.823636 167.8972 
L 227.823636 161.1828 
L 237.532727 158.944666 
L 237.532727 154.468399 
L 240.769091 154.468399 
L 244.005455 152.230265 
L 250.478182 152.230265 
L 250.478182 149.992132 
L 253.714545 145.515865 
L 256.950909 145.515865 
L 260.187273 143.277731 
L 260.187273 141.039598 
L 266.66 141.039598 
L 273.132727 138.801464 
L 273.132727 132.087064 
L 276.369091 129.84893 
L 276.369091 127.610796 
L 282.841818 127.610796 
L 282.841818 125.372663 
L 289.314545 125.372663 
L 289.314545 123.134529 
L 292.550909 123.134529 
L 292.550909 120.896396 
L 295.787273 120.896396 
L 295.787273 118.658262 
L 299.023636 118.658262 
L 299.023636 114.181995 
L 308.732727 114.181995 
L 321.678182 114.181995 
L 324.914545 111.943862 
L 324.914545 109.705728 
L 331.387273 109.705728 
L 334.623636 107.467595 
L 334.623636 105.229461 
L 334.623636 100.753194 
L 341.096364 100.753194 
L 341.096364 98.51506 
L 344.332727 98.51506 
L 347.569091 96.276927 
L 347.569091 94.038793 
L 350.805455 91.80066 
L 350.805455 89.562526 
L 354.041818 87.324393 
L 360.514545 87.324393 
L 360.514545 85.086259 
L 360.514545 80.609992 
L 360.514545 76.133725 
L 366.987273 73.895591 
L 366.987273 71.657458 
L 366.987273 67.181191 
L 366.987273 64.943057 
L 370.223636 62.704924 
L 370.223636 60.46679 
L 389.641818 60.46679 
L 389.641818 55.990523 
L 392.878182 55.990523 
L 392.878182 49.276122 
L 412.296364 49.276122 
L 412.296364 47.037989 
L 415.532727 47.037989 
L 415.532727 42.561722 
L 418.769091 42.561722 
L 425.241818 42.561722 
L 425.241818 40.323588 
L 428.478182 40.323588 
L 431.714545 38.085455 
" style="fill:none;stroke:#2ca02c;stroke-linecap:square;stroke-opacity:0.3;"/>
   </g>
   <g id="line2d_16">
    <path clip-path="url(#paa21d86c9b)" d="M 66.005455 290.994545 
L 69.241818 290.994545 
L 69.241818 286.518278 
L 69.241818 282.042011 
L 69.241818 273.089477 
L 72.478182 270.851344 
L 82.187273 270.851344 
L 88.66 270.851344 
L 91.896364 270.851344 
L 95.132727 268.61321 
L 104.841818 268.61321 
L 104.841818 266.375076 
L 114.550909 266.375076 
L 114.550909 261.898809 
L 117.787273 257.422542 
L 117.787273 255.184409 
L 124.26 255.184409 
L 130.732727 255.184409 
L 130.732727 252.946275 
L 130.732727 248.470008 
L 130.732727 246.231874 
L 137.205455 246.231874 
L 143.678182 246.231874 
L 143.678182 243.993741 
L 143.678182 239.517474 
L 150.150909 239.517474 
L 150.150909 235.041207 
L 153.387273 235.041207 
L 153.387273 228.326806 
L 156.623636 228.326806 
L 163.096364 228.326806 
L 163.096364 226.088673 
L 169.569091 226.088673 
L 169.569091 223.850539 
L 176.041818 219.374272 
L 176.041818 217.136138 
L 182.514545 212.659871 
L 182.514545 205.945471 
L 188.987273 205.945471 
L 188.987273 196.992936 
L 205.169091 196.992936 
L 205.169091 194.754803 
L 208.405455 194.754803 
L 208.405455 192.516669 
L 214.878182 192.516669 
L 218.114545 192.516669 
L 218.114545 179.087868 
L 224.587273 179.087868 
L 227.823636 172.373467 
L 240.769091 172.373467 
L 240.769091 170.135334 
L 244.005455 170.135334 
L 244.005455 165.659067 
L 247.241818 165.659067 
L 247.241818 161.1828 
L 256.950909 161.1828 
L 256.950909 158.944666 
L 260.187273 158.944666 
L 260.187273 156.706533 
L 263.423636 156.706533 
L 263.423636 152.230265 
L 266.66 152.230265 
L 266.66 143.277731 
L 266.66 138.801464 
L 269.896364 138.801464 
L 269.896364 134.325197 
L 276.369091 134.325197 
L 282.841818 129.84893 
L 282.841818 127.610796 
L 289.314545 127.610796 
L 289.314545 125.372663 
L 292.550909 123.134529 
L 299.023636 123.134529 
L 299.023636 120.896396 
L 302.26 120.896396 
L 308.732727 116.420129 
L 315.205455 116.420129 
L 315.205455 114.181995 
L 324.914545 114.181995 
L 328.150909 114.181995 
L 328.150909 109.705728 
L 328.150909 102.991327 
L 357.278182 102.991327 
L 357.278182 98.51506 
L 360.514545 98.51506 
L 366.987273 98.51506 
L 370.223636 98.51506 
L 370.223636 96.276927 
L 373.46 91.80066 
L 379.932727 91.80066 
L 383.169091 91.80066 
L 383.169091 85.086259 
L 392.878182 78.371858 
L 396.114545 78.371858 
L 396.114545 76.133725 
L 399.350909 76.133725 
L 402.587273 73.895591 
L 402.587273 71.657458 
L 405.823636 71.657458 
L 405.823636 67.181191 
L 412.296364 67.181191 
L 412.296364 64.943057 
L 415.532727 64.943057 
L 415.532727 62.704924 
L 418.769091 62.704924 
L 418.769091 55.990523 
L 422.005455 55.990523 
L 422.005455 51.514256 
L 425.241818 51.514256 
L 428.478182 49.276122 
L 428.478182 38.085455 
L 431.714545 38.085455 
" style="fill:none;stroke:#d62728;stroke-linecap:square;stroke-opacity:0.3;"/>
   </g>
   <g id="line2d_17">
    <path clip-path="url(#paa21d86c9b)" d="M 66.005455 290.994545 
L 66.005455 288.756412 
L 72.478182 286.518278 
L 72.478182 282.042011 
L 88.66 282.042011 
L 88.66 279.803878 
L 91.896364 277.565744 
L 91.896364 275.327611 
L 95.132727 275.327611 
L 95.132727 270.851344 
L 98.369091 270.851344 
L 98.369091 266.375076 
L 101.605455 266.375076 
L 101.605455 264.136943 
L 111.314545 264.136943 
L 111.314545 261.898809 
L 114.550909 261.898809 
L 114.550909 255.184409 
L 121.023636 252.946275 
L 127.496364 252.946275 
L 127.496364 250.708142 
L 137.205455 250.708142 
L 137.205455 248.470008 
L 137.205455 243.993741 
L 143.678182 243.993741 
L 150.150909 243.993741 
L 153.387273 243.993741 
L 153.387273 241.755607 
L 156.623636 241.755607 
L 159.86 239.517474 
L 159.86 237.27934 
L 159.86 232.803073 
L 166.332727 232.803073 
L 166.332727 230.56494 
L 176.041818 230.56494 
L 176.041818 219.374272 
L 179.278182 219.374272 
L 179.278182 214.898005 
L 179.278182 210.421738 
L 182.514545 210.421738 
L 188.987273 210.421738 
L 205.169091 199.23107 
L 205.169091 196.992936 
L 208.405455 194.754803 
L 208.405455 190.278536 
L 211.641818 190.278536 
L 211.641818 185.802269 
L 214.878182 185.802269 
L 218.114545 183.564135 
L 224.587273 183.564135 
L 231.06 181.326002 
L 244.005455 181.326002 
L 244.005455 179.087868 
L 247.241818 179.087868 
L 247.241818 176.849735 
L 250.478182 172.373467 
L 250.478182 170.135334 
L 253.714545 170.135334 
L 253.714545 167.8972 
L 256.950909 167.8972 
L 256.950909 154.468399 
L 260.187273 154.468399 
L 260.187273 152.230265 
L 266.66 152.230265 
L 266.66 145.515865 
L 273.132727 145.515865 
L 276.369091 143.277731 
L 279.605455 143.277731 
L 279.605455 141.039598 
L 286.078182 141.039598 
L 286.078182 138.801464 
L 289.314545 136.563331 
L 289.314545 134.325197 
L 292.550909 134.325197 
L 302.26 134.325197 
L 305.496364 134.325197 
L 305.496364 132.087064 
L 308.732727 132.087064 
L 311.969091 129.84893 
L 311.969091 127.610796 
L 318.441818 127.610796 
L 318.441818 123.134529 
L 328.150909 123.134529 
L 334.623636 123.134529 
L 337.86 120.896396 
L 337.86 114.181995 
L 341.096364 114.181995 
L 341.096364 109.705728 
L 347.569091 109.705728 
L 347.569091 98.51506 
L 354.041818 98.51506 
L 354.041818 96.276927 
L 373.46 96.276927 
L 373.46 94.038793 
L 376.696364 94.038793 
L 386.405455 87.324393 
L 399.350909 87.324393 
L 399.350909 82.848126 
L 402.587273 82.848126 
L 405.823636 80.609992 
L 405.823636 73.895591 
L 409.06 73.895591 
L 409.06 69.419324 
L 415.532727 69.419324 
L 418.769091 64.943057 
L 422.005455 64.943057 
L 425.241818 60.46679 
L 425.241818 55.990523 
L 425.241818 44.799855 
L 428.478182 44.799855 
L 428.478182 40.323588 
L 431.714545 38.085455 
" style="fill:none;stroke:#9467bd;stroke-linecap:square;stroke-opacity:0.3;"/>
   </g>
   <g id="line2d_18">
    <path clip-path="url(#paa21d86c9b)" d="M 66.005455 290.994545 
L 66.005455 286.518278 
L 69.241818 284.280145 
L 72.478182 284.280145 
L 72.478182 279.803878 
L 78.950909 279.803878 
L 78.950909 277.565744 
L 82.187273 277.565744 
L 82.187273 275.327611 
L 95.132727 275.327611 
L 95.132727 270.851344 
L 98.369091 270.851344 
L 101.605455 266.375076 
L 104.841818 266.375076 
L 104.841818 261.898809 
L 108.078182 261.898809 
L 108.078182 259.660676 
L 111.314545 259.660676 
L 111.314545 257.422542 
L 114.550909 257.422542 
L 114.550909 255.184409 
L 117.787273 255.184409 
L 121.023636 250.708142 
L 124.26 250.708142 
L 124.26 246.231874 
L 127.496364 246.231874 
L 127.496364 243.993741 
L 137.205455 243.993741 
L 137.205455 239.517474 
L 153.387273 239.517474 
L 153.387273 235.041207 
L 156.623636 235.041207 
L 156.623636 228.326806 
L 159.86 228.326806 
L 159.86 210.421738 
L 163.096364 210.421738 
L 163.096364 203.707337 
L 169.569091 203.707337 
L 169.569091 194.754803 
L 172.805455 194.754803 
L 172.805455 188.040402 
L 176.041818 188.040402 
L 176.041818 185.802269 
L 182.514545 185.802269 
L 188.987273 181.326002 
L 188.987273 179.087868 
L 192.223636 176.849735 
L 192.223636 174.611601 
L 195.46 174.611601 
L 195.46 170.135334 
L 211.641818 170.135334 
L 218.114545 167.8972 
L 221.350909 167.8972 
L 224.587273 165.659067 
L 224.587273 156.706533 
L 227.823636 154.468399 
L 231.06 154.468399 
L 231.06 152.230265 
L 234.296364 152.230265 
L 234.296364 147.753998 
L 240.769091 147.753998 
L 247.241818 145.515865 
L 253.714545 145.515865 
L 253.714545 143.277731 
L 260.187273 143.277731 
L 260.187273 141.039598 
L 269.896364 141.039598 
L 273.132727 138.801464 
L 289.314545 138.801464 
L 289.314545 136.563331 
L 295.787273 136.563331 
L 295.787273 134.325197 
L 302.26 132.087064 
L 302.26 129.84893 
L 311.969091 129.84893 
L 311.969091 125.372663 
L 324.914545 125.372663 
L 324.914545 123.134529 
L 331.387273 123.134529 
L 331.387273 118.658262 
L 334.623636 118.658262 
L 334.623636 111.943862 
L 337.86 111.943862 
L 337.86 109.705728 
L 341.096364 109.705728 
L 347.569091 107.467595 
L 347.569091 94.038793 
L 350.805455 91.80066 
L 357.278182 91.80066 
L 357.278182 89.562526 
L 360.514545 89.562526 
L 360.514545 87.324393 
L 366.987273 87.324393 
L 366.987273 85.086259 
L 370.223636 82.848126 
L 373.46 82.848126 
L 379.932727 80.609992 
L 383.169091 78.371858 
L 386.405455 78.371858 
L 386.405455 76.133725 
L 392.878182 76.133725 
L 392.878182 69.419324 
L 399.350909 69.419324 
L 399.350909 62.704924 
L 402.587273 62.704924 
L 402.587273 60.46679 
L 405.823636 58.228656 
L 409.06 58.228656 
L 409.06 55.990523 
L 412.296364 55.990523 
L 412.296364 47.037989 
L 418.769091 47.037989 
L 418.769091 44.799855 
L 422.005455 44.799855 
L 422.005455 40.323588 
L 425.241818 40.323588 
L 425.241818 38.085455 
L 431.714545 38.085455 
L 431.714545 38.085455 
" style="fill:none;stroke:#8c564b;stroke-linecap:square;stroke-opacity:0.3;"/>
   </g>
   <g id="line2d_19">
    <path clip-path="url(#paa21d86c9b)" d="M 66.005455 290.994545 
L 69.241818 290.994545 
L 72.478182 290.994545 
L 72.478182 288.756412 
L 75.714545 288.756412 
L 75.714545 284.280145 
L 78.950909 284.280145 
L 78.950909 277.565744 
L 82.187273 277.565744 
L 82.187273 273.089477 
L 85.423636 273.089477 
L 85.423636 270.851344 
L 88.66 270.851344 
L 88.66 268.61321 
L 95.132727 268.61321 
L 95.132727 261.898809 
L 98.369091 261.898809 
L 98.369091 259.660676 
L 101.605455 259.660676 
L 101.605455 257.422542 
L 111.314545 257.422542 
L 114.550909 257.422542 
L 114.550909 255.184409 
L 117.787273 255.184409 
L 117.787273 250.708142 
L 127.496364 250.708142 
L 127.496364 246.231874 
L 127.496364 237.27934 
L 130.732727 237.27934 
L 130.732727 235.041207 
L 133.969091 228.326806 
L 140.441818 228.326806 
L 146.914545 228.326806 
L 150.150909 228.326806 
L 150.150909 217.136138 
L 156.623636 217.136138 
L 163.096364 214.898005 
L 166.332727 210.421738 
L 166.332727 208.183604 
L 176.041818 203.707337 
L 176.041818 196.992936 
L 179.278182 194.754803 
L 179.278182 190.278536 
L 182.514545 190.278536 
L 182.514545 188.040402 
L 185.750909 188.040402 
L 188.987273 185.802269 
L 205.169091 185.802269 
L 205.169091 183.564135 
L 205.169091 176.849735 
L 205.169091 172.373467 
L 208.405455 172.373467 
L 208.405455 170.135334 
L 214.878182 170.135334 
L 218.114545 167.8972 
L 224.587273 167.8972 
L 224.587273 158.944666 
L 231.06 158.944666 
L 231.06 154.468399 
L 240.769091 154.468399 
L 247.241818 154.468399 
L 247.241818 147.753998 
L 250.478182 143.277731 
L 250.478182 141.039598 
L 256.950909 141.039598 
L 256.950909 138.801464 
L 269.896364 138.801464 
L 276.369091 136.563331 
L 276.369091 134.325197 
L 286.078182 134.325197 
L 286.078182 132.087064 
L 289.314545 132.087064 
L 289.314545 129.84893 
L 295.787273 129.84893 
L 295.787273 125.372663 
L 299.023636 123.134529 
L 302.26 118.658262 
L 302.26 116.420129 
L 305.496364 116.420129 
L 305.496364 114.181995 
L 308.732727 114.181995 
L 308.732727 111.943862 
L 315.205455 111.943862 
L 315.205455 105.229461 
L 324.914545 105.229461 
L 328.150909 105.229461 
L 328.150909 102.991327 
L 334.623636 102.991327 
L 334.623636 100.753194 
L 337.86 98.51506 
L 337.86 96.276927 
L 341.096364 96.276927 
L 341.096364 94.038793 
L 350.805455 94.038793 
L 350.805455 91.80066 
L 360.514545 82.848126 
L 363.750909 82.848126 
L 363.750909 76.133725 
L 370.223636 71.657458 
L 373.46 71.657458 
L 376.696364 69.419324 
L 376.696364 62.704924 
L 383.169091 62.704924 
L 383.169091 55.990523 
L 389.641818 55.990523 
L 396.114545 55.990523 
L 396.114545 53.752389 
L 409.06 53.752389 
L 409.06 51.514256 
L 412.296364 51.514256 
L 412.296364 47.037989 
L 428.478182 47.037989 
L 428.478182 42.561722 
L 431.714545 42.561722 
L 431.714545 38.085455 
" style="fill:none;stroke:#e377c2;stroke-linecap:square;stroke-opacity:0.3;"/>
   </g>
   <g id="line2d_20">
    <path clip-path="url(#paa21d86c9b)" d="M 66.005455 290.994545 
L 69.241818 290.994545 
L 75.714545 290.994545 
L 75.714545 286.518278 
L 82.187273 286.518278 
L 85.423636 286.518278 
L 88.66 284.280145 
L 88.66 282.042011 
L 95.132727 279.803878 
L 95.132727 275.327611 
L 101.605455 275.327611 
L 101.605455 273.089477 
L 104.841818 273.089477 
L 104.841818 270.851344 
L 108.078182 270.851344 
L 108.078182 268.61321 
L 117.787273 268.61321 
L 117.787273 264.136943 
L 121.023636 264.136943 
L 121.023636 261.898809 
L 124.26 259.660676 
L 124.26 248.470008 
L 127.496364 248.470008 
L 133.969091 248.470008 
L 133.969091 246.231874 
L 137.205455 246.231874 
L 137.205455 243.993741 
L 146.914545 243.993741 
L 146.914545 239.517474 
L 153.387273 239.517474 
L 159.86 235.041207 
L 159.86 232.803073 
L 169.569091 230.56494 
L 169.569091 228.326806 
L 169.569091 223.850539 
L 172.805455 221.612405 
L 179.278182 221.612405 
L 179.278182 214.898005 
L 185.750909 212.659871 
L 185.750909 210.421738 
L 188.987273 210.421738 
L 188.987273 208.183604 
L 192.223636 208.183604 
L 195.46 205.945471 
L 195.46 201.469204 
L 198.696364 199.23107 
L 205.169091 199.23107 
L 205.169091 194.754803 
L 208.405455 194.754803 
L 208.405455 188.040402 
L 211.641818 188.040402 
L 214.878182 185.802269 
L 221.350909 179.087868 
L 227.823636 176.849735 
L 227.823636 174.611601 
L 231.06 172.373467 
L 234.296364 172.373467 
L 234.296364 170.135334 
L 237.532727 170.135334 
L 237.532727 167.8972 
L 240.769091 167.8972 
L 244.005455 165.659067 
L 250.478182 165.659067 
L 256.950909 161.1828 
L 256.950909 158.944666 
L 260.187273 158.944666 
L 260.187273 156.706533 
L 263.423636 156.706533 
L 269.896364 154.468399 
L 269.896364 152.230265 
L 276.369091 152.230265 
L 279.605455 149.992132 
L 289.314545 149.992132 
L 295.787273 149.992132 
L 299.023636 149.992132 
L 302.26 147.753998 
L 315.205455 147.753998 
L 315.205455 143.277731 
L 321.678182 143.277731 
L 321.678182 141.039598 
L 321.678182 136.563331 
L 321.678182 134.325197 
L 328.150909 134.325197 
L 328.150909 132.087064 
L 331.387273 132.087064 
L 331.387273 127.610796 
L 334.623636 127.610796 
L 341.096364 127.610796 
L 341.096364 120.896396 
L 341.096364 116.420129 
L 344.332727 116.420129 
L 344.332727 114.181995 
L 347.569091 114.181995 
L 347.569091 111.943862 
L 350.805455 111.943862 
L 350.805455 109.705728 
L 357.278182 109.705728 
L 357.278182 102.991327 
L 360.514545 98.51506 
L 360.514545 96.276927 
L 363.750909 96.276927 
L 363.750909 87.324393 
L 366.987273 87.324393 
L 379.932727 87.324393 
L 379.932727 85.086259 
L 386.405455 85.086259 
L 389.641818 82.848126 
L 396.114545 76.133725 
L 396.114545 73.895591 
L 399.350909 73.895591 
L 399.350909 67.181191 
L 405.823636 67.181191 
L 405.823636 62.704924 
L 409.06 62.704924 
L 412.296364 58.228656 
L 428.478182 58.228656 
L 428.478182 55.990523 
L 428.478182 51.514256 
L 428.478182 47.037989 
L 431.714545 47.037989 
L 431.714545 38.085455 
" style="fill:none;stroke:#7f7f7f;stroke-linecap:square;stroke-opacity:0.3;"/>
   </g>
   <g id="line2d_21">
    <path clip-path="url(#paa21d86c9b)" d="M 66.005455 290.994545 
L 69.241818 288.756412 
L 72.478182 288.756412 
L 72.478182 284.280145 
L 85.423636 284.280145 
L 85.423636 282.042011 
L 91.896364 282.042011 
L 91.896364 279.803878 
L 95.132727 279.803878 
L 95.132727 277.565744 
L 101.605455 277.565744 
L 101.605455 275.327611 
L 104.841818 275.327611 
L 108.078182 273.089477 
L 108.078182 264.136943 
L 111.314545 264.136943 
L 111.314545 261.898809 
L 117.787273 261.898809 
L 121.023636 257.422542 
L 124.26 257.422542 
L 124.26 255.184409 
L 127.496364 255.184409 
L 127.496364 250.708142 
L 130.732727 248.470008 
L 130.732727 243.993741 
L 137.205455 241.755607 
L 150.150909 241.755607 
L 159.86 239.517474 
L 163.096364 239.517474 
L 163.096364 230.56494 
L 169.569091 230.56494 
L 169.569091 226.088673 
L 172.805455 221.612405 
L 172.805455 217.136138 
L 176.041818 217.136138 
L 176.041818 212.659871 
L 179.278182 212.659871 
L 179.278182 208.183604 
L 182.514545 208.183604 
L 188.987273 205.945471 
L 188.987273 203.707337 
L 192.223636 203.707337 
L 192.223636 201.469204 
L 205.169091 201.469204 
L 208.405455 199.23107 
L 208.405455 196.992936 
L 211.641818 196.992936 
L 211.641818 192.516669 
L 214.878182 192.516669 
L 218.114545 190.278536 
L 221.350909 190.278536 
L 224.587273 188.040402 
L 227.823636 188.040402 
L 231.06 185.802269 
L 244.005455 179.087868 
L 247.241818 176.849735 
L 247.241818 174.611601 
L 250.478182 174.611601 
L 250.478182 167.8972 
L 253.714545 167.8972 
L 253.714545 165.659067 
L 256.950909 165.659067 
L 266.66 163.420933 
L 269.896364 163.420933 
L 269.896364 161.1828 
L 273.132727 161.1828 
L 276.369091 158.944666 
L 276.369091 156.706533 
L 282.841818 156.706533 
L 282.841818 154.468399 
L 286.078182 152.230265 
L 289.314545 152.230265 
L 289.314545 145.515865 
L 295.787273 145.515865 
L 295.787273 136.563331 
L 299.023636 134.325197 
L 302.26 134.325197 
L 302.26 127.610796 
L 305.496364 127.610796 
L 315.205455 125.372663 
L 321.678182 125.372663 
L 321.678182 123.134529 
L 331.387273 116.420129 
L 331.387273 107.467595 
L 337.86 107.467595 
L 337.86 105.229461 
L 341.096364 105.229461 
L 341.096364 96.276927 
L 344.332727 96.276927 
L 344.332727 91.80066 
L 350.805455 91.80066 
L 350.805455 87.324393 
L 354.041818 87.324393 
L 354.041818 80.609992 
L 363.750909 80.609992 
L 363.750909 78.371858 
L 370.223636 78.371858 
L 370.223636 76.133725 
L 379.932727 76.133725 
L 379.932727 73.895591 
L 383.169091 73.895591 
L 383.169091 71.657458 
L 386.405455 71.657458 
L 386.405455 69.419324 
L 396.114545 69.419324 
L 396.114545 64.943057 
L 399.350909 60.46679 
L 405.823636 60.46679 
L 405.823636 55.990523 
L 409.06 55.990523 
L 409.06 53.752389 
L 415.532727 53.752389 
L 415.532727 51.514256 
L 422.005455 51.514256 
L 422.005455 49.276122 
L 425.241818 49.276122 
L 425.241818 40.323588 
L 431.714545 40.323588 
L 431.714545 38.085455 
L 431.714545 38.085455 
" style="fill:none;stroke:#bcbd22;stroke-linecap:square;stroke-opacity:0.3;"/>
   </g>
   <g id="line2d_22">
    <path clip-path="url(#paa21d86c9b)" d="M 66.005455 290.994545 
L 66.005455 288.562727 
L 69.521888 288.562727 
L 69.521888 286.130909 
L 83.587622 286.130909 
L 83.587622 283.699091 
L 87.104056 283.699091 
L 87.104056 281.267273 
L 90.62049 281.267273 
L 97.653357 281.267273 
L 111.719091 281.267273 
L 111.719091 276.403636 
L 111.719091 273.971818 
L 115.235524 273.971818 
L 115.235524 264.244545 
L 118.751958 264.244545 
L 118.751958 259.380909 
L 122.268392 259.380909 
L 122.268392 254.517273 
L 125.784825 254.517273 
L 125.784825 252.085455 
L 132.817692 252.085455 
L 132.817692 247.221818 
L 139.850559 247.221818 
L 150.39986 239.926364 
L 150.39986 237.494545 
L 164.465594 237.494545 
L 171.498462 237.494545 
L 178.531329 237.494545 
L 178.531329 232.630909 
L 182.047762 232.630909 
L 182.047762 230.199091 
L 185.564196 230.199091 
L 192.597063 230.199091 
L 192.597063 222.903636 
L 192.597063 218.04 
L 192.597063 210.744545 
L 196.113497 210.744545 
L 196.113497 208.312727 
L 199.62993 208.312727 
L 199.62993 203.449091 
L 206.662797 203.449091 
L 206.662797 201.017273 
L 210.179231 201.017273 
L 210.179231 196.153636 
L 213.695664 196.153636 
L 213.695664 193.721818 
L 220.728531 193.721818 
L 220.728531 186.426364 
L 227.761399 186.426364 
L 227.761399 183.994545 
L 234.794266 183.994545 
L 234.794266 179.130909 
L 241.827133 179.130909 
L 241.827133 174.267273 
L 241.827133 169.403636 
L 245.343566 169.403636 
L 245.343566 162.108182 
L 248.86 162.108182 
L 248.86 159.676364 
L 248.86 149.949091 
L 252.376434 149.949091 
L 252.376434 147.517273 
L 273.475035 147.517273 
L 273.475035 145.085455 
L 284.024336 145.085455 
L 284.024336 142.653636 
L 294.573636 140.221818 
L 305.122937 140.221818 
L 305.122937 135.358182 
L 312.155804 135.358182 
L 312.155804 130.494545 
L 319.188671 130.494545 
L 319.188671 128.062727 
L 322.705105 128.062727 
L 322.705105 125.630909 
L 333.254406 125.630909 
L 333.254406 123.199091 
L 336.770839 123.199091 
L 336.770839 120.767273 
L 336.770839 115.903636 
L 340.287273 115.903636 
L 340.287273 113.471818 
L 354.353007 108.608182 
L 354.353007 101.312727 
L 361.385874 101.312727 
L 361.385874 96.449091 
L 361.385874 91.585455 
L 364.902308 89.153636 
L 364.902308 81.858182 
L 375.451608 81.858182 
L 375.451608 76.994545 
L 378.968042 76.994545 
L 378.968042 72.130909 
L 382.484476 72.130909 
L 386.000909 69.699091 
L 389.517343 69.699091 
L 389.517343 67.267273 
L 396.55021 67.267273 
L 396.55021 62.403636 
L 400.066643 62.403636 
L 400.066643 59.971818 
L 410.615944 59.971818 
L 410.615944 55.108182 
L 414.132378 55.108182 
L 414.132378 42.949091 
L 421.165245 42.949091 
L 421.165245 40.517273 
L 428.198112 40.517273 
L 431.714545 40.517273 
L 431.714545 38.085455 
" style="fill:none;stroke:#17becf;stroke-linecap:square;stroke-opacity:0.3;"/>
   </g>
   <g id="line2d_23">
    <path clip-path="url(#paa21d86c9b)" d="M 66.005455 290.994545 
L 431.714545 38.085455 
" style="fill:none;stroke:#ff0000;stroke-dasharray:7.4,3.2;stroke-dashoffset:0;stroke-opacity:0.8;stroke-width:2;"/>
   </g>
   <g id="line2d_24">
    <path clip-path="url(#paa21d86c9b)" d="M 66.005455 290.994545 
L 69.699486 285.201092 
L 73.393517 283.346154 
L 77.087548 281.908323 
L 80.781579 279.988954 
L 84.475611 279.074332 
L 88.169642 277.969808 
L 91.863673 276.932128 
L 95.557704 272.78819 
L 99.251736 271.547043 
L 102.945767 269.654803 
L 106.639798 267.292329 
L 110.333829 265.626163 
L 114.02786 263.77755 
L 117.721892 260.466086 
L 121.415923 255.719357 
L 125.109954 252.596969 
L 128.803985 249.86019 
L 132.498017 247.386939 
L 136.192048 244.19786 
L 139.886079 240.285452 
L 143.58011 239.806175 
L 147.274141 236.417324 
L 150.968173 234.372448 
L 154.662204 232.184804 
L 158.356235 230.425571 
L 162.050266 226.312906 
L 165.744298 222.474922 
L 169.438329 221.27899 
L 173.13236 215.679888 
L 176.826391 212.294805 
L 180.520422 208.089523 
L 184.214454 205.668117 
L 187.908485 203.931868 
L 191.602516 201.518527 
L 195.296547 198.178195 
L 198.990579 195.189909 
L 202.68461 194.160402 
L 206.378641 191.071665 
L 210.072672 188.246151 
L 213.766703 186.373801 
L 217.460735 184.739286 
L 221.154766 181.317198 
L 224.848797 177.568889 
L 228.542828 174.277475 
L 232.23686 172.385988 
L 235.930891 168.357232 
L 239.624922 167.457269 
L 243.318953 164.956846 
L 247.012984 162.641956 
L 250.707016 157.550006 
L 254.401047 155.292504 
L 258.095078 152.324905 
L 261.789109 150.975996 
L 265.48314 150.372002 
L 269.177172 148.115782 
L 272.871203 146.087898 
L 276.565234 142.970184 
L 280.259265 141.979979 
L 283.953297 140.3952 
L 287.647328 138.886133 
L 291.341359 135.016498 
L 295.03539 134.019606 
L 298.729421 130.825179 
L 302.423453 128.189155 
L 306.117484 126.985383 
L 309.811515 126.197138 
L 313.505546 124.538655 
L 317.199578 122.916498 
L 320.893609 121.589969 
L 324.58764 119.723123 
L 328.281671 117.10835 
L 331.975702 114.75718 
L 335.669734 111.9571 
L 339.363765 109.206452 
L 343.057796 104.994822 
L 346.751827 103.566034 
L 350.445859 99.261583 
L 354.13989 96.538521 
L 357.833921 94.041242 
L 361.527952 90.251226 
L 365.221983 86.479354 
L 368.916015 84.20128 
L 372.610046 82.049809 
L 376.304077 80.624861 
L 379.998108 78.353077 
L 383.69214 74.785193 
L 387.386171 73.603108 
L 391.080202 72.088825 
L 394.774233 69.883472 
L 398.468264 67.049329 
L 402.162296 64.504712 
L 405.856327 61.088733 
L 409.550358 59.834022 
L 413.244389 56.349916 
L 416.938421 52.925263 
L 420.632452 51.552993 
L 424.326483 49.869719 
L 428.020514 45.809428 
L 431.714545 38.085455 
" style="fill:none;stroke:#0000ff;stroke-linecap:square;stroke-opacity:0.8;stroke-width:2;"/>
   </g>
   <g id="patch_3">
    <path d="M 47.72 303.64 
L 47.72 25.44 
" style="fill:none;stroke:#000000;stroke-linecap:square;stroke-linejoin:miter;stroke-width:0.8;"/>
   </g>
   <g id="patch_4">
    <path d="M 450 303.64 
L 450 25.44 
" style="fill:none;stroke:#000000;stroke-linecap:square;stroke-linejoin:miter;stroke-width:0.8;"/>
   </g>
   <g id="patch_5">
    <path d="M 47.72 303.64 
L 450 303.64 
" style="fill:none;stroke:#000000;stroke-linecap:square;stroke-linejoin:miter;stroke-width:0.8;"/>
   </g>
   <g id="patch_6">
    <path d="M 47.72 25.44 
L 450 25.44 
" style="fill:none;stroke:#000000;stroke-linecap:square;stroke-linejoin:miter;stroke-width:0.8;"/>
   </g>
   <g id="text_15">
    <!-- Receiver operating characteristic: duplications -->
    <defs>
     <path d="M 48.78125 52.59375 
L 48.78125 44.1875 
Q 44.96875 46.296875 41.140625 47.34375 
Q 37.3125 48.390625 33.40625 48.390625 
Q 24.65625 48.390625 19.8125 42.84375 
Q 14.984375 37.3125 14.984375 27.296875 
Q 14.984375 17.28125 19.8125 11.734375 
Q 24.65625 6.203125 33.40625 6.203125 
Q 37.3125 6.203125 41.140625 7.25 
Q 44.96875 8.296875 48.78125 10.40625 
L 48.78125 2.09375 
Q 45.015625 0.34375 40.984375 -0.53125 
Q 36.96875 -1.421875 32.421875 -1.421875 
Q 20.0625 -1.421875 12.78125 6.34375 
Q 5.515625 14.109375 5.515625 27.296875 
Q 5.515625 40.671875 12.859375 48.328125 
Q 20.21875 56 33.015625 56 
Q 37.15625 56 41.109375 55.140625 
Q 45.0625 54.296875 48.78125 52.59375 
z
" id="DejaVuSans-99"/>
     <path d="M 18.109375 8.203125 
L 18.109375 -20.796875 
L 9.078125 -20.796875 
L 9.078125 54.6875 
L 18.109375 54.6875 
L 18.109375 46.390625 
Q 20.953125 51.265625 25.265625 53.625 
Q 29.59375 56 35.59375 56 
Q 45.5625 56 51.78125 48.09375 
Q 58.015625 40.1875 58.015625 27.296875 
Q 58.015625 14.40625 51.78125 6.484375 
Q 45.5625 -1.421875 35.59375 -1.421875 
Q 29.59375 -1.421875 25.265625 0.953125 
Q 20.953125 3.328125 18.109375 8.203125 
z
M 48.6875 27.296875 
Q 48.6875 37.203125 44.609375 42.84375 
Q 40.53125 48.484375 33.40625 48.484375 
Q 26.265625 48.484375 22.1875 42.84375 
Q 18.109375 37.203125 18.109375 27.296875 
Q 18.109375 17.390625 22.1875 11.75 
Q 26.265625 6.109375 33.40625 6.109375 
Q 40.53125 6.109375 44.609375 11.75 
Q 48.6875 17.390625 48.6875 27.296875 
z
" id="DejaVuSans-112"/>
     <path d="M 54.890625 33.015625 
L 54.890625 0 
L 45.90625 0 
L 45.90625 32.71875 
Q 45.90625 40.484375 42.875 44.328125 
Q 39.84375 48.1875 33.796875 48.1875 
Q 26.515625 48.1875 22.3125 43.546875 
Q 18.109375 38.921875 18.109375 30.90625 
L 18.109375 0 
L 9.078125 0 
L 9.078125 54.6875 
L 18.109375 54.6875 
L 18.109375 46.1875 
Q 21.34375 51.125 25.703125 53.5625 
Q 30.078125 56 35.796875 56 
Q 45.21875 56 50.046875 50.171875 
Q 54.890625 44.34375 54.890625 33.015625 
z
" id="DejaVuSans-110"/>
     <path d="M 45.40625 27.984375 
Q 45.40625 37.75 41.375 43.109375 
Q 37.359375 48.484375 30.078125 48.484375 
Q 22.859375 48.484375 18.828125 43.109375 
Q 14.796875 37.75 14.796875 27.984375 
Q 14.796875 18.265625 18.828125 12.890625 
Q 22.859375 7.515625 30.078125 7.515625 
Q 37.359375 7.515625 41.375 12.890625 
Q 45.40625 18.265625 45.40625 27.984375 
z
M 54.390625 6.78125 
Q 54.390625 -7.171875 48.1875 -13.984375 
Q 42 -20.796875 29.203125 -20.796875 
Q 24.46875 -20.796875 20.265625 -20.09375 
Q 16.0625 -19.390625 12.109375 -17.921875 
L 12.109375 -9.1875 
Q 16.0625 -11.328125 19.921875 -12.34375 
Q 23.78125 -13.375 27.78125 -13.375 
Q 36.625 -13.375 41.015625 -8.765625 
Q 45.40625 -4.15625 45.40625 5.171875 
L 45.40625 9.625 
Q 42.625 4.78125 38.28125 2.390625 
Q 33.9375 0 27.875 0 
Q 17.828125 0 11.671875 7.65625 
Q 5.515625 15.328125 5.515625 27.984375 
Q 5.515625 40.671875 11.671875 48.328125 
Q 17.828125 56 27.875 56 
Q 33.9375 56 38.28125 53.609375 
Q 42.625 51.21875 45.40625 46.390625 
L 45.40625 54.6875 
L 54.390625 54.6875 
z
" id="DejaVuSans-103"/>
     <path d="M 54.890625 33.015625 
L 54.890625 0 
L 45.90625 0 
L 45.90625 32.71875 
Q 45.90625 40.484375 42.875 44.328125 
Q 39.84375 48.1875 33.796875 48.1875 
Q 26.515625 48.1875 22.3125 43.546875 
Q 18.109375 38.921875 18.109375 30.90625 
L 18.109375 0 
L 9.078125 0 
L 9.078125 75.984375 
L 18.109375 75.984375 
L 18.109375 46.1875 
Q 21.34375 51.125 25.703125 53.5625 
Q 30.078125 56 35.796875 56 
Q 45.21875 56 50.046875 50.171875 
Q 54.890625 44.34375 54.890625 33.015625 
z
" id="DejaVuSans-104"/>
     <path d="M 11.71875 12.40625 
L 22.015625 12.40625 
L 22.015625 0 
L 11.71875 0 
z
M 11.71875 51.703125 
L 22.015625 51.703125 
L 22.015625 39.3125 
L 11.71875 39.3125 
z
" id="DejaVuSans-58"/>
     <path d="M 45.40625 46.390625 
L 45.40625 75.984375 
L 54.390625 75.984375 
L 54.390625 0 
L 45.40625 0 
L 45.40625 8.203125 
Q 42.578125 3.328125 38.25 0.953125 
Q 33.9375 -1.421875 27.875 -1.421875 
Q 17.96875 -1.421875 11.734375 6.484375 
Q 5.515625 14.40625 5.515625 27.296875 
Q 5.515625 40.1875 11.734375 48.09375 
Q 17.96875 56 27.875 56 
Q 33.9375 56 38.25 53.625 
Q 42.578125 51.265625 45.40625 46.390625 
z
M 14.796875 27.296875 
Q 14.796875 17.390625 18.875 11.75 
Q 22.953125 6.109375 30.078125 6.109375 
Q 37.203125 6.109375 41.296875 11.75 
Q 45.40625 17.390625 45.40625 27.296875 
Q 45.40625 37.203125 41.296875 42.84375 
Q 37.203125 48.484375 30.078125 48.484375 
Q 22.953125 48.484375 18.875 42.84375 
Q 14.796875 37.203125 14.796875 27.296875 
z
" id="DejaVuSans-100"/>
    </defs>
    <g transform="translate(108.75625 19.44)scale(0.12 -0.12)">
     <use xlink:href="#DejaVuSans-82"/>
     <use x="69.419922" xlink:href="#DejaVuSans-101"/>
     <use x="130.943359" xlink:href="#DejaVuSans-99"/>
     <use x="185.923828" xlink:href="#DejaVuSans-101"/>
     <use x="247.447266" xlink:href="#DejaVuSans-105"/>
     <use x="275.230469" xlink:href="#DejaVuSans-118"/>
     <use x="334.410156" xlink:href="#DejaVuSans-101"/>
     <use x="395.933594" xlink:href="#DejaVuSans-114"/>
     <use x="437.046875" xlink:href="#DejaVuSans-32"/>
     <use x="468.833984" xlink:href="#DejaVuSans-111"/>
     <use x="530.015625" xlink:href="#DejaVuSans-112"/>
     <use x="593.492188" xlink:href="#DejaVuSans-101"/>
     <use x="655.015625" xlink:href="#DejaVuSans-114"/>
     <use x="696.128906" xlink:href="#DejaVuSans-97"/>
     <use x="757.408203" xlink:href="#DejaVuSans-116"/>
     <use x="796.617188" xlink:href="#DejaVuSans-105"/>
     <use x="824.400391" xlink:href="#DejaVuSans-110"/>
     <use x="887.779297" xlink:href="#DejaVuSans-103"/>
     <use x="951.255859" xlink:href="#DejaVuSans-32"/>
     <use x="983.042969" xlink:href="#DejaVuSans-99"/>
     <use x="1038.023438" xlink:href="#DejaVuSans-104"/>
     <use x="1101.402344" xlink:href="#DejaVuSans-97"/>
     <use x="1162.681641" xlink:href="#DejaVuSans-114"/>
     <use x="1203.794922" xlink:href="#DejaVuSans-97"/>
     <use x="1265.074219" xlink:href="#DejaVuSans-99"/>
     <use x="1320.054688" xlink:href="#DejaVuSans-116"/>
     <use x="1359.263672" xlink:href="#DejaVuSans-101"/>
     <use x="1420.787109" xlink:href="#DejaVuSans-114"/>
     <use x="1461.900391" xlink:href="#DejaVuSans-105"/>
     <use x="1489.683594" xlink:href="#DejaVuSans-115"/>
     <use x="1541.783203" xlink:href="#DejaVuSans-116"/>
     <use x="1580.992188" xlink:href="#DejaVuSans-105"/>
     <use x="1608.775391" xlink:href="#DejaVuSans-99"/>
     <use x="1663.755859" xlink:href="#DejaVuSans-58"/>
     <use x="1697.447266" xlink:href="#DejaVuSans-32"/>
     <use x="1729.234375" xlink:href="#DejaVuSans-100"/>
     <use x="1792.710938" xlink:href="#DejaVuSans-117"/>
     <use x="1856.089844" xlink:href="#DejaVuSans-112"/>
     <use x="1919.566406" xlink:href="#DejaVuSans-108"/>
     <use x="1947.349609" xlink:href="#DejaVuSans-105"/>
     <use x="1975.132812" xlink:href="#DejaVuSans-99"/>
     <use x="2030.113281" xlink:href="#DejaVuSans-97"/>
     <use x="2091.392578" xlink:href="#DejaVuSans-116"/>
     <use x="2130.601562" xlink:href="#DejaVuSans-105"/>
     <use x="2158.384766" xlink:href="#DejaVuSans-111"/>
     <use x="2219.566406" xlink:href="#DejaVuSans-110"/>
     <use x="2282.945312" xlink:href="#DejaVuSans-115"/>
    </g>
   </g>
   <g id="legend_1">
    <g id="patch_7">
     <path d="M 252.6 298.64 
L 443 298.64 
Q 445 298.64 445 296.64 
L 445 106.824375 
Q 445 104.824375 443 104.824375 
L 252.6 104.824375 
Q 250.6 104.824375 250.6 106.824375 
L 250.6 296.64 
Q 250.6 298.64 252.6 298.64 
z
" style="fill:#ffffff;opacity:0.8;stroke:#cccccc;stroke-linejoin:miter;"/>
    </g>
    <g id="line2d_25">
     <path d="M 254.6 112.922812 
L 274.6 112.922812 
" style="fill:none;stroke:#1f77b4;stroke-linecap:square;stroke-opacity:0.3;"/>
    </g>
    <g id="line2d_26"/>
    <g id="text_16">
     <!-- ROC fold 0 (AUC = 0.48) -->
     <defs>
      <path d="M 39.40625 66.21875 
Q 28.65625 66.21875 22.328125 58.203125 
Q 16.015625 50.203125 16.015625 36.375 
Q 16.015625 22.609375 22.328125 14.59375 
Q 28.65625 6.59375 39.40625 6.59375 
Q 50.140625 6.59375 56.421875 14.59375 
Q 62.703125 22.609375 62.703125 36.375 
Q 62.703125 50.203125 56.421875 58.203125 
Q 50.140625 66.21875 39.40625 66.21875 
z
M 39.40625 74.21875 
Q 54.734375 74.21875 63.90625 63.9375 
Q 73.09375 53.65625 73.09375 36.375 
Q 73.09375 19.140625 63.90625 8.859375 
Q 54.734375 -1.421875 39.40625 -1.421875 
Q 24.03125 -1.421875 14.8125 8.828125 
Q 5.609375 19.09375 5.609375 36.375 
Q 5.609375 53.65625 14.8125 63.9375 
Q 24.03125 74.21875 39.40625 74.21875 
z
" id="DejaVuSans-79"/>
      <path d="M 64.40625 67.28125 
L 64.40625 56.890625 
Q 59.421875 61.53125 53.78125 63.8125 
Q 48.140625 66.109375 41.796875 66.109375 
Q 29.296875 66.109375 22.65625 58.46875 
Q 16.015625 50.828125 16.015625 36.375 
Q 16.015625 21.96875 22.65625 14.328125 
Q 29.296875 6.6875 41.796875 6.6875 
Q 48.140625 6.6875 53.78125 8.984375 
Q 59.421875 11.28125 64.40625 15.921875 
L 64.40625 5.609375 
Q 59.234375 2.09375 53.4375 0.328125 
Q 47.65625 -1.421875 41.21875 -1.421875 
Q 24.65625 -1.421875 15.125 8.703125 
Q 5.609375 18.84375 5.609375 36.375 
Q 5.609375 53.953125 15.125 64.078125 
Q 24.65625 74.21875 41.21875 74.21875 
Q 47.75 74.21875 53.53125 72.484375 
Q 59.328125 70.75 64.40625 67.28125 
z
" id="DejaVuSans-67"/>
      <path d="M 37.109375 75.984375 
L 37.109375 68.5 
L 28.515625 68.5 
Q 23.6875 68.5 21.796875 66.546875 
Q 19.921875 64.59375 19.921875 59.515625 
L 19.921875 54.6875 
L 34.71875 54.6875 
L 34.71875 47.703125 
L 19.921875 47.703125 
L 19.921875 0 
L 10.890625 0 
L 10.890625 47.703125 
L 2.296875 47.703125 
L 2.296875 54.6875 
L 10.890625 54.6875 
L 10.890625 58.5 
Q 10.890625 67.625 15.140625 71.796875 
Q 19.390625 75.984375 28.609375 75.984375 
z
" id="DejaVuSans-102"/>
      <path d="M 31 75.875 
Q 24.46875 64.65625 21.28125 53.65625 
Q 18.109375 42.671875 18.109375 31.390625 
Q 18.109375 20.125 21.3125 9.0625 
Q 24.515625 -2 31 -13.1875 
L 23.1875 -13.1875 
Q 15.875 -1.703125 12.234375 9.375 
Q 8.59375 20.453125 8.59375 31.390625 
Q 8.59375 42.28125 12.203125 53.3125 
Q 15.828125 64.359375 23.1875 75.875 
z
" id="DejaVuSans-40"/>
      <path d="M 34.1875 63.1875 
L 20.796875 26.90625 
L 47.609375 26.90625 
z
M 28.609375 72.90625 
L 39.796875 72.90625 
L 67.578125 0 
L 57.328125 0 
L 50.6875 18.703125 
L 17.828125 18.703125 
L 11.1875 0 
L 0.78125 0 
z
" id="DejaVuSans-65"/>
      <path d="M 8.6875 72.90625 
L 18.609375 72.90625 
L 18.609375 28.609375 
Q 18.609375 16.890625 22.84375 11.734375 
Q 27.09375 6.59375 36.625 6.59375 
Q 46.09375 6.59375 50.34375 11.734375 
Q 54.59375 16.890625 54.59375 28.609375 
L 54.59375 72.90625 
L 64.5 72.90625 
L 64.5 27.390625 
Q 64.5 13.140625 57.4375 5.859375 
Q 50.390625 -1.421875 36.625 -1.421875 
Q 22.796875 -1.421875 15.734375 5.859375 
Q 8.6875 13.140625 8.6875 27.390625 
z
" id="DejaVuSans-85"/>
      <path d="M 10.59375 45.40625 
L 73.1875 45.40625 
L 73.1875 37.203125 
L 10.59375 37.203125 
z
M 10.59375 25.484375 
L 73.1875 25.484375 
L 73.1875 17.1875 
L 10.59375 17.1875 
z
" id="DejaVuSans-61"/>
      <path d="M 8.015625 75.875 
L 15.828125 75.875 
Q 23.140625 64.359375 26.78125 53.3125 
Q 30.421875 42.28125 30.421875 31.390625 
Q 30.421875 20.453125 26.78125 9.375 
Q 23.140625 -1.703125 15.828125 -13.1875 
L 8.015625 -13.1875 
Q 14.5 -2 17.703125 9.0625 
Q 20.90625 20.125 20.90625 31.390625 
Q 20.90625 42.671875 17.703125 53.65625 
Q 14.5 64.65625 8.015625 75.875 
z
" id="DejaVuSans-41"/>
     </defs>
     <g transform="translate(282.6 116.422812)scale(0.1 -0.1)">
      <use xlink:href="#DejaVuSans-82"/>
      <use x="69.482422" xlink:href="#DejaVuSans-79"/>
      <use x="148.193359" xlink:href="#DejaVuSans-67"/>
      <use x="218.017578" xlink:href="#DejaVuSans-32"/>
      <use x="249.804688" xlink:href="#DejaVuSans-102"/>
      <use x="285.009766" xlink:href="#DejaVuSans-111"/>
      <use x="346.191406" xlink:href="#DejaVuSans-108"/>
      <use x="373.974609" xlink:href="#DejaVuSans-100"/>
      <use x="437.451172" xlink:href="#DejaVuSans-32"/>
      <use x="469.238281" xlink:href="#DejaVuSans-48"/>
      <use x="532.861328" xlink:href="#DejaVuSans-32"/>
      <use x="564.648438" xlink:href="#DejaVuSans-40"/>
      <use x="603.662109" xlink:href="#DejaVuSans-65"/>
      <use x="672.070312" xlink:href="#DejaVuSans-85"/>
      <use x="745.263672" xlink:href="#DejaVuSans-67"/>
      <use x="815.087891" xlink:href="#DejaVuSans-32"/>
      <use x="846.875" xlink:href="#DejaVuSans-61"/>
      <use x="930.664062" xlink:href="#DejaVuSans-32"/>
      <use x="962.451172" xlink:href="#DejaVuSans-48"/>
      <use x="1026.074219" xlink:href="#DejaVuSans-46"/>
      <use x="1057.861328" xlink:href="#DejaVuSans-52"/>
      <use x="1121.484375" xlink:href="#DejaVuSans-56"/>
      <use x="1185.107422" xlink:href="#DejaVuSans-41"/>
     </g>
    </g>
    <g id="line2d_27">
     <path d="M 254.6 127.600938 
L 274.6 127.600938 
" style="fill:none;stroke:#ff7f0e;stroke-linecap:square;stroke-opacity:0.3;"/>
    </g>
    <g id="line2d_28"/>
    <g id="text_17">
     <!-- ROC fold 1 (AUC = 0.48) -->
     <g transform="translate(282.6 131.100938)scale(0.1 -0.1)">
      <use xlink:href="#DejaVuSans-82"/>
      <use x="69.482422" xlink:href="#DejaVuSans-79"/>
      <use x="148.193359" xlink:href="#DejaVuSans-67"/>
      <use x="218.017578" xlink:href="#DejaVuSans-32"/>
      <use x="249.804688" xlink:href="#DejaVuSans-102"/>
      <use x="285.009766" xlink:href="#DejaVuSans-111"/>
      <use x="346.191406" xlink:href="#DejaVuSans-108"/>
      <use x="373.974609" xlink:href="#DejaVuSans-100"/>
      <use x="437.451172" xlink:href="#DejaVuSans-32"/>
      <use x="469.238281" xlink:href="#DejaVuSans-49"/>
      <use x="532.861328" xlink:href="#DejaVuSans-32"/>
      <use x="564.648438" xlink:href="#DejaVuSans-40"/>
      <use x="603.662109" xlink:href="#DejaVuSans-65"/>
      <use x="672.070312" xlink:href="#DejaVuSans-85"/>
      <use x="745.263672" xlink:href="#DejaVuSans-67"/>
      <use x="815.087891" xlink:href="#DejaVuSans-32"/>
      <use x="846.875" xlink:href="#DejaVuSans-61"/>
      <use x="930.664062" xlink:href="#DejaVuSans-32"/>
      <use x="962.451172" xlink:href="#DejaVuSans-48"/>
      <use x="1026.074219" xlink:href="#DejaVuSans-46"/>
      <use x="1057.861328" xlink:href="#DejaVuSans-52"/>
      <use x="1121.484375" xlink:href="#DejaVuSans-56"/>
      <use x="1185.107422" xlink:href="#DejaVuSans-41"/>
     </g>
    </g>
    <g id="line2d_29">
     <path d="M 254.6 142.279063 
L 274.6 142.279063 
" style="fill:none;stroke:#2ca02c;stroke-linecap:square;stroke-opacity:0.3;"/>
    </g>
    <g id="line2d_30"/>
    <g id="text_18">
     <!-- ROC fold 2 (AUC = 0.54) -->
     <defs>
      <path d="M 10.796875 72.90625 
L 49.515625 72.90625 
L 49.515625 64.59375 
L 19.828125 64.59375 
L 19.828125 46.734375 
Q 21.96875 47.46875 24.109375 47.828125 
Q 26.265625 48.1875 28.421875 48.1875 
Q 40.625 48.1875 47.75 41.5 
Q 54.890625 34.8125 54.890625 23.390625 
Q 54.890625 11.625 47.5625 5.09375 
Q 40.234375 -1.421875 26.90625 -1.421875 
Q 22.3125 -1.421875 17.546875 -0.640625 
Q 12.796875 0.140625 7.71875 1.703125 
L 7.71875 11.625 
Q 12.109375 9.234375 16.796875 8.0625 
Q 21.484375 6.890625 26.703125 6.890625 
Q 35.15625 6.890625 40.078125 11.328125 
Q 45.015625 15.765625 45.015625 23.390625 
Q 45.015625 31 40.078125 35.4375 
Q 35.15625 39.890625 26.703125 39.890625 
Q 22.75 39.890625 18.8125 39.015625 
Q 14.890625 38.140625 10.796875 36.28125 
z
" id="DejaVuSans-53"/>
     </defs>
     <g transform="translate(282.6 145.779063)scale(0.1 -0.1)">
      <use xlink:href="#DejaVuSans-82"/>
      <use x="69.482422" xlink:href="#DejaVuSans-79"/>
      <use x="148.193359" xlink:href="#DejaVuSans-67"/>
      <use x="218.017578" xlink:href="#DejaVuSans-32"/>
      <use x="249.804688" xlink:href="#DejaVuSans-102"/>
      <use x="285.009766" xlink:href="#DejaVuSans-111"/>
      <use x="346.191406" xlink:href="#DejaVuSans-108"/>
      <use x="373.974609" xlink:href="#DejaVuSans-100"/>
      <use x="437.451172" xlink:href="#DejaVuSans-32"/>
      <use x="469.238281" xlink:href="#DejaVuSans-50"/>
      <use x="532.861328" xlink:href="#DejaVuSans-32"/>
      <use x="564.648438" xlink:href="#DejaVuSans-40"/>
      <use x="603.662109" xlink:href="#DejaVuSans-65"/>
      <use x="672.070312" xlink:href="#DejaVuSans-85"/>
      <use x="745.263672" xlink:href="#DejaVuSans-67"/>
      <use x="815.087891" xlink:href="#DejaVuSans-32"/>
      <use x="846.875" xlink:href="#DejaVuSans-61"/>
      <use x="930.664062" xlink:href="#DejaVuSans-32"/>
      <use x="962.451172" xlink:href="#DejaVuSans-48"/>
      <use x="1026.074219" xlink:href="#DejaVuSans-46"/>
      <use x="1057.861328" xlink:href="#DejaVuSans-53"/>
      <use x="1121.484375" xlink:href="#DejaVuSans-52"/>
      <use x="1185.107422" xlink:href="#DejaVuSans-41"/>
     </g>
    </g>
    <g id="line2d_31">
     <path d="M 254.6 156.957188 
L 274.6 156.957188 
" style="fill:none;stroke:#d62728;stroke-linecap:square;stroke-opacity:0.3;"/>
    </g>
    <g id="line2d_32"/>
    <g id="text_19">
     <!-- ROC fold 3 (AUC = 0.49) -->
     <defs>
      <path d="M 40.578125 39.3125 
Q 47.65625 37.796875 51.625 33 
Q 55.609375 28.21875 55.609375 21.1875 
Q 55.609375 10.40625 48.1875 4.484375 
Q 40.765625 -1.421875 27.09375 -1.421875 
Q 22.515625 -1.421875 17.65625 -0.515625 
Q 12.796875 0.390625 7.625 2.203125 
L 7.625 11.71875 
Q 11.71875 9.328125 16.59375 8.109375 
Q 21.484375 6.890625 26.8125 6.890625 
Q 36.078125 6.890625 40.9375 10.546875 
Q 45.796875 14.203125 45.796875 21.1875 
Q 45.796875 27.640625 41.28125 31.265625 
Q 36.765625 34.90625 28.71875 34.90625 
L 20.21875 34.90625 
L 20.21875 43.015625 
L 29.109375 43.015625 
Q 36.375 43.015625 40.234375 45.921875 
Q 44.09375 48.828125 44.09375 54.296875 
Q 44.09375 59.90625 40.109375 62.90625 
Q 36.140625 65.921875 28.71875 65.921875 
Q 24.65625 65.921875 20.015625 65.03125 
Q 15.375 64.15625 9.8125 62.3125 
L 9.8125 71.09375 
Q 15.4375 72.65625 20.34375 73.4375 
Q 25.25 74.21875 29.59375 74.21875 
Q 40.828125 74.21875 47.359375 69.109375 
Q 53.90625 64.015625 53.90625 55.328125 
Q 53.90625 49.265625 50.4375 45.09375 
Q 46.96875 40.921875 40.578125 39.3125 
z
" id="DejaVuSans-51"/>
      <path d="M 10.984375 1.515625 
L 10.984375 10.5 
Q 14.703125 8.734375 18.5 7.8125 
Q 22.3125 6.890625 25.984375 6.890625 
Q 35.75 6.890625 40.890625 13.453125 
Q 46.046875 20.015625 46.78125 33.40625 
Q 43.953125 29.203125 39.59375 26.953125 
Q 35.25 24.703125 29.984375 24.703125 
Q 19.046875 24.703125 12.671875 31.3125 
Q 6.296875 37.9375 6.296875 49.421875 
Q 6.296875 60.640625 12.9375 67.421875 
Q 19.578125 74.21875 30.609375 74.21875 
Q 43.265625 74.21875 49.921875 64.515625 
Q 56.59375 54.828125 56.59375 36.375 
Q 56.59375 19.140625 48.40625 8.859375 
Q 40.234375 -1.421875 26.421875 -1.421875 
Q 22.703125 -1.421875 18.890625 -0.6875 
Q 15.09375 0.046875 10.984375 1.515625 
z
M 30.609375 32.421875 
Q 37.25 32.421875 41.125 36.953125 
Q 45.015625 41.5 45.015625 49.421875 
Q 45.015625 57.28125 41.125 61.84375 
Q 37.25 66.40625 30.609375 66.40625 
Q 23.96875 66.40625 20.09375 61.84375 
Q 16.21875 57.28125 16.21875 49.421875 
Q 16.21875 41.5 20.09375 36.953125 
Q 23.96875 32.421875 30.609375 32.421875 
z
" id="DejaVuSans-57"/>
     </defs>
     <g transform="translate(282.6 160.457188)scale(0.1 -0.1)">
      <use xlink:href="#DejaVuSans-82"/>
      <use x="69.482422" xlink:href="#DejaVuSans-79"/>
      <use x="148.193359" xlink:href="#DejaVuSans-67"/>
      <use x="218.017578" xlink:href="#DejaVuSans-32"/>
      <use x="249.804688" xlink:href="#DejaVuSans-102"/>
      <use x="285.009766" xlink:href="#DejaVuSans-111"/>
      <use x="346.191406" xlink:href="#DejaVuSans-108"/>
      <use x="373.974609" xlink:href="#DejaVuSans-100"/>
      <use x="437.451172" xlink:href="#DejaVuSans-32"/>
      <use x="469.238281" xlink:href="#DejaVuSans-51"/>
      <use x="532.861328" xlink:href="#DejaVuSans-32"/>
      <use x="564.648438" xlink:href="#DejaVuSans-40"/>
      <use x="603.662109" xlink:href="#DejaVuSans-65"/>
      <use x="672.070312" xlink:href="#DejaVuSans-85"/>
      <use x="745.263672" xlink:href="#DejaVuSans-67"/>
      <use x="815.087891" xlink:href="#DejaVuSans-32"/>
      <use x="846.875" xlink:href="#DejaVuSans-61"/>
      <use x="930.664062" xlink:href="#DejaVuSans-32"/>
      <use x="962.451172" xlink:href="#DejaVuSans-48"/>
      <use x="1026.074219" xlink:href="#DejaVuSans-46"/>
      <use x="1057.861328" xlink:href="#DejaVuSans-52"/>
      <use x="1121.484375" xlink:href="#DejaVuSans-57"/>
      <use x="1185.107422" xlink:href="#DejaVuSans-41"/>
     </g>
    </g>
    <g id="line2d_33">
     <path d="M 254.6 171.635312 
L 274.6 171.635312 
" style="fill:none;stroke:#9467bd;stroke-linecap:square;stroke-opacity:0.3;"/>
    </g>
    <g id="line2d_34"/>
    <g id="text_20">
     <!-- ROC fold 4 (AUC = 0.47) -->
     <defs>
      <path d="M 8.203125 72.90625 
L 55.078125 72.90625 
L 55.078125 68.703125 
L 28.609375 0 
L 18.3125 0 
L 43.21875 64.59375 
L 8.203125 64.59375 
z
" id="DejaVuSans-55"/>
     </defs>
     <g transform="translate(282.6 175.135312)scale(0.1 -0.1)">
      <use xlink:href="#DejaVuSans-82"/>
      <use x="69.482422" xlink:href="#DejaVuSans-79"/>
      <use x="148.193359" xlink:href="#DejaVuSans-67"/>
      <use x="218.017578" xlink:href="#DejaVuSans-32"/>
      <use x="249.804688" xlink:href="#DejaVuSans-102"/>
      <use x="285.009766" xlink:href="#DejaVuSans-111"/>
      <use x="346.191406" xlink:href="#DejaVuSans-108"/>
      <use x="373.974609" xlink:href="#DejaVuSans-100"/>
      <use x="437.451172" xlink:href="#DejaVuSans-32"/>
      <use x="469.238281" xlink:href="#DejaVuSans-52"/>
      <use x="532.861328" xlink:href="#DejaVuSans-32"/>
      <use x="564.648438" xlink:href="#DejaVuSans-40"/>
      <use x="603.662109" xlink:href="#DejaVuSans-65"/>
      <use x="672.070312" xlink:href="#DejaVuSans-85"/>
      <use x="745.263672" xlink:href="#DejaVuSans-67"/>
      <use x="815.087891" xlink:href="#DejaVuSans-32"/>
      <use x="846.875" xlink:href="#DejaVuSans-61"/>
      <use x="930.664062" xlink:href="#DejaVuSans-32"/>
      <use x="962.451172" xlink:href="#DejaVuSans-48"/>
      <use x="1026.074219" xlink:href="#DejaVuSans-46"/>
      <use x="1057.861328" xlink:href="#DejaVuSans-52"/>
      <use x="1121.484375" xlink:href="#DejaVuSans-55"/>
      <use x="1185.107422" xlink:href="#DejaVuSans-41"/>
     </g>
    </g>
    <g id="line2d_35">
     <path d="M 254.6 186.313438 
L 274.6 186.313438 
" style="fill:none;stroke:#8c564b;stroke-linecap:square;stroke-opacity:0.3;"/>
    </g>
    <g id="line2d_36"/>
    <g id="text_21">
     <!-- ROC fold 5 (AUC = 0.52) -->
     <g transform="translate(282.6 189.813438)scale(0.1 -0.1)">
      <use xlink:href="#DejaVuSans-82"/>
      <use x="69.482422" xlink:href="#DejaVuSans-79"/>
      <use x="148.193359" xlink:href="#DejaVuSans-67"/>
      <use x="218.017578" xlink:href="#DejaVuSans-32"/>
      <use x="249.804688" xlink:href="#DejaVuSans-102"/>
      <use x="285.009766" xlink:href="#DejaVuSans-111"/>
      <use x="346.191406" xlink:href="#DejaVuSans-108"/>
      <use x="373.974609" xlink:href="#DejaVuSans-100"/>
      <use x="437.451172" xlink:href="#DejaVuSans-32"/>
      <use x="469.238281" xlink:href="#DejaVuSans-53"/>
      <use x="532.861328" xlink:href="#DejaVuSans-32"/>
      <use x="564.648438" xlink:href="#DejaVuSans-40"/>
      <use x="603.662109" xlink:href="#DejaVuSans-65"/>
      <use x="672.070312" xlink:href="#DejaVuSans-85"/>
      <use x="745.263672" xlink:href="#DejaVuSans-67"/>
      <use x="815.087891" xlink:href="#DejaVuSans-32"/>
      <use x="846.875" xlink:href="#DejaVuSans-61"/>
      <use x="930.664062" xlink:href="#DejaVuSans-32"/>
      <use x="962.451172" xlink:href="#DejaVuSans-48"/>
      <use x="1026.074219" xlink:href="#DejaVuSans-46"/>
      <use x="1057.861328" xlink:href="#DejaVuSans-53"/>
      <use x="1121.484375" xlink:href="#DejaVuSans-50"/>
      <use x="1185.107422" xlink:href="#DejaVuSans-41"/>
     </g>
    </g>
    <g id="line2d_37">
     <path d="M 254.6 200.991562 
L 274.6 200.991562 
" style="fill:none;stroke:#e377c2;stroke-linecap:square;stroke-opacity:0.3;"/>
    </g>
    <g id="line2d_38"/>
    <g id="text_22">
     <!-- ROC fold 6 (AUC = 0.54) -->
     <g transform="translate(282.6 204.491562)scale(0.1 -0.1)">
      <use xlink:href="#DejaVuSans-82"/>
      <use x="69.482422" xlink:href="#DejaVuSans-79"/>
      <use x="148.193359" xlink:href="#DejaVuSans-67"/>
      <use x="218.017578" xlink:href="#DejaVuSans-32"/>
      <use x="249.804688" xlink:href="#DejaVuSans-102"/>
      <use x="285.009766" xlink:href="#DejaVuSans-111"/>
      <use x="346.191406" xlink:href="#DejaVuSans-108"/>
      <use x="373.974609" xlink:href="#DejaVuSans-100"/>
      <use x="437.451172" xlink:href="#DejaVuSans-32"/>
      <use x="469.238281" xlink:href="#DejaVuSans-54"/>
      <use x="532.861328" xlink:href="#DejaVuSans-32"/>
      <use x="564.648438" xlink:href="#DejaVuSans-40"/>
      <use x="603.662109" xlink:href="#DejaVuSans-65"/>
      <use x="672.070312" xlink:href="#DejaVuSans-85"/>
      <use x="745.263672" xlink:href="#DejaVuSans-67"/>
      <use x="815.087891" xlink:href="#DejaVuSans-32"/>
      <use x="846.875" xlink:href="#DejaVuSans-61"/>
      <use x="930.664062" xlink:href="#DejaVuSans-32"/>
      <use x="962.451172" xlink:href="#DejaVuSans-48"/>
      <use x="1026.074219" xlink:href="#DejaVuSans-46"/>
      <use x="1057.861328" xlink:href="#DejaVuSans-53"/>
      <use x="1121.484375" xlink:href="#DejaVuSans-52"/>
      <use x="1185.107422" xlink:href="#DejaVuSans-41"/>
     </g>
    </g>
    <g id="line2d_39">
     <path d="M 254.6 215.669688 
L 274.6 215.669688 
" style="fill:none;stroke:#7f7f7f;stroke-linecap:square;stroke-opacity:0.3;"/>
    </g>
    <g id="line2d_40"/>
    <g id="text_23">
     <!-- ROC fold 7 (AUC = 0.47) -->
     <g transform="translate(282.6 219.169688)scale(0.1 -0.1)">
      <use xlink:href="#DejaVuSans-82"/>
      <use x="69.482422" xlink:href="#DejaVuSans-79"/>
      <use x="148.193359" xlink:href="#DejaVuSans-67"/>
      <use x="218.017578" xlink:href="#DejaVuSans-32"/>
      <use x="249.804688" xlink:href="#DejaVuSans-102"/>
      <use x="285.009766" xlink:href="#DejaVuSans-111"/>
      <use x="346.191406" xlink:href="#DejaVuSans-108"/>
      <use x="373.974609" xlink:href="#DejaVuSans-100"/>
      <use x="437.451172" xlink:href="#DejaVuSans-32"/>
      <use x="469.238281" xlink:href="#DejaVuSans-55"/>
      <use x="532.861328" xlink:href="#DejaVuSans-32"/>
      <use x="564.648438" xlink:href="#DejaVuSans-40"/>
      <use x="603.662109" xlink:href="#DejaVuSans-65"/>
      <use x="672.070312" xlink:href="#DejaVuSans-85"/>
      <use x="745.263672" xlink:href="#DejaVuSans-67"/>
      <use x="815.087891" xlink:href="#DejaVuSans-32"/>
      <use x="846.875" xlink:href="#DejaVuSans-61"/>
      <use x="930.664062" xlink:href="#DejaVuSans-32"/>
      <use x="962.451172" xlink:href="#DejaVuSans-48"/>
      <use x="1026.074219" xlink:href="#DejaVuSans-46"/>
      <use x="1057.861328" xlink:href="#DejaVuSans-52"/>
      <use x="1121.484375" xlink:href="#DejaVuSans-55"/>
      <use x="1185.107422" xlink:href="#DejaVuSans-41"/>
     </g>
    </g>
    <g id="line2d_41">
     <path d="M 254.6 230.347812 
L 274.6 230.347812 
" style="fill:none;stroke:#bcbd22;stroke-linecap:square;stroke-opacity:0.3;"/>
    </g>
    <g id="line2d_42"/>
    <g id="text_24">
     <!-- ROC fold 8 (AUC = 0.48) -->
     <g transform="translate(282.6 233.847812)scale(0.1 -0.1)">
      <use xlink:href="#DejaVuSans-82"/>
      <use x="69.482422" xlink:href="#DejaVuSans-79"/>
      <use x="148.193359" xlink:href="#DejaVuSans-67"/>
      <use x="218.017578" xlink:href="#DejaVuSans-32"/>
      <use x="249.804688" xlink:href="#DejaVuSans-102"/>
      <use x="285.009766" xlink:href="#DejaVuSans-111"/>
      <use x="346.191406" xlink:href="#DejaVuSans-108"/>
      <use x="373.974609" xlink:href="#DejaVuSans-100"/>
      <use x="437.451172" xlink:href="#DejaVuSans-32"/>
      <use x="469.238281" xlink:href="#DejaVuSans-56"/>
      <use x="532.861328" xlink:href="#DejaVuSans-32"/>
      <use x="564.648438" xlink:href="#DejaVuSans-40"/>
      <use x="603.662109" xlink:href="#DejaVuSans-65"/>
      <use x="672.070312" xlink:href="#DejaVuSans-85"/>
      <use x="745.263672" xlink:href="#DejaVuSans-67"/>
      <use x="815.087891" xlink:href="#DejaVuSans-32"/>
      <use x="846.875" xlink:href="#DejaVuSans-61"/>
      <use x="930.664062" xlink:href="#DejaVuSans-32"/>
      <use x="962.451172" xlink:href="#DejaVuSans-48"/>
      <use x="1026.074219" xlink:href="#DejaVuSans-46"/>
      <use x="1057.861328" xlink:href="#DejaVuSans-52"/>
      <use x="1121.484375" xlink:href="#DejaVuSans-56"/>
      <use x="1185.107422" xlink:href="#DejaVuSans-41"/>
     </g>
    </g>
    <g id="line2d_43">
     <path d="M 254.6 245.025937 
L 274.6 245.025937 
" style="fill:none;stroke:#17becf;stroke-linecap:square;stroke-opacity:0.3;"/>
    </g>
    <g id="line2d_44"/>
    <g id="text_25">
     <!-- ROC fold 9 (AUC = 0.47) -->
     <g transform="translate(282.6 248.525937)scale(0.1 -0.1)">
      <use xlink:href="#DejaVuSans-82"/>
      <use x="69.482422" xlink:href="#DejaVuSans-79"/>
      <use x="148.193359" xlink:href="#DejaVuSans-67"/>
      <use x="218.017578" xlink:href="#DejaVuSans-32"/>
      <use x="249.804688" xlink:href="#DejaVuSans-102"/>
      <use x="285.009766" xlink:href="#DejaVuSans-111"/>
      <use x="346.191406" xlink:href="#DejaVuSans-108"/>
      <use x="373.974609" xlink:href="#DejaVuSans-100"/>
      <use x="437.451172" xlink:href="#DejaVuSans-32"/>
      <use x="469.238281" xlink:href="#DejaVuSans-57"/>
      <use x="532.861328" xlink:href="#DejaVuSans-32"/>
      <use x="564.648438" xlink:href="#DejaVuSans-40"/>
      <use x="603.662109" xlink:href="#DejaVuSans-65"/>
      <use x="672.070312" xlink:href="#DejaVuSans-85"/>
      <use x="745.263672" xlink:href="#DejaVuSans-67"/>
      <use x="815.087891" xlink:href="#DejaVuSans-32"/>
      <use x="846.875" xlink:href="#DejaVuSans-61"/>
      <use x="930.664062" xlink:href="#DejaVuSans-32"/>
      <use x="962.451172" xlink:href="#DejaVuSans-48"/>
      <use x="1026.074219" xlink:href="#DejaVuSans-46"/>
      <use x="1057.861328" xlink:href="#DejaVuSans-52"/>
      <use x="1121.484375" xlink:href="#DejaVuSans-55"/>
      <use x="1185.107422" xlink:href="#DejaVuSans-41"/>
     </g>
    </g>
    <g id="line2d_45">
     <path d="M 254.6 259.704062 
L 274.6 259.704062 
" style="fill:none;stroke:#ff0000;stroke-dasharray:7.4,3.2;stroke-dashoffset:0;stroke-opacity:0.8;stroke-width:2;"/>
    </g>
    <g id="line2d_46"/>
    <g id="text_26">
     <!-- Chance -->
     <g transform="translate(282.6 263.204062)scale(0.1 -0.1)">
      <use xlink:href="#DejaVuSans-67"/>
      <use x="69.824219" xlink:href="#DejaVuSans-104"/>
      <use x="133.203125" xlink:href="#DejaVuSans-97"/>
      <use x="194.482422" xlink:href="#DejaVuSans-110"/>
      <use x="257.861328" xlink:href="#DejaVuSans-99"/>
      <use x="312.841797" xlink:href="#DejaVuSans-101"/>
     </g>
    </g>
    <g id="line2d_47">
     <path d="M 254.6 274.382187 
L 274.6 274.382187 
" style="fill:none;stroke:#0000ff;stroke-linecap:square;stroke-opacity:0.8;stroke-width:2;"/>
    </g>
    <g id="line2d_48"/>
    <g id="text_27">
     <!-- Mean ROC (AUC = 0.49 $\pm$ 0.03) -->
     <defs>
      <path d="M 9.8125 72.90625 
L 24.515625 72.90625 
L 43.109375 23.296875 
L 61.8125 72.90625 
L 76.515625 72.90625 
L 76.515625 0 
L 66.890625 0 
L 66.890625 64.015625 
L 48.09375 14.015625 
L 38.1875 14.015625 
L 19.390625 64.015625 
L 19.390625 0 
L 9.8125 0 
z
" id="DejaVuSans-77"/>
      <path d="M 46 62.703125 
L 46 43.796875 
L 73.1875 43.796875 
L 73.1875 35.5 
L 46 35.5 
L 46 16.609375 
L 37.796875 16.609375 
L 37.796875 35.5 
L 10.59375 35.5 
L 10.59375 43.796875 
L 37.796875 43.796875 
L 37.796875 62.703125 
z
M 10.59375 8.296875 
L 73.1875 8.296875 
L 73.1875 0 
L 10.59375 0 
z
" id="DejaVuSans-177"/>
     </defs>
     <g transform="translate(282.6 277.882187)scale(0.1 -0.1)">
      <use transform="translate(0 0.125)" xlink:href="#DejaVuSans-77"/>
      <use transform="translate(86.279297 0.125)" xlink:href="#DejaVuSans-101"/>
      <use transform="translate(147.802734 0.125)" xlink:href="#DejaVuSans-97"/>
      <use transform="translate(209.082031 0.125)" xlink:href="#DejaVuSans-110"/>
      <use transform="translate(272.460938 0.125)" xlink:href="#DejaVuSans-32"/>
      <use transform="translate(304.248047 0.125)" xlink:href="#DejaVuSans-82"/>
      <use transform="translate(373.730469 0.125)" xlink:href="#DejaVuSans-79"/>
      <use transform="translate(452.441406 0.125)" xlink:href="#DejaVuSans-67"/>
      <use transform="translate(522.265625 0.125)" xlink:href="#DejaVuSans-32"/>
      <use transform="translate(554.052734 0.125)" xlink:href="#DejaVuSans-40"/>
      <use transform="translate(593.066406 0.125)" xlink:href="#DejaVuSans-65"/>
      <use transform="translate(661.474609 0.125)" xlink:href="#DejaVuSans-85"/>
      <use transform="translate(734.667969 0.125)" xlink:href="#DejaVuSans-67"/>
      <use transform="translate(804.492188 0.125)" xlink:href="#DejaVuSans-32"/>
      <use transform="translate(836.279297 0.125)" xlink:href="#DejaVuSans-61"/>
      <use transform="translate(920.068359 0.125)" xlink:href="#DejaVuSans-32"/>
      <use transform="translate(951.855469 0.125)" xlink:href="#DejaVuSans-48"/>
      <use transform="translate(1015.478516 0.125)" xlink:href="#DejaVuSans-46"/>
      <use transform="translate(1047.265625 0.125)" xlink:href="#DejaVuSans-52"/>
      <use transform="translate(1110.888672 0.125)" xlink:href="#DejaVuSans-57"/>
      <use transform="translate(1174.511719 0.125)" xlink:href="#DejaVuSans-32"/>
      <use transform="translate(1206.298828 0.125)" xlink:href="#DejaVuSans-177"/>
      <use transform="translate(1290.087891 0.125)" xlink:href="#DejaVuSans-32"/>
      <use transform="translate(1321.875 0.125)" xlink:href="#DejaVuSans-48"/>
      <use transform="translate(1385.498047 0.125)" xlink:href="#DejaVuSans-46"/>
      <use transform="translate(1417.285156 0.125)" xlink:href="#DejaVuSans-48"/>
      <use transform="translate(1480.908203 0.125)" xlink:href="#DejaVuSans-51"/>
      <use transform="translate(1544.53125 0.125)" xlink:href="#DejaVuSans-41"/>
     </g>
    </g>
    <g id="patch_8">
     <path d="M 254.6 292.560312 
L 274.6 292.560312 
L 274.6 285.560312 
L 254.6 285.560312 
z
" style="fill:#808080;opacity:0.2;stroke:#808080;stroke-linejoin:miter;"/>
    </g>
    <g id="text_28">
     <!-- $\pm$ 1 std. dev. -->
     <g transform="translate(282.6 292.560312)scale(0.1 -0.1)">
      <use transform="translate(0 0.015625)" xlink:href="#DejaVuSans-177"/>
      <use transform="translate(83.789062 0.015625)" xlink:href="#DejaVuSans-32"/>
      <use transform="translate(115.576172 0.015625)" xlink:href="#DejaVuSans-49"/>
      <use transform="translate(179.199219 0.015625)" xlink:href="#DejaVuSans-32"/>
      <use transform="translate(210.986328 0.015625)" xlink:href="#DejaVuSans-115"/>
      <use transform="translate(263.085938 0.015625)" xlink:href="#DejaVuSans-116"/>
      <use transform="translate(302.294922 0.015625)" xlink:href="#DejaVuSans-100"/>
      <use transform="translate(365.771484 0.015625)" xlink:href="#DejaVuSans-46"/>
      <use transform="translate(397.558594 0.015625)" xlink:href="#DejaVuSans-32"/>
      <use transform="translate(429.345703 0.015625)" xlink:href="#DejaVuSans-100"/>
      <use transform="translate(492.822266 0.015625)" xlink:href="#DejaVuSans-101"/>
      <use transform="translate(554.345703 0.015625)" xlink:href="#DejaVuSans-118"/>
      <use transform="translate(613.525391 0.015625)" xlink:href="#DejaVuSans-46"/>
     </g>
    </g>
   </g>
  </g>
 </g>
 <defs>
  <clipPath id="paa21d86c9b">
   <rect height="278.2" width="402.28" x="47.72" y="25.44"/>
  </clipPath>
 </defs>
</svg>
