<?xml version="1.0" encoding="utf-8" standalone="no"?>
<!DOCTYPE svg PUBLIC "-//W3C//DTD SVG 1.1//EN"
  "http://www.w3.org/Graphics/SVG/1.1/DTD/svg11.dtd">
<!-- Created with matplotlib (https://matplotlib.org/) -->
<svg height="345.6pt" version="1.1" viewBox="0 0 460.8 345.6" width="460.8pt" xmlns="http://www.w3.org/2000/svg" xmlns:xlink="http://www.w3.org/1999/xlink">
 <defs>
  <style type="text/css">
*{stroke-linecap:butt;stroke-linejoin:round;white-space:pre;}
  </style>
 </defs>
 <g id="figure_1">
  <g id="patch_1">
   <path d="M 0 345.6 
L 460.8 345.6 
L 460.8 0 
L 0 0 
z
" style="fill:#ffffff;"/>
  </g>
  <g id="axes_1">
   <g id="patch_2">
    <path d="M 47.72 303.64 
L 450 303.64 
L 450 25.44 
L 47.72 25.44 
z
" style="fill:#ffffff;"/>
   </g>
   <g id="PolyCollection_1">
    <defs>
     <path d="M 66.005455 -54.605455 
L 66.005455 -54.605455 
L 69.699486 -61.942179 
L 73.393517 -66.070745 
L 77.087548 -72.214028 
L 80.781579 -78.594514 
L 84.475611 -88.971671 
L 88.169642 -92.392233 
L 91.863673 -94.843661 
L 95.557704 -100.337406 
L 99.251736 -100.597121 
L 102.945767 -105.489315 
L 106.639798 -107.033981 
L 110.333829 -108.967997 
L 114.02786 -111.390257 
L 117.721892 -113.94292 
L 121.415923 -121.46111 
L 125.109954 -123.728625 
L 128.803985 -127.376022 
L 132.498017 -130.530251 
L 136.192048 -133.576583 
L 139.886079 -138.974894 
L 143.58011 -141.594264 
L 147.274141 -152.725865 
L 150.968173 -153.32649 
L 154.662204 -154.69049 
L 158.356235 -162.796302 
L 162.050266 -166.283503 
L 165.744298 -171.112682 
L 169.438329 -172.530318 
L 173.13236 -177.1058 
L 176.826391 -179.935812 
L 180.520422 -182.752404 
L 184.214454 -183.395955 
L 187.908485 -185.379169 
L 191.602516 -185.84929 
L 195.296547 -186.56898 
L 198.990579 -191.522993 
L 202.68461 -194.830951 
L 206.378641 -200.532921 
L 210.072672 -202.208041 
L 213.766703 -206.213364 
L 217.460735 -207.835979 
L 221.154766 -209.638572 
L 224.848797 -214.271875 
L 228.542828 -215.748964 
L 232.23686 -216.156262 
L 235.930891 -218.418598 
L 239.624922 -220.955294 
L 243.318953 -222.720103 
L 247.012984 -225.826336 
L 250.707016 -233.660336 
L 254.401047 -234.207776 
L 258.095078 -237.175163 
L 261.789109 -242.160334 
L 265.48314 -246.071293 
L 269.177172 -246.94153 
L 272.871203 -250.442811 
L 276.565234 -254.104513 
L 280.259265 -256.93592 
L 283.953297 -259.425823 
L 287.647328 -260.435466 
L 291.341359 -262.460517 
L 295.03539 -263.570316 
L 298.729421 -265.988108 
L 302.423453 -267.581261 
L 306.117484 -269.784485 
L 309.811515 -270.169848 
L 313.505546 -270.592206 
L 317.199578 -271.021804 
L 320.893609 -271.260918 
L 324.58764 -271.740861 
L 328.281671 -272.791764 
L 331.975702 -274.675443 
L 335.669734 -275.431203 
L 339.363765 -275.488768 
L 343.057796 -276.235178 
L 346.751827 -278.90478 
L 350.445859 -278.971401 
L 354.13989 -279.511573 
L 357.833921 -282.350717 
L 361.527952 -282.716836 
L 365.221983 -283.635349 
L 368.916015 -284.70521 
L 372.610046 -285.071379 
L 376.304077 -286.169361 
L 379.998108 -287.047467 
L 383.69214 -287.047467 
L 387.386171 -289.052913 
L 391.080202 -290.124264 
L 394.774233 -291.72459 
L 398.468264 -293.385526 
L 402.162296 -294.504048 
L 405.856327 -295.718919 
L 409.550358 -296.813298 
L 413.244389 -299.555512 
L 416.938421 -300.583183 
L 420.632452 -301.461197 
L 424.326483 -301.932229 
L 428.020514 -303.60862 
L 431.714545 -307.514545 
L 431.714545 -307.514545 
L 431.714545 -307.514545 
L 428.020514 -307.514545 
L 424.326483 -307.238978 
L 420.632452 -306.177228 
L 416.938421 -304.929536 
L 413.244389 -304.614327 
L 409.550358 -303.953691 
L 405.856327 -303.047445 
L 402.162296 -302.406247 
L 398.468264 -302.283318 
L 394.774233 -299.61011 
L 391.080202 -298.212693 
L 387.386171 -297.366936 
L 383.69214 -297.271849 
L 379.998108 -297.271849 
L 376.304077 -294.962311 
L 372.610046 -294.77167 
L 368.916015 -294.02299 
L 365.221983 -292.587949 
L 361.527952 -290.704492 
L 357.833921 -290.622984 
L 354.13989 -290.342305 
L 350.445859 -290.421286 
L 346.751827 -288.193255 
L 343.057796 -286.948906 
L 339.363765 -286.216791 
L 335.669734 -285.379103 
L 331.975702 -284.873369 
L 328.281671 -284.434963 
L 324.58764 -284.061599 
L 320.893609 -283.691504 
L 317.199578 -283.655503 
L 313.505546 -281.596982 
L 309.811515 -281.124086 
L 306.117484 -280.614196 
L 302.423453 -280.176875 
L 298.729421 -279.812225 
L 295.03539 -279.527678 
L 291.341359 -278.741919 
L 287.647328 -275.798759 
L 283.953297 -274.448189 
L 280.259265 -273.562806 
L 276.565234 -272.023591 
L 272.871203 -269.660115 
L 269.177172 -266.966965 
L 265.48314 -266.779176 
L 261.789109 -263.867349 
L 258.095078 -260.40187 
L 254.401047 -257.355686 
L 250.707016 -252.99129 
L 247.012984 -251.297774 
L 243.318953 -250.10573 
L 239.624922 -246.22215 
L 235.930891 -243.189888 
L 232.23686 -241.79133 
L 228.542828 -240.710756 
L 224.848797 -238.903742 
L 221.154766 -235.380886 
L 217.460735 -232.551815 
L 213.766703 -229.236218 
L 210.072672 -226.679074 
L 206.378641 -225.56757 
L 202.68461 -223.316253 
L 198.990579 -220.937515 
L 195.296547 -218.253547 
L 191.602516 -215.600535 
L 187.908485 -213.873864 
L 184.214454 -211.361541 
L 180.520422 -208.953538 
L 176.826391 -207.609525 
L 173.13236 -205.123473 
L 169.438329 -202.608367 
L 165.744298 -201.336774 
L 162.050266 -198.710472 
L 158.356235 -195.255756 
L 154.662204 -190.961621 
L 150.968173 -187.620715 
L 147.274141 -184.848314 
L 143.58011 -173.716138 
L 139.886079 -169.952828 
L 136.192048 -165.801465 
L 132.498017 -162.045227 
L 128.803985 -159.77533 
L 125.109954 -154.935905 
L 121.415923 -150.172168 
L 117.721892 -144.878174 
L 114.02786 -144.081767 
L 110.333829 -140.503716 
L 106.639798 -137.76478 
L 102.945767 -133.451562 
L 99.251736 -128.747954 
L 95.557704 -122.928536 
L 91.863673 -118.779612 
L 88.169642 -114.914531 
L 84.475611 -105.005764 
L 80.781579 -99.489912 
L 77.087548 -88.500821 
L 73.393517 -82.441972 
L 69.699486 -76.427028 
L 66.005455 -54.605455 
z
" id="mdbee70a292" style="stroke:#808080;stroke-opacity:0.2;"/>
    </defs>
    <g clip-path="url(#p6a8e513008)">
     <use style="fill:#808080;fill-opacity:0.2;stroke:#808080;stroke-opacity:0.2;" x="0" xlink:href="#mdbee70a292" y="345.6"/>
    </g>
   </g>
   <g id="matplotlib.axis_1">
    <g id="xtick_1">
     <g id="line2d_1">
      <defs>
       <path d="M 0 0 
L 0 3.5 
" id="m026a4a73b7" style="stroke:#000000;stroke-width:0.8;"/>
      </defs>
      <g>
       <use style="stroke:#000000;stroke-width:0.8;" x="66.005455" xlink:href="#m026a4a73b7" y="303.64"/>
      </g>
     </g>
     <g id="text_1">
      <!-- 0.0 -->
      <defs>
       <path d="M 31.78125 66.40625 
Q 24.171875 66.40625 20.328125 58.90625 
Q 16.5 51.421875 16.5 36.375 
Q 16.5 21.390625 20.328125 13.890625 
Q 24.171875 6.390625 31.78125 6.390625 
Q 39.453125 6.390625 43.28125 13.890625 
Q 47.125 21.390625 47.125 36.375 
Q 47.125 51.421875 43.28125 58.90625 
Q 39.453125 66.40625 31.78125 66.40625 
z
M 31.78125 74.21875 
Q 44.046875 74.21875 50.515625 64.515625 
Q 56.984375 54.828125 56.984375 36.375 
Q 56.984375 17.96875 50.515625 8.265625 
Q 44.046875 -1.421875 31.78125 -1.421875 
Q 19.53125 -1.421875 13.0625 8.265625 
Q 6.59375 17.96875 6.59375 36.375 
Q 6.59375 54.828125 13.0625 64.515625 
Q 19.53125 74.21875 31.78125 74.21875 
z
" id="DejaVuSans-48"/>
       <path d="M 10.6875 12.40625 
L 21 12.40625 
L 21 0 
L 10.6875 0 
z
" id="DejaVuSans-46"/>
      </defs>
      <g transform="translate(58.053892 318.238437)scale(0.1 -0.1)">
       <use xlink:href="#DejaVuSans-48"/>
       <use x="63.623047" xlink:href="#DejaVuSans-46"/>
       <use x="95.410156" xlink:href="#DejaVuSans-48"/>
      </g>
     </g>
    </g>
    <g id="xtick_2">
     <g id="line2d_2">
      <g>
       <use style="stroke:#000000;stroke-width:0.8;" x="139.147273" xlink:href="#m026a4a73b7" y="303.64"/>
      </g>
     </g>
     <g id="text_2">
      <!-- 0.2 -->
      <defs>
       <path d="M 19.1875 8.296875 
L 53.609375 8.296875 
L 53.609375 0 
L 7.328125 0 
L 7.328125 8.296875 
Q 12.9375 14.109375 22.625 23.890625 
Q 32.328125 33.6875 34.8125 36.53125 
Q 39.546875 41.84375 41.421875 45.53125 
Q 43.3125 49.21875 43.3125 52.78125 
Q 43.3125 58.59375 39.234375 62.25 
Q 35.15625 65.921875 28.609375 65.921875 
Q 23.96875 65.921875 18.8125 64.3125 
Q 13.671875 62.703125 7.8125 59.421875 
L 7.8125 69.390625 
Q 13.765625 71.78125 18.9375 73 
Q 24.125 74.21875 28.421875 74.21875 
Q 39.75 74.21875 46.484375 68.546875 
Q 53.21875 62.890625 53.21875 53.421875 
Q 53.21875 48.921875 51.53125 44.890625 
Q 49.859375 40.875 45.40625 35.40625 
Q 44.1875 33.984375 37.640625 27.21875 
Q 31.109375 20.453125 19.1875 8.296875 
z
" id="DejaVuSans-50"/>
      </defs>
      <g transform="translate(131.19571 318.238437)scale(0.1 -0.1)">
       <use xlink:href="#DejaVuSans-48"/>
       <use x="63.623047" xlink:href="#DejaVuSans-46"/>
       <use x="95.410156" xlink:href="#DejaVuSans-50"/>
      </g>
     </g>
    </g>
    <g id="xtick_3">
     <g id="line2d_3">
      <g>
       <use style="stroke:#000000;stroke-width:0.8;" x="212.289091" xlink:href="#m026a4a73b7" y="303.64"/>
      </g>
     </g>
     <g id="text_3">
      <!-- 0.4 -->
      <defs>
       <path d="M 37.796875 64.3125 
L 12.890625 25.390625 
L 37.796875 25.390625 
z
M 35.203125 72.90625 
L 47.609375 72.90625 
L 47.609375 25.390625 
L 58.015625 25.390625 
L 58.015625 17.1875 
L 47.609375 17.1875 
L 47.609375 0 
L 37.796875 0 
L 37.796875 17.1875 
L 4.890625 17.1875 
L 4.890625 26.703125 
z
" id="DejaVuSans-52"/>
      </defs>
      <g transform="translate(204.337528 318.238437)scale(0.1 -0.1)">
       <use xlink:href="#DejaVuSans-48"/>
       <use x="63.623047" xlink:href="#DejaVuSans-46"/>
       <use x="95.410156" xlink:href="#DejaVuSans-52"/>
      </g>
     </g>
    </g>
    <g id="xtick_4">
     <g id="line2d_4">
      <g>
       <use style="stroke:#000000;stroke-width:0.8;" x="285.430909" xlink:href="#m026a4a73b7" y="303.64"/>
      </g>
     </g>
     <g id="text_4">
      <!-- 0.6 -->
      <defs>
       <path d="M 33.015625 40.375 
Q 26.375 40.375 22.484375 35.828125 
Q 18.609375 31.296875 18.609375 23.390625 
Q 18.609375 15.53125 22.484375 10.953125 
Q 26.375 6.390625 33.015625 6.390625 
Q 39.65625 6.390625 43.53125 10.953125 
Q 47.40625 15.53125 47.40625 23.390625 
Q 47.40625 31.296875 43.53125 35.828125 
Q 39.65625 40.375 33.015625 40.375 
z
M 52.59375 71.296875 
L 52.59375 62.3125 
Q 48.875 64.0625 45.09375 64.984375 
Q 41.3125 65.921875 37.59375 65.921875 
Q 27.828125 65.921875 22.671875 59.328125 
Q 17.53125 52.734375 16.796875 39.40625 
Q 19.671875 43.65625 24.015625 45.921875 
Q 28.375 48.1875 33.59375 48.1875 
Q 44.578125 48.1875 50.953125 41.515625 
Q 57.328125 34.859375 57.328125 23.390625 
Q 57.328125 12.15625 50.6875 5.359375 
Q 44.046875 -1.421875 33.015625 -1.421875 
Q 20.359375 -1.421875 13.671875 8.265625 
Q 6.984375 17.96875 6.984375 36.375 
Q 6.984375 53.65625 15.1875 63.9375 
Q 23.390625 74.21875 37.203125 74.21875 
Q 40.921875 74.21875 44.703125 73.484375 
Q 48.484375 72.75 52.59375 71.296875 
z
" id="DejaVuSans-54"/>
      </defs>
      <g transform="translate(277.479347 318.238437)scale(0.1 -0.1)">
       <use xlink:href="#DejaVuSans-48"/>
       <use x="63.623047" xlink:href="#DejaVuSans-46"/>
       <use x="95.410156" xlink:href="#DejaVuSans-54"/>
      </g>
     </g>
    </g>
    <g id="xtick_5">
     <g id="line2d_5">
      <g>
       <use style="stroke:#000000;stroke-width:0.8;" x="358.572727" xlink:href="#m026a4a73b7" y="303.64"/>
      </g>
     </g>
     <g id="text_5">
      <!-- 0.8 -->
      <defs>
       <path d="M 31.78125 34.625 
Q 24.75 34.625 20.71875 30.859375 
Q 16.703125 27.09375 16.703125 20.515625 
Q 16.703125 13.921875 20.71875 10.15625 
Q 24.75 6.390625 31.78125 6.390625 
Q 38.8125 6.390625 42.859375 10.171875 
Q 46.921875 13.96875 46.921875 20.515625 
Q 46.921875 27.09375 42.890625 30.859375 
Q 38.875 34.625 31.78125 34.625 
z
M 21.921875 38.8125 
Q 15.578125 40.375 12.03125 44.71875 
Q 8.5 49.078125 8.5 55.328125 
Q 8.5 64.0625 14.71875 69.140625 
Q 20.953125 74.21875 31.78125 74.21875 
Q 42.671875 74.21875 48.875 69.140625 
Q 55.078125 64.0625 55.078125 55.328125 
Q 55.078125 49.078125 51.53125 44.71875 
Q 48 40.375 41.703125 38.8125 
Q 48.828125 37.15625 52.796875 32.3125 
Q 56.78125 27.484375 56.78125 20.515625 
Q 56.78125 9.90625 50.3125 4.234375 
Q 43.84375 -1.421875 31.78125 -1.421875 
Q 19.734375 -1.421875 13.25 4.234375 
Q 6.78125 9.90625 6.78125 20.515625 
Q 6.78125 27.484375 10.78125 32.3125 
Q 14.796875 37.15625 21.921875 38.8125 
z
M 18.3125 54.390625 
Q 18.3125 48.734375 21.84375 45.5625 
Q 25.390625 42.390625 31.78125 42.390625 
Q 38.140625 42.390625 41.71875 45.5625 
Q 45.3125 48.734375 45.3125 54.390625 
Q 45.3125 60.0625 41.71875 63.234375 
Q 38.140625 66.40625 31.78125 66.40625 
Q 25.390625 66.40625 21.84375 63.234375 
Q 18.3125 60.0625 18.3125 54.390625 
z
" id="DejaVuSans-56"/>
      </defs>
      <g transform="translate(350.621165 318.238437)scale(0.1 -0.1)">
       <use xlink:href="#DejaVuSans-48"/>
       <use x="63.623047" xlink:href="#DejaVuSans-46"/>
       <use x="95.410156" xlink:href="#DejaVuSans-56"/>
      </g>
     </g>
    </g>
    <g id="xtick_6">
     <g id="line2d_6">
      <g>
       <use style="stroke:#000000;stroke-width:0.8;" x="431.714545" xlink:href="#m026a4a73b7" y="303.64"/>
      </g>
     </g>
     <g id="text_6">
      <!-- 1.0 -->
      <defs>
       <path d="M 12.40625 8.296875 
L 28.515625 8.296875 
L 28.515625 63.921875 
L 10.984375 60.40625 
L 10.984375 69.390625 
L 28.421875 72.90625 
L 38.28125 72.90625 
L 38.28125 8.296875 
L 54.390625 8.296875 
L 54.390625 0 
L 12.40625 0 
z
" id="DejaVuSans-49"/>
      </defs>
      <g transform="translate(423.762983 318.238437)scale(0.1 -0.1)">
       <use xlink:href="#DejaVuSans-49"/>
       <use x="63.623047" xlink:href="#DejaVuSans-46"/>
       <use x="95.410156" xlink:href="#DejaVuSans-48"/>
      </g>
     </g>
    </g>
    <g id="text_7">
     <!-- False Positive Rate -->
     <defs>
      <path d="M 9.8125 72.90625 
L 51.703125 72.90625 
L 51.703125 64.59375 
L 19.671875 64.59375 
L 19.671875 43.109375 
L 48.578125 43.109375 
L 48.578125 34.8125 
L 19.671875 34.8125 
L 19.671875 0 
L 9.8125 0 
z
" id="DejaVuSans-70"/>
      <path d="M 34.28125 27.484375 
Q 23.390625 27.484375 19.1875 25 
Q 14.984375 22.515625 14.984375 16.5 
Q 14.984375 11.71875 18.140625 8.90625 
Q 21.296875 6.109375 26.703125 6.109375 
Q 34.1875 6.109375 38.703125 11.40625 
Q 43.21875 16.703125 43.21875 25.484375 
L 43.21875 27.484375 
z
M 52.203125 31.203125 
L 52.203125 0 
L 43.21875 0 
L 43.21875 8.296875 
Q 40.140625 3.328125 35.546875 0.953125 
Q 30.953125 -1.421875 24.3125 -1.421875 
Q 15.921875 -1.421875 10.953125 3.296875 
Q 6 8.015625 6 15.921875 
Q 6 25.140625 12.171875 29.828125 
Q 18.359375 34.515625 30.609375 34.515625 
L 43.21875 34.515625 
L 43.21875 35.40625 
Q 43.21875 41.609375 39.140625 45 
Q 35.0625 48.390625 27.6875 48.390625 
Q 23 48.390625 18.546875 47.265625 
Q 14.109375 46.140625 10.015625 43.890625 
L 10.015625 52.203125 
Q 14.9375 54.109375 19.578125 55.046875 
Q 24.21875 56 28.609375 56 
Q 40.484375 56 46.34375 49.84375 
Q 52.203125 43.703125 52.203125 31.203125 
z
" id="DejaVuSans-97"/>
      <path d="M 9.421875 75.984375 
L 18.40625 75.984375 
L 18.40625 0 
L 9.421875 0 
z
" id="DejaVuSans-108"/>
      <path d="M 44.28125 53.078125 
L 44.28125 44.578125 
Q 40.484375 46.53125 36.375 47.5 
Q 32.28125 48.484375 27.875 48.484375 
Q 21.1875 48.484375 17.84375 46.4375 
Q 14.5 44.390625 14.5 40.28125 
Q 14.5 37.15625 16.890625 35.375 
Q 19.28125 33.59375 26.515625 31.984375 
L 29.59375 31.296875 
Q 39.15625 29.25 43.1875 25.515625 
Q 47.21875 21.78125 47.21875 15.09375 
Q 47.21875 7.46875 41.1875 3.015625 
Q 35.15625 -1.421875 24.609375 -1.421875 
Q 20.21875 -1.421875 15.453125 -0.5625 
Q 10.6875 0.296875 5.421875 2 
L 5.421875 11.28125 
Q 10.40625 8.6875 15.234375 7.390625 
Q 20.0625 6.109375 24.8125 6.109375 
Q 31.15625 6.109375 34.5625 8.28125 
Q 37.984375 10.453125 37.984375 14.40625 
Q 37.984375 18.0625 35.515625 20.015625 
Q 33.0625 21.96875 24.703125 23.78125 
L 21.578125 24.515625 
Q 13.234375 26.265625 9.515625 29.90625 
Q 5.8125 33.546875 5.8125 39.890625 
Q 5.8125 47.609375 11.28125 51.796875 
Q 16.75 56 26.8125 56 
Q 31.78125 56 36.171875 55.265625 
Q 40.578125 54.546875 44.28125 53.078125 
z
" id="DejaVuSans-115"/>
      <path d="M 56.203125 29.59375 
L 56.203125 25.203125 
L 14.890625 25.203125 
Q 15.484375 15.921875 20.484375 11.0625 
Q 25.484375 6.203125 34.421875 6.203125 
Q 39.59375 6.203125 44.453125 7.46875 
Q 49.3125 8.734375 54.109375 11.28125 
L 54.109375 2.78125 
Q 49.265625 0.734375 44.1875 -0.34375 
Q 39.109375 -1.421875 33.890625 -1.421875 
Q 20.796875 -1.421875 13.15625 6.1875 
Q 5.515625 13.8125 5.515625 26.8125 
Q 5.515625 40.234375 12.765625 48.109375 
Q 20.015625 56 32.328125 56 
Q 43.359375 56 49.78125 48.890625 
Q 56.203125 41.796875 56.203125 29.59375 
z
M 47.21875 32.234375 
Q 47.125 39.59375 43.09375 43.984375 
Q 39.0625 48.390625 32.421875 48.390625 
Q 24.90625 48.390625 20.390625 44.140625 
Q 15.875 39.890625 15.1875 32.171875 
z
" id="DejaVuSans-101"/>
      <path id="DejaVuSans-32"/>
      <path d="M 19.671875 64.796875 
L 19.671875 37.40625 
L 32.078125 37.40625 
Q 38.96875 37.40625 42.71875 40.96875 
Q 46.484375 44.53125 46.484375 51.125 
Q 46.484375 57.671875 42.71875 61.234375 
Q 38.96875 64.796875 32.078125 64.796875 
z
M 9.8125 72.90625 
L 32.078125 72.90625 
Q 44.34375 72.90625 50.609375 67.359375 
Q 56.890625 61.8125 56.890625 51.125 
Q 56.890625 40.328125 50.609375 34.8125 
Q 44.34375 29.296875 32.078125 29.296875 
L 19.671875 29.296875 
L 19.671875 0 
L 9.8125 0 
z
" id="DejaVuSans-80"/>
      <path d="M 30.609375 48.390625 
Q 23.390625 48.390625 19.1875 42.75 
Q 14.984375 37.109375 14.984375 27.296875 
Q 14.984375 17.484375 19.15625 11.84375 
Q 23.34375 6.203125 30.609375 6.203125 
Q 37.796875 6.203125 41.984375 11.859375 
Q 46.1875 17.53125 46.1875 27.296875 
Q 46.1875 37.015625 41.984375 42.703125 
Q 37.796875 48.390625 30.609375 48.390625 
z
M 30.609375 56 
Q 42.328125 56 49.015625 48.375 
Q 55.71875 40.765625 55.71875 27.296875 
Q 55.71875 13.875 49.015625 6.21875 
Q 42.328125 -1.421875 30.609375 -1.421875 
Q 18.84375 -1.421875 12.171875 6.21875 
Q 5.515625 13.875 5.515625 27.296875 
Q 5.515625 40.765625 12.171875 48.375 
Q 18.84375 56 30.609375 56 
z
" id="DejaVuSans-111"/>
      <path d="M 9.421875 54.6875 
L 18.40625 54.6875 
L 18.40625 0 
L 9.421875 0 
z
M 9.421875 75.984375 
L 18.40625 75.984375 
L 18.40625 64.59375 
L 9.421875 64.59375 
z
" id="DejaVuSans-105"/>
      <path d="M 18.3125 70.21875 
L 18.3125 54.6875 
L 36.8125 54.6875 
L 36.8125 47.703125 
L 18.3125 47.703125 
L 18.3125 18.015625 
Q 18.3125 11.328125 20.140625 9.421875 
Q 21.96875 7.515625 27.59375 7.515625 
L 36.8125 7.515625 
L 36.8125 0 
L 27.59375 0 
Q 17.1875 0 13.234375 3.875 
Q 9.28125 7.765625 9.28125 18.015625 
L 9.28125 47.703125 
L 2.6875 47.703125 
L 2.6875 54.6875 
L 9.28125 54.6875 
L 9.28125 70.21875 
z
" id="DejaVuSans-116"/>
      <path d="M 2.984375 54.6875 
L 12.5 54.6875 
L 29.59375 8.796875 
L 46.6875 54.6875 
L 56.203125 54.6875 
L 35.6875 0 
L 23.484375 0 
z
" id="DejaVuSans-118"/>
      <path d="M 44.390625 34.1875 
Q 47.5625 33.109375 50.5625 29.59375 
Q 53.5625 26.078125 56.59375 19.921875 
L 66.609375 0 
L 56 0 
L 46.6875 18.703125 
Q 43.0625 26.03125 39.671875 28.421875 
Q 36.28125 30.8125 30.421875 30.8125 
L 19.671875 30.8125 
L 19.671875 0 
L 9.8125 0 
L 9.8125 72.90625 
L 32.078125 72.90625 
Q 44.578125 72.90625 50.734375 67.671875 
Q 56.890625 62.453125 56.890625 51.90625 
Q 56.890625 45.015625 53.6875 40.46875 
Q 50.484375 35.9375 44.390625 34.1875 
z
M 19.671875 64.796875 
L 19.671875 38.921875 
L 32.078125 38.921875 
Q 39.203125 38.921875 42.84375 42.21875 
Q 46.484375 45.515625 46.484375 51.90625 
Q 46.484375 58.296875 42.84375 61.546875 
Q 39.203125 64.796875 32.078125 64.796875 
z
" id="DejaVuSans-82"/>
     </defs>
     <g transform="translate(201.654531 331.916562)scale(0.1 -0.1)">
      <use xlink:href="#DejaVuSans-70"/>
      <use x="57.378906" xlink:href="#DejaVuSans-97"/>
      <use x="118.658203" xlink:href="#DejaVuSans-108"/>
      <use x="146.441406" xlink:href="#DejaVuSans-115"/>
      <use x="198.541016" xlink:href="#DejaVuSans-101"/>
      <use x="260.064453" xlink:href="#DejaVuSans-32"/>
      <use x="291.851562" xlink:href="#DejaVuSans-80"/>
      <use x="352.107422" xlink:href="#DejaVuSans-111"/>
      <use x="413.289062" xlink:href="#DejaVuSans-115"/>
      <use x="465.388672" xlink:href="#DejaVuSans-105"/>
      <use x="493.171875" xlink:href="#DejaVuSans-116"/>
      <use x="532.380859" xlink:href="#DejaVuSans-105"/>
      <use x="560.164062" xlink:href="#DejaVuSans-118"/>
      <use x="619.34375" xlink:href="#DejaVuSans-101"/>
      <use x="680.867188" xlink:href="#DejaVuSans-32"/>
      <use x="712.654297" xlink:href="#DejaVuSans-82"/>
      <use x="782.105469" xlink:href="#DejaVuSans-97"/>
      <use x="843.384766" xlink:href="#DejaVuSans-116"/>
      <use x="882.59375" xlink:href="#DejaVuSans-101"/>
     </g>
    </g>
   </g>
   <g id="matplotlib.axis_2">
    <g id="ytick_1">
     <g id="line2d_7">
      <defs>
       <path d="M 0 0 
L -3.5 0 
" id="m204172921e" style="stroke:#000000;stroke-width:0.8;"/>
      </defs>
      <g>
       <use style="stroke:#000000;stroke-width:0.8;" x="47.72" xlink:href="#m204172921e" y="290.994545"/>
      </g>
     </g>
     <g id="text_8">
      <!-- 0.0 -->
      <g transform="translate(24.816875 294.793764)scale(0.1 -0.1)">
       <use xlink:href="#DejaVuSans-48"/>
       <use x="63.623047" xlink:href="#DejaVuSans-46"/>
       <use x="95.410156" xlink:href="#DejaVuSans-48"/>
      </g>
     </g>
    </g>
    <g id="ytick_2">
     <g id="line2d_8">
      <g>
       <use style="stroke:#000000;stroke-width:0.8;" x="47.72" xlink:href="#m204172921e" y="240.412727"/>
      </g>
     </g>
     <g id="text_9">
      <!-- 0.2 -->
      <g transform="translate(24.816875 244.211946)scale(0.1 -0.1)">
       <use xlink:href="#DejaVuSans-48"/>
       <use x="63.623047" xlink:href="#DejaVuSans-46"/>
       <use x="95.410156" xlink:href="#DejaVuSans-50"/>
      </g>
     </g>
    </g>
    <g id="ytick_3">
     <g id="line2d_9">
      <g>
       <use style="stroke:#000000;stroke-width:0.8;" x="47.72" xlink:href="#m204172921e" y="189.830909"/>
      </g>
     </g>
     <g id="text_10">
      <!-- 0.4 -->
      <g transform="translate(24.816875 193.630128)scale(0.1 -0.1)">
       <use xlink:href="#DejaVuSans-48"/>
       <use x="63.623047" xlink:href="#DejaVuSans-46"/>
       <use x="95.410156" xlink:href="#DejaVuSans-52"/>
      </g>
     </g>
    </g>
    <g id="ytick_4">
     <g id="line2d_10">
      <g>
       <use style="stroke:#000000;stroke-width:0.8;" x="47.72" xlink:href="#m204172921e" y="139.249091"/>
      </g>
     </g>
     <g id="text_11">
      <!-- 0.6 -->
      <g transform="translate(24.816875 143.04831)scale(0.1 -0.1)">
       <use xlink:href="#DejaVuSans-48"/>
       <use x="63.623047" xlink:href="#DejaVuSans-46"/>
       <use x="95.410156" xlink:href="#DejaVuSans-54"/>
      </g>
     </g>
    </g>
    <g id="ytick_5">
     <g id="line2d_11">
      <g>
       <use style="stroke:#000000;stroke-width:0.8;" x="47.72" xlink:href="#m204172921e" y="88.667273"/>
      </g>
     </g>
     <g id="text_12">
      <!-- 0.8 -->
      <g transform="translate(24.816875 92.466491)scale(0.1 -0.1)">
       <use xlink:href="#DejaVuSans-48"/>
       <use x="63.623047" xlink:href="#DejaVuSans-46"/>
       <use x="95.410156" xlink:href="#DejaVuSans-56"/>
      </g>
     </g>
    </g>
    <g id="ytick_6">
     <g id="line2d_12">
      <g>
       <use style="stroke:#000000;stroke-width:0.8;" x="47.72" xlink:href="#m204172921e" y="38.085455"/>
      </g>
     </g>
     <g id="text_13">
      <!-- 1.0 -->
      <g transform="translate(24.816875 41.884673)scale(0.1 -0.1)">
       <use xlink:href="#DejaVuSans-49"/>
       <use x="63.623047" xlink:href="#DejaVuSans-46"/>
       <use x="95.410156" xlink:href="#DejaVuSans-48"/>
      </g>
     </g>
    </g>
    <g id="text_14">
     <!-- True Positive Rate -->
     <defs>
      <path d="M -0.296875 72.90625 
L 61.375 72.90625 
L 61.375 64.59375 
L 35.5 64.59375 
L 35.5 0 
L 25.59375 0 
L 25.59375 64.59375 
L -0.296875 64.59375 
z
" id="DejaVuSans-84"/>
      <path d="M 41.109375 46.296875 
Q 39.59375 47.171875 37.8125 47.578125 
Q 36.03125 48 33.890625 48 
Q 26.265625 48 22.1875 43.046875 
Q 18.109375 38.09375 18.109375 28.8125 
L 18.109375 0 
L 9.078125 0 
L 9.078125 54.6875 
L 18.109375 54.6875 
L 18.109375 46.1875 
Q 20.953125 51.171875 25.484375 53.578125 
Q 30.03125 56 36.53125 56 
Q 37.453125 56 38.578125 55.875 
Q 39.703125 55.765625 41.0625 55.515625 
z
" id="DejaVuSans-114"/>
      <path d="M 8.5 21.578125 
L 8.5 54.6875 
L 17.484375 54.6875 
L 17.484375 21.921875 
Q 17.484375 14.15625 20.5 10.265625 
Q 23.53125 6.390625 29.59375 6.390625 
Q 36.859375 6.390625 41.078125 11.03125 
Q 45.3125 15.671875 45.3125 23.6875 
L 45.3125 54.6875 
L 54.296875 54.6875 
L 54.296875 0 
L 45.3125 0 
L 45.3125 8.40625 
Q 42.046875 3.421875 37.71875 1 
Q 33.40625 -1.421875 27.6875 -1.421875 
Q 18.265625 -1.421875 13.375 4.4375 
Q 8.5 10.296875 8.5 21.578125 
z
M 31.109375 56 
z
" id="DejaVuSans-117"/>
     </defs>
     <g transform="translate(18.737187 210.086094)rotate(-90)scale(0.1 -0.1)">
      <use xlink:href="#DejaVuSans-84"/>
      <use x="60.865234" xlink:href="#DejaVuSans-114"/>
      <use x="101.978516" xlink:href="#DejaVuSans-117"/>
      <use x="165.357422" xlink:href="#DejaVuSans-101"/>
      <use x="226.880859" xlink:href="#DejaVuSans-32"/>
      <use x="258.667969" xlink:href="#DejaVuSans-80"/>
      <use x="318.923828" xlink:href="#DejaVuSans-111"/>
      <use x="380.105469" xlink:href="#DejaVuSans-115"/>
      <use x="432.205078" xlink:href="#DejaVuSans-105"/>
      <use x="459.988281" xlink:href="#DejaVuSans-116"/>
      <use x="499.197266" xlink:href="#DejaVuSans-105"/>
      <use x="526.980469" xlink:href="#DejaVuSans-118"/>
      <use x="586.160156" xlink:href="#DejaVuSans-101"/>
      <use x="647.683594" xlink:href="#DejaVuSans-32"/>
      <use x="679.470703" xlink:href="#DejaVuSans-82"/>
      <use x="748.921875" xlink:href="#DejaVuSans-97"/>
      <use x="810.201172" xlink:href="#DejaVuSans-116"/>
      <use x="849.410156" xlink:href="#DejaVuSans-101"/>
     </g>
    </g>
   </g>
   <g id="line2d_13">
    <path clip-path="url(#p6a8e513008)" d="M 66.005455 290.994545 
L 66.005455 288.756412 
L 66.005455 286.518278 
L 69.241818 284.280145 
L 69.241818 282.042011 
L 72.478182 282.042011 
L 72.478182 277.565744 
L 72.478182 273.089477 
L 72.478182 270.851344 
L 78.950909 266.375076 
L 78.950909 252.946275 
L 82.187273 252.946275 
L 82.187273 248.470008 
L 82.187273 241.755607 
L 85.423636 237.27934 
L 85.423636 235.041207 
L 88.66 235.041207 
L 88.66 226.088673 
L 91.896364 226.088673 
L 95.132727 223.850539 
L 95.132727 221.612405 
L 98.369091 221.612405 
L 98.369091 219.374272 
L 98.369091 214.898005 
L 98.369091 203.707337 
L 101.605455 203.707337 
L 101.605455 201.469204 
L 104.841818 201.469204 
L 104.841818 196.992936 
L 111.314545 196.992936 
L 121.023636 196.992936 
L 124.26 192.516669 
L 124.26 188.040402 
L 130.732727 188.040402 
L 130.732727 185.802269 
L 133.969091 185.802269 
L 137.205455 179.087868 
L 137.205455 176.849735 
L 140.441818 176.849735 
L 140.441818 174.611601 
L 143.678182 174.611601 
L 143.678182 163.420933 
L 146.914545 163.420933 
L 156.623636 156.706533 
L 163.096364 156.706533 
L 163.096364 152.230265 
L 166.332727 152.230265 
L 166.332727 149.992132 
L 172.805455 147.753998 
L 172.805455 145.515865 
L 176.041818 145.515865 
L 176.041818 143.277731 
L 182.514545 143.277731 
L 182.514545 141.039598 
L 185.750909 141.039598 
L 185.750909 136.563331 
L 192.223636 136.563331 
L 198.696364 136.563331 
L 201.932727 136.563331 
L 201.932727 134.325197 
L 205.169091 134.325197 
L 205.169091 132.087064 
L 208.405455 132.087064 
L 208.405455 129.84893 
L 218.114545 127.610796 
L 224.587273 127.610796 
L 224.587273 120.896396 
L 227.823636 120.896396 
L 227.823636 116.420129 
L 231.06 116.420129 
L 240.769091 107.467595 
L 240.769091 102.991327 
L 250.478182 102.991327 
L 250.478182 100.753194 
L 253.714545 100.753194 
L 253.714545 94.038793 
L 253.714545 89.562526 
L 256.950909 89.562526 
L 256.950909 85.086259 
L 260.187273 78.371858 
L 263.423636 78.371858 
L 263.423636 71.657458 
L 276.369091 71.657458 
L 276.369091 67.181191 
L 279.605455 67.181191 
L 279.605455 64.943057 
L 286.078182 64.943057 
L 289.314545 64.943057 
L 295.787273 64.943057 
L 299.023636 64.943057 
L 299.023636 62.704924 
L 305.496364 62.704924 
L 311.969091 62.704924 
L 315.205455 62.704924 
L 315.205455 58.228656 
L 324.914545 58.228656 
L 331.387273 58.228656 
L 341.096364 58.228656 
L 341.096364 55.990523 
L 357.278182 55.990523 
L 363.750909 55.990523 
L 379.932727 55.990523 
L 386.405455 55.990523 
L 389.641818 55.990523 
L 389.641818 53.752389 
L 392.878182 53.752389 
L 392.878182 49.276122 
L 396.114545 49.276122 
L 399.350909 44.799855 
L 402.587273 44.799855 
L 402.587273 42.561722 
L 422.005455 42.561722 
L 428.478182 42.561722 
L 428.478182 38.085455 
L 431.714545 38.085455 
" style="fill:none;stroke:#1f77b4;stroke-linecap:square;stroke-opacity:0.3;"/>
   </g>
   <g id="line2d_14">
    <path clip-path="url(#p6a8e513008)" d="M 66.005455 290.994545 
L 66.005455 288.756412 
L 66.005455 284.280145 
L 66.005455 279.803878 
L 72.478182 279.803878 
L 72.478182 277.565744 
L 75.714545 277.565744 
L 75.714545 268.61321 
L 78.950909 268.61321 
L 78.950909 257.422542 
L 78.950909 255.184409 
L 82.187273 255.184409 
L 82.187273 246.231874 
L 85.423636 246.231874 
L 85.423636 241.755607 
L 85.423636 232.803073 
L 88.66 232.803073 
L 88.66 230.56494 
L 91.896364 228.326806 
L 91.896364 223.850539 
L 98.369091 223.850539 
L 104.841818 223.850539 
L 104.841818 219.374272 
L 108.078182 219.374272 
L 108.078182 210.421738 
L 114.550909 210.421738 
L 117.787273 208.183604 
L 117.787273 203.707337 
L 117.787273 194.754803 
L 121.023636 194.754803 
L 124.26 192.516669 
L 127.496364 192.516669 
L 127.496364 188.040402 
L 130.732727 188.040402 
L 130.732727 185.802269 
L 133.969091 183.564135 
L 133.969091 181.326002 
L 140.441818 179.087868 
L 140.441818 172.373467 
L 140.441818 170.135334 
L 140.441818 165.659067 
L 146.914545 163.420933 
L 146.914545 161.1828 
L 153.387273 161.1828 
L 153.387273 158.944666 
L 156.623636 158.944666 
L 159.86 156.706533 
L 159.86 154.468399 
L 176.041818 149.992132 
L 176.041818 147.753998 
L 179.278182 145.515865 
L 179.278182 141.039598 
L 182.514545 141.039598 
L 182.514545 136.563331 
L 188.987273 136.563331 
L 188.987273 134.325197 
L 198.696364 134.325197 
L 198.696364 129.84893 
L 201.932727 129.84893 
L 201.932727 125.372663 
L 201.932727 123.134529 
L 208.405455 123.134529 
L 218.114545 123.134529 
L 221.350909 123.134529 
L 224.587273 120.896396 
L 227.823636 120.896396 
L 227.823636 116.420129 
L 234.296364 116.420129 
L 234.296364 114.181995 
L 250.478182 114.181995 
L 250.478182 111.943862 
L 256.950909 111.943862 
L 260.187273 107.467595 
L 260.187273 105.229461 
L 269.896364 105.229461 
L 269.896364 98.51506 
L 276.369091 98.51506 
L 282.841818 91.80066 
L 286.078182 91.80066 
L 295.787273 89.562526 
L 299.023636 85.086259 
L 299.023636 82.848126 
L 305.496364 78.371858 
L 305.496364 73.895591 
L 311.969091 73.895591 
L 311.969091 71.657458 
L 318.441818 71.657458 
L 334.623636 71.657458 
L 334.623636 69.419324 
L 354.041818 69.419324 
L 354.041818 67.181191 
L 357.278182 64.943057 
L 357.278182 60.46679 
L 366.987273 60.46679 
L 366.987273 55.990523 
L 373.46 55.990523 
L 379.932727 55.990523 
L 379.932727 53.752389 
L 386.405455 53.752389 
L 389.641818 51.514256 
L 392.878182 51.514256 
L 392.878182 49.276122 
L 396.114545 49.276122 
L 402.587273 49.276122 
L 402.587273 47.037989 
L 409.06 47.037989 
L 409.06 44.799855 
L 412.296364 44.799855 
L 412.296364 42.561722 
L 415.532727 42.561722 
L 422.005455 42.561722 
L 422.005455 38.085455 
L 425.241818 38.085455 
L 431.714545 38.085455 
" style="fill:none;stroke:#ff7f0e;stroke-linecap:square;stroke-opacity:0.3;"/>
   </g>
   <g id="line2d_15">
    <path clip-path="url(#p6a8e513008)" d="M 66.005455 290.994545 
L 66.005455 288.756412 
L 66.005455 284.280145 
L 69.241818 284.280145 
L 69.241818 279.803878 
L 72.478182 277.565744 
L 75.714545 277.565744 
L 75.714545 268.61321 
L 75.714545 261.898809 
L 78.950909 261.898809 
L 78.950909 259.660676 
L 82.187273 259.660676 
L 82.187273 252.946275 
L 82.187273 246.231874 
L 82.187273 241.755607 
L 85.423636 241.755607 
L 88.66 239.517474 
L 88.66 237.27934 
L 91.896364 237.27934 
L 91.896364 228.326806 
L 95.132727 228.326806 
L 98.369091 223.850539 
L 101.605455 221.612405 
L 101.605455 219.374272 
L 104.841818 219.374272 
L 104.841818 214.898005 
L 111.314545 214.898005 
L 111.314545 210.421738 
L 114.550909 210.421738 
L 114.550909 208.183604 
L 117.787273 208.183604 
L 117.787273 203.707337 
L 117.787273 201.469204 
L 121.023636 196.992936 
L 130.732727 196.992936 
L 133.969091 194.754803 
L 133.969091 190.278536 
L 140.441818 185.802269 
L 143.678182 185.802269 
L 143.678182 181.326002 
L 143.678182 176.849735 
L 146.914545 174.611601 
L 150.150909 174.611601 
L 156.623636 174.611601 
L 156.623636 163.420933 
L 156.623636 158.944666 
L 156.623636 156.706533 
L 159.86 154.468399 
L 159.86 149.992132 
L 159.86 145.515865 
L 163.096364 145.515865 
L 163.096364 141.039598 
L 172.805455 141.039598 
L 179.278182 141.039598 
L 185.750909 141.039598 
L 188.987273 138.801464 
L 188.987273 136.563331 
L 195.46 136.563331 
L 195.46 132.087064 
L 205.169091 132.087064 
L 205.169091 127.610796 
L 205.169091 125.372663 
L 208.405455 125.372663 
L 208.405455 123.134529 
L 208.405455 118.658262 
L 214.878182 118.658262 
L 214.878182 116.420129 
L 218.114545 114.181995 
L 218.114545 107.467595 
L 227.823636 105.229461 
L 234.296364 105.229461 
L 234.296364 102.991327 
L 244.005455 102.991327 
L 244.005455 98.51506 
L 250.478182 98.51506 
L 250.478182 96.276927 
L 256.950909 96.276927 
L 256.950909 89.562526 
L 260.187273 89.562526 
L 260.187273 82.848126 
L 263.423636 82.848126 
L 263.423636 80.609992 
L 266.66 78.371858 
L 276.369091 78.371858 
L 282.841818 78.371858 
L 286.078182 78.371858 
L 286.078182 71.657458 
L 289.314545 71.657458 
L 289.314545 62.704924 
L 308.732727 62.704924 
L 308.732727 60.46679 
L 315.205455 60.46679 
L 315.205455 58.228656 
L 328.150909 58.228656 
L 334.623636 58.228656 
L 337.86 58.228656 
L 337.86 55.990523 
L 341.096364 55.990523 
L 347.569091 53.752389 
L 366.987273 53.752389 
L 366.987273 51.514256 
L 370.223636 51.514256 
L 370.223636 49.276122 
L 389.641818 49.276122 
L 389.641818 47.037989 
L 392.878182 44.799855 
L 412.296364 44.799855 
L 412.296364 42.561722 
L 425.241818 42.561722 
L 431.714545 38.085455 
" style="fill:none;stroke:#2ca02c;stroke-linecap:square;stroke-opacity:0.3;"/>
   </g>
   <g id="line2d_16">
    <path clip-path="url(#p6a8e513008)" d="M 66.005455 290.994545 
L 66.005455 288.756412 
L 69.241818 288.756412 
L 69.241818 279.803878 
L 69.241818 270.851344 
L 75.714545 270.851344 
L 75.714545 264.136943 
L 78.950909 264.136943 
L 78.950909 261.898809 
L 82.187273 261.898809 
L 82.187273 259.660676 
L 85.423636 257.422542 
L 85.423636 250.708142 
L 91.896364 250.708142 
L 91.896364 246.231874 
L 95.132727 246.231874 
L 101.605455 246.231874 
L 101.605455 239.517474 
L 108.078182 239.517474 
L 108.078182 237.27934 
L 111.314545 235.041207 
L 111.314545 232.803073 
L 114.550909 232.803073 
L 114.550909 230.56494 
L 117.787273 230.56494 
L 117.787273 228.326806 
L 121.023636 223.850539 
L 121.023636 219.374272 
L 124.26 219.374272 
L 124.26 217.136138 
L 127.496364 217.136138 
L 127.496364 214.898005 
L 130.732727 212.659871 
L 130.732727 208.183604 
L 133.969091 205.945471 
L 133.969091 203.707337 
L 146.914545 203.707337 
L 146.914545 196.992936 
L 156.623636 196.992936 
L 156.623636 188.040402 
L 156.623636 183.564135 
L 163.096364 183.564135 
L 172.805455 183.564135 
L 172.805455 179.087868 
L 176.041818 179.087868 
L 179.278182 176.849735 
L 179.278182 172.373467 
L 185.750909 172.373467 
L 185.750909 167.8972 
L 192.223636 167.8972 
L 192.223636 165.659067 
L 195.46 165.659067 
L 201.932727 165.659067 
L 205.169091 163.420933 
L 205.169091 158.944666 
L 208.405455 158.944666 
L 208.405455 156.706533 
L 221.350909 156.706533 
L 221.350909 154.468399 
L 224.587273 152.230265 
L 234.296364 152.230265 
L 234.296364 149.992132 
L 240.769091 145.515865 
L 244.005455 145.515865 
L 244.005455 141.039598 
L 244.005455 138.801464 
L 250.478182 138.801464 
L 250.478182 134.325197 
L 250.478182 118.658262 
L 256.950909 118.658262 
L 256.950909 111.943862 
L 260.187273 111.943862 
L 260.187273 109.705728 
L 260.187273 100.753194 
L 263.423636 100.753194 
L 263.423636 96.276927 
L 266.66 96.276927 
L 266.66 94.038793 
L 269.896364 94.038793 
L 269.896364 89.562526 
L 269.896364 85.086259 
L 276.369091 85.086259 
L 279.605455 80.609992 
L 279.605455 76.133725 
L 282.841818 76.133725 
L 286.078182 73.895591 
L 289.314545 73.895591 
L 289.314545 71.657458 
L 295.787273 71.657458 
L 302.26 71.657458 
L 308.732727 71.657458 
L 318.441818 71.657458 
L 324.914545 71.657458 
L 324.914545 67.181191 
L 328.150909 67.181191 
L 331.387273 64.943057 
L 337.86 64.943057 
L 337.86 62.704924 
L 344.332727 62.704924 
L 357.278182 62.704924 
L 357.278182 60.46679 
L 373.46 60.46679 
L 376.696364 58.228656 
L 399.350909 58.228656 
L 402.587273 55.990523 
L 402.587273 53.752389 
L 409.06 53.752389 
L 412.296364 51.514256 
L 412.296364 47.037989 
L 425.241818 47.037989 
L 425.241818 44.799855 
L 431.714545 44.799855 
L 431.714545 38.085455 
" style="fill:none;stroke:#d62728;stroke-linecap:square;stroke-opacity:0.3;"/>
   </g>
   <g id="line2d_17">
    <path clip-path="url(#p6a8e513008)" d="M 66.005455 290.994545 
L 66.005455 288.756412 
L 66.005455 282.042011 
L 69.241818 282.042011 
L 69.241818 275.327611 
L 69.241818 270.851344 
L 69.241818 264.136943 
L 72.478182 264.136943 
L 72.478182 261.898809 
L 72.478182 257.422542 
L 72.478182 255.184409 
L 75.714545 255.184409 
L 75.714545 252.946275 
L 78.950909 252.946275 
L 78.950909 248.470008 
L 78.950909 243.993741 
L 78.950909 239.517474 
L 98.369091 239.517474 
L 98.369091 237.27934 
L 101.605455 237.27934 
L 101.605455 235.041207 
L 104.841818 235.041207 
L 104.841818 232.803073 
L 121.023636 232.803073 
L 121.023636 230.56494 
L 124.26 230.56494 
L 127.496364 228.326806 
L 127.496364 223.850539 
L 130.732727 221.612405 
L 133.969091 221.612405 
L 133.969091 217.136138 
L 137.205455 214.898005 
L 137.205455 210.421738 
L 137.205455 208.183604 
L 140.441818 203.707337 
L 140.441818 194.754803 
L 143.678182 194.754803 
L 143.678182 190.278536 
L 146.914545 190.278536 
L 146.914545 181.326002 
L 150.150909 181.326002 
L 150.150909 176.849735 
L 153.387273 174.611601 
L 153.387273 170.135334 
L 156.623636 170.135334 
L 156.623636 165.659067 
L 159.86 165.659067 
L 159.86 163.420933 
L 163.096364 163.420933 
L 163.096364 161.1828 
L 166.332727 161.1828 
L 172.805455 158.944666 
L 176.041818 154.468399 
L 179.278182 154.468399 
L 201.932727 147.753998 
L 201.932727 138.801464 
L 205.169091 138.801464 
L 205.169091 132.087064 
L 205.169091 127.610796 
L 214.878182 127.610796 
L 214.878182 120.896396 
L 214.878182 116.420129 
L 218.114545 114.181995 
L 221.350909 114.181995 
L 221.350909 109.705728 
L 224.587273 109.705728 
L 231.06 107.467595 
L 231.06 105.229461 
L 234.296364 102.991327 
L 237.532727 102.991327 
L 237.532727 100.753194 
L 244.005455 100.753194 
L 244.005455 96.276927 
L 247.241818 96.276927 
L 247.241818 91.80066 
L 250.478182 91.80066 
L 250.478182 89.562526 
L 253.714545 89.562526 
L 253.714545 85.086259 
L 256.950909 85.086259 
L 256.950909 82.848126 
L 260.187273 82.848126 
L 260.187273 80.609992 
L 269.896364 80.609992 
L 269.896364 78.371858 
L 273.132727 78.371858 
L 279.605455 78.371858 
L 286.078182 78.371858 
L 289.314545 73.895591 
L 295.787273 73.895591 
L 302.26 73.895591 
L 311.969091 73.895591 
L 315.205455 73.895591 
L 324.914545 73.895591 
L 331.387273 73.895591 
L 331.387273 71.657458 
L 334.623636 69.419324 
L 337.86 69.419324 
L 344.332727 69.419324 
L 344.332727 62.704924 
L 366.987273 62.704924 
L 366.987273 60.46679 
L 370.223636 58.228656 
L 373.46 58.228656 
L 373.46 55.990523 
L 376.696364 55.990523 
L 379.932727 53.752389 
L 379.932727 51.514256 
L 392.878182 51.514256 
L 392.878182 49.276122 
L 399.350909 47.037989 
L 412.296364 47.037989 
L 412.296364 42.561722 
L 418.769091 42.561722 
L 418.769091 40.323588 
L 422.005455 38.085455 
L 431.714545 38.085455 
" style="fill:none;stroke:#9467bd;stroke-linecap:square;stroke-opacity:0.3;"/>
   </g>
   <g id="line2d_18">
    <path clip-path="url(#p6a8e513008)" d="M 66.005455 290.994545 
L 66.005455 286.518278 
L 69.241818 286.518278 
L 69.241818 282.042011 
L 72.478182 282.042011 
L 72.478182 277.565744 
L 72.478182 273.089477 
L 72.478182 268.61321 
L 75.714545 264.136943 
L 78.950909 264.136943 
L 78.950909 259.660676 
L 78.950909 250.708142 
L 82.187273 250.708142 
L 82.187273 248.470008 
L 82.187273 243.993741 
L 82.187273 241.755607 
L 85.423636 241.755607 
L 85.423636 237.27934 
L 85.423636 232.803073 
L 85.423636 230.56494 
L 91.896364 230.56494 
L 91.896364 228.326806 
L 91.896364 223.850539 
L 98.369091 223.850539 
L 98.369091 221.612405 
L 101.605455 221.612405 
L 101.605455 219.374272 
L 101.605455 214.898005 
L 108.078182 214.898005 
L 108.078182 210.421738 
L 111.314545 210.421738 
L 111.314545 201.469204 
L 117.787273 201.469204 
L 117.787273 199.23107 
L 124.26 199.23107 
L 124.26 194.754803 
L 124.26 190.278536 
L 130.732727 190.278536 
L 130.732727 185.802269 
L 133.969091 185.802269 
L 133.969091 181.326002 
L 137.205455 179.087868 
L 137.205455 172.373467 
L 143.678182 172.373467 
L 143.678182 167.8972 
L 146.914545 167.8972 
L 146.914545 163.420933 
L 150.150909 163.420933 
L 150.150909 156.706533 
L 153.387273 154.468399 
L 153.387273 149.992132 
L 156.623636 149.992132 
L 156.623636 147.753998 
L 159.86 147.753998 
L 159.86 143.277731 
L 166.332727 143.277731 
L 169.569091 141.039598 
L 172.805455 141.039598 
L 172.805455 138.801464 
L 176.041818 136.563331 
L 179.278182 136.563331 
L 179.278182 134.325197 
L 182.514545 134.325197 
L 182.514545 132.087064 
L 185.750909 132.087064 
L 185.750909 127.610796 
L 188.987273 127.610796 
L 188.987273 125.372663 
L 192.223636 125.372663 
L 192.223636 120.896396 
L 195.46 120.896396 
L 205.169091 120.896396 
L 211.641818 120.896396 
L 211.641818 118.658262 
L 211.641818 111.943862 
L 224.587273 111.943862 
L 224.587273 107.467595 
L 234.296364 107.467595 
L 237.532727 107.467595 
L 237.532727 105.229461 
L 240.769091 100.753194 
L 240.769091 91.80066 
L 244.005455 91.80066 
L 244.005455 89.562526 
L 247.241818 89.562526 
L 247.241818 87.324393 
L 250.478182 87.324393 
L 250.478182 85.086259 
L 253.714545 85.086259 
L 253.714545 80.609992 
L 256.950909 80.609992 
L 263.423636 80.609992 
L 269.896364 80.609992 
L 269.896364 71.657458 
L 273.132727 71.657458 
L 276.369091 69.419324 
L 282.841818 69.419324 
L 292.550909 69.419324 
L 295.787273 69.419324 
L 295.787273 67.181191 
L 302.26 67.181191 
L 311.969091 67.181191 
L 311.969091 64.943057 
L 318.441818 64.943057 
L 328.150909 64.943057 
L 334.623636 64.943057 
L 344.332727 64.943057 
L 344.332727 60.46679 
L 347.569091 60.46679 
L 347.569091 53.752389 
L 363.750909 53.752389 
L 363.750909 51.514256 
L 376.696364 51.514256 
L 376.696364 47.037989 
L 379.932727 47.037989 
L 386.405455 47.037989 
L 392.878182 47.037989 
L 402.587273 47.037989 
L 405.823636 47.037989 
L 409.06 44.799855 
L 415.532727 44.799855 
L 415.532727 42.561722 
L 425.241818 42.561722 
L 425.241818 40.323588 
L 428.478182 38.085455 
L 431.714545 38.085455 
" style="fill:none;stroke:#8c564b;stroke-linecap:square;stroke-opacity:0.3;"/>
   </g>
   <g id="line2d_19">
    <path clip-path="url(#p6a8e513008)" d="M 66.005455 290.994545 
L 66.005455 288.756412 
L 69.241818 288.756412 
L 69.241818 286.518278 
L 72.478182 286.518278 
L 72.478182 284.280145 
L 78.950909 284.280145 
L 78.950909 282.042011 
L 82.187273 282.042011 
L 82.187273 279.803878 
L 82.187273 275.327611 
L 82.187273 268.61321 
L 85.423636 255.184409 
L 85.423636 252.946275 
L 88.66 252.946275 
L 91.896364 246.231874 
L 91.896364 243.993741 
L 95.132727 243.993741 
L 95.132727 239.517474 
L 101.605455 237.27934 
L 101.605455 235.041207 
L 104.841818 235.041207 
L 104.841818 230.56494 
L 108.078182 230.56494 
L 114.550909 228.326806 
L 121.023636 228.326806 
L 121.023636 221.612405 
L 124.26 221.612405 
L 127.496364 217.136138 
L 127.496364 212.659871 
L 133.969091 210.421738 
L 137.205455 210.421738 
L 137.205455 203.707337 
L 140.441818 203.707337 
L 146.914545 203.707337 
L 146.914545 201.469204 
L 146.914545 196.992936 
L 146.914545 188.040402 
L 153.387273 188.040402 
L 156.623636 185.802269 
L 156.623636 181.326002 
L 163.096364 179.087868 
L 163.096364 176.849735 
L 163.096364 172.373467 
L 166.332727 172.373467 
L 166.332727 170.135334 
L 169.569091 170.135334 
L 169.569091 165.659067 
L 172.805455 165.659067 
L 172.805455 161.1828 
L 172.805455 158.944666 
L 195.46 158.944666 
L 198.696364 154.468399 
L 198.696364 152.230265 
L 201.932727 152.230265 
L 201.932727 149.992132 
L 205.169091 149.992132 
L 205.169091 141.039598 
L 205.169091 136.563331 
L 211.641818 136.563331 
L 218.114545 129.84893 
L 218.114545 125.372663 
L 221.350909 125.372663 
L 224.587273 120.896396 
L 227.823636 120.896396 
L 227.823636 118.658262 
L 237.532727 118.658262 
L 237.532727 114.181995 
L 240.769091 114.181995 
L 240.769091 105.229461 
L 247.241818 105.229461 
L 247.241818 102.991327 
L 256.950909 102.991327 
L 256.950909 100.753194 
L 260.187273 100.753194 
L 260.187273 94.038793 
L 263.423636 94.038793 
L 263.423636 91.80066 
L 269.896364 91.80066 
L 273.132727 89.562526 
L 273.132727 85.086259 
L 282.841818 85.086259 
L 282.841818 82.848126 
L 282.841818 78.371858 
L 289.314545 78.371858 
L 289.314545 76.133725 
L 292.550909 76.133725 
L 292.550909 71.657458 
L 299.023636 67.181191 
L 305.496364 67.181191 
L 305.496364 64.943057 
L 315.205455 64.943057 
L 315.205455 62.704924 
L 321.678182 62.704924 
L 324.914545 60.46679 
L 334.623636 60.46679 
L 334.623636 58.228656 
L 341.096364 58.228656 
L 347.569091 58.228656 
L 347.569091 53.752389 
L 363.750909 53.752389 
L 363.750909 49.276122 
L 366.987273 49.276122 
L 366.987273 47.037989 
L 376.696364 47.037989 
L 376.696364 44.799855 
L 383.169091 44.799855 
L 405.823636 44.799855 
L 405.823636 42.561722 
L 418.769091 42.561722 
L 418.769091 40.323588 
L 425.241818 40.323588 
L 428.478182 38.085455 
L 431.714545 38.085455 
" style="fill:none;stroke:#e377c2;stroke-linecap:square;stroke-opacity:0.3;"/>
   </g>
   <g id="line2d_20">
    <path clip-path="url(#p6a8e513008)" d="M 66.005455 290.994545 
L 66.005455 288.756412 
L 66.005455 284.280145 
L 69.241818 284.280145 
L 69.241818 279.803878 
L 69.241818 270.851344 
L 69.241818 266.375076 
L 75.714545 266.375076 
L 75.714545 261.898809 
L 78.950909 259.660676 
L 88.66 259.660676 
L 88.66 255.184409 
L 91.896364 255.184409 
L 95.132727 252.946275 
L 95.132727 248.470008 
L 98.369091 248.470008 
L 98.369091 246.231874 
L 101.605455 246.231874 
L 101.605455 243.993741 
L 108.078182 243.993741 
L 108.078182 241.755607 
L 111.314545 241.755607 
L 111.314545 237.27934 
L 114.550909 237.27934 
L 114.550909 235.041207 
L 121.023636 235.041207 
L 121.023636 230.56494 
L 121.023636 226.088673 
L 124.26 226.088673 
L 124.26 221.612405 
L 124.26 219.374272 
L 127.496364 217.136138 
L 127.496364 214.898005 
L 130.732727 214.898005 
L 137.205455 210.421738 
L 137.205455 205.945471 
L 137.205455 203.707337 
L 143.678182 203.707337 
L 143.678182 199.23107 
L 143.678182 192.516669 
L 143.678182 185.802269 
L 143.678182 181.326002 
L 143.678182 176.849735 
L 143.678182 174.611601 
L 150.150909 174.611601 
L 159.86 174.611601 
L 159.86 172.373467 
L 163.096364 172.373467 
L 163.096364 167.8972 
L 166.332727 163.420933 
L 169.569091 163.420933 
L 169.569091 152.230265 
L 176.041818 152.230265 
L 176.041818 143.277731 
L 185.750909 138.801464 
L 185.750909 136.563331 
L 192.223636 134.325197 
L 192.223636 132.087064 
L 192.223636 127.610796 
L 211.641818 127.610796 
L 211.641818 125.372663 
L 214.878182 123.134529 
L 214.878182 120.896396 
L 221.350909 120.896396 
L 221.350909 118.658262 
L 227.823636 116.420129 
L 227.823636 114.181995 
L 234.296364 114.181995 
L 237.532727 114.181995 
L 237.532727 111.943862 
L 247.241818 111.943862 
L 247.241818 109.705728 
L 256.950909 105.229461 
L 260.187273 105.229461 
L 260.187273 102.991327 
L 266.66 102.991327 
L 266.66 100.753194 
L 269.896364 100.753194 
L 273.132727 98.51506 
L 273.132727 94.038793 
L 276.369091 94.038793 
L 276.369091 85.086259 
L 282.841818 85.086259 
L 282.841818 78.371858 
L 289.314545 78.371858 
L 289.314545 76.133725 
L 295.787273 76.133725 
L 299.023636 76.133725 
L 299.023636 73.895591 
L 302.26 73.895591 
L 305.496364 71.657458 
L 311.969091 71.657458 
L 315.205455 71.657458 
L 321.678182 71.657458 
L 328.150909 71.657458 
L 331.387273 69.419324 
L 331.387273 67.181191 
L 344.332727 67.181191 
L 344.332727 64.943057 
L 347.569091 64.943057 
L 357.278182 64.943057 
L 357.278182 62.704924 
L 386.405455 62.704924 
L 386.405455 58.228656 
L 392.878182 53.752389 
L 396.114545 53.752389 
L 396.114545 44.799855 
L 396.114545 40.323588 
L 405.823636 40.323588 
L 412.296364 38.085455 
L 415.532727 38.085455 
L 425.241818 38.085455 
L 431.714545 38.085455 
" style="fill:none;stroke:#7f7f7f;stroke-linecap:square;stroke-opacity:0.3;"/>
   </g>
   <g id="line2d_21">
    <path clip-path="url(#p6a8e513008)" d="M 66.005455 290.994545 
L 66.005455 288.756412 
L 69.241818 286.518278 
L 69.241818 282.042011 
L 72.478182 279.803878 
L 75.714545 279.803878 
L 75.714545 270.851344 
L 78.950909 270.851344 
L 78.950909 266.375076 
L 78.950909 250.708142 
L 85.423636 246.231874 
L 85.423636 241.755607 
L 85.423636 223.850539 
L 88.66 223.850539 
L 88.66 219.374272 
L 95.132727 219.374272 
L 101.605455 219.374272 
L 101.605455 212.659871 
L 101.605455 208.183604 
L 104.841818 208.183604 
L 104.841818 201.469204 
L 108.078182 201.469204 
L 111.314545 196.992936 
L 111.314545 194.754803 
L 114.550909 192.516669 
L 121.023636 192.516669 
L 124.26 188.040402 
L 127.496364 188.040402 
L 127.496364 185.802269 
L 127.496364 181.326002 
L 127.496364 172.373467 
L 137.205455 172.373467 
L 137.205455 167.8972 
L 143.678182 167.8972 
L 143.678182 161.1828 
L 146.914545 161.1828 
L 146.914545 156.706533 
L 150.150909 154.468399 
L 153.387273 154.468399 
L 153.387273 152.230265 
L 156.623636 149.992132 
L 156.623636 145.515865 
L 159.86 145.515865 
L 166.332727 141.039598 
L 179.278182 141.039598 
L 182.514545 136.563331 
L 185.750909 136.563331 
L 188.987273 134.325197 
L 192.223636 134.325197 
L 198.696364 129.84893 
L 198.696364 123.134529 
L 201.932727 120.896396 
L 208.405455 120.896396 
L 214.878182 120.896396 
L 218.114545 120.896396 
L 218.114545 118.658262 
L 224.587273 118.658262 
L 224.587273 116.420129 
L 234.296364 116.420129 
L 234.296364 114.181995 
L 237.532727 107.467595 
L 237.532727 102.991327 
L 250.478182 102.991327 
L 250.478182 100.753194 
L 253.714545 100.753194 
L 253.714545 98.51506 
L 260.187273 94.038793 
L 260.187273 91.80066 
L 273.132727 91.80066 
L 276.369091 89.562526 
L 279.605455 89.562526 
L 279.605455 87.324393 
L 286.078182 87.324393 
L 289.314545 85.086259 
L 295.787273 85.086259 
L 295.787273 80.609992 
L 305.496364 80.609992 
L 305.496364 78.371858 
L 308.732727 78.371858 
L 308.732727 76.133725 
L 315.205455 76.133725 
L 321.678182 76.133725 
L 321.678182 73.895591 
L 324.914545 73.895591 
L 324.914545 71.657458 
L 334.623636 71.657458 
L 341.096364 71.657458 
L 341.096364 67.181191 
L 347.569091 67.181191 
L 357.278182 67.181191 
L 357.278182 62.704924 
L 360.514545 62.704924 
L 360.514545 60.46679 
L 373.46 60.46679 
L 373.46 58.228656 
L 376.696364 58.228656 
L 376.696364 55.990523 
L 383.169091 55.990523 
L 386.405455 55.990523 
L 386.405455 53.752389 
L 392.878182 53.752389 
L 392.878182 51.514256 
L 399.350909 49.276122 
L 409.06 49.276122 
L 409.06 47.037989 
L 415.532727 47.037989 
L 415.532727 42.561722 
L 422.005455 42.561722 
L 422.005455 40.323588 
L 425.241818 40.323588 
L 425.241818 38.085455 
L 431.714545 38.085455 
" style="fill:none;stroke:#bcbd22;stroke-linecap:square;stroke-opacity:0.3;"/>
   </g>
   <g id="line2d_22">
    <path clip-path="url(#p6a8e513008)" d="M 66.005455 290.994545 
L 69.521888 288.562727 
L 69.521888 286.130909 
L 69.521888 281.267273 
L 69.521888 271.54 
L 73.038322 264.244545 
L 76.554755 264.244545 
L 76.554755 261.812727 
L 76.554755 256.949091 
L 80.071189 256.949091 
L 80.071189 254.517273 
L 94.136923 254.517273 
L 94.136923 249.653636 
L 101.16979 249.653636 
L 101.16979 239.926364 
L 104.686224 239.926364 
L 104.686224 237.494545 
L 111.719091 237.494545 
L 111.719091 235.062727 
L 115.235524 235.062727 
L 115.235524 227.767273 
L 118.751958 227.767273 
L 118.751958 222.903636 
L 122.268392 220.471818 
L 129.301259 220.471818 
L 129.301259 215.608182 
L 132.817692 215.608182 
L 139.850559 215.608182 
L 139.850559 213.176364 
L 143.366993 213.176364 
L 143.366993 208.312727 
L 153.916294 208.312727 
L 153.916294 205.880909 
L 157.432727 205.880909 
L 157.432727 198.585455 
L 160.949161 196.153636 
L 160.949161 191.29 
L 160.949161 188.858182 
L 164.465594 188.858182 
L 164.465594 181.562727 
L 167.982028 181.562727 
L 167.982028 179.130909 
L 175.014895 179.130909 
L 175.014895 174.267273 
L 178.531329 174.267273 
L 178.531329 171.835455 
L 182.047762 171.835455 
L 189.080629 169.403636 
L 196.113497 169.403636 
L 196.113497 157.244545 
L 199.62993 157.244545 
L 199.62993 152.380909 
L 206.662797 152.380909 
L 210.179231 149.949091 
L 210.179231 145.085455 
L 213.695664 142.653636 
L 213.695664 132.926364 
L 220.728531 132.926364 
L 220.728531 125.630909 
L 224.244965 125.630909 
L 224.244965 120.767273 
L 224.244965 118.335455 
L 231.277832 118.335455 
L 231.277832 115.903636 
L 234.794266 115.903636 
L 241.827133 115.903636 
L 241.827133 113.471818 
L 245.343566 113.471818 
L 245.343566 111.04 
L 248.86 108.608182 
L 255.892867 108.608182 
L 262.925734 108.608182 
L 262.925734 103.744545 
L 262.925734 98.880909 
L 262.925734 91.585455 
L 269.958601 91.585455 
L 273.475035 91.585455 
L 273.475035 89.153636 
L 276.991469 89.153636 
L 276.991469 84.29 
L 284.024336 84.29 
L 291.057203 84.29 
L 291.057203 79.426364 
L 294.573636 79.426364 
L 294.573636 76.994545 
L 305.122937 76.994545 
L 308.639371 76.994545 
L 315.672238 76.994545 
L 315.672238 74.562727 
L 319.188671 72.130909 
L 326.221538 72.130909 
L 329.737972 72.130909 
L 329.737972 69.699091 
L 343.803706 69.699091 
L 343.803706 64.835455 
L 364.902308 64.835455 
L 364.902308 57.54 
L 371.935175 57.54 
L 371.935175 55.108182 
L 378.968042 55.108182 
L 386.000909 55.108182 
L 386.000909 52.676364 
L 396.55021 52.676364 
L 396.55021 50.244545 
L 400.066643 50.244545 
L 400.066643 47.812727 
L 407.09951 47.812727 
L 410.615944 45.380909 
L 417.648811 45.380909 
L 417.648811 40.517273 
L 431.714545 40.517273 
L 431.714545 38.085455 
" style="fill:none;stroke:#17becf;stroke-linecap:square;stroke-opacity:0.3;"/>
   </g>
   <g id="line2d_23">
    <path clip-path="url(#p6a8e513008)" d="M 66.005455 290.994545 
L 431.714545 38.085455 
" style="fill:none;stroke:#ff0000;stroke-dasharray:7.4,3.2;stroke-dashoffset:0;stroke-opacity:0.8;stroke-width:2;"/>
   </g>
   <g id="line2d_24">
    <path clip-path="url(#p6a8e513008)" d="M 66.005455 290.994545 
L 69.699486 276.415397 
L 73.393517 271.343642 
L 77.087548 265.242576 
L 80.781579 256.557787 
L 84.475611 248.611283 
L 88.169642 241.946618 
L 91.863673 238.788363 
L 95.557704 233.967029 
L 99.251736 230.927463 
L 102.945767 226.129562 
L 106.639798 223.200619 
L 110.333829 220.864144 
L 114.02786 217.863988 
L 117.721892 216.189453 
L 121.415923 209.783361 
L 125.109954 206.267735 
L 128.803985 202.024324 
L 132.498017 199.312261 
L 136.192048 195.910976 
L 139.886079 191.136139 
L 143.58011 187.944799 
L 147.274141 176.812911 
L 150.968173 175.126398 
L 154.662204 172.773945 
L 158.356235 166.573971 
L 162.050266 163.103012 
L 165.744298 159.375272 
L 169.438329 158.030657 
L 173.13236 154.485363 
L 176.826391 151.827332 
L 180.520422 149.747029 
L 184.214454 148.221252 
L 187.908485 145.973483 
L 191.602516 144.875088 
L 195.296547 143.188736 
L 198.990579 139.369746 
L 202.68461 136.526398 
L 206.378641 132.549755 
L 210.072672 131.156443 
L 213.766703 127.875209 
L 217.460735 125.406103 
L 221.154766 123.090271 
L 224.848797 119.012191 
L 228.542828 117.37014 
L 232.23686 116.626204 
L 235.930891 114.795757 
L 239.624922 112.011278 
L 243.318953 109.187084 
L 247.012984 107.037945 
L 250.707016 102.274187 
L 254.401047 99.818269 
L 258.095078 96.811483 
L 261.789109 92.586158 
L 265.48314 89.174766 
L 269.177172 88.645752 
L 272.871203 85.548537 
L 276.565234 82.535948 
L 280.259265 80.350637 
L 283.953297 78.662994 
L 287.647328 77.482887 
L 291.341359 74.998782 
L 295.03539 74.051003 
L 298.729421 72.699833 
L 302.423453 71.720932 
L 306.117484 70.40066 
L 309.811515 69.953033 
L 313.505546 69.505406 
L 317.199578 68.261347 
L 320.893609 68.123789 
L 324.58764 67.69877 
L 328.281671 66.986637 
L 331.975702 65.825594 
L 335.669734 65.194847 
L 339.363765 64.74722 
L 343.057796 64.007958 
L 346.751827 62.050983 
L 350.445859 60.903656 
L 354.13989 60.673061 
L 357.833921 59.11315 
L 361.527952 58.889336 
L 365.221983 57.488351 
L 368.916015 56.2359 
L 372.610046 55.678475 
L 376.304077 55.034164 
L 379.998108 53.440342 
L 383.69214 53.440342 
L 387.386171 52.390076 
L 391.080202 51.431521 
L 394.774233 49.93265 
L 398.468264 47.765578 
L 402.162296 47.144852 
L 405.856327 46.216818 
L 409.550358 45.216505 
L 413.244389 43.51508 
L 416.938421 42.84364 
L 420.632452 41.780788 
L 424.326483 41.014397 
L 428.020514 39.766468 
L 431.714545 38.085455 
" style="fill:none;stroke:#0000ff;stroke-linecap:square;stroke-opacity:0.8;stroke-width:2;"/>
   </g>
   <g id="patch_3">
    <path d="M 47.72 303.64 
L 47.72 25.44 
" style="fill:none;stroke:#000000;stroke-linecap:square;stroke-linejoin:miter;stroke-width:0.8;"/>
   </g>
   <g id="patch_4">
    <path d="M 450 303.64 
L 450 25.44 
" style="fill:none;stroke:#000000;stroke-linecap:square;stroke-linejoin:miter;stroke-width:0.8;"/>
   </g>
   <g id="patch_5">
    <path d="M 47.72 303.64 
L 450 303.64 
" style="fill:none;stroke:#000000;stroke-linecap:square;stroke-linejoin:miter;stroke-width:0.8;"/>
   </g>
   <g id="patch_6">
    <path d="M 47.72 25.44 
L 450 25.44 
" style="fill:none;stroke:#000000;stroke-linecap:square;stroke-linejoin:miter;stroke-width:0.8;"/>
   </g>
   <g id="text_15">
    <!-- Receiver operating characteristic: duplications -->
    <defs>
     <path d="M 48.78125 52.59375 
L 48.78125 44.1875 
Q 44.96875 46.296875 41.140625 47.34375 
Q 37.3125 48.390625 33.40625 48.390625 
Q 24.65625 48.390625 19.8125 42.84375 
Q 14.984375 37.3125 14.984375 27.296875 
Q 14.984375 17.28125 19.8125 11.734375 
Q 24.65625 6.203125 33.40625 6.203125 
Q 37.3125 6.203125 41.140625 7.25 
Q 44.96875 8.296875 48.78125 10.40625 
L 48.78125 2.09375 
Q 45.015625 0.34375 40.984375 -0.53125 
Q 36.96875 -1.421875 32.421875 -1.421875 
Q 20.0625 -1.421875 12.78125 6.34375 
Q 5.515625 14.109375 5.515625 27.296875 
Q 5.515625 40.671875 12.859375 48.328125 
Q 20.21875 56 33.015625 56 
Q 37.15625 56 41.109375 55.140625 
Q 45.0625 54.296875 48.78125 52.59375 
z
" id="DejaVuSans-99"/>
     <path d="M 18.109375 8.203125 
L 18.109375 -20.796875 
L 9.078125 -20.796875 
L 9.078125 54.6875 
L 18.109375 54.6875 
L 18.109375 46.390625 
Q 20.953125 51.265625 25.265625 53.625 
Q 29.59375 56 35.59375 56 
Q 45.5625 56 51.78125 48.09375 
Q 58.015625 40.1875 58.015625 27.296875 
Q 58.015625 14.40625 51.78125 6.484375 
Q 45.5625 -1.421875 35.59375 -1.421875 
Q 29.59375 -1.421875 25.265625 0.953125 
Q 20.953125 3.328125 18.109375 8.203125 
z
M 48.6875 27.296875 
Q 48.6875 37.203125 44.609375 42.84375 
Q 40.53125 48.484375 33.40625 48.484375 
Q 26.265625 48.484375 22.1875 42.84375 
Q 18.109375 37.203125 18.109375 27.296875 
Q 18.109375 17.390625 22.1875 11.75 
Q 26.265625 6.109375 33.40625 6.109375 
Q 40.53125 6.109375 44.609375 11.75 
Q 48.6875 17.390625 48.6875 27.296875 
z
" id="DejaVuSans-112"/>
     <path d="M 54.890625 33.015625 
L 54.890625 0 
L 45.90625 0 
L 45.90625 32.71875 
Q 45.90625 40.484375 42.875 44.328125 
Q 39.84375 48.1875 33.796875 48.1875 
Q 26.515625 48.1875 22.3125 43.546875 
Q 18.109375 38.921875 18.109375 30.90625 
L 18.109375 0 
L 9.078125 0 
L 9.078125 54.6875 
L 18.109375 54.6875 
L 18.109375 46.1875 
Q 21.34375 51.125 25.703125 53.5625 
Q 30.078125 56 35.796875 56 
Q 45.21875 56 50.046875 50.171875 
Q 54.890625 44.34375 54.890625 33.015625 
z
" id="DejaVuSans-110"/>
     <path d="M 45.40625 27.984375 
Q 45.40625 37.75 41.375 43.109375 
Q 37.359375 48.484375 30.078125 48.484375 
Q 22.859375 48.484375 18.828125 43.109375 
Q 14.796875 37.75 14.796875 27.984375 
Q 14.796875 18.265625 18.828125 12.890625 
Q 22.859375 7.515625 30.078125 7.515625 
Q 37.359375 7.515625 41.375 12.890625 
Q 45.40625 18.265625 45.40625 27.984375 
z
M 54.390625 6.78125 
Q 54.390625 -7.171875 48.1875 -13.984375 
Q 42 -20.796875 29.203125 -20.796875 
Q 24.46875 -20.796875 20.265625 -20.09375 
Q 16.0625 -19.390625 12.109375 -17.921875 
L 12.109375 -9.1875 
Q 16.0625 -11.328125 19.921875 -12.34375 
Q 23.78125 -13.375 27.78125 -13.375 
Q 36.625 -13.375 41.015625 -8.765625 
Q 45.40625 -4.15625 45.40625 5.171875 
L 45.40625 9.625 
Q 42.625 4.78125 38.28125 2.390625 
Q 33.9375 0 27.875 0 
Q 17.828125 0 11.671875 7.65625 
Q 5.515625 15.328125 5.515625 27.984375 
Q 5.515625 40.671875 11.671875 48.328125 
Q 17.828125 56 27.875 56 
Q 33.9375 56 38.28125 53.609375 
Q 42.625 51.21875 45.40625 46.390625 
L 45.40625 54.6875 
L 54.390625 54.6875 
z
" id="DejaVuSans-103"/>
     <path d="M 54.890625 33.015625 
L 54.890625 0 
L 45.90625 0 
L 45.90625 32.71875 
Q 45.90625 40.484375 42.875 44.328125 
Q 39.84375 48.1875 33.796875 48.1875 
Q 26.515625 48.1875 22.3125 43.546875 
Q 18.109375 38.921875 18.109375 30.90625 
L 18.109375 0 
L 9.078125 0 
L 9.078125 75.984375 
L 18.109375 75.984375 
L 18.109375 46.1875 
Q 21.34375 51.125 25.703125 53.5625 
Q 30.078125 56 35.796875 56 
Q 45.21875 56 50.046875 50.171875 
Q 54.890625 44.34375 54.890625 33.015625 
z
" id="DejaVuSans-104"/>
     <path d="M 11.71875 12.40625 
L 22.015625 12.40625 
L 22.015625 0 
L 11.71875 0 
z
M 11.71875 51.703125 
L 22.015625 51.703125 
L 22.015625 39.3125 
L 11.71875 39.3125 
z
" id="DejaVuSans-58"/>
     <path d="M 45.40625 46.390625 
L 45.40625 75.984375 
L 54.390625 75.984375 
L 54.390625 0 
L 45.40625 0 
L 45.40625 8.203125 
Q 42.578125 3.328125 38.25 0.953125 
Q 33.9375 -1.421875 27.875 -1.421875 
Q 17.96875 -1.421875 11.734375 6.484375 
Q 5.515625 14.40625 5.515625 27.296875 
Q 5.515625 40.1875 11.734375 48.09375 
Q 17.96875 56 27.875 56 
Q 33.9375 56 38.25 53.625 
Q 42.578125 51.265625 45.40625 46.390625 
z
M 14.796875 27.296875 
Q 14.796875 17.390625 18.875 11.75 
Q 22.953125 6.109375 30.078125 6.109375 
Q 37.203125 6.109375 41.296875 11.75 
Q 45.40625 17.390625 45.40625 27.296875 
Q 45.40625 37.203125 41.296875 42.84375 
Q 37.203125 48.484375 30.078125 48.484375 
Q 22.953125 48.484375 18.875 42.84375 
Q 14.796875 37.203125 14.796875 27.296875 
z
" id="DejaVuSans-100"/>
    </defs>
    <g transform="translate(108.75625 19.44)scale(0.12 -0.12)">
     <use xlink:href="#DejaVuSans-82"/>
     <use x="69.419922" xlink:href="#DejaVuSans-101"/>
     <use x="130.943359" xlink:href="#DejaVuSans-99"/>
     <use x="185.923828" xlink:href="#DejaVuSans-101"/>
     <use x="247.447266" xlink:href="#DejaVuSans-105"/>
     <use x="275.230469" xlink:href="#DejaVuSans-118"/>
     <use x="334.410156" xlink:href="#DejaVuSans-101"/>
     <use x="395.933594" xlink:href="#DejaVuSans-114"/>
     <use x="437.046875" xlink:href="#DejaVuSans-32"/>
     <use x="468.833984" xlink:href="#DejaVuSans-111"/>
     <use x="530.015625" xlink:href="#DejaVuSans-112"/>
     <use x="593.492188" xlink:href="#DejaVuSans-101"/>
     <use x="655.015625" xlink:href="#DejaVuSans-114"/>
     <use x="696.128906" xlink:href="#DejaVuSans-97"/>
     <use x="757.408203" xlink:href="#DejaVuSans-116"/>
     <use x="796.617188" xlink:href="#DejaVuSans-105"/>
     <use x="824.400391" xlink:href="#DejaVuSans-110"/>
     <use x="887.779297" xlink:href="#DejaVuSans-103"/>
     <use x="951.255859" xlink:href="#DejaVuSans-32"/>
     <use x="983.042969" xlink:href="#DejaVuSans-99"/>
     <use x="1038.023438" xlink:href="#DejaVuSans-104"/>
     <use x="1101.402344" xlink:href="#DejaVuSans-97"/>
     <use x="1162.681641" xlink:href="#DejaVuSans-114"/>
     <use x="1203.794922" xlink:href="#DejaVuSans-97"/>
     <use x="1265.074219" xlink:href="#DejaVuSans-99"/>
     <use x="1320.054688" xlink:href="#DejaVuSans-116"/>
     <use x="1359.263672" xlink:href="#DejaVuSans-101"/>
     <use x="1420.787109" xlink:href="#DejaVuSans-114"/>
     <use x="1461.900391" xlink:href="#DejaVuSans-105"/>
     <use x="1489.683594" xlink:href="#DejaVuSans-115"/>
     <use x="1541.783203" xlink:href="#DejaVuSans-116"/>
     <use x="1580.992188" xlink:href="#DejaVuSans-105"/>
     <use x="1608.775391" xlink:href="#DejaVuSans-99"/>
     <use x="1663.755859" xlink:href="#DejaVuSans-58"/>
     <use x="1697.447266" xlink:href="#DejaVuSans-32"/>
     <use x="1729.234375" xlink:href="#DejaVuSans-100"/>
     <use x="1792.710938" xlink:href="#DejaVuSans-117"/>
     <use x="1856.089844" xlink:href="#DejaVuSans-112"/>
     <use x="1919.566406" xlink:href="#DejaVuSans-108"/>
     <use x="1947.349609" xlink:href="#DejaVuSans-105"/>
     <use x="1975.132812" xlink:href="#DejaVuSans-99"/>
     <use x="2030.113281" xlink:href="#DejaVuSans-97"/>
     <use x="2091.392578" xlink:href="#DejaVuSans-116"/>
     <use x="2130.601562" xlink:href="#DejaVuSans-105"/>
     <use x="2158.384766" xlink:href="#DejaVuSans-111"/>
     <use x="2219.566406" xlink:href="#DejaVuSans-110"/>
     <use x="2282.945312" xlink:href="#DejaVuSans-115"/>
    </g>
   </g>
   <g id="legend_1">
    <g id="patch_7">
     <path d="M 252.6 298.64 
L 443 298.64 
Q 445 298.64 445 296.64 
L 445 106.824375 
Q 445 104.824375 443 104.824375 
L 252.6 104.824375 
Q 250.6 104.824375 250.6 106.824375 
L 250.6 296.64 
Q 250.6 298.64 252.6 298.64 
z
" style="fill:#ffffff;opacity:0.8;stroke:#cccccc;stroke-linejoin:miter;"/>
    </g>
    <g id="line2d_25">
     <path d="M 254.6 112.922812 
L 274.6 112.922812 
" style="fill:none;stroke:#1f77b4;stroke-linecap:square;stroke-opacity:0.3;"/>
    </g>
    <g id="line2d_26"/>
    <g id="text_16">
     <!-- ROC fold 0 (AUC = 0.70) -->
     <defs>
      <path d="M 39.40625 66.21875 
Q 28.65625 66.21875 22.328125 58.203125 
Q 16.015625 50.203125 16.015625 36.375 
Q 16.015625 22.609375 22.328125 14.59375 
Q 28.65625 6.59375 39.40625 6.59375 
Q 50.140625 6.59375 56.421875 14.59375 
Q 62.703125 22.609375 62.703125 36.375 
Q 62.703125 50.203125 56.421875 58.203125 
Q 50.140625 66.21875 39.40625 66.21875 
z
M 39.40625 74.21875 
Q 54.734375 74.21875 63.90625 63.9375 
Q 73.09375 53.65625 73.09375 36.375 
Q 73.09375 19.140625 63.90625 8.859375 
Q 54.734375 -1.421875 39.40625 -1.421875 
Q 24.03125 -1.421875 14.8125 8.828125 
Q 5.609375 19.09375 5.609375 36.375 
Q 5.609375 53.65625 14.8125 63.9375 
Q 24.03125 74.21875 39.40625 74.21875 
z
" id="DejaVuSans-79"/>
      <path d="M 64.40625 67.28125 
L 64.40625 56.890625 
Q 59.421875 61.53125 53.78125 63.8125 
Q 48.140625 66.109375 41.796875 66.109375 
Q 29.296875 66.109375 22.65625 58.46875 
Q 16.015625 50.828125 16.015625 36.375 
Q 16.015625 21.96875 22.65625 14.328125 
Q 29.296875 6.6875 41.796875 6.6875 
Q 48.140625 6.6875 53.78125 8.984375 
Q 59.421875 11.28125 64.40625 15.921875 
L 64.40625 5.609375 
Q 59.234375 2.09375 53.4375 0.328125 
Q 47.65625 -1.421875 41.21875 -1.421875 
Q 24.65625 -1.421875 15.125 8.703125 
Q 5.609375 18.84375 5.609375 36.375 
Q 5.609375 53.953125 15.125 64.078125 
Q 24.65625 74.21875 41.21875 74.21875 
Q 47.75 74.21875 53.53125 72.484375 
Q 59.328125 70.75 64.40625 67.28125 
z
" id="DejaVuSans-67"/>
      <path d="M 37.109375 75.984375 
L 37.109375 68.5 
L 28.515625 68.5 
Q 23.6875 68.5 21.796875 66.546875 
Q 19.921875 64.59375 19.921875 59.515625 
L 19.921875 54.6875 
L 34.71875 54.6875 
L 34.71875 47.703125 
L 19.921875 47.703125 
L 19.921875 0 
L 10.890625 0 
L 10.890625 47.703125 
L 2.296875 47.703125 
L 2.296875 54.6875 
L 10.890625 54.6875 
L 10.890625 58.5 
Q 10.890625 67.625 15.140625 71.796875 
Q 19.390625 75.984375 28.609375 75.984375 
z
" id="DejaVuSans-102"/>
      <path d="M 31 75.875 
Q 24.46875 64.65625 21.28125 53.65625 
Q 18.109375 42.671875 18.109375 31.390625 
Q 18.109375 20.125 21.3125 9.0625 
Q 24.515625 -2 31 -13.1875 
L 23.1875 -13.1875 
Q 15.875 -1.703125 12.234375 9.375 
Q 8.59375 20.453125 8.59375 31.390625 
Q 8.59375 42.28125 12.203125 53.3125 
Q 15.828125 64.359375 23.1875 75.875 
z
" id="DejaVuSans-40"/>
      <path d="M 34.1875 63.1875 
L 20.796875 26.90625 
L 47.609375 26.90625 
z
M 28.609375 72.90625 
L 39.796875 72.90625 
L 67.578125 0 
L 57.328125 0 
L 50.6875 18.703125 
L 17.828125 18.703125 
L 11.1875 0 
L 0.78125 0 
z
" id="DejaVuSans-65"/>
      <path d="M 8.6875 72.90625 
L 18.609375 72.90625 
L 18.609375 28.609375 
Q 18.609375 16.890625 22.84375 11.734375 
Q 27.09375 6.59375 36.625 6.59375 
Q 46.09375 6.59375 50.34375 11.734375 
Q 54.59375 16.890625 54.59375 28.609375 
L 54.59375 72.90625 
L 64.5 72.90625 
L 64.5 27.390625 
Q 64.5 13.140625 57.4375 5.859375 
Q 50.390625 -1.421875 36.625 -1.421875 
Q 22.796875 -1.421875 15.734375 5.859375 
Q 8.6875 13.140625 8.6875 27.390625 
z
" id="DejaVuSans-85"/>
      <path d="M 10.59375 45.40625 
L 73.1875 45.40625 
L 73.1875 37.203125 
L 10.59375 37.203125 
z
M 10.59375 25.484375 
L 73.1875 25.484375 
L 73.1875 17.1875 
L 10.59375 17.1875 
z
" id="DejaVuSans-61"/>
      <path d="M 8.203125 72.90625 
L 55.078125 72.90625 
L 55.078125 68.703125 
L 28.609375 0 
L 18.3125 0 
L 43.21875 64.59375 
L 8.203125 64.59375 
z
" id="DejaVuSans-55"/>
      <path d="M 8.015625 75.875 
L 15.828125 75.875 
Q 23.140625 64.359375 26.78125 53.3125 
Q 30.421875 42.28125 30.421875 31.390625 
Q 30.421875 20.453125 26.78125 9.375 
Q 23.140625 -1.703125 15.828125 -13.1875 
L 8.015625 -13.1875 
Q 14.5 -2 17.703125 9.0625 
Q 20.90625 20.125 20.90625 31.390625 
Q 20.90625 42.671875 17.703125 53.65625 
Q 14.5 64.65625 8.015625 75.875 
z
" id="DejaVuSans-41"/>
     </defs>
     <g transform="translate(282.6 116.422812)scale(0.1 -0.1)">
      <use xlink:href="#DejaVuSans-82"/>
      <use x="69.482422" xlink:href="#DejaVuSans-79"/>
      <use x="148.193359" xlink:href="#DejaVuSans-67"/>
      <use x="218.017578" xlink:href="#DejaVuSans-32"/>
      <use x="249.804688" xlink:href="#DejaVuSans-102"/>
      <use x="285.009766" xlink:href="#DejaVuSans-111"/>
      <use x="346.191406" xlink:href="#DejaVuSans-108"/>
      <use x="373.974609" xlink:href="#DejaVuSans-100"/>
      <use x="437.451172" xlink:href="#DejaVuSans-32"/>
      <use x="469.238281" xlink:href="#DejaVuSans-48"/>
      <use x="532.861328" xlink:href="#DejaVuSans-32"/>
      <use x="564.648438" xlink:href="#DejaVuSans-40"/>
      <use x="603.662109" xlink:href="#DejaVuSans-65"/>
      <use x="672.070312" xlink:href="#DejaVuSans-85"/>
      <use x="745.263672" xlink:href="#DejaVuSans-67"/>
      <use x="815.087891" xlink:href="#DejaVuSans-32"/>
      <use x="846.875" xlink:href="#DejaVuSans-61"/>
      <use x="930.664062" xlink:href="#DejaVuSans-32"/>
      <use x="962.451172" xlink:href="#DejaVuSans-48"/>
      <use x="1026.074219" xlink:href="#DejaVuSans-46"/>
      <use x="1057.861328" xlink:href="#DejaVuSans-55"/>
      <use x="1121.484375" xlink:href="#DejaVuSans-48"/>
      <use x="1185.107422" xlink:href="#DejaVuSans-41"/>
     </g>
    </g>
    <g id="line2d_27">
     <path d="M 254.6 127.600938 
L 274.6 127.600938 
" style="fill:none;stroke:#ff7f0e;stroke-linecap:square;stroke-opacity:0.3;"/>
    </g>
    <g id="line2d_28"/>
    <g id="text_17">
     <!-- ROC fold 1 (AUC = 0.67) -->
     <g transform="translate(282.6 131.100938)scale(0.1 -0.1)">
      <use xlink:href="#DejaVuSans-82"/>
      <use x="69.482422" xlink:href="#DejaVuSans-79"/>
      <use x="148.193359" xlink:href="#DejaVuSans-67"/>
      <use x="218.017578" xlink:href="#DejaVuSans-32"/>
      <use x="249.804688" xlink:href="#DejaVuSans-102"/>
      <use x="285.009766" xlink:href="#DejaVuSans-111"/>
      <use x="346.191406" xlink:href="#DejaVuSans-108"/>
      <use x="373.974609" xlink:href="#DejaVuSans-100"/>
      <use x="437.451172" xlink:href="#DejaVuSans-32"/>
      <use x="469.238281" xlink:href="#DejaVuSans-49"/>
      <use x="532.861328" xlink:href="#DejaVuSans-32"/>
      <use x="564.648438" xlink:href="#DejaVuSans-40"/>
      <use x="603.662109" xlink:href="#DejaVuSans-65"/>
      <use x="672.070312" xlink:href="#DejaVuSans-85"/>
      <use x="745.263672" xlink:href="#DejaVuSans-67"/>
      <use x="815.087891" xlink:href="#DejaVuSans-32"/>
      <use x="846.875" xlink:href="#DejaVuSans-61"/>
      <use x="930.664062" xlink:href="#DejaVuSans-32"/>
      <use x="962.451172" xlink:href="#DejaVuSans-48"/>
      <use x="1026.074219" xlink:href="#DejaVuSans-46"/>
      <use x="1057.861328" xlink:href="#DejaVuSans-54"/>
      <use x="1121.484375" xlink:href="#DejaVuSans-55"/>
      <use x="1185.107422" xlink:href="#DejaVuSans-41"/>
     </g>
    </g>
    <g id="line2d_29">
     <path d="M 254.6 142.279063 
L 274.6 142.279063 
" style="fill:none;stroke:#2ca02c;stroke-linecap:square;stroke-opacity:0.3;"/>
    </g>
    <g id="line2d_30"/>
    <g id="text_18">
     <!-- ROC fold 2 (AUC = 0.70) -->
     <g transform="translate(282.6 145.779063)scale(0.1 -0.1)">
      <use xlink:href="#DejaVuSans-82"/>
      <use x="69.482422" xlink:href="#DejaVuSans-79"/>
      <use x="148.193359" xlink:href="#DejaVuSans-67"/>
      <use x="218.017578" xlink:href="#DejaVuSans-32"/>
      <use x="249.804688" xlink:href="#DejaVuSans-102"/>
      <use x="285.009766" xlink:href="#DejaVuSans-111"/>
      <use x="346.191406" xlink:href="#DejaVuSans-108"/>
      <use x="373.974609" xlink:href="#DejaVuSans-100"/>
      <use x="437.451172" xlink:href="#DejaVuSans-32"/>
      <use x="469.238281" xlink:href="#DejaVuSans-50"/>
      <use x="532.861328" xlink:href="#DejaVuSans-32"/>
      <use x="564.648438" xlink:href="#DejaVuSans-40"/>
      <use x="603.662109" xlink:href="#DejaVuSans-65"/>
      <use x="672.070312" xlink:href="#DejaVuSans-85"/>
      <use x="745.263672" xlink:href="#DejaVuSans-67"/>
      <use x="815.087891" xlink:href="#DejaVuSans-32"/>
      <use x="846.875" xlink:href="#DejaVuSans-61"/>
      <use x="930.664062" xlink:href="#DejaVuSans-32"/>
      <use x="962.451172" xlink:href="#DejaVuSans-48"/>
      <use x="1026.074219" xlink:href="#DejaVuSans-46"/>
      <use x="1057.861328" xlink:href="#DejaVuSans-55"/>
      <use x="1121.484375" xlink:href="#DejaVuSans-48"/>
      <use x="1185.107422" xlink:href="#DejaVuSans-41"/>
     </g>
    </g>
    <g id="line2d_31">
     <path d="M 254.6 156.957188 
L 274.6 156.957188 
" style="fill:none;stroke:#d62728;stroke-linecap:square;stroke-opacity:0.3;"/>
    </g>
    <g id="line2d_32"/>
    <g id="text_19">
     <!-- ROC fold 3 (AUC = 0.62) -->
     <defs>
      <path d="M 40.578125 39.3125 
Q 47.65625 37.796875 51.625 33 
Q 55.609375 28.21875 55.609375 21.1875 
Q 55.609375 10.40625 48.1875 4.484375 
Q 40.765625 -1.421875 27.09375 -1.421875 
Q 22.515625 -1.421875 17.65625 -0.515625 
Q 12.796875 0.390625 7.625 2.203125 
L 7.625 11.71875 
Q 11.71875 9.328125 16.59375 8.109375 
Q 21.484375 6.890625 26.8125 6.890625 
Q 36.078125 6.890625 40.9375 10.546875 
Q 45.796875 14.203125 45.796875 21.1875 
Q 45.796875 27.640625 41.28125 31.265625 
Q 36.765625 34.90625 28.71875 34.90625 
L 20.21875 34.90625 
L 20.21875 43.015625 
L 29.109375 43.015625 
Q 36.375 43.015625 40.234375 45.921875 
Q 44.09375 48.828125 44.09375 54.296875 
Q 44.09375 59.90625 40.109375 62.90625 
Q 36.140625 65.921875 28.71875 65.921875 
Q 24.65625 65.921875 20.015625 65.03125 
Q 15.375 64.15625 9.8125 62.3125 
L 9.8125 71.09375 
Q 15.4375 72.65625 20.34375 73.4375 
Q 25.25 74.21875 29.59375 74.21875 
Q 40.828125 74.21875 47.359375 69.109375 
Q 53.90625 64.015625 53.90625 55.328125 
Q 53.90625 49.265625 50.4375 45.09375 
Q 46.96875 40.921875 40.578125 39.3125 
z
" id="DejaVuSans-51"/>
     </defs>
     <g transform="translate(282.6 160.457188)scale(0.1 -0.1)">
      <use xlink:href="#DejaVuSans-82"/>
      <use x="69.482422" xlink:href="#DejaVuSans-79"/>
      <use x="148.193359" xlink:href="#DejaVuSans-67"/>
      <use x="218.017578" xlink:href="#DejaVuSans-32"/>
      <use x="249.804688" xlink:href="#DejaVuSans-102"/>
      <use x="285.009766" xlink:href="#DejaVuSans-111"/>
      <use x="346.191406" xlink:href="#DejaVuSans-108"/>
      <use x="373.974609" xlink:href="#DejaVuSans-100"/>
      <use x="437.451172" xlink:href="#DejaVuSans-32"/>
      <use x="469.238281" xlink:href="#DejaVuSans-51"/>
      <use x="532.861328" xlink:href="#DejaVuSans-32"/>
      <use x="564.648438" xlink:href="#DejaVuSans-40"/>
      <use x="603.662109" xlink:href="#DejaVuSans-65"/>
      <use x="672.070312" xlink:href="#DejaVuSans-85"/>
      <use x="745.263672" xlink:href="#DejaVuSans-67"/>
      <use x="815.087891" xlink:href="#DejaVuSans-32"/>
      <use x="846.875" xlink:href="#DejaVuSans-61"/>
      <use x="930.664062" xlink:href="#DejaVuSans-32"/>
      <use x="962.451172" xlink:href="#DejaVuSans-48"/>
      <use x="1026.074219" xlink:href="#DejaVuSans-46"/>
      <use x="1057.861328" xlink:href="#DejaVuSans-54"/>
      <use x="1121.484375" xlink:href="#DejaVuSans-50"/>
      <use x="1185.107422" xlink:href="#DejaVuSans-41"/>
     </g>
    </g>
    <g id="line2d_33">
     <path d="M 254.6 171.635312 
L 274.6 171.635312 
" style="fill:none;stroke:#9467bd;stroke-linecap:square;stroke-opacity:0.3;"/>
    </g>
    <g id="line2d_34"/>
    <g id="text_20">
     <!-- ROC fold 4 (AUC = 0.67) -->
     <g transform="translate(282.6 175.135312)scale(0.1 -0.1)">
      <use xlink:href="#DejaVuSans-82"/>
      <use x="69.482422" xlink:href="#DejaVuSans-79"/>
      <use x="148.193359" xlink:href="#DejaVuSans-67"/>
      <use x="218.017578" xlink:href="#DejaVuSans-32"/>
      <use x="249.804688" xlink:href="#DejaVuSans-102"/>
      <use x="285.009766" xlink:href="#DejaVuSans-111"/>
      <use x="346.191406" xlink:href="#DejaVuSans-108"/>
      <use x="373.974609" xlink:href="#DejaVuSans-100"/>
      <use x="437.451172" xlink:href="#DejaVuSans-32"/>
      <use x="469.238281" xlink:href="#DejaVuSans-52"/>
      <use x="532.861328" xlink:href="#DejaVuSans-32"/>
      <use x="564.648438" xlink:href="#DejaVuSans-40"/>
      <use x="603.662109" xlink:href="#DejaVuSans-65"/>
      <use x="672.070312" xlink:href="#DejaVuSans-85"/>
      <use x="745.263672" xlink:href="#DejaVuSans-67"/>
      <use x="815.087891" xlink:href="#DejaVuSans-32"/>
      <use x="846.875" xlink:href="#DejaVuSans-61"/>
      <use x="930.664062" xlink:href="#DejaVuSans-32"/>
      <use x="962.451172" xlink:href="#DejaVuSans-48"/>
      <use x="1026.074219" xlink:href="#DejaVuSans-46"/>
      <use x="1057.861328" xlink:href="#DejaVuSans-54"/>
      <use x="1121.484375" xlink:href="#DejaVuSans-55"/>
      <use x="1185.107422" xlink:href="#DejaVuSans-41"/>
     </g>
    </g>
    <g id="line2d_35">
     <path d="M 254.6 186.313438 
L 274.6 186.313438 
" style="fill:none;stroke:#8c564b;stroke-linecap:square;stroke-opacity:0.3;"/>
    </g>
    <g id="line2d_36"/>
    <g id="text_21">
     <!-- ROC fold 5 (AUC = 0.71) -->
     <defs>
      <path d="M 10.796875 72.90625 
L 49.515625 72.90625 
L 49.515625 64.59375 
L 19.828125 64.59375 
L 19.828125 46.734375 
Q 21.96875 47.46875 24.109375 47.828125 
Q 26.265625 48.1875 28.421875 48.1875 
Q 40.625 48.1875 47.75 41.5 
Q 54.890625 34.8125 54.890625 23.390625 
Q 54.890625 11.625 47.5625 5.09375 
Q 40.234375 -1.421875 26.90625 -1.421875 
Q 22.3125 -1.421875 17.546875 -0.640625 
Q 12.796875 0.140625 7.71875 1.703125 
L 7.71875 11.625 
Q 12.109375 9.234375 16.796875 8.0625 
Q 21.484375 6.890625 26.703125 6.890625 
Q 35.15625 6.890625 40.078125 11.328125 
Q 45.015625 15.765625 45.015625 23.390625 
Q 45.015625 31 40.078125 35.4375 
Q 35.15625 39.890625 26.703125 39.890625 
Q 22.75 39.890625 18.8125 39.015625 
Q 14.890625 38.140625 10.796875 36.28125 
z
" id="DejaVuSans-53"/>
     </defs>
     <g transform="translate(282.6 189.813438)scale(0.1 -0.1)">
      <use xlink:href="#DejaVuSans-82"/>
      <use x="69.482422" xlink:href="#DejaVuSans-79"/>
      <use x="148.193359" xlink:href="#DejaVuSans-67"/>
      <use x="218.017578" xlink:href="#DejaVuSans-32"/>
      <use x="249.804688" xlink:href="#DejaVuSans-102"/>
      <use x="285.009766" xlink:href="#DejaVuSans-111"/>
      <use x="346.191406" xlink:href="#DejaVuSans-108"/>
      <use x="373.974609" xlink:href="#DejaVuSans-100"/>
      <use x="437.451172" xlink:href="#DejaVuSans-32"/>
      <use x="469.238281" xlink:href="#DejaVuSans-53"/>
      <use x="532.861328" xlink:href="#DejaVuSans-32"/>
      <use x="564.648438" xlink:href="#DejaVuSans-40"/>
      <use x="603.662109" xlink:href="#DejaVuSans-65"/>
      <use x="672.070312" xlink:href="#DejaVuSans-85"/>
      <use x="745.263672" xlink:href="#DejaVuSans-67"/>
      <use x="815.087891" xlink:href="#DejaVuSans-32"/>
      <use x="846.875" xlink:href="#DejaVuSans-61"/>
      <use x="930.664062" xlink:href="#DejaVuSans-32"/>
      <use x="962.451172" xlink:href="#DejaVuSans-48"/>
      <use x="1026.074219" xlink:href="#DejaVuSans-46"/>
      <use x="1057.861328" xlink:href="#DejaVuSans-55"/>
      <use x="1121.484375" xlink:href="#DejaVuSans-49"/>
      <use x="1185.107422" xlink:href="#DejaVuSans-41"/>
     </g>
    </g>
    <g id="line2d_37">
     <path d="M 254.6 200.991562 
L 274.6 200.991562 
" style="fill:none;stroke:#e377c2;stroke-linecap:square;stroke-opacity:0.3;"/>
    </g>
    <g id="line2d_38"/>
    <g id="text_22">
     <!-- ROC fold 6 (AUC = 0.66) -->
     <g transform="translate(282.6 204.491562)scale(0.1 -0.1)">
      <use xlink:href="#DejaVuSans-82"/>
      <use x="69.482422" xlink:href="#DejaVuSans-79"/>
      <use x="148.193359" xlink:href="#DejaVuSans-67"/>
      <use x="218.017578" xlink:href="#DejaVuSans-32"/>
      <use x="249.804688" xlink:href="#DejaVuSans-102"/>
      <use x="285.009766" xlink:href="#DejaVuSans-111"/>
      <use x="346.191406" xlink:href="#DejaVuSans-108"/>
      <use x="373.974609" xlink:href="#DejaVuSans-100"/>
      <use x="437.451172" xlink:href="#DejaVuSans-32"/>
      <use x="469.238281" xlink:href="#DejaVuSans-54"/>
      <use x="532.861328" xlink:href="#DejaVuSans-32"/>
      <use x="564.648438" xlink:href="#DejaVuSans-40"/>
      <use x="603.662109" xlink:href="#DejaVuSans-65"/>
      <use x="672.070312" xlink:href="#DejaVuSans-85"/>
      <use x="745.263672" xlink:href="#DejaVuSans-67"/>
      <use x="815.087891" xlink:href="#DejaVuSans-32"/>
      <use x="846.875" xlink:href="#DejaVuSans-61"/>
      <use x="930.664062" xlink:href="#DejaVuSans-32"/>
      <use x="962.451172" xlink:href="#DejaVuSans-48"/>
      <use x="1026.074219" xlink:href="#DejaVuSans-46"/>
      <use x="1057.861328" xlink:href="#DejaVuSans-54"/>
      <use x="1121.484375" xlink:href="#DejaVuSans-54"/>
      <use x="1185.107422" xlink:href="#DejaVuSans-41"/>
     </g>
    </g>
    <g id="line2d_39">
     <path d="M 254.6 215.669688 
L 274.6 215.669688 
" style="fill:none;stroke:#7f7f7f;stroke-linecap:square;stroke-opacity:0.3;"/>
    </g>
    <g id="line2d_40"/>
    <g id="text_23">
     <!-- ROC fold 7 (AUC = 0.66) -->
     <g transform="translate(282.6 219.169688)scale(0.1 -0.1)">
      <use xlink:href="#DejaVuSans-82"/>
      <use x="69.482422" xlink:href="#DejaVuSans-79"/>
      <use x="148.193359" xlink:href="#DejaVuSans-67"/>
      <use x="218.017578" xlink:href="#DejaVuSans-32"/>
      <use x="249.804688" xlink:href="#DejaVuSans-102"/>
      <use x="285.009766" xlink:href="#DejaVuSans-111"/>
      <use x="346.191406" xlink:href="#DejaVuSans-108"/>
      <use x="373.974609" xlink:href="#DejaVuSans-100"/>
      <use x="437.451172" xlink:href="#DejaVuSans-32"/>
      <use x="469.238281" xlink:href="#DejaVuSans-55"/>
      <use x="532.861328" xlink:href="#DejaVuSans-32"/>
      <use x="564.648438" xlink:href="#DejaVuSans-40"/>
      <use x="603.662109" xlink:href="#DejaVuSans-65"/>
      <use x="672.070312" xlink:href="#DejaVuSans-85"/>
      <use x="745.263672" xlink:href="#DejaVuSans-67"/>
      <use x="815.087891" xlink:href="#DejaVuSans-32"/>
      <use x="846.875" xlink:href="#DejaVuSans-61"/>
      <use x="930.664062" xlink:href="#DejaVuSans-32"/>
      <use x="962.451172" xlink:href="#DejaVuSans-48"/>
      <use x="1026.074219" xlink:href="#DejaVuSans-46"/>
      <use x="1057.861328" xlink:href="#DejaVuSans-54"/>
      <use x="1121.484375" xlink:href="#DejaVuSans-54"/>
      <use x="1185.107422" xlink:href="#DejaVuSans-41"/>
     </g>
    </g>
    <g id="line2d_41">
     <path d="M 254.6 230.347812 
L 274.6 230.347812 
" style="fill:none;stroke:#bcbd22;stroke-linecap:square;stroke-opacity:0.3;"/>
    </g>
    <g id="line2d_42"/>
    <g id="text_24">
     <!-- ROC fold 8 (AUC = 0.69) -->
     <defs>
      <path d="M 10.984375 1.515625 
L 10.984375 10.5 
Q 14.703125 8.734375 18.5 7.8125 
Q 22.3125 6.890625 25.984375 6.890625 
Q 35.75 6.890625 40.890625 13.453125 
Q 46.046875 20.015625 46.78125 33.40625 
Q 43.953125 29.203125 39.59375 26.953125 
Q 35.25 24.703125 29.984375 24.703125 
Q 19.046875 24.703125 12.671875 31.3125 
Q 6.296875 37.9375 6.296875 49.421875 
Q 6.296875 60.640625 12.9375 67.421875 
Q 19.578125 74.21875 30.609375 74.21875 
Q 43.265625 74.21875 49.921875 64.515625 
Q 56.59375 54.828125 56.59375 36.375 
Q 56.59375 19.140625 48.40625 8.859375 
Q 40.234375 -1.421875 26.421875 -1.421875 
Q 22.703125 -1.421875 18.890625 -0.6875 
Q 15.09375 0.046875 10.984375 1.515625 
z
M 30.609375 32.421875 
Q 37.25 32.421875 41.125 36.953125 
Q 45.015625 41.5 45.015625 49.421875 
Q 45.015625 57.28125 41.125 61.84375 
Q 37.25 66.40625 30.609375 66.40625 
Q 23.96875 66.40625 20.09375 61.84375 
Q 16.21875 57.28125 16.21875 49.421875 
Q 16.21875 41.5 20.09375 36.953125 
Q 23.96875 32.421875 30.609375 32.421875 
z
" id="DejaVuSans-57"/>
     </defs>
     <g transform="translate(282.6 233.847812)scale(0.1 -0.1)">
      <use xlink:href="#DejaVuSans-82"/>
      <use x="69.482422" xlink:href="#DejaVuSans-79"/>
      <use x="148.193359" xlink:href="#DejaVuSans-67"/>
      <use x="218.017578" xlink:href="#DejaVuSans-32"/>
      <use x="249.804688" xlink:href="#DejaVuSans-102"/>
      <use x="285.009766" xlink:href="#DejaVuSans-111"/>
      <use x="346.191406" xlink:href="#DejaVuSans-108"/>
      <use x="373.974609" xlink:href="#DejaVuSans-100"/>
      <use x="437.451172" xlink:href="#DejaVuSans-32"/>
      <use x="469.238281" xlink:href="#DejaVuSans-56"/>
      <use x="532.861328" xlink:href="#DejaVuSans-32"/>
      <use x="564.648438" xlink:href="#DejaVuSans-40"/>
      <use x="603.662109" xlink:href="#DejaVuSans-65"/>
      <use x="672.070312" xlink:href="#DejaVuSans-85"/>
      <use x="745.263672" xlink:href="#DejaVuSans-67"/>
      <use x="815.087891" xlink:href="#DejaVuSans-32"/>
      <use x="846.875" xlink:href="#DejaVuSans-61"/>
      <use x="930.664062" xlink:href="#DejaVuSans-32"/>
      <use x="962.451172" xlink:href="#DejaVuSans-48"/>
      <use x="1026.074219" xlink:href="#DejaVuSans-46"/>
      <use x="1057.861328" xlink:href="#DejaVuSans-54"/>
      <use x="1121.484375" xlink:href="#DejaVuSans-57"/>
      <use x="1185.107422" xlink:href="#DejaVuSans-41"/>
     </g>
    </g>
    <g id="line2d_43">
     <path d="M 254.6 245.025937 
L 274.6 245.025937 
" style="fill:none;stroke:#17becf;stroke-linecap:square;stroke-opacity:0.3;"/>
    </g>
    <g id="line2d_44"/>
    <g id="text_25">
     <!-- ROC fold 9 (AUC = 0.63) -->
     <g transform="translate(282.6 248.525937)scale(0.1 -0.1)">
      <use xlink:href="#DejaVuSans-82"/>
      <use x="69.482422" xlink:href="#DejaVuSans-79"/>
      <use x="148.193359" xlink:href="#DejaVuSans-67"/>
      <use x="218.017578" xlink:href="#DejaVuSans-32"/>
      <use x="249.804688" xlink:href="#DejaVuSans-102"/>
      <use x="285.009766" xlink:href="#DejaVuSans-111"/>
      <use x="346.191406" xlink:href="#DejaVuSans-108"/>
      <use x="373.974609" xlink:href="#DejaVuSans-100"/>
      <use x="437.451172" xlink:href="#DejaVuSans-32"/>
      <use x="469.238281" xlink:href="#DejaVuSans-57"/>
      <use x="532.861328" xlink:href="#DejaVuSans-32"/>
      <use x="564.648438" xlink:href="#DejaVuSans-40"/>
      <use x="603.662109" xlink:href="#DejaVuSans-65"/>
      <use x="672.070312" xlink:href="#DejaVuSans-85"/>
      <use x="745.263672" xlink:href="#DejaVuSans-67"/>
      <use x="815.087891" xlink:href="#DejaVuSans-32"/>
      <use x="846.875" xlink:href="#DejaVuSans-61"/>
      <use x="930.664062" xlink:href="#DejaVuSans-32"/>
      <use x="962.451172" xlink:href="#DejaVuSans-48"/>
      <use x="1026.074219" xlink:href="#DejaVuSans-46"/>
      <use x="1057.861328" xlink:href="#DejaVuSans-54"/>
      <use x="1121.484375" xlink:href="#DejaVuSans-51"/>
      <use x="1185.107422" xlink:href="#DejaVuSans-41"/>
     </g>
    </g>
    <g id="line2d_45">
     <path d="M 254.6 259.704062 
L 274.6 259.704062 
" style="fill:none;stroke:#ff0000;stroke-dasharray:7.4,3.2;stroke-dashoffset:0;stroke-opacity:0.8;stroke-width:2;"/>
    </g>
    <g id="line2d_46"/>
    <g id="text_26">
     <!-- Chance -->
     <g transform="translate(282.6 263.204062)scale(0.1 -0.1)">
      <use xlink:href="#DejaVuSans-67"/>
      <use x="69.824219" xlink:href="#DejaVuSans-104"/>
      <use x="133.203125" xlink:href="#DejaVuSans-97"/>
      <use x="194.482422" xlink:href="#DejaVuSans-110"/>
      <use x="257.861328" xlink:href="#DejaVuSans-99"/>
      <use x="312.841797" xlink:href="#DejaVuSans-101"/>
     </g>
    </g>
    <g id="line2d_47">
     <path d="M 254.6 274.382187 
L 274.6 274.382187 
" style="fill:none;stroke:#0000ff;stroke-linecap:square;stroke-opacity:0.8;stroke-width:2;"/>
    </g>
    <g id="line2d_48"/>
    <g id="text_27">
     <!-- Mean ROC (AUC = 0.67 $\pm$ 0.03) -->
     <defs>
      <path d="M 9.8125 72.90625 
L 24.515625 72.90625 
L 43.109375 23.296875 
L 61.8125 72.90625 
L 76.515625 72.90625 
L 76.515625 0 
L 66.890625 0 
L 66.890625 64.015625 
L 48.09375 14.015625 
L 38.1875 14.015625 
L 19.390625 64.015625 
L 19.390625 0 
L 9.8125 0 
z
" id="DejaVuSans-77"/>
      <path d="M 46 62.703125 
L 46 43.796875 
L 73.1875 43.796875 
L 73.1875 35.5 
L 46 35.5 
L 46 16.609375 
L 37.796875 16.609375 
L 37.796875 35.5 
L 10.59375 35.5 
L 10.59375 43.796875 
L 37.796875 43.796875 
L 37.796875 62.703125 
z
M 10.59375 8.296875 
L 73.1875 8.296875 
L 73.1875 0 
L 10.59375 0 
z
" id="DejaVuSans-177"/>
     </defs>
     <g transform="translate(282.6 277.882187)scale(0.1 -0.1)">
      <use transform="translate(0 0.125)" xlink:href="#DejaVuSans-77"/>
      <use transform="translate(86.279297 0.125)" xlink:href="#DejaVuSans-101"/>
      <use transform="translate(147.802734 0.125)" xlink:href="#DejaVuSans-97"/>
      <use transform="translate(209.082031 0.125)" xlink:href="#DejaVuSans-110"/>
      <use transform="translate(272.460938 0.125)" xlink:href="#DejaVuSans-32"/>
      <use transform="translate(304.248047 0.125)" xlink:href="#DejaVuSans-82"/>
      <use transform="translate(373.730469 0.125)" xlink:href="#DejaVuSans-79"/>
      <use transform="translate(452.441406 0.125)" xlink:href="#DejaVuSans-67"/>
      <use transform="translate(522.265625 0.125)" xlink:href="#DejaVuSans-32"/>
      <use transform="translate(554.052734 0.125)" xlink:href="#DejaVuSans-40"/>
      <use transform="translate(593.066406 0.125)" xlink:href="#DejaVuSans-65"/>
      <use transform="translate(661.474609 0.125)" xlink:href="#DejaVuSans-85"/>
      <use transform="translate(734.667969 0.125)" xlink:href="#DejaVuSans-67"/>
      <use transform="translate(804.492188 0.125)" xlink:href="#DejaVuSans-32"/>
      <use transform="translate(836.279297 0.125)" xlink:href="#DejaVuSans-61"/>
      <use transform="translate(920.068359 0.125)" xlink:href="#DejaVuSans-32"/>
      <use transform="translate(951.855469 0.125)" xlink:href="#DejaVuSans-48"/>
      <use transform="translate(1015.478516 0.125)" xlink:href="#DejaVuSans-46"/>
      <use transform="translate(1047.265625 0.125)" xlink:href="#DejaVuSans-54"/>
      <use transform="translate(1110.888672 0.125)" xlink:href="#DejaVuSans-55"/>
      <use transform="translate(1174.511719 0.125)" xlink:href="#DejaVuSans-32"/>
      <use transform="translate(1206.298828 0.125)" xlink:href="#DejaVuSans-177"/>
      <use transform="translate(1290.087891 0.125)" xlink:href="#DejaVuSans-32"/>
      <use transform="translate(1321.875 0.125)" xlink:href="#DejaVuSans-48"/>
      <use transform="translate(1385.498047 0.125)" xlink:href="#DejaVuSans-46"/>
      <use transform="translate(1417.285156 0.125)" xlink:href="#DejaVuSans-48"/>
      <use transform="translate(1480.908203 0.125)" xlink:href="#DejaVuSans-51"/>
      <use transform="translate(1544.53125 0.125)" xlink:href="#DejaVuSans-41"/>
     </g>
    </g>
    <g id="patch_8">
     <path d="M 254.6 292.560312 
L 274.6 292.560312 
L 274.6 285.560312 
L 254.6 285.560312 
z
" style="fill:#808080;opacity:0.2;stroke:#808080;stroke-linejoin:miter;"/>
    </g>
    <g id="text_28">
     <!-- $\pm$ 1 std. dev. -->
     <g transform="translate(282.6 292.560312)scale(0.1 -0.1)">
      <use transform="translate(0 0.015625)" xlink:href="#DejaVuSans-177"/>
      <use transform="translate(83.789062 0.015625)" xlink:href="#DejaVuSans-32"/>
      <use transform="translate(115.576172 0.015625)" xlink:href="#DejaVuSans-49"/>
      <use transform="translate(179.199219 0.015625)" xlink:href="#DejaVuSans-32"/>
      <use transform="translate(210.986328 0.015625)" xlink:href="#DejaVuSans-115"/>
      <use transform="translate(263.085938 0.015625)" xlink:href="#DejaVuSans-116"/>
      <use transform="translate(302.294922 0.015625)" xlink:href="#DejaVuSans-100"/>
      <use transform="translate(365.771484 0.015625)" xlink:href="#DejaVuSans-46"/>
      <use transform="translate(397.558594 0.015625)" xlink:href="#DejaVuSans-32"/>
      <use transform="translate(429.345703 0.015625)" xlink:href="#DejaVuSans-100"/>
      <use transform="translate(492.822266 0.015625)" xlink:href="#DejaVuSans-101"/>
      <use transform="translate(554.345703 0.015625)" xlink:href="#DejaVuSans-118"/>
      <use transform="translate(613.525391 0.015625)" xlink:href="#DejaVuSans-46"/>
     </g>
    </g>
   </g>
  </g>
 </g>
 <defs>
  <clipPath id="p6a8e513008">
   <rect height="278.2" width="402.28" x="47.72" y="25.44"/>
  </clipPath>
 </defs>
</svg>
