<?xml version="1.0" encoding="utf-8" standalone="no"?>
<!DOCTYPE svg PUBLIC "-//W3C//DTD SVG 1.1//EN"
  "http://www.w3.org/Graphics/SVG/1.1/DTD/svg11.dtd">
<!-- Created with matplotlib (https://matplotlib.org/) -->
<svg height="345.6pt" version="1.1" viewBox="0 0 460.8 345.6" width="460.8pt" xmlns="http://www.w3.org/2000/svg" xmlns:xlink="http://www.w3.org/1999/xlink">
 <defs>
  <style type="text/css">
*{stroke-linecap:butt;stroke-linejoin:round;white-space:pre;}
  </style>
 </defs>
 <g id="figure_1">
  <g id="patch_1">
   <path d="M 0 345.6 
L 460.8 345.6 
L 460.8 0 
L 0 0 
z
" style="fill:#ffffff;"/>
  </g>
  <g id="axes_1">
   <g id="patch_2">
    <path d="M 36.88 317.72 
L 450 317.72 
L 450 10.8 
L 36.88 10.8 
z
" style="fill:#ffffff;"/>
   </g>
   <g id="patch_3">
    <path clip-path="url(#pd8ec04027f)" d="M 55.658182 317.72 
L 75.958919 317.72 
L 75.958919 311.794903 
L 55.658182 311.794903 
z
" style="fill:#ffff00;"/>
   </g>
   <g id="patch_4">
    <path clip-path="url(#pd8ec04027f)" d="M 55.658182 311.794903 
L 75.958919 311.794903 
L 75.958919 311.794903 
L 55.658182 311.794903 
z
" style="fill:#00ffff;"/>
   </g>
   <g id="patch_5">
    <path clip-path="url(#pd8ec04027f)" d="M 55.658182 311.794903 
L 75.958919 311.794903 
L 75.958919 232.39861 
L 55.658182 232.39861 
z
" style="fill:#808080;"/>
   </g>
   <g id="patch_6">
    <path clip-path="url(#pd8ec04027f)" d="M 55.658182 232.39861 
L 75.958919 232.39861 
L 75.958919 170.777606 
L 55.658182 170.777606 
z
" style="fill:#0000ff;"/>
   </g>
   <g id="patch_7">
    <path clip-path="url(#pd8ec04027f)" d="M 55.658182 170.777606 
L 75.958919 170.777606 
L 75.958919 89.011274 
L 55.658182 89.011274 
z
" style="fill:#ff0000;"/>
   </g>
   <g id="patch_8">
    <path clip-path="url(#pd8ec04027f)" d="M 55.658182 89.011274 
L 75.958919 89.011274 
L 75.958919 20.280154 
L 55.658182 20.280154 
z
" style="fill:#ff00ff;"/>
   </g>
   <g id="patch_9">
    <path clip-path="url(#pd8ec04027f)" d="M 55.658182 20.280154 
L 75.958919 20.280154 
L 75.958919 20.280154 
L 55.658182 20.280154 
z
"/>
   </g>
   <g id="patch_10">
    <path clip-path="url(#pd8ec04027f)" d="M 81.034103 317.72 
L 101.33484 317.72 
L 101.33484 305.869807 
L 81.034103 305.869807 
z
" style="fill:#ffff00;"/>
   </g>
   <g id="patch_11">
    <path clip-path="url(#pd8ec04027f)" d="M 81.034103 305.869807 
L 101.33484 305.869807 
L 101.33484 304.684788 
L 81.034103 304.684788 
z
" style="fill:#00ffff;"/>
   </g>
   <g id="patch_12">
    <path clip-path="url(#pd8ec04027f)" d="M 81.034103 304.684788 
L 101.33484 304.684788 
L 101.33484 225.288494 
L 81.034103 225.288494 
z
" style="fill:#808080;"/>
   </g>
   <g id="patch_13">
    <path clip-path="url(#pd8ec04027f)" d="M 81.034103 225.288494 
L 101.33484 225.288494 
L 101.33484 163.66749 
L 81.034103 163.66749 
z
" style="fill:#0000ff;"/>
   </g>
   <g id="patch_14">
    <path clip-path="url(#pd8ec04027f)" d="M 81.034103 163.66749 
L 101.33484 163.66749 
L 101.33484 83.086178 
L 81.034103 83.086178 
z
" style="fill:#ff0000;"/>
   </g>
   <g id="patch_15">
    <path clip-path="url(#pd8ec04027f)" d="M 81.034103 83.086178 
L 101.33484 83.086178 
L 101.33484 13.170039 
L 81.034103 13.170039 
z
" style="fill:#ff00ff;"/>
   </g>
   <g id="patch_16">
    <path clip-path="url(#pd8ec04027f)" d="M 81.034103 13.170039 
L 101.33484 13.170039 
L 101.33484 13.170039 
L 81.034103 13.170039 
z
"/>
   </g>
   <g id="patch_17">
    <path clip-path="url(#pd8ec04027f)" d="M 106.410025 317.72 
L 126.710762 317.72 
L 126.710762 314.164942 
L 106.410025 314.164942 
z
" style="fill:#ffff00;"/>
   </g>
   <g id="patch_18">
    <path clip-path="url(#pd8ec04027f)" d="M 106.410025 314.164942 
L 126.710762 314.164942 
L 126.710762 312.979923 
L 106.410025 312.979923 
z
" style="fill:#00ffff;"/>
   </g>
   <g id="patch_19">
    <path clip-path="url(#pd8ec04027f)" d="M 106.410025 312.979923 
L 126.710762 312.979923 
L 126.710762 230.028571 
L 106.410025 230.028571 
z
" style="fill:#808080;"/>
   </g>
   <g id="patch_20">
    <path clip-path="url(#pd8ec04027f)" d="M 106.410025 230.028571 
L 126.710762 230.028571 
L 126.710762 166.037529 
L 106.410025 166.037529 
z
" style="fill:#0000ff;"/>
   </g>
   <g id="patch_21">
    <path clip-path="url(#pd8ec04027f)" d="M 106.410025 166.037529 
L 126.710762 166.037529 
L 126.710762 85.456216 
L 106.410025 85.456216 
z
" style="fill:#ff0000;"/>
   </g>
   <g id="patch_22">
    <path clip-path="url(#pd8ec04027f)" d="M 106.410025 85.456216 
L 126.710762 85.456216 
L 126.710762 14.355058 
L 106.410025 14.355058 
z
" style="fill:#ff00ff;"/>
   </g>
   <g id="patch_23">
    <path clip-path="url(#pd8ec04027f)" d="M 106.410025 14.355058 
L 126.710762 14.355058 
L 126.710762 14.355058 
L 106.410025 14.355058 
z
"/>
   </g>
   <g id="patch_24">
    <path clip-path="url(#pd8ec04027f)" d="M 131.785946 317.72 
L 152.086683 317.72 
L 152.086683 314.164942 
L 131.785946 314.164942 
z
" style="fill:#ffff00;"/>
   </g>
   <g id="patch_25">
    <path clip-path="url(#pd8ec04027f)" d="M 131.785946 314.164942 
L 152.086683 314.164942 
L 152.086683 310.609884 
L 131.785946 310.609884 
z
" style="fill:#00ffff;"/>
   </g>
   <g id="patch_26">
    <path clip-path="url(#pd8ec04027f)" d="M 131.785946 310.609884 
L 152.086683 310.609884 
L 152.086683 267.949189 
L 131.785946 267.949189 
z
" style="fill:#808080;"/>
   </g>
   <g id="patch_27">
    <path clip-path="url(#pd8ec04027f)" d="M 131.785946 267.949189 
L 152.086683 267.949189 
L 152.086683 252.543938 
L 131.785946 252.543938 
z
" style="fill:#0000ff;"/>
   </g>
   <g id="patch_28">
    <path clip-path="url(#pd8ec04027f)" d="M 131.785946 252.543938 
L 152.086683 252.543938 
L 152.086683 228.843552 
L 131.785946 228.843552 
z
" style="fill:#ff0000;"/>
   </g>
   <g id="patch_29">
    <path clip-path="url(#pd8ec04027f)" d="M 131.785946 228.843552 
L 152.086683 228.843552 
L 152.086683 195.663012 
L 131.785946 195.663012 
z
" style="fill:#ff00ff;"/>
   </g>
   <g id="patch_30">
    <path clip-path="url(#pd8ec04027f)" d="M 131.785946 195.663012 
L 152.086683 195.663012 
L 152.086683 195.663012 
L 131.785946 195.663012 
z
"/>
   </g>
   <g id="patch_31">
    <path clip-path="url(#pd8ec04027f)" d="M 157.161867 317.72 
L 177.462604 317.72 
L 177.462604 316.534981 
L 157.161867 316.534981 
z
" style="fill:#ffff00;"/>
   </g>
   <g id="patch_32">
    <path clip-path="url(#pd8ec04027f)" d="M 157.161867 316.534981 
L 177.462604 316.534981 
L 177.462604 316.534981 
L 157.161867 316.534981 
z
" style="fill:#00ffff;"/>
   </g>
   <g id="patch_33">
    <path clip-path="url(#pd8ec04027f)" d="M 157.161867 316.534981 
L 177.462604 316.534981 
L 177.462604 238.323707 
L 157.161867 238.323707 
z
" style="fill:#808080;"/>
   </g>
   <g id="patch_34">
    <path clip-path="url(#pd8ec04027f)" d="M 157.161867 238.323707 
L 177.462604 238.323707 
L 177.462604 175.517683 
L 157.161867 175.517683 
z
" style="fill:#0000ff;"/>
   </g>
   <g id="patch_35">
    <path clip-path="url(#pd8ec04027f)" d="M 157.161867 175.517683 
L 177.462604 175.517683 
L 177.462604 96.12139 
L 157.161867 96.12139 
z
" style="fill:#ff0000;"/>
   </g>
   <g id="patch_36">
    <path clip-path="url(#pd8ec04027f)" d="M 157.161867 96.12139 
L 177.462604 96.12139 
L 177.462604 28.57529 
L 157.161867 28.57529 
z
" style="fill:#ff00ff;"/>
   </g>
   <g id="patch_37">
    <path clip-path="url(#pd8ec04027f)" d="M 157.161867 28.57529 
L 177.462604 28.57529 
L 177.462604 28.57529 
L 157.161867 28.57529 
z
"/>
   </g>
   <g id="patch_38">
    <path clip-path="url(#pd8ec04027f)" d="M 182.537789 317.72 
L 202.838526 317.72 
L 202.838526 316.534981 
L 182.537789 316.534981 
z
" style="fill:#ffff00;"/>
   </g>
   <g id="patch_39">
    <path clip-path="url(#pd8ec04027f)" d="M 182.537789 316.534981 
L 202.838526 316.534981 
L 202.838526 316.534981 
L 182.537789 316.534981 
z
" style="fill:#00ffff;"/>
   </g>
   <g id="patch_40">
    <path clip-path="url(#pd8ec04027f)" d="M 182.537789 316.534981 
L 202.838526 316.534981 
L 202.838526 296.389653 
L 182.537789 296.389653 
z
" style="fill:#808080;"/>
   </g>
   <g id="patch_41">
    <path clip-path="url(#pd8ec04027f)" d="M 182.537789 296.389653 
L 202.838526 296.389653 
L 202.838526 292.834595 
L 182.537789 292.834595 
z
" style="fill:#0000ff;"/>
   </g>
   <g id="patch_42">
    <path clip-path="url(#pd8ec04027f)" d="M 182.537789 292.834595 
L 202.838526 292.834595 
L 202.838526 283.35444 
L 182.537789 283.35444 
z
" style="fill:#ff0000;"/>
   </g>
   <g id="patch_43">
    <path clip-path="url(#pd8ec04027f)" d="M 182.537789 283.35444 
L 202.838526 283.35444 
L 202.838526 271.504247 
L 182.537789 271.504247 
z
" style="fill:#ff00ff;"/>
   </g>
   <g id="patch_44">
    <path clip-path="url(#pd8ec04027f)" d="M 182.537789 271.504247 
L 202.838526 271.504247 
L 202.838526 271.504247 
L 182.537789 271.504247 
z
"/>
   </g>
   <g id="patch_45">
    <path clip-path="url(#pd8ec04027f)" d="M 207.91371 317.72 
L 228.214447 317.72 
L 228.214447 311.794903 
L 207.91371 311.794903 
z
" style="fill:#ffff00;"/>
   </g>
   <g id="patch_46">
    <path clip-path="url(#pd8ec04027f)" d="M 207.91371 311.794903 
L 228.214447 311.794903 
L 228.214447 311.794903 
L 207.91371 311.794903 
z
" style="fill:#00ffff;"/>
   </g>
   <g id="patch_47">
    <path clip-path="url(#pd8ec04027f)" d="M 207.91371 311.794903 
L 228.214447 311.794903 
L 228.214447 233.583629 
L 207.91371 233.583629 
z
" style="fill:#808080;"/>
   </g>
   <g id="patch_48">
    <path clip-path="url(#pd8ec04027f)" d="M 207.91371 233.583629 
L 228.214447 233.583629 
L 228.214447 171.962625 
L 207.91371 171.962625 
z
" style="fill:#0000ff;"/>
   </g>
   <g id="patch_49">
    <path clip-path="url(#pd8ec04027f)" d="M 207.91371 171.962625 
L 228.214447 171.962625 
L 228.214447 91.381313 
L 207.91371 91.381313 
z
" style="fill:#ff0000;"/>
   </g>
   <g id="patch_50">
    <path clip-path="url(#pd8ec04027f)" d="M 207.91371 91.381313 
L 228.214447 91.381313 
L 228.214447 23.835212 
L 207.91371 23.835212 
z
" style="fill:#ff00ff;"/>
   </g>
   <g id="patch_51">
    <path clip-path="url(#pd8ec04027f)" d="M 207.91371 23.835212 
L 228.214447 23.835212 
L 228.214447 23.835212 
L 207.91371 23.835212 
z
"/>
   </g>
   <g id="patch_52">
    <path clip-path="url(#pd8ec04027f)" d="M 233.289631 317.72 
L 253.590369 317.72 
L 253.590369 316.534981 
L 233.289631 316.534981 
z
" style="fill:#ffff00;"/>
   </g>
   <g id="patch_53">
    <path clip-path="url(#pd8ec04027f)" d="M 233.289631 316.534981 
L 253.590369 316.534981 
L 253.590369 316.534981 
L 233.289631 316.534981 
z
" style="fill:#00ffff;"/>
   </g>
   <g id="patch_54">
    <path clip-path="url(#pd8ec04027f)" d="M 233.289631 316.534981 
L 253.590369 316.534981 
L 253.590369 308.239846 
L 233.289631 308.239846 
z
" style="fill:#808080;"/>
   </g>
   <g id="patch_55">
    <path clip-path="url(#pd8ec04027f)" d="M 233.289631 308.239846 
L 253.590369 308.239846 
L 253.590369 307.054826 
L 233.289631 307.054826 
z
" style="fill:#0000ff;"/>
   </g>
   <g id="patch_56">
    <path clip-path="url(#pd8ec04027f)" d="M 233.289631 307.054826 
L 253.590369 307.054826 
L 253.590369 302.314749 
L 233.289631 302.314749 
z
" style="fill:#ff0000;"/>
   </g>
   <g id="patch_57">
    <path clip-path="url(#pd8ec04027f)" d="M 233.289631 302.314749 
L 253.590369 302.314749 
L 253.590369 301.12973 
L 233.289631 301.12973 
z
" style="fill:#ff00ff;"/>
   </g>
   <g id="patch_58">
    <path clip-path="url(#pd8ec04027f)" d="M 233.289631 301.12973 
L 253.590369 301.12973 
L 253.590369 299.94471 
L 233.289631 299.94471 
z
"/>
   </g>
   <g id="patch_59">
    <path clip-path="url(#pd8ec04027f)" d="M 258.665553 317.72 
L 278.96629 317.72 
L 278.96629 307.054826 
L 258.665553 307.054826 
z
" style="fill:#ffff00;"/>
   </g>
   <g id="patch_60">
    <path clip-path="url(#pd8ec04027f)" d="M 258.665553 307.054826 
L 278.96629 307.054826 
L 278.96629 307.054826 
L 258.665553 307.054826 
z
" style="fill:#00ffff;"/>
   </g>
   <g id="patch_61">
    <path clip-path="url(#pd8ec04027f)" d="M 258.665553 307.054826 
L 278.96629 307.054826 
L 278.96629 222.918456 
L 258.665553 222.918456 
z
" style="fill:#808080;"/>
   </g>
   <g id="patch_62">
    <path clip-path="url(#pd8ec04027f)" d="M 258.665553 222.918456 
L 278.96629 222.918456 
L 278.96629 168.407568 
L 258.665553 168.407568 
z
" style="fill:#0000ff;"/>
   </g>
   <g id="patch_63">
    <path clip-path="url(#pd8ec04027f)" d="M 258.665553 168.407568 
L 278.96629 168.407568 
L 278.96629 93.751351 
L 258.665553 93.751351 
z
" style="fill:#ff0000;"/>
   </g>
   <g id="patch_64">
    <path clip-path="url(#pd8ec04027f)" d="M 258.665553 93.751351 
L 278.96629 93.751351 
L 278.96629 23.835212 
L 258.665553 23.835212 
z
" style="fill:#ff00ff;"/>
   </g>
   <g id="patch_65">
    <path clip-path="url(#pd8ec04027f)" d="M 258.665553 23.835212 
L 278.96629 23.835212 
L 278.96629 23.835212 
L 258.665553 23.835212 
z
"/>
   </g>
   <g id="patch_66">
    <path clip-path="url(#pd8ec04027f)" d="M 284.041474 317.72 
L 304.342211 317.72 
L 304.342211 297.574672 
L 284.041474 297.574672 
z
" style="fill:#ffff00;"/>
   </g>
   <g id="patch_67">
    <path clip-path="url(#pd8ec04027f)" d="M 284.041474 297.574672 
L 304.342211 297.574672 
L 304.342211 297.574672 
L 284.041474 297.574672 
z
" style="fill:#00ffff;"/>
   </g>
   <g id="patch_68">
    <path clip-path="url(#pd8ec04027f)" d="M 284.041474 297.574672 
L 304.342211 297.574672 
L 304.342211 221.733436 
L 284.041474 221.733436 
z
" style="fill:#808080;"/>
   </g>
   <g id="patch_69">
    <path clip-path="url(#pd8ec04027f)" d="M 284.041474 221.733436 
L 304.342211 221.733436 
L 304.342211 163.66749 
L 284.041474 163.66749 
z
" style="fill:#0000ff;"/>
   </g>
   <g id="patch_70">
    <path clip-path="url(#pd8ec04027f)" d="M 284.041474 163.66749 
L 304.342211 163.66749 
L 304.342211 87.826255 
L 284.041474 87.826255 
z
" style="fill:#ff0000;"/>
   </g>
   <g id="patch_71">
    <path clip-path="url(#pd8ec04027f)" d="M 284.041474 87.826255 
L 304.342211 87.826255 
L 304.342211 21.465174 
L 284.041474 21.465174 
z
" style="fill:#ff00ff;"/>
   </g>
   <g id="patch_72">
    <path clip-path="url(#pd8ec04027f)" d="M 284.041474 21.465174 
L 304.342211 21.465174 
L 304.342211 21.465174 
L 284.041474 21.465174 
z
"/>
   </g>
   <g id="patch_73">
    <path clip-path="url(#pd8ec04027f)" d="M 309.417396 317.72 
L 329.718133 317.72 
L 329.718133 309.424865 
L 309.417396 309.424865 
z
" style="fill:#ffff00;"/>
   </g>
   <g id="patch_74">
    <path clip-path="url(#pd8ec04027f)" d="M 309.417396 309.424865 
L 329.718133 309.424865 
L 329.718133 305.869807 
L 309.417396 305.869807 
z
" style="fill:#00ffff;"/>
   </g>
   <g id="patch_75">
    <path clip-path="url(#pd8ec04027f)" d="M 309.417396 305.869807 
L 329.718133 305.869807 
L 329.718133 233.583629 
L 309.417396 233.583629 
z
" style="fill:#808080;"/>
   </g>
   <g id="patch_76">
    <path clip-path="url(#pd8ec04027f)" d="M 309.417396 233.583629 
L 329.718133 233.583629 
L 329.718133 180.257761 
L 309.417396 180.257761 
z
" style="fill:#0000ff;"/>
   </g>
   <g id="patch_77">
    <path clip-path="url(#pd8ec04027f)" d="M 309.417396 180.257761 
L 329.718133 180.257761 
L 329.718133 109.156602 
L 309.417396 109.156602 
z
" style="fill:#ff0000;"/>
   </g>
   <g id="patch_78">
    <path clip-path="url(#pd8ec04027f)" d="M 309.417396 109.156602 
L 329.718133 109.156602 
L 329.718133 39.240463 
L 309.417396 39.240463 
z
" style="fill:#ff00ff;"/>
   </g>
   <g id="patch_79">
    <path clip-path="url(#pd8ec04027f)" d="M 309.417396 39.240463 
L 329.718133 39.240463 
L 329.718133 32.130347 
L 309.417396 32.130347 
z
"/>
   </g>
   <g id="patch_80">
    <path clip-path="url(#pd8ec04027f)" d="M 334.793317 317.72 
L 355.094054 317.72 
L 355.094054 311.794903 
L 334.793317 311.794903 
z
" style="fill:#ffff00;"/>
   </g>
   <g id="patch_81">
    <path clip-path="url(#pd8ec04027f)" d="M 334.793317 311.794903 
L 355.094054 311.794903 
L 355.094054 307.054826 
L 334.793317 307.054826 
z
" style="fill:#00ffff;"/>
   </g>
   <g id="patch_82">
    <path clip-path="url(#pd8ec04027f)" d="M 334.793317 307.054826 
L 355.094054 307.054826 
L 355.094054 283.35444 
L 334.793317 283.35444 
z
" style="fill:#808080;"/>
   </g>
   <g id="patch_83">
    <path clip-path="url(#pd8ec04027f)" d="M 334.793317 283.35444 
L 355.094054 283.35444 
L 355.094054 283.35444 
L 334.793317 283.35444 
z
" style="fill:#0000ff;"/>
   </g>
   <g id="patch_84">
    <path clip-path="url(#pd8ec04027f)" d="M 334.793317 283.35444 
L 355.094054 283.35444 
L 355.094054 278.614363 
L 334.793317 278.614363 
z
" style="fill:#ff0000;"/>
   </g>
   <g id="patch_85">
    <path clip-path="url(#pd8ec04027f)" d="M 334.793317 278.614363 
L 355.094054 278.614363 
L 355.094054 278.614363 
L 334.793317 278.614363 
z
" style="fill:#ff00ff;"/>
   </g>
   <g id="patch_86">
    <path clip-path="url(#pd8ec04027f)" d="M 334.793317 278.614363 
L 355.094054 278.614363 
L 355.094054 278.614363 
L 334.793317 278.614363 
z
"/>
   </g>
   <g id="patch_87">
    <path clip-path="url(#pd8ec04027f)" d="M 360.169238 317.72 
L 380.469975 317.72 
L 380.469975 312.979923 
L 360.169238 312.979923 
z
" style="fill:#ffff00;"/>
   </g>
   <g id="patch_88">
    <path clip-path="url(#pd8ec04027f)" d="M 360.169238 312.979923 
L 380.469975 312.979923 
L 380.469975 312.979923 
L 360.169238 312.979923 
z
" style="fill:#00ffff;"/>
   </g>
   <g id="patch_89">
    <path clip-path="url(#pd8ec04027f)" d="M 360.169238 312.979923 
L 380.469975 312.979923 
L 380.469975 224.103475 
L 360.169238 224.103475 
z
" style="fill:#808080;"/>
   </g>
   <g id="patch_90">
    <path clip-path="url(#pd8ec04027f)" d="M 360.169238 224.103475 
L 380.469975 224.103475 
L 380.469975 170.777606 
L 360.169238 170.777606 
z
" style="fill:#0000ff;"/>
   </g>
   <g id="patch_91">
    <path clip-path="url(#pd8ec04027f)" d="M 360.169238 170.777606 
L 380.469975 170.777606 
L 380.469975 94.936371 
L 360.169238 94.936371 
z
" style="fill:#ff0000;"/>
   </g>
   <g id="patch_92">
    <path clip-path="url(#pd8ec04027f)" d="M 360.169238 94.936371 
L 380.469975 94.936371 
L 380.469975 17.910116 
L 360.169238 17.910116 
z
" style="fill:#ff00ff;"/>
   </g>
   <g id="patch_93">
    <path clip-path="url(#pd8ec04027f)" d="M 360.169238 17.910116 
L 380.469975 17.910116 
L 380.469975 17.910116 
L 360.169238 17.910116 
z
"/>
   </g>
   <g id="patch_94">
    <path clip-path="url(#pd8ec04027f)" d="M 385.54516 317.72 
L 405.845897 317.72 
L 405.845897 309.424865 
L 385.54516 309.424865 
z
" style="fill:#ffff00;"/>
   </g>
   <g id="patch_95">
    <path clip-path="url(#pd8ec04027f)" d="M 385.54516 309.424865 
L 405.845897 309.424865 
L 405.845897 304.684788 
L 385.54516 304.684788 
z
" style="fill:#00ffff;"/>
   </g>
   <g id="patch_96">
    <path clip-path="url(#pd8ec04027f)" d="M 385.54516 304.684788 
L 405.845897 304.684788 
L 405.845897 262.024093 
L 385.54516 262.024093 
z
" style="fill:#808080;"/>
   </g>
   <g id="patch_97">
    <path clip-path="url(#pd8ec04027f)" d="M 385.54516 262.024093 
L 405.845897 262.024093 
L 405.845897 246.618842 
L 385.54516 246.618842 
z
" style="fill:#0000ff;"/>
   </g>
   <g id="patch_98">
    <path clip-path="url(#pd8ec04027f)" d="M 385.54516 246.618842 
L 405.845897 246.618842 
L 405.845897 222.918456 
L 385.54516 222.918456 
z
" style="fill:#ff0000;"/>
   </g>
   <g id="patch_99">
    <path clip-path="url(#pd8ec04027f)" d="M 385.54516 222.918456 
L 405.845897 222.918456 
L 405.845897 190.922934 
L 385.54516 190.922934 
z
" style="fill:#ff00ff;"/>
   </g>
   <g id="patch_100">
    <path clip-path="url(#pd8ec04027f)" d="M 385.54516 190.922934 
L 405.845897 190.922934 
L 405.845897 190.922934 
L 385.54516 190.922934 
z
"/>
   </g>
   <g id="patch_101">
    <path clip-path="url(#pd8ec04027f)" d="M 410.921081 317.72 
L 431.221818 317.72 
L 431.221818 314.164942 
L 410.921081 314.164942 
z
" style="fill:#ffff00;"/>
   </g>
   <g id="patch_102">
    <path clip-path="url(#pd8ec04027f)" d="M 410.921081 314.164942 
L 431.221818 314.164942 
L 431.221818 314.164942 
L 410.921081 314.164942 
z
" style="fill:#00ffff;"/>
   </g>
   <g id="patch_103">
    <path clip-path="url(#pd8ec04027f)" d="M 410.921081 314.164942 
L 431.221818 314.164942 
L 431.221818 272.689266 
L 410.921081 272.689266 
z
" style="fill:#808080;"/>
   </g>
   <g id="patch_104">
    <path clip-path="url(#pd8ec04027f)" d="M 410.921081 272.689266 
L 431.221818 272.689266 
L 431.221818 257.284015 
L 410.921081 257.284015 
z
" style="fill:#0000ff;"/>
   </g>
   <g id="patch_105">
    <path clip-path="url(#pd8ec04027f)" d="M 410.921081 257.284015 
L 431.221818 257.284015 
L 431.221818 233.583629 
L 410.921081 233.583629 
z
" style="fill:#ff0000;"/>
   </g>
   <g id="patch_106">
    <path clip-path="url(#pd8ec04027f)" d="M 410.921081 233.583629 
L 431.221818 233.583629 
L 431.221818 212.253282 
L 410.921081 212.253282 
z
" style="fill:#ff00ff;"/>
   </g>
   <g id="patch_107">
    <path clip-path="url(#pd8ec04027f)" d="M 410.921081 212.253282 
L 431.221818 212.253282 
L 431.221818 212.253282 
L 410.921081 212.253282 
z
"/>
   </g>
   <g id="matplotlib.axis_1">
    <g id="xtick_1">
     <g id="line2d_1">
      <defs>
       <path d="M 0 0 
L 0 3.5 
" id="m2473035430" style="stroke:#000000;stroke-width:0.8;"/>
      </defs>
      <g>
       <use style="stroke:#000000;stroke-width:0.8;" x="65.80855" xlink:href="#m2473035430" y="317.72"/>
      </g>
     </g>
     <g id="text_1">
      <!-- 0 -->
      <defs>
       <path d="M 31.78125 66.40625 
Q 24.171875 66.40625 20.328125 58.90625 
Q 16.5 51.421875 16.5 36.375 
Q 16.5 21.390625 20.328125 13.890625 
Q 24.171875 6.390625 31.78125 6.390625 
Q 39.453125 6.390625 43.28125 13.890625 
Q 47.125 21.390625 47.125 36.375 
Q 47.125 51.421875 43.28125 58.90625 
Q 39.453125 66.40625 31.78125 66.40625 
z
M 31.78125 74.21875 
Q 44.046875 74.21875 50.515625 64.515625 
Q 56.984375 54.828125 56.984375 36.375 
Q 56.984375 17.96875 50.515625 8.265625 
Q 44.046875 -1.421875 31.78125 -1.421875 
Q 19.53125 -1.421875 13.0625 8.265625 
Q 6.59375 17.96875 6.59375 36.375 
Q 6.59375 54.828125 13.0625 64.515625 
Q 19.53125 74.21875 31.78125 74.21875 
z
" id="DejaVuSans-48"/>
      </defs>
      <g transform="translate(62.6273 332.318437)scale(0.1 -0.1)">
       <use xlink:href="#DejaVuSans-48"/>
      </g>
     </g>
    </g>
    <g id="xtick_2">
     <g id="line2d_2">
      <g>
       <use style="stroke:#000000;stroke-width:0.8;" x="116.560393" xlink:href="#m2473035430" y="317.72"/>
      </g>
     </g>
     <g id="text_2">
      <!-- 2 -->
      <defs>
       <path d="M 19.1875 8.296875 
L 53.609375 8.296875 
L 53.609375 0 
L 7.328125 0 
L 7.328125 8.296875 
Q 12.9375 14.109375 22.625 23.890625 
Q 32.328125 33.6875 34.8125 36.53125 
Q 39.546875 41.84375 41.421875 45.53125 
Q 43.3125 49.21875 43.3125 52.78125 
Q 43.3125 58.59375 39.234375 62.25 
Q 35.15625 65.921875 28.609375 65.921875 
Q 23.96875 65.921875 18.8125 64.3125 
Q 13.671875 62.703125 7.8125 59.421875 
L 7.8125 69.390625 
Q 13.765625 71.78125 18.9375 73 
Q 24.125 74.21875 28.421875 74.21875 
Q 39.75 74.21875 46.484375 68.546875 
Q 53.21875 62.890625 53.21875 53.421875 
Q 53.21875 48.921875 51.53125 44.890625 
Q 49.859375 40.875 45.40625 35.40625 
Q 44.1875 33.984375 37.640625 27.21875 
Q 31.109375 20.453125 19.1875 8.296875 
z
" id="DejaVuSans-50"/>
      </defs>
      <g transform="translate(113.379143 332.318437)scale(0.1 -0.1)">
       <use xlink:href="#DejaVuSans-50"/>
      </g>
     </g>
    </g>
    <g id="xtick_3">
     <g id="line2d_3">
      <g>
       <use style="stroke:#000000;stroke-width:0.8;" x="167.312236" xlink:href="#m2473035430" y="317.72"/>
      </g>
     </g>
     <g id="text_3">
      <!-- 4 -->
      <defs>
       <path d="M 37.796875 64.3125 
L 12.890625 25.390625 
L 37.796875 25.390625 
z
M 35.203125 72.90625 
L 47.609375 72.90625 
L 47.609375 25.390625 
L 58.015625 25.390625 
L 58.015625 17.1875 
L 47.609375 17.1875 
L 47.609375 0 
L 37.796875 0 
L 37.796875 17.1875 
L 4.890625 17.1875 
L 4.890625 26.703125 
z
" id="DejaVuSans-52"/>
      </defs>
      <g transform="translate(164.130986 332.318437)scale(0.1 -0.1)">
       <use xlink:href="#DejaVuSans-52"/>
      </g>
     </g>
    </g>
    <g id="xtick_4">
     <g id="line2d_4">
      <g>
       <use style="stroke:#000000;stroke-width:0.8;" x="218.064079" xlink:href="#m2473035430" y="317.72"/>
      </g>
     </g>
     <g id="text_4">
      <!-- 6 -->
      <defs>
       <path d="M 33.015625 40.375 
Q 26.375 40.375 22.484375 35.828125 
Q 18.609375 31.296875 18.609375 23.390625 
Q 18.609375 15.53125 22.484375 10.953125 
Q 26.375 6.390625 33.015625 6.390625 
Q 39.65625 6.390625 43.53125 10.953125 
Q 47.40625 15.53125 47.40625 23.390625 
Q 47.40625 31.296875 43.53125 35.828125 
Q 39.65625 40.375 33.015625 40.375 
z
M 52.59375 71.296875 
L 52.59375 62.3125 
Q 48.875 64.0625 45.09375 64.984375 
Q 41.3125 65.921875 37.59375 65.921875 
Q 27.828125 65.921875 22.671875 59.328125 
Q 17.53125 52.734375 16.796875 39.40625 
Q 19.671875 43.65625 24.015625 45.921875 
Q 28.375 48.1875 33.59375 48.1875 
Q 44.578125 48.1875 50.953125 41.515625 
Q 57.328125 34.859375 57.328125 23.390625 
Q 57.328125 12.15625 50.6875 5.359375 
Q 44.046875 -1.421875 33.015625 -1.421875 
Q 20.359375 -1.421875 13.671875 8.265625 
Q 6.984375 17.96875 6.984375 36.375 
Q 6.984375 53.65625 15.1875 63.9375 
Q 23.390625 74.21875 37.203125 74.21875 
Q 40.921875 74.21875 44.703125 73.484375 
Q 48.484375 72.75 52.59375 71.296875 
z
" id="DejaVuSans-54"/>
      </defs>
      <g transform="translate(214.882829 332.318437)scale(0.1 -0.1)">
       <use xlink:href="#DejaVuSans-54"/>
      </g>
     </g>
    </g>
    <g id="xtick_5">
     <g id="line2d_5">
      <g>
       <use style="stroke:#000000;stroke-width:0.8;" x="268.815921" xlink:href="#m2473035430" y="317.72"/>
      </g>
     </g>
     <g id="text_5">
      <!-- 8 -->
      <defs>
       <path d="M 31.78125 34.625 
Q 24.75 34.625 20.71875 30.859375 
Q 16.703125 27.09375 16.703125 20.515625 
Q 16.703125 13.921875 20.71875 10.15625 
Q 24.75 6.390625 31.78125 6.390625 
Q 38.8125 6.390625 42.859375 10.171875 
Q 46.921875 13.96875 46.921875 20.515625 
Q 46.921875 27.09375 42.890625 30.859375 
Q 38.875 34.625 31.78125 34.625 
z
M 21.921875 38.8125 
Q 15.578125 40.375 12.03125 44.71875 
Q 8.5 49.078125 8.5 55.328125 
Q 8.5 64.0625 14.71875 69.140625 
Q 20.953125 74.21875 31.78125 74.21875 
Q 42.671875 74.21875 48.875 69.140625 
Q 55.078125 64.0625 55.078125 55.328125 
Q 55.078125 49.078125 51.53125 44.71875 
Q 48 40.375 41.703125 38.8125 
Q 48.828125 37.15625 52.796875 32.3125 
Q 56.78125 27.484375 56.78125 20.515625 
Q 56.78125 9.90625 50.3125 4.234375 
Q 43.84375 -1.421875 31.78125 -1.421875 
Q 19.734375 -1.421875 13.25 4.234375 
Q 6.78125 9.90625 6.78125 20.515625 
Q 6.78125 27.484375 10.78125 32.3125 
Q 14.796875 37.15625 21.921875 38.8125 
z
M 18.3125 54.390625 
Q 18.3125 48.734375 21.84375 45.5625 
Q 25.390625 42.390625 31.78125 42.390625 
Q 38.140625 42.390625 41.71875 45.5625 
Q 45.3125 48.734375 45.3125 54.390625 
Q 45.3125 60.0625 41.71875 63.234375 
Q 38.140625 66.40625 31.78125 66.40625 
Q 25.390625 66.40625 21.84375 63.234375 
Q 18.3125 60.0625 18.3125 54.390625 
z
" id="DejaVuSans-56"/>
      </defs>
      <g transform="translate(265.634671 332.318437)scale(0.1 -0.1)">
       <use xlink:href="#DejaVuSans-56"/>
      </g>
     </g>
    </g>
    <g id="xtick_6">
     <g id="line2d_6">
      <g>
       <use style="stroke:#000000;stroke-width:0.8;" x="319.567764" xlink:href="#m2473035430" y="317.72"/>
      </g>
     </g>
     <g id="text_6">
      <!-- 10 -->
      <defs>
       <path d="M 12.40625 8.296875 
L 28.515625 8.296875 
L 28.515625 63.921875 
L 10.984375 60.40625 
L 10.984375 69.390625 
L 28.421875 72.90625 
L 38.28125 72.90625 
L 38.28125 8.296875 
L 54.390625 8.296875 
L 54.390625 0 
L 12.40625 0 
z
" id="DejaVuSans-49"/>
      </defs>
      <g transform="translate(313.205264 332.318437)scale(0.1 -0.1)">
       <use xlink:href="#DejaVuSans-49"/>
       <use x="63.623047" xlink:href="#DejaVuSans-48"/>
      </g>
     </g>
    </g>
    <g id="xtick_7">
     <g id="line2d_7">
      <g>
       <use style="stroke:#000000;stroke-width:0.8;" x="370.319607" xlink:href="#m2473035430" y="317.72"/>
      </g>
     </g>
     <g id="text_7">
      <!-- 12 -->
      <g transform="translate(363.957107 332.318437)scale(0.1 -0.1)">
       <use xlink:href="#DejaVuSans-49"/>
       <use x="63.623047" xlink:href="#DejaVuSans-50"/>
      </g>
     </g>
    </g>
    <g id="xtick_8">
     <g id="line2d_8">
      <g>
       <use style="stroke:#000000;stroke-width:0.8;" x="421.07145" xlink:href="#m2473035430" y="317.72"/>
      </g>
     </g>
     <g id="text_8">
      <!-- 14 -->
      <g transform="translate(414.70895 332.318437)scale(0.1 -0.1)">
       <use xlink:href="#DejaVuSans-49"/>
       <use x="63.623047" xlink:href="#DejaVuSans-52"/>
      </g>
     </g>
    </g>
   </g>
   <g id="matplotlib.axis_2">
    <g id="ytick_1">
     <g id="line2d_9">
      <defs>
       <path d="M 0 0 
L -3.5 0 
" id="mf0a8550cef" style="stroke:#000000;stroke-width:0.8;"/>
      </defs>
      <g>
       <use style="stroke:#000000;stroke-width:0.8;" x="36.88" xlink:href="#mf0a8550cef" y="317.72"/>
      </g>
     </g>
     <g id="text_9">
      <!-- 0 -->
      <g transform="translate(23.5175 321.519219)scale(0.1 -0.1)">
       <use xlink:href="#DejaVuSans-48"/>
      </g>
     </g>
    </g>
    <g id="ytick_2">
     <g id="line2d_10">
      <g>
       <use style="stroke:#000000;stroke-width:0.8;" x="36.88" xlink:href="#mf0a8550cef" y="258.469035"/>
      </g>
     </g>
     <g id="text_10">
      <!-- 50 -->
      <defs>
       <path d="M 10.796875 72.90625 
L 49.515625 72.90625 
L 49.515625 64.59375 
L 19.828125 64.59375 
L 19.828125 46.734375 
Q 21.96875 47.46875 24.109375 47.828125 
Q 26.265625 48.1875 28.421875 48.1875 
Q 40.625 48.1875 47.75 41.5 
Q 54.890625 34.8125 54.890625 23.390625 
Q 54.890625 11.625 47.5625 5.09375 
Q 40.234375 -1.421875 26.90625 -1.421875 
Q 22.3125 -1.421875 17.546875 -0.640625 
Q 12.796875 0.140625 7.71875 1.703125 
L 7.71875 11.625 
Q 12.109375 9.234375 16.796875 8.0625 
Q 21.484375 6.890625 26.703125 6.890625 
Q 35.15625 6.890625 40.078125 11.328125 
Q 45.015625 15.765625 45.015625 23.390625 
Q 45.015625 31 40.078125 35.4375 
Q 35.15625 39.890625 26.703125 39.890625 
Q 22.75 39.890625 18.8125 39.015625 
Q 14.890625 38.140625 10.796875 36.28125 
z
" id="DejaVuSans-53"/>
      </defs>
      <g transform="translate(17.155 262.268253)scale(0.1 -0.1)">
       <use xlink:href="#DejaVuSans-53"/>
       <use x="63.623047" xlink:href="#DejaVuSans-48"/>
      </g>
     </g>
    </g>
    <g id="ytick_3">
     <g id="line2d_11">
      <g>
       <use style="stroke:#000000;stroke-width:0.8;" x="36.88" xlink:href="#mf0a8550cef" y="199.218069"/>
      </g>
     </g>
     <g id="text_11">
      <!-- 100 -->
      <g transform="translate(10.7925 203.017288)scale(0.1 -0.1)">
       <use xlink:href="#DejaVuSans-49"/>
       <use x="63.623047" xlink:href="#DejaVuSans-48"/>
       <use x="127.246094" xlink:href="#DejaVuSans-48"/>
      </g>
     </g>
    </g>
    <g id="ytick_4">
     <g id="line2d_12">
      <g>
       <use style="stroke:#000000;stroke-width:0.8;" x="36.88" xlink:href="#mf0a8550cef" y="139.967104"/>
      </g>
     </g>
     <g id="text_12">
      <!-- 150 -->
      <g transform="translate(10.7925 143.766323)scale(0.1 -0.1)">
       <use xlink:href="#DejaVuSans-49"/>
       <use x="63.623047" xlink:href="#DejaVuSans-53"/>
       <use x="127.246094" xlink:href="#DejaVuSans-48"/>
      </g>
     </g>
    </g>
    <g id="ytick_5">
     <g id="line2d_13">
      <g>
       <use style="stroke:#000000;stroke-width:0.8;" x="36.88" xlink:href="#mf0a8550cef" y="80.716139"/>
      </g>
     </g>
     <g id="text_13">
      <!-- 200 -->
      <g transform="translate(10.7925 84.515358)scale(0.1 -0.1)">
       <use xlink:href="#DejaVuSans-50"/>
       <use x="63.623047" xlink:href="#DejaVuSans-48"/>
       <use x="127.246094" xlink:href="#DejaVuSans-48"/>
      </g>
     </g>
    </g>
    <g id="ytick_6">
     <g id="line2d_14">
      <g>
       <use style="stroke:#000000;stroke-width:0.8;" x="36.88" xlink:href="#mf0a8550cef" y="21.465174"/>
      </g>
     </g>
     <g id="text_14">
      <!-- 250 -->
      <g transform="translate(10.7925 25.264392)scale(0.1 -0.1)">
       <use xlink:href="#DejaVuSans-50"/>
       <use x="63.623047" xlink:href="#DejaVuSans-53"/>
       <use x="127.246094" xlink:href="#DejaVuSans-48"/>
      </g>
     </g>
    </g>
   </g>
   <g id="patch_108">
    <path d="M 36.88 317.72 
L 36.88 10.8 
" style="fill:none;stroke:#000000;stroke-linecap:square;stroke-linejoin:miter;stroke-width:0.8;"/>
   </g>
   <g id="patch_109">
    <path d="M 450 317.72 
L 450 10.8 
" style="fill:none;stroke:#000000;stroke-linecap:square;stroke-linejoin:miter;stroke-width:0.8;"/>
   </g>
   <g id="patch_110">
    <path d="M 36.88 317.72 
L 450 317.72 
" style="fill:none;stroke:#000000;stroke-linecap:square;stroke-linejoin:miter;stroke-width:0.8;"/>
   </g>
   <g id="patch_111">
    <path d="M 36.88 10.8 
L 450 10.8 
" style="fill:none;stroke:#000000;stroke-linecap:square;stroke-linejoin:miter;stroke-width:0.8;"/>
   </g>
  </g>
 </g>
 <defs>
  <clipPath id="pd8ec04027f">
   <rect height="306.92" width="413.12" x="36.88" y="10.8"/>
  </clipPath>
 </defs>
</svg>
