<?xml version="1.0" encoding="utf-8" standalone="no"?>
<!DOCTYPE svg PUBLIC "-//W3C//DTD SVG 1.1//EN"
  "http://www.w3.org/Graphics/SVG/1.1/DTD/svg11.dtd">
<!-- Created with matplotlib (https://matplotlib.org/) -->
<svg height="345.6pt" version="1.1" viewBox="0 0 460.8 345.6" width="460.8pt" xmlns="http://www.w3.org/2000/svg" xmlns:xlink="http://www.w3.org/1999/xlink">
 <defs>
  <style type="text/css">
*{stroke-linecap:butt;stroke-linejoin:round;white-space:pre;}
  </style>
 </defs>
 <g id="figure_1">
  <g id="patch_1">
   <path d="M 0 345.6 
L 460.8 345.6 
L 460.8 0 
L 0 0 
z
" style="fill:#ffffff;"/>
  </g>
  <g id="axes_1">
   <g id="patch_2">
    <path d="M 57.6 307.584 
L 414.72 307.584 
L 414.72 41.472 
L 57.6 41.472 
z
" style="fill:#ffffff;"/>
   </g>
   <g id="matplotlib.axis_1">
    <g id="xtick_1">
     <g id="line2d_1">
      <defs>
       <path d="M 0 0 
L 0 3.5 
" id="mcde29bdc84" style="stroke:#000000;stroke-width:0.8;"/>
      </defs>
      <g>
       <use style="stroke:#000000;stroke-width:0.8;" x="146.88" xlink:href="#mcde29bdc84" y="307.584"/>
      </g>
     </g>
     <g id="text_1">
      <!-- 1 -->
      <defs>
       <path d="M 12.40625 8.296875 
L 28.515625 8.296875 
L 28.515625 63.921875 
L 10.984375 60.40625 
L 10.984375 69.390625 
L 28.421875 72.90625 
L 38.28125 72.90625 
L 38.28125 8.296875 
L 54.390625 8.296875 
L 54.390625 0 
L 12.40625 0 
z
" id="DejaVuSans-49"/>
      </defs>
      <g transform="translate(143.69875 322.182437)scale(0.1 -0.1)">
       <use xlink:href="#DejaVuSans-49"/>
      </g>
     </g>
    </g>
    <g id="xtick_2">
     <g id="line2d_2">
      <g>
       <use style="stroke:#000000;stroke-width:0.8;" x="325.44" xlink:href="#mcde29bdc84" y="307.584"/>
      </g>
     </g>
     <g id="text_2">
      <!-- 2 -->
      <defs>
       <path d="M 19.1875 8.296875 
L 53.609375 8.296875 
L 53.609375 0 
L 7.328125 0 
L 7.328125 8.296875 
Q 12.9375 14.109375 22.625 23.890625 
Q 32.328125 33.6875 34.8125 36.53125 
Q 39.546875 41.84375 41.421875 45.53125 
Q 43.3125 49.21875 43.3125 52.78125 
Q 43.3125 58.59375 39.234375 62.25 
Q 35.15625 65.921875 28.609375 65.921875 
Q 23.96875 65.921875 18.8125 64.3125 
Q 13.671875 62.703125 7.8125 59.421875 
L 7.8125 69.390625 
Q 13.765625 71.78125 18.9375 73 
Q 24.125 74.21875 28.421875 74.21875 
Q 39.75 74.21875 46.484375 68.546875 
Q 53.21875 62.890625 53.21875 53.421875 
Q 53.21875 48.921875 51.53125 44.890625 
Q 49.859375 40.875 45.40625 35.40625 
Q 44.1875 33.984375 37.640625 27.21875 
Q 31.109375 20.453125 19.1875 8.296875 
z
" id="DejaVuSans-50"/>
      </defs>
      <g transform="translate(322.25875 322.182437)scale(0.1 -0.1)">
       <use xlink:href="#DejaVuSans-50"/>
      </g>
     </g>
    </g>
   </g>
   <g id="matplotlib.axis_2">
    <g id="ytick_1">
     <g id="line2d_3">
      <defs>
       <path d="M 0 0 
L -3.5 0 
" id="mbda461b037" style="stroke:#000000;stroke-width:0.8;"/>
      </defs>
      <g>
       <use style="stroke:#000000;stroke-width:0.8;" x="57.6" xlink:href="#mbda461b037" y="260.739431"/>
      </g>
     </g>
     <g id="text_3">
      <!-- 0 -->
      <defs>
       <path d="M 31.78125 66.40625 
Q 24.171875 66.40625 20.328125 58.90625 
Q 16.5 51.421875 16.5 36.375 
Q 16.5 21.390625 20.328125 13.890625 
Q 24.171875 6.390625 31.78125 6.390625 
Q 39.453125 6.390625 43.28125 13.890625 
Q 47.125 21.390625 47.125 36.375 
Q 47.125 51.421875 43.28125 58.90625 
Q 39.453125 66.40625 31.78125 66.40625 
z
M 31.78125 74.21875 
Q 44.046875 74.21875 50.515625 64.515625 
Q 56.984375 54.828125 56.984375 36.375 
Q 56.984375 17.96875 50.515625 8.265625 
Q 44.046875 -1.421875 31.78125 -1.421875 
Q 19.53125 -1.421875 13.0625 8.265625 
Q 6.59375 17.96875 6.59375 36.375 
Q 6.59375 54.828125 13.0625 64.515625 
Q 19.53125 74.21875 31.78125 74.21875 
z
" id="DejaVuSans-48"/>
      </defs>
      <g transform="translate(44.2375 264.53865)scale(0.1 -0.1)">
       <use xlink:href="#DejaVuSans-48"/>
      </g>
     </g>
    </g>
    <g id="ytick_2">
     <g id="line2d_4">
      <g>
       <use style="stroke:#000000;stroke-width:0.8;" x="57.6" xlink:href="#mbda461b037" y="209.554562"/>
      </g>
     </g>
     <g id="text_4">
      <!-- 5 -->
      <defs>
       <path d="M 10.796875 72.90625 
L 49.515625 72.90625 
L 49.515625 64.59375 
L 19.828125 64.59375 
L 19.828125 46.734375 
Q 21.96875 47.46875 24.109375 47.828125 
Q 26.265625 48.1875 28.421875 48.1875 
Q 40.625 48.1875 47.75 41.5 
Q 54.890625 34.8125 54.890625 23.390625 
Q 54.890625 11.625 47.5625 5.09375 
Q 40.234375 -1.421875 26.90625 -1.421875 
Q 22.3125 -1.421875 17.546875 -0.640625 
Q 12.796875 0.140625 7.71875 1.703125 
L 7.71875 11.625 
Q 12.109375 9.234375 16.796875 8.0625 
Q 21.484375 6.890625 26.703125 6.890625 
Q 35.15625 6.890625 40.078125 11.328125 
Q 45.015625 15.765625 45.015625 23.390625 
Q 45.015625 31 40.078125 35.4375 
Q 35.15625 39.890625 26.703125 39.890625 
Q 22.75 39.890625 18.8125 39.015625 
Q 14.890625 38.140625 10.796875 36.28125 
z
" id="DejaVuSans-53"/>
      </defs>
      <g transform="translate(44.2375 213.353781)scale(0.1 -0.1)">
       <use xlink:href="#DejaVuSans-53"/>
      </g>
     </g>
    </g>
    <g id="ytick_3">
     <g id="line2d_5">
      <g>
       <use style="stroke:#000000;stroke-width:0.8;" x="57.6" xlink:href="#mbda461b037" y="158.369692"/>
      </g>
     </g>
     <g id="text_5">
      <!-- 10 -->
      <g transform="translate(37.875 162.168911)scale(0.1 -0.1)">
       <use xlink:href="#DejaVuSans-49"/>
       <use x="63.623047" xlink:href="#DejaVuSans-48"/>
      </g>
     </g>
    </g>
    <g id="ytick_4">
     <g id="line2d_6">
      <g>
       <use style="stroke:#000000;stroke-width:0.8;" x="57.6" xlink:href="#mbda461b037" y="107.184822"/>
      </g>
     </g>
     <g id="text_6">
      <!-- 15 -->
      <g transform="translate(37.875 110.984041)scale(0.1 -0.1)">
       <use xlink:href="#DejaVuSans-49"/>
       <use x="63.623047" xlink:href="#DejaVuSans-53"/>
      </g>
     </g>
    </g>
    <g id="ytick_5">
     <g id="line2d_7">
      <g>
       <use style="stroke:#000000;stroke-width:0.8;" x="57.6" xlink:href="#mbda461b037" y="55.999953"/>
      </g>
     </g>
     <g id="text_7">
      <!-- 20 -->
      <g transform="translate(37.875 59.799172)scale(0.1 -0.1)">
       <use xlink:href="#DejaVuSans-50"/>
       <use x="63.623047" xlink:href="#DejaVuSans-48"/>
      </g>
     </g>
    </g>
   </g>
   <g id="line2d_8">
    <path clip-path="url(#p8e96aefb3d)" d="M 133.488 259.561344 
L 160.272 259.561344 
L 160.272 204.354532 
L 133.488 204.354532 
L 133.488 259.561344 
" style="fill:none;stroke:#000000;stroke-linecap:square;"/>
   </g>
   <g id="line2d_9">
    <path clip-path="url(#p8e96aefb3d)" d="M 146.88 259.561344 
L 146.88 260.739431 
" style="fill:none;stroke:#000000;stroke-linecap:square;"/>
   </g>
   <g id="line2d_10">
    <path clip-path="url(#p8e96aefb3d)" d="M 146.88 204.354532 
L 146.88 124.119918 
" style="fill:none;stroke:#000000;stroke-linecap:square;"/>
   </g>
   <g id="line2d_11">
    <path clip-path="url(#p8e96aefb3d)" d="M 140.184 260.739431 
L 153.576 260.739431 
" style="fill:none;stroke:#000000;stroke-linecap:square;"/>
   </g>
   <g id="line2d_12">
    <path clip-path="url(#p8e96aefb3d)" d="M 140.184 124.119918 
L 153.576 124.119918 
" style="fill:none;stroke:#000000;stroke-linecap:square;"/>
   </g>
   <g id="line2d_13">
    <defs>
     <path d="M 0 3 
C 0.795609 3 1.55874 2.683901 2.12132 2.12132 
C 2.683901 1.55874 3 0.795609 3 0 
C 3 -0.795609 2.683901 -1.55874 2.12132 -2.12132 
C 1.55874 -2.683901 0.795609 -3 0 -3 
C -0.795609 -3 -1.55874 -2.683901 -2.12132 -2.12132 
C -2.683901 -1.55874 -3 -0.795609 -3 0 
C -3 0.795609 -2.683901 1.55874 -2.12132 2.12132 
C -1.55874 2.683901 -0.795609 3 0 3 
z
" id="m1a1b51873a" style="stroke:#000000;"/>
    </defs>
    <g clip-path="url(#p8e96aefb3d)">
     <use style="fill-opacity:0;stroke:#000000;" x="146.88" xlink:href="#m1a1b51873a" y="119.317338"/>
     <use style="fill-opacity:0;stroke:#000000;" x="146.88" xlink:href="#m1a1b51873a" y="107.862524"/>
     <use style="fill-opacity:0;stroke:#000000;" x="146.88" xlink:href="#m1a1b51873a" y="88.516882"/>
     <use style="fill-opacity:0;stroke:#000000;" x="146.88" xlink:href="#m1a1b51873a" y="54.566395"/>
     <use style="fill-opacity:0;stroke:#000000;" x="146.88" xlink:href="#m1a1b51873a" y="109.223338"/>
     <use style="fill-opacity:0;stroke:#000000;" x="146.88" xlink:href="#m1a1b51873a" y="80.191794"/>
     <use style="fill-opacity:0;stroke:#000000;" x="146.88" xlink:href="#m1a1b51873a" y="106.681874"/>
     <use style="fill-opacity:0;stroke:#000000;" x="146.88" xlink:href="#m1a1b51873a" y="89.96699"/>
     <use style="fill-opacity:0;stroke:#000000;" x="146.88" xlink:href="#m1a1b51873a" y="53.568"/>
     <use style="fill-opacity:0;stroke:#000000;" x="146.88" xlink:href="#m1a1b51873a" y="106.401551"/>
     <use style="fill-opacity:0;stroke:#000000;" x="146.88" xlink:href="#m1a1b51873a" y="58.252884"/>
     <use style="fill-opacity:0;stroke:#000000;" x="146.88" xlink:href="#m1a1b51873a" y="81.893796"/>
     <use style="fill-opacity:0;stroke:#000000;" x="146.88" xlink:href="#m1a1b51873a" y="89.478625"/>
     <use style="fill-opacity:0;stroke:#000000;" x="146.88" xlink:href="#m1a1b51873a" y="93.014935"/>
     <use style="fill-opacity:0;stroke:#000000;" x="146.88" xlink:href="#m1a1b51873a" y="95.251414"/>
     <use style="fill-opacity:0;stroke:#000000;" x="146.88" xlink:href="#m1a1b51873a" y="102.688231"/>
     <use style="fill-opacity:0;stroke:#000000;" x="146.88" xlink:href="#m1a1b51873a" y="97.825105"/>
     <use style="fill-opacity:0;stroke:#000000;" x="146.88" xlink:href="#m1a1b51873a" y="101.890973"/>
    </g>
   </g>
   <g id="line2d_14">
    <path clip-path="url(#p8e96aefb3d)" d="M 312.048 266.329068 
L 338.832 266.329068 
L 338.832 259.43539 
L 312.048 259.43539 
L 312.048 266.329068 
" style="fill:none;stroke:#000000;stroke-linecap:square;"/>
   </g>
   <g id="line2d_15">
    <path clip-path="url(#p8e96aefb3d)" d="M 325.44 266.329068 
L 325.44 275.291169 
" style="fill:none;stroke:#000000;stroke-linecap:square;"/>
   </g>
   <g id="line2d_16">
    <path clip-path="url(#p8e96aefb3d)" d="M 325.44 259.43539 
L 325.44 249.735626 
" style="fill:none;stroke:#000000;stroke-linecap:square;"/>
   </g>
   <g id="line2d_17">
    <path clip-path="url(#p8e96aefb3d)" d="M 318.744 275.291169 
L 332.136 275.291169 
" style="fill:none;stroke:#000000;stroke-linecap:square;"/>
   </g>
   <g id="line2d_18">
    <path clip-path="url(#p8e96aefb3d)" d="M 318.744 249.735626 
L 332.136 249.735626 
" style="fill:none;stroke:#000000;stroke-linecap:square;"/>
   </g>
   <g id="line2d_19">
    <g clip-path="url(#p8e96aefb3d)">
     <use style="fill-opacity:0;stroke:#000000;" x="325.44" xlink:href="#m1a1b51873a" y="278.346444"/>
     <use style="fill-opacity:0;stroke:#000000;" x="325.44" xlink:href="#m1a1b51873a" y="277.477411"/>
     <use style="fill-opacity:0;stroke:#000000;" x="325.44" xlink:href="#m1a1b51873a" y="295.488"/>
     <use style="fill-opacity:0;stroke:#000000;" x="325.44" xlink:href="#m1a1b51873a" y="280.374684"/>
     <use style="fill-opacity:0;stroke:#000000;" x="325.44" xlink:href="#m1a1b51873a" y="277.159828"/>
     <use style="fill-opacity:0;stroke:#000000;" x="325.44" xlink:href="#m1a1b51873a" y="278.711968"/>
     <use style="fill-opacity:0;stroke:#000000;" x="325.44" xlink:href="#m1a1b51873a" y="278.149151"/>
     <use style="fill-opacity:0;stroke:#000000;" x="325.44" xlink:href="#m1a1b51873a" y="242.942524"/>
     <use style="fill-opacity:0;stroke:#000000;" x="325.44" xlink:href="#m1a1b51873a" y="247.413779"/>
     <use style="fill-opacity:0;stroke:#000000;" x="325.44" xlink:href="#m1a1b51873a" y="245.601052"/>
     <use style="fill-opacity:0;stroke:#000000;" x="325.44" xlink:href="#m1a1b51873a" y="247.937751"/>
     <use style="fill-opacity:0;stroke:#000000;" x="325.44" xlink:href="#m1a1b51873a" y="248.258586"/>
     <use style="fill-opacity:0;stroke:#000000;" x="325.44" xlink:href="#m1a1b51873a" y="247.73765"/>
     <use style="fill-opacity:0;stroke:#000000;" x="325.44" xlink:href="#m1a1b51873a" y="245.522832"/>
     <use style="fill-opacity:0;stroke:#000000;" x="325.44" xlink:href="#m1a1b51873a" y="242.121094"/>
     <use style="fill-opacity:0;stroke:#000000;" x="325.44" xlink:href="#m1a1b51873a" y="242.052249"/>
     <use style="fill-opacity:0;stroke:#000000;" x="325.44" xlink:href="#m1a1b51873a" y="244.210864"/>
     <use style="fill-opacity:0;stroke:#000000;" x="325.44" xlink:href="#m1a1b51873a" y="244.297263"/>
     <use style="fill-opacity:0;stroke:#000000;" x="325.44" xlink:href="#m1a1b51873a" y="245.17268"/>
     <use style="fill-opacity:0;stroke:#000000;" x="325.44" xlink:href="#m1a1b51873a" y="247.275248"/>
     <use style="fill-opacity:0;stroke:#000000;" x="325.44" xlink:href="#m1a1b51873a" y="247.232853"/>
     <use style="fill-opacity:0;stroke:#000000;" x="325.44" xlink:href="#m1a1b51873a" y="249.027432"/>
     <use style="fill-opacity:0;stroke:#000000;" x="325.44" xlink:href="#m1a1b51873a" y="248.856441"/>
     <use style="fill-opacity:0;stroke:#000000;" x="325.44" xlink:href="#m1a1b51873a" y="248.113822"/>
     <use style="fill-opacity:0;stroke:#000000;" x="325.44" xlink:href="#m1a1b51873a" y="245.869583"/>
    </g>
   </g>
   <g id="line2d_20">
    <path clip-path="url(#p8e96aefb3d)" d="M 133.488 239.603453 
L 160.272 239.603453 
" style="fill:none;stroke:#ff7f0e;stroke-linecap:square;"/>
   </g>
   <g id="line2d_21">
    <path clip-path="url(#p8e96aefb3d)" d="M 312.048 263.227414 
L 338.832 263.227414 
" style="fill:none;stroke:#ff7f0e;stroke-linecap:square;"/>
   </g>
   <g id="patch_3">
    <path d="M 57.6 307.584 
L 57.6 41.472 
" style="fill:none;stroke:#000000;stroke-linecap:square;stroke-linejoin:miter;stroke-width:0.8;"/>
   </g>
   <g id="patch_4">
    <path d="M 414.72 307.584 
L 414.72 41.472 
" style="fill:none;stroke:#000000;stroke-linecap:square;stroke-linejoin:miter;stroke-width:0.8;"/>
   </g>
   <g id="patch_5">
    <path d="M 57.6 307.584 
L 414.72 307.584 
" style="fill:none;stroke:#000000;stroke-linecap:square;stroke-linejoin:miter;stroke-width:0.8;"/>
   </g>
   <g id="patch_6">
    <path d="M 57.6 41.472 
L 414.72 41.472 
" style="fill:none;stroke:#000000;stroke-linecap:square;stroke-linejoin:miter;stroke-width:0.8;"/>
   </g>
  </g>
 </g>
 <defs>
  <clipPath id="p8e96aefb3d">
   <rect height="266.112" width="357.12" x="57.6" y="41.472"/>
  </clipPath>
 </defs>
</svg>
