<?xml version="1.0" encoding="utf-8" standalone="no"?>
<!DOCTYPE svg PUBLIC "-//W3C//DTD SVG 1.1//EN"
  "http://www.w3.org/Graphics/SVG/1.1/DTD/svg11.dtd">
<!-- Created with matplotlib (https://matplotlib.org/) -->
<svg height="345.6pt" version="1.1" viewBox="0 0 460.8 345.6" width="460.8pt" xmlns="http://www.w3.org/2000/svg" xmlns:xlink="http://www.w3.org/1999/xlink">
 <defs>
  <style type="text/css">
*{stroke-linecap:butt;stroke-linejoin:round;white-space:pre;}
  </style>
 </defs>
 <g id="figure_1">
  <g id="patch_1">
   <path d="M 0 345.6 
L 460.8 345.6 
L 460.8 0 
L 0 0 
z
" style="fill:#ffffff;"/>
  </g>
  <g id="axes_1">
   <g id="patch_2">
    <path d="M 47.72 303.64 
L 450 303.64 
L 450 25.44 
L 47.72 25.44 
z
" style="fill:#ffffff;"/>
   </g>
   <g id="PolyCollection_1">
    <defs>
     <path d="M 66.005455 -54.605455 
L 66.005455 -54.605455 
L 69.699486 -54.605455 
L 73.393517 -55.320162 
L 77.087548 -55.731757 
L 80.781579 -58.933626 
L 84.475611 -58.814262 
L 88.169642 -58.814262 
L 91.863673 -60.580749 
L 95.557704 -60.905681 
L 99.251736 -60.905681 
L 102.945767 -62.118562 
L 106.639798 -63.733339 
L 110.333829 -63.733339 
L 114.02786 -65.896101 
L 117.721892 -68.743763 
L 121.415923 -68.523137 
L 125.109954 -68.596161 
L 128.803985 -68.711943 
L 132.498017 -72.723733 
L 136.192048 -73.4833 
L 139.886079 -73.254808 
L 143.58011 -76.293451 
L 147.274141 -82.571911 
L 150.968173 -83.123459 
L 154.662204 -88.955029 
L 158.356235 -91.521841 
L 162.050266 -96.091848 
L 165.744298 -100.219112 
L 169.438329 -101.148469 
L 173.13236 -101.116996 
L 176.826391 -103.269336 
L 180.520422 -105.268975 
L 184.214454 -106.234005 
L 187.908485 -107.11806 
L 191.602516 -106.798671 
L 195.296547 -109.537514 
L 198.990579 -113.028469 
L 202.68461 -113.820852 
L 206.378641 -114.248031 
L 210.072672 -116.497785 
L 213.766703 -117.885162 
L 217.460735 -119.713846 
L 221.154766 -123.870783 
L 224.848797 -124.506262 
L 228.542828 -130.79553 
L 232.23686 -135.569739 
L 235.930891 -138.106888 
L 239.624922 -143.386498 
L 243.318953 -151.501686 
L 247.012984 -151.84698 
L 250.707016 -153.392775 
L 254.401047 -155.915956 
L 258.095078 -163.11196 
L 261.789109 -171.130993 
L 265.48314 -171.265562 
L 269.177172 -173.074118 
L 272.871203 -175.318647 
L 276.565234 -176.475381 
L 280.259265 -181.553032 
L 283.953297 -183.903462 
L 287.647328 -184.916928 
L 291.341359 -190.822794 
L 295.03539 -196.316009 
L 298.729421 -198.535777 
L 302.423453 -199.760701 
L 306.117484 -205.277617 
L 309.811515 -205.818511 
L 313.505546 -209.83874 
L 317.199578 -210.621426 
L 320.893609 -213.207267 
L 324.58764 -219.63759 
L 328.281671 -220.723004 
L 331.975702 -223.132347 
L 335.669734 -229.210434 
L 339.363765 -231.06782 
L 343.057796 -231.890921 
L 346.751827 -236.11537 
L 350.445859 -236.2214 
L 354.13989 -236.571608 
L 357.833921 -243.111335 
L 361.527952 -243.103867 
L 365.221983 -245.575779 
L 368.916015 -250.411254 
L 372.610046 -250.411254 
L 376.304077 -251.765651 
L 379.998108 -253.308561 
L 383.69214 -257.526212 
L 387.386171 -259.297075 
L 391.080202 -259.546484 
L 394.774233 -261.761388 
L 398.468264 -267.086502 
L 402.162296 -267.086502 
L 405.856327 -273.667694 
L 409.550358 -279.1786 
L 413.244389 -279.382278 
L 416.938421 -285.653252 
L 420.632452 -289.950882 
L 424.326483 -290.238016 
L 428.020514 -299.654451 
L 431.714545 -307.514545 
L 431.714545 -307.514545 
L 431.714545 -307.514545 
L 428.020514 -307.514545 
L 424.326483 -307.514545 
L 420.632452 -306.290203 
L 416.938421 -303.86926 
L 413.244389 -297.404015 
L 409.550358 -296.585839 
L 405.856327 -291.215587 
L 402.162296 -285.60293 
L 398.468264 -285.60293 
L 394.774233 -282.699533 
L 391.080202 -281.95118 
L 387.386171 -281.178734 
L 383.69214 -281.010038 
L 379.998108 -278.785213 
L 376.304077 -278.79534 
L 372.610046 -277.060223 
L 368.916015 -277.060223 
L 365.221983 -273.752976 
L 361.527952 -272.01772 
L 357.833921 -271.754788 
L 354.13989 -270.257418 
L 350.445859 -264.414963 
L 346.751827 -262.149971 
L 343.057796 -260.434888 
L 339.363765 -259.365961 
L 335.669734 -257.670805 
L 331.975702 -257.1707 
L 328.281671 -255.174522 
L 324.58764 -253.944674 
L 320.893609 -248.738869 
L 317.199578 -245.696525 
L 313.505546 -244.946429 
L 309.811515 -241.423231 
L 306.117484 -240.814539 
L 302.423453 -240.531999 
L 298.729421 -236.755421 
L 295.03539 -234.879786 
L 291.341359 -230.441849 
L 287.647328 -227.179515 
L 283.953297 -226.779947 
L 280.259265 -223.98917 
L 276.565234 -215.168734 
L 272.871203 -214.233859 
L 269.177172 -212.367018 
L 265.48314 -206.272165 
L 261.789109 -206.24707 
L 258.095078 -203.186223 
L 254.401047 -198.750521 
L 250.707016 -197.976623 
L 247.012984 -196.121558 
L 243.318953 -195.309281 
L 239.624922 -190.882675 
L 235.930891 -187.158048 
L 232.23686 -186.454001 
L 228.542828 -182.219306 
L 224.848797 -177.207865 
L 221.154766 -176.645736 
L 217.460735 -174.250274 
L 213.766703 -169.524716 
L 210.072672 -169.099897 
L 206.378641 -168.312212 
L 202.68461 -168.132665 
L 198.990579 -167.647729 
L 195.296547 -163.043677 
L 191.602516 -161.862749 
L 187.908485 -161.032432 
L 184.214454 -159.342076 
L 180.520422 -158.774324 
L 176.826391 -155.852478 
L 173.13236 -152.07327 
L 169.438329 -151.786333 
L 165.744298 -139.971735 
L 162.050266 -137.428448 
L 158.356235 -134.933286 
L 154.662204 -132.9736 
L 150.968173 -129.138447 
L 147.274141 -127.314919 
L 143.58011 -121.694297 
L 139.886079 -114.654036 
L 136.192048 -112.130301 
L 132.498017 -108.223602 
L 128.803985 -106.040642 
L 125.109954 -105.645496 
L 121.415923 -93.35248 
L 117.721892 -92.620926 
L 114.02786 -87.054252 
L 110.333829 -83.365297 
L 106.639798 -83.365297 
L 102.945767 -80.605258 
L 99.251736 -75.140342 
L 95.557704 -75.140342 
L 91.863673 -72.30391 
L 88.169642 -70.143011 
L 84.475611 -70.143011 
L 80.781579 -68.57868 
L 77.087548 -63.694262 
L 73.393517 -63.60279 
L 69.699486 -61.338478 
L 66.005455 -54.605455 
z
" id="m7641e6c675" style="stroke:#808080;stroke-opacity:0.2;"/>
    </defs>
    <g clip-path="url(#pcd4ddea95b)">
     <use style="fill:#808080;fill-opacity:0.2;stroke:#808080;stroke-opacity:0.2;" x="0" xlink:href="#m7641e6c675" y="345.6"/>
    </g>
   </g>
   <g id="matplotlib.axis_1">
    <g id="xtick_1">
     <g id="line2d_1">
      <defs>
       <path d="M 0 0 
L 0 3.5 
" id="mbb7340a941" style="stroke:#000000;stroke-width:0.8;"/>
      </defs>
      <g>
       <use style="stroke:#000000;stroke-width:0.8;" x="66.005455" xlink:href="#mbb7340a941" y="303.64"/>
      </g>
     </g>
     <g id="text_1">
      <!-- 0.0 -->
      <defs>
       <path d="M 31.78125 66.40625 
Q 24.171875 66.40625 20.328125 58.90625 
Q 16.5 51.421875 16.5 36.375 
Q 16.5 21.390625 20.328125 13.890625 
Q 24.171875 6.390625 31.78125 6.390625 
Q 39.453125 6.390625 43.28125 13.890625 
Q 47.125 21.390625 47.125 36.375 
Q 47.125 51.421875 43.28125 58.90625 
Q 39.453125 66.40625 31.78125 66.40625 
z
M 31.78125 74.21875 
Q 44.046875 74.21875 50.515625 64.515625 
Q 56.984375 54.828125 56.984375 36.375 
Q 56.984375 17.96875 50.515625 8.265625 
Q 44.046875 -1.421875 31.78125 -1.421875 
Q 19.53125 -1.421875 13.0625 8.265625 
Q 6.59375 17.96875 6.59375 36.375 
Q 6.59375 54.828125 13.0625 64.515625 
Q 19.53125 74.21875 31.78125 74.21875 
z
" id="DejaVuSans-48"/>
       <path d="M 10.6875 12.40625 
L 21 12.40625 
L 21 0 
L 10.6875 0 
z
" id="DejaVuSans-46"/>
      </defs>
      <g transform="translate(58.053892 318.238437)scale(0.1 -0.1)">
       <use xlink:href="#DejaVuSans-48"/>
       <use x="63.623047" xlink:href="#DejaVuSans-46"/>
       <use x="95.410156" xlink:href="#DejaVuSans-48"/>
      </g>
     </g>
    </g>
    <g id="xtick_2">
     <g id="line2d_2">
      <g>
       <use style="stroke:#000000;stroke-width:0.8;" x="139.147273" xlink:href="#mbb7340a941" y="303.64"/>
      </g>
     </g>
     <g id="text_2">
      <!-- 0.2 -->
      <defs>
       <path d="M 19.1875 8.296875 
L 53.609375 8.296875 
L 53.609375 0 
L 7.328125 0 
L 7.328125 8.296875 
Q 12.9375 14.109375 22.625 23.890625 
Q 32.328125 33.6875 34.8125 36.53125 
Q 39.546875 41.84375 41.421875 45.53125 
Q 43.3125 49.21875 43.3125 52.78125 
Q 43.3125 58.59375 39.234375 62.25 
Q 35.15625 65.921875 28.609375 65.921875 
Q 23.96875 65.921875 18.8125 64.3125 
Q 13.671875 62.703125 7.8125 59.421875 
L 7.8125 69.390625 
Q 13.765625 71.78125 18.9375 73 
Q 24.125 74.21875 28.421875 74.21875 
Q 39.75 74.21875 46.484375 68.546875 
Q 53.21875 62.890625 53.21875 53.421875 
Q 53.21875 48.921875 51.53125 44.890625 
Q 49.859375 40.875 45.40625 35.40625 
Q 44.1875 33.984375 37.640625 27.21875 
Q 31.109375 20.453125 19.1875 8.296875 
z
" id="DejaVuSans-50"/>
      </defs>
      <g transform="translate(131.19571 318.238437)scale(0.1 -0.1)">
       <use xlink:href="#DejaVuSans-48"/>
       <use x="63.623047" xlink:href="#DejaVuSans-46"/>
       <use x="95.410156" xlink:href="#DejaVuSans-50"/>
      </g>
     </g>
    </g>
    <g id="xtick_3">
     <g id="line2d_3">
      <g>
       <use style="stroke:#000000;stroke-width:0.8;" x="212.289091" xlink:href="#mbb7340a941" y="303.64"/>
      </g>
     </g>
     <g id="text_3">
      <!-- 0.4 -->
      <defs>
       <path d="M 37.796875 64.3125 
L 12.890625 25.390625 
L 37.796875 25.390625 
z
M 35.203125 72.90625 
L 47.609375 72.90625 
L 47.609375 25.390625 
L 58.015625 25.390625 
L 58.015625 17.1875 
L 47.609375 17.1875 
L 47.609375 0 
L 37.796875 0 
L 37.796875 17.1875 
L 4.890625 17.1875 
L 4.890625 26.703125 
z
" id="DejaVuSans-52"/>
      </defs>
      <g transform="translate(204.337528 318.238437)scale(0.1 -0.1)">
       <use xlink:href="#DejaVuSans-48"/>
       <use x="63.623047" xlink:href="#DejaVuSans-46"/>
       <use x="95.410156" xlink:href="#DejaVuSans-52"/>
      </g>
     </g>
    </g>
    <g id="xtick_4">
     <g id="line2d_4">
      <g>
       <use style="stroke:#000000;stroke-width:0.8;" x="285.430909" xlink:href="#mbb7340a941" y="303.64"/>
      </g>
     </g>
     <g id="text_4">
      <!-- 0.6 -->
      <defs>
       <path d="M 33.015625 40.375 
Q 26.375 40.375 22.484375 35.828125 
Q 18.609375 31.296875 18.609375 23.390625 
Q 18.609375 15.53125 22.484375 10.953125 
Q 26.375 6.390625 33.015625 6.390625 
Q 39.65625 6.390625 43.53125 10.953125 
Q 47.40625 15.53125 47.40625 23.390625 
Q 47.40625 31.296875 43.53125 35.828125 
Q 39.65625 40.375 33.015625 40.375 
z
M 52.59375 71.296875 
L 52.59375 62.3125 
Q 48.875 64.0625 45.09375 64.984375 
Q 41.3125 65.921875 37.59375 65.921875 
Q 27.828125 65.921875 22.671875 59.328125 
Q 17.53125 52.734375 16.796875 39.40625 
Q 19.671875 43.65625 24.015625 45.921875 
Q 28.375 48.1875 33.59375 48.1875 
Q 44.578125 48.1875 50.953125 41.515625 
Q 57.328125 34.859375 57.328125 23.390625 
Q 57.328125 12.15625 50.6875 5.359375 
Q 44.046875 -1.421875 33.015625 -1.421875 
Q 20.359375 -1.421875 13.671875 8.265625 
Q 6.984375 17.96875 6.984375 36.375 
Q 6.984375 53.65625 15.1875 63.9375 
Q 23.390625 74.21875 37.203125 74.21875 
Q 40.921875 74.21875 44.703125 73.484375 
Q 48.484375 72.75 52.59375 71.296875 
z
" id="DejaVuSans-54"/>
      </defs>
      <g transform="translate(277.479347 318.238437)scale(0.1 -0.1)">
       <use xlink:href="#DejaVuSans-48"/>
       <use x="63.623047" xlink:href="#DejaVuSans-46"/>
       <use x="95.410156" xlink:href="#DejaVuSans-54"/>
      </g>
     </g>
    </g>
    <g id="xtick_5">
     <g id="line2d_5">
      <g>
       <use style="stroke:#000000;stroke-width:0.8;" x="358.572727" xlink:href="#mbb7340a941" y="303.64"/>
      </g>
     </g>
     <g id="text_5">
      <!-- 0.8 -->
      <defs>
       <path d="M 31.78125 34.625 
Q 24.75 34.625 20.71875 30.859375 
Q 16.703125 27.09375 16.703125 20.515625 
Q 16.703125 13.921875 20.71875 10.15625 
Q 24.75 6.390625 31.78125 6.390625 
Q 38.8125 6.390625 42.859375 10.171875 
Q 46.921875 13.96875 46.921875 20.515625 
Q 46.921875 27.09375 42.890625 30.859375 
Q 38.875 34.625 31.78125 34.625 
z
M 21.921875 38.8125 
Q 15.578125 40.375 12.03125 44.71875 
Q 8.5 49.078125 8.5 55.328125 
Q 8.5 64.0625 14.71875 69.140625 
Q 20.953125 74.21875 31.78125 74.21875 
Q 42.671875 74.21875 48.875 69.140625 
Q 55.078125 64.0625 55.078125 55.328125 
Q 55.078125 49.078125 51.53125 44.71875 
Q 48 40.375 41.703125 38.8125 
Q 48.828125 37.15625 52.796875 32.3125 
Q 56.78125 27.484375 56.78125 20.515625 
Q 56.78125 9.90625 50.3125 4.234375 
Q 43.84375 -1.421875 31.78125 -1.421875 
Q 19.734375 -1.421875 13.25 4.234375 
Q 6.78125 9.90625 6.78125 20.515625 
Q 6.78125 27.484375 10.78125 32.3125 
Q 14.796875 37.15625 21.921875 38.8125 
z
M 18.3125 54.390625 
Q 18.3125 48.734375 21.84375 45.5625 
Q 25.390625 42.390625 31.78125 42.390625 
Q 38.140625 42.390625 41.71875 45.5625 
Q 45.3125 48.734375 45.3125 54.390625 
Q 45.3125 60.0625 41.71875 63.234375 
Q 38.140625 66.40625 31.78125 66.40625 
Q 25.390625 66.40625 21.84375 63.234375 
Q 18.3125 60.0625 18.3125 54.390625 
z
" id="DejaVuSans-56"/>
      </defs>
      <g transform="translate(350.621165 318.238437)scale(0.1 -0.1)">
       <use xlink:href="#DejaVuSans-48"/>
       <use x="63.623047" xlink:href="#DejaVuSans-46"/>
       <use x="95.410156" xlink:href="#DejaVuSans-56"/>
      </g>
     </g>
    </g>
    <g id="xtick_6">
     <g id="line2d_6">
      <g>
       <use style="stroke:#000000;stroke-width:0.8;" x="431.714545" xlink:href="#mbb7340a941" y="303.64"/>
      </g>
     </g>
     <g id="text_6">
      <!-- 1.0 -->
      <defs>
       <path d="M 12.40625 8.296875 
L 28.515625 8.296875 
L 28.515625 63.921875 
L 10.984375 60.40625 
L 10.984375 69.390625 
L 28.421875 72.90625 
L 38.28125 72.90625 
L 38.28125 8.296875 
L 54.390625 8.296875 
L 54.390625 0 
L 12.40625 0 
z
" id="DejaVuSans-49"/>
      </defs>
      <g transform="translate(423.762983 318.238437)scale(0.1 -0.1)">
       <use xlink:href="#DejaVuSans-49"/>
       <use x="63.623047" xlink:href="#DejaVuSans-46"/>
       <use x="95.410156" xlink:href="#DejaVuSans-48"/>
      </g>
     </g>
    </g>
    <g id="text_7">
     <!-- False Positive Rate -->
     <defs>
      <path d="M 9.8125 72.90625 
L 51.703125 72.90625 
L 51.703125 64.59375 
L 19.671875 64.59375 
L 19.671875 43.109375 
L 48.578125 43.109375 
L 48.578125 34.8125 
L 19.671875 34.8125 
L 19.671875 0 
L 9.8125 0 
z
" id="DejaVuSans-70"/>
      <path d="M 34.28125 27.484375 
Q 23.390625 27.484375 19.1875 25 
Q 14.984375 22.515625 14.984375 16.5 
Q 14.984375 11.71875 18.140625 8.90625 
Q 21.296875 6.109375 26.703125 6.109375 
Q 34.1875 6.109375 38.703125 11.40625 
Q 43.21875 16.703125 43.21875 25.484375 
L 43.21875 27.484375 
z
M 52.203125 31.203125 
L 52.203125 0 
L 43.21875 0 
L 43.21875 8.296875 
Q 40.140625 3.328125 35.546875 0.953125 
Q 30.953125 -1.421875 24.3125 -1.421875 
Q 15.921875 -1.421875 10.953125 3.296875 
Q 6 8.015625 6 15.921875 
Q 6 25.140625 12.171875 29.828125 
Q 18.359375 34.515625 30.609375 34.515625 
L 43.21875 34.515625 
L 43.21875 35.40625 
Q 43.21875 41.609375 39.140625 45 
Q 35.0625 48.390625 27.6875 48.390625 
Q 23 48.390625 18.546875 47.265625 
Q 14.109375 46.140625 10.015625 43.890625 
L 10.015625 52.203125 
Q 14.9375 54.109375 19.578125 55.046875 
Q 24.21875 56 28.609375 56 
Q 40.484375 56 46.34375 49.84375 
Q 52.203125 43.703125 52.203125 31.203125 
z
" id="DejaVuSans-97"/>
      <path d="M 9.421875 75.984375 
L 18.40625 75.984375 
L 18.40625 0 
L 9.421875 0 
z
" id="DejaVuSans-108"/>
      <path d="M 44.28125 53.078125 
L 44.28125 44.578125 
Q 40.484375 46.53125 36.375 47.5 
Q 32.28125 48.484375 27.875 48.484375 
Q 21.1875 48.484375 17.84375 46.4375 
Q 14.5 44.390625 14.5 40.28125 
Q 14.5 37.15625 16.890625 35.375 
Q 19.28125 33.59375 26.515625 31.984375 
L 29.59375 31.296875 
Q 39.15625 29.25 43.1875 25.515625 
Q 47.21875 21.78125 47.21875 15.09375 
Q 47.21875 7.46875 41.1875 3.015625 
Q 35.15625 -1.421875 24.609375 -1.421875 
Q 20.21875 -1.421875 15.453125 -0.5625 
Q 10.6875 0.296875 5.421875 2 
L 5.421875 11.28125 
Q 10.40625 8.6875 15.234375 7.390625 
Q 20.0625 6.109375 24.8125 6.109375 
Q 31.15625 6.109375 34.5625 8.28125 
Q 37.984375 10.453125 37.984375 14.40625 
Q 37.984375 18.0625 35.515625 20.015625 
Q 33.0625 21.96875 24.703125 23.78125 
L 21.578125 24.515625 
Q 13.234375 26.265625 9.515625 29.90625 
Q 5.8125 33.546875 5.8125 39.890625 
Q 5.8125 47.609375 11.28125 51.796875 
Q 16.75 56 26.8125 56 
Q 31.78125 56 36.171875 55.265625 
Q 40.578125 54.546875 44.28125 53.078125 
z
" id="DejaVuSans-115"/>
      <path d="M 56.203125 29.59375 
L 56.203125 25.203125 
L 14.890625 25.203125 
Q 15.484375 15.921875 20.484375 11.0625 
Q 25.484375 6.203125 34.421875 6.203125 
Q 39.59375 6.203125 44.453125 7.46875 
Q 49.3125 8.734375 54.109375 11.28125 
L 54.109375 2.78125 
Q 49.265625 0.734375 44.1875 -0.34375 
Q 39.109375 -1.421875 33.890625 -1.421875 
Q 20.796875 -1.421875 13.15625 6.1875 
Q 5.515625 13.8125 5.515625 26.8125 
Q 5.515625 40.234375 12.765625 48.109375 
Q 20.015625 56 32.328125 56 
Q 43.359375 56 49.78125 48.890625 
Q 56.203125 41.796875 56.203125 29.59375 
z
M 47.21875 32.234375 
Q 47.125 39.59375 43.09375 43.984375 
Q 39.0625 48.390625 32.421875 48.390625 
Q 24.90625 48.390625 20.390625 44.140625 
Q 15.875 39.890625 15.1875 32.171875 
z
" id="DejaVuSans-101"/>
      <path id="DejaVuSans-32"/>
      <path d="M 19.671875 64.796875 
L 19.671875 37.40625 
L 32.078125 37.40625 
Q 38.96875 37.40625 42.71875 40.96875 
Q 46.484375 44.53125 46.484375 51.125 
Q 46.484375 57.671875 42.71875 61.234375 
Q 38.96875 64.796875 32.078125 64.796875 
z
M 9.8125 72.90625 
L 32.078125 72.90625 
Q 44.34375 72.90625 50.609375 67.359375 
Q 56.890625 61.8125 56.890625 51.125 
Q 56.890625 40.328125 50.609375 34.8125 
Q 44.34375 29.296875 32.078125 29.296875 
L 19.671875 29.296875 
L 19.671875 0 
L 9.8125 0 
z
" id="DejaVuSans-80"/>
      <path d="M 30.609375 48.390625 
Q 23.390625 48.390625 19.1875 42.75 
Q 14.984375 37.109375 14.984375 27.296875 
Q 14.984375 17.484375 19.15625 11.84375 
Q 23.34375 6.203125 30.609375 6.203125 
Q 37.796875 6.203125 41.984375 11.859375 
Q 46.1875 17.53125 46.1875 27.296875 
Q 46.1875 37.015625 41.984375 42.703125 
Q 37.796875 48.390625 30.609375 48.390625 
z
M 30.609375 56 
Q 42.328125 56 49.015625 48.375 
Q 55.71875 40.765625 55.71875 27.296875 
Q 55.71875 13.875 49.015625 6.21875 
Q 42.328125 -1.421875 30.609375 -1.421875 
Q 18.84375 -1.421875 12.171875 6.21875 
Q 5.515625 13.875 5.515625 27.296875 
Q 5.515625 40.765625 12.171875 48.375 
Q 18.84375 56 30.609375 56 
z
" id="DejaVuSans-111"/>
      <path d="M 9.421875 54.6875 
L 18.40625 54.6875 
L 18.40625 0 
L 9.421875 0 
z
M 9.421875 75.984375 
L 18.40625 75.984375 
L 18.40625 64.59375 
L 9.421875 64.59375 
z
" id="DejaVuSans-105"/>
      <path d="M 18.3125 70.21875 
L 18.3125 54.6875 
L 36.8125 54.6875 
L 36.8125 47.703125 
L 18.3125 47.703125 
L 18.3125 18.015625 
Q 18.3125 11.328125 20.140625 9.421875 
Q 21.96875 7.515625 27.59375 7.515625 
L 36.8125 7.515625 
L 36.8125 0 
L 27.59375 0 
Q 17.1875 0 13.234375 3.875 
Q 9.28125 7.765625 9.28125 18.015625 
L 9.28125 47.703125 
L 2.6875 47.703125 
L 2.6875 54.6875 
L 9.28125 54.6875 
L 9.28125 70.21875 
z
" id="DejaVuSans-116"/>
      <path d="M 2.984375 54.6875 
L 12.5 54.6875 
L 29.59375 8.796875 
L 46.6875 54.6875 
L 56.203125 54.6875 
L 35.6875 0 
L 23.484375 0 
z
" id="DejaVuSans-118"/>
      <path d="M 44.390625 34.1875 
Q 47.5625 33.109375 50.5625 29.59375 
Q 53.5625 26.078125 56.59375 19.921875 
L 66.609375 0 
L 56 0 
L 46.6875 18.703125 
Q 43.0625 26.03125 39.671875 28.421875 
Q 36.28125 30.8125 30.421875 30.8125 
L 19.671875 30.8125 
L 19.671875 0 
L 9.8125 0 
L 9.8125 72.90625 
L 32.078125 72.90625 
Q 44.578125 72.90625 50.734375 67.671875 
Q 56.890625 62.453125 56.890625 51.90625 
Q 56.890625 45.015625 53.6875 40.46875 
Q 50.484375 35.9375 44.390625 34.1875 
z
M 19.671875 64.796875 
L 19.671875 38.921875 
L 32.078125 38.921875 
Q 39.203125 38.921875 42.84375 42.21875 
Q 46.484375 45.515625 46.484375 51.90625 
Q 46.484375 58.296875 42.84375 61.546875 
Q 39.203125 64.796875 32.078125 64.796875 
z
" id="DejaVuSans-82"/>
     </defs>
     <g transform="translate(201.654531 331.916562)scale(0.1 -0.1)">
      <use xlink:href="#DejaVuSans-70"/>
      <use x="57.378906" xlink:href="#DejaVuSans-97"/>
      <use x="118.658203" xlink:href="#DejaVuSans-108"/>
      <use x="146.441406" xlink:href="#DejaVuSans-115"/>
      <use x="198.541016" xlink:href="#DejaVuSans-101"/>
      <use x="260.064453" xlink:href="#DejaVuSans-32"/>
      <use x="291.851562" xlink:href="#DejaVuSans-80"/>
      <use x="352.107422" xlink:href="#DejaVuSans-111"/>
      <use x="413.289062" xlink:href="#DejaVuSans-115"/>
      <use x="465.388672" xlink:href="#DejaVuSans-105"/>
      <use x="493.171875" xlink:href="#DejaVuSans-116"/>
      <use x="532.380859" xlink:href="#DejaVuSans-105"/>
      <use x="560.164062" xlink:href="#DejaVuSans-118"/>
      <use x="619.34375" xlink:href="#DejaVuSans-101"/>
      <use x="680.867188" xlink:href="#DejaVuSans-32"/>
      <use x="712.654297" xlink:href="#DejaVuSans-82"/>
      <use x="782.105469" xlink:href="#DejaVuSans-97"/>
      <use x="843.384766" xlink:href="#DejaVuSans-116"/>
      <use x="882.59375" xlink:href="#DejaVuSans-101"/>
     </g>
    </g>
   </g>
   <g id="matplotlib.axis_2">
    <g id="ytick_1">
     <g id="line2d_7">
      <defs>
       <path d="M 0 0 
L -3.5 0 
" id="m7c928e6750" style="stroke:#000000;stroke-width:0.8;"/>
      </defs>
      <g>
       <use style="stroke:#000000;stroke-width:0.8;" x="47.72" xlink:href="#m7c928e6750" y="290.994545"/>
      </g>
     </g>
     <g id="text_8">
      <!-- 0.0 -->
      <g transform="translate(24.816875 294.793764)scale(0.1 -0.1)">
       <use xlink:href="#DejaVuSans-48"/>
       <use x="63.623047" xlink:href="#DejaVuSans-46"/>
       <use x="95.410156" xlink:href="#DejaVuSans-48"/>
      </g>
     </g>
    </g>
    <g id="ytick_2">
     <g id="line2d_8">
      <g>
       <use style="stroke:#000000;stroke-width:0.8;" x="47.72" xlink:href="#m7c928e6750" y="240.412727"/>
      </g>
     </g>
     <g id="text_9">
      <!-- 0.2 -->
      <g transform="translate(24.816875 244.211946)scale(0.1 -0.1)">
       <use xlink:href="#DejaVuSans-48"/>
       <use x="63.623047" xlink:href="#DejaVuSans-46"/>
       <use x="95.410156" xlink:href="#DejaVuSans-50"/>
      </g>
     </g>
    </g>
    <g id="ytick_3">
     <g id="line2d_9">
      <g>
       <use style="stroke:#000000;stroke-width:0.8;" x="47.72" xlink:href="#m7c928e6750" y="189.830909"/>
      </g>
     </g>
     <g id="text_10">
      <!-- 0.4 -->
      <g transform="translate(24.816875 193.630128)scale(0.1 -0.1)">
       <use xlink:href="#DejaVuSans-48"/>
       <use x="63.623047" xlink:href="#DejaVuSans-46"/>
       <use x="95.410156" xlink:href="#DejaVuSans-52"/>
      </g>
     </g>
    </g>
    <g id="ytick_4">
     <g id="line2d_10">
      <g>
       <use style="stroke:#000000;stroke-width:0.8;" x="47.72" xlink:href="#m7c928e6750" y="139.249091"/>
      </g>
     </g>
     <g id="text_11">
      <!-- 0.6 -->
      <g transform="translate(24.816875 143.04831)scale(0.1 -0.1)">
       <use xlink:href="#DejaVuSans-48"/>
       <use x="63.623047" xlink:href="#DejaVuSans-46"/>
       <use x="95.410156" xlink:href="#DejaVuSans-54"/>
      </g>
     </g>
    </g>
    <g id="ytick_5">
     <g id="line2d_11">
      <g>
       <use style="stroke:#000000;stroke-width:0.8;" x="47.72" xlink:href="#m7c928e6750" y="88.667273"/>
      </g>
     </g>
     <g id="text_12">
      <!-- 0.8 -->
      <g transform="translate(24.816875 92.466491)scale(0.1 -0.1)">
       <use xlink:href="#DejaVuSans-48"/>
       <use x="63.623047" xlink:href="#DejaVuSans-46"/>
       <use x="95.410156" xlink:href="#DejaVuSans-56"/>
      </g>
     </g>
    </g>
    <g id="ytick_6">
     <g id="line2d_12">
      <g>
       <use style="stroke:#000000;stroke-width:0.8;" x="47.72" xlink:href="#m7c928e6750" y="38.085455"/>
      </g>
     </g>
     <g id="text_13">
      <!-- 1.0 -->
      <g transform="translate(24.816875 41.884673)scale(0.1 -0.1)">
       <use xlink:href="#DejaVuSans-49"/>
       <use x="63.623047" xlink:href="#DejaVuSans-46"/>
       <use x="95.410156" xlink:href="#DejaVuSans-48"/>
      </g>
     </g>
    </g>
    <g id="text_14">
     <!-- True Positive Rate -->
     <defs>
      <path d="M -0.296875 72.90625 
L 61.375 72.90625 
L 61.375 64.59375 
L 35.5 64.59375 
L 35.5 0 
L 25.59375 0 
L 25.59375 64.59375 
L -0.296875 64.59375 
z
" id="DejaVuSans-84"/>
      <path d="M 41.109375 46.296875 
Q 39.59375 47.171875 37.8125 47.578125 
Q 36.03125 48 33.890625 48 
Q 26.265625 48 22.1875 43.046875 
Q 18.109375 38.09375 18.109375 28.8125 
L 18.109375 0 
L 9.078125 0 
L 9.078125 54.6875 
L 18.109375 54.6875 
L 18.109375 46.1875 
Q 20.953125 51.171875 25.484375 53.578125 
Q 30.03125 56 36.53125 56 
Q 37.453125 56 38.578125 55.875 
Q 39.703125 55.765625 41.0625 55.515625 
z
" id="DejaVuSans-114"/>
      <path d="M 8.5 21.578125 
L 8.5 54.6875 
L 17.484375 54.6875 
L 17.484375 21.921875 
Q 17.484375 14.15625 20.5 10.265625 
Q 23.53125 6.390625 29.59375 6.390625 
Q 36.859375 6.390625 41.078125 11.03125 
Q 45.3125 15.671875 45.3125 23.6875 
L 45.3125 54.6875 
L 54.296875 54.6875 
L 54.296875 0 
L 45.3125 0 
L 45.3125 8.40625 
Q 42.046875 3.421875 37.71875 1 
Q 33.40625 -1.421875 27.6875 -1.421875 
Q 18.265625 -1.421875 13.375 4.4375 
Q 8.5 10.296875 8.5 21.578125 
z
M 31.109375 56 
z
" id="DejaVuSans-117"/>
     </defs>
     <g transform="translate(18.737187 210.086094)rotate(-90)scale(0.1 -0.1)">
      <use xlink:href="#DejaVuSans-84"/>
      <use x="60.865234" xlink:href="#DejaVuSans-114"/>
      <use x="101.978516" xlink:href="#DejaVuSans-117"/>
      <use x="165.357422" xlink:href="#DejaVuSans-101"/>
      <use x="226.880859" xlink:href="#DejaVuSans-32"/>
      <use x="258.667969" xlink:href="#DejaVuSans-80"/>
      <use x="318.923828" xlink:href="#DejaVuSans-111"/>
      <use x="380.105469" xlink:href="#DejaVuSans-115"/>
      <use x="432.205078" xlink:href="#DejaVuSans-105"/>
      <use x="459.988281" xlink:href="#DejaVuSans-116"/>
      <use x="499.197266" xlink:href="#DejaVuSans-105"/>
      <use x="526.980469" xlink:href="#DejaVuSans-118"/>
      <use x="586.160156" xlink:href="#DejaVuSans-101"/>
      <use x="647.683594" xlink:href="#DejaVuSans-32"/>
      <use x="679.470703" xlink:href="#DejaVuSans-82"/>
      <use x="748.921875" xlink:href="#DejaVuSans-97"/>
      <use x="810.201172" xlink:href="#DejaVuSans-116"/>
      <use x="849.410156" xlink:href="#DejaVuSans-101"/>
     </g>
    </g>
   </g>
   <g id="line2d_13">
    <path clip-path="url(#pcd4ddea95b)" d="M 66.005455 290.994545 
L 66.005455 287.042841 
L 71.631748 283.091136 
L 88.510629 283.091136 
L 88.510629 279.139432 
L 99.763217 279.139432 
L 99.763217 275.187727 
L 105.38951 275.187727 
L 105.38951 271.236023 
L 111.015804 271.236023 
L 111.015804 267.284318 
L 122.268392 267.284318 
L 122.268392 263.332614 
L 133.520979 263.332614 
L 133.520979 259.380909 
L 144.773566 259.380909 
L 150.39986 259.380909 
L 156.026154 255.429205 
L 156.026154 251.4775 
L 161.652448 251.4775 
L 161.652448 243.574091 
L 161.652448 235.670682 
L 161.652448 223.815568 
L 212.289091 223.815568 
L 212.289091 219.863864 
L 223.541678 219.863864 
L 229.167972 215.912159 
L 229.167972 211.960455 
L 234.794266 208.00875 
L 234.794266 196.153636 
L 240.420559 196.153636 
L 240.420559 192.201932 
L 246.046853 192.201932 
L 251.673147 188.250227 
L 251.673147 172.443409 
L 257.299441 172.443409 
L 262.925734 168.491705 
L 268.552028 168.491705 
L 268.552028 164.54 
L 274.178322 164.54 
L 274.178322 156.636591 
L 279.804615 156.636591 
L 279.804615 152.684886 
L 285.430909 152.684886 
L 285.430909 148.733182 
L 291.057203 140.829773 
L 296.683497 140.829773 
L 296.683497 121.07125 
L 307.936084 117.119545 
L 319.188671 117.119545 
L 319.188671 113.167841 
L 324.814965 113.167841 
L 324.814965 109.216136 
L 336.067552 109.216136 
L 336.067552 97.361023 
L 341.693846 89.457614 
L 347.32014 89.457614 
L 347.32014 77.6025 
L 352.946434 77.6025 
L 352.946434 69.699091 
L 375.451608 69.699091 
L 386.704196 69.699091 
L 397.956783 69.699091 
L 397.956783 61.795682 
L 409.209371 61.795682 
L 409.209371 57.843977 
L 414.835664 57.843977 
L 414.835664 53.892273 
L 420.461958 53.892273 
L 420.461958 49.940568 
L 426.088252 49.940568 
L 426.088252 42.037159 
L 431.714545 42.037159 
L 431.714545 38.085455 
" style="fill:none;stroke:#1f77b4;stroke-linecap:square;stroke-opacity:0.3;"/>
   </g>
   <g id="line2d_14">
    <path clip-path="url(#pcd4ddea95b)" d="M 66.005455 290.994545 
L 71.719659 290.994545 
L 77.433864 287.103636 
L 88.862273 287.103636 
L 88.862273 279.321818 
L 100.290682 279.321818 
L 100.290682 275.430909 
L 106.004886 275.430909 
L 117.433295 275.430909 
L 128.861705 275.430909 
L 128.861705 267.649091 
L 151.718523 259.867273 
L 151.718523 255.976364 
L 163.146932 255.976364 
L 163.146932 248.194545 
L 168.861136 240.412727 
L 180.289545 240.412727 
L 180.289545 236.521818 
L 186.00375 236.521818 
L 186.00375 232.630909 
L 208.860568 232.630909 
L 208.860568 228.74 
L 220.288977 228.74 
L 226.003182 224.849091 
L 226.003182 201.503636 
L 231.717386 201.503636 
L 231.717386 197.612727 
L 237.431591 197.612727 
L 237.431591 193.721818 
L 243.145795 189.830909 
L 243.145795 182.049091 
L 254.574205 182.049091 
L 254.574205 174.267273 
L 260.288409 170.376364 
L 260.288409 166.485455 
L 277.431023 166.485455 
L 277.431023 150.921818 
L 288.859432 150.921818 
L 288.859432 143.14 
L 288.859432 139.249091 
L 306.002045 139.249091 
L 306.002045 131.467273 
L 311.71625 131.467273 
L 311.71625 123.685455 
L 311.71625 115.903636 
L 323.144659 115.903636 
L 323.144659 108.121818 
L 328.858864 104.230909 
L 351.715682 104.230909 
L 357.429886 96.449091 
L 368.858295 96.449091 
L 368.858295 92.558182 
L 386.000909 92.558182 
L 386.000909 84.776364 
L 391.715114 84.776364 
L 397.429318 80.885455 
L 397.429318 69.212727 
L 403.143523 69.212727 
L 403.143523 57.54 
L 414.571932 57.54 
L 420.286136 53.649091 
L 420.286136 49.758182 
L 431.714545 49.758182 
L 431.714545 38.085455 
" style="fill:none;stroke:#ff7f0e;stroke-linecap:square;stroke-opacity:0.3;"/>
   </g>
   <g id="line2d_15">
    <path clip-path="url(#pcd4ddea95b)" d="M 66.005455 290.994545 
L 66.005455 287.042841 
L 77.433864 287.042841 
L 77.433864 283.091136 
L 83.148068 279.139432 
L 100.290682 279.139432 
L 100.290682 271.236023 
L 111.719091 271.236023 
L 111.719091 267.284318 
L 117.433295 267.284318 
L 117.433295 263.332614 
L 128.861705 263.332614 
L 146.004318 251.4775 
L 146.004318 239.622386 
L 151.718523 239.622386 
L 151.718523 235.670682 
L 151.718523 227.767273 
L 163.146932 227.767273 
L 174.575341 227.767273 
L 174.575341 223.815568 
L 174.575341 215.912159 
L 197.432159 215.912159 
L 197.432159 200.105341 
L 208.860568 196.153636 
L 208.860568 192.201932 
L 214.574773 192.201932 
L 214.574773 188.250227 
L 220.288977 188.250227 
L 220.288977 184.298523 
L 231.717386 184.298523 
L 243.145795 184.298523 
L 243.145795 176.395114 
L 254.574205 176.395114 
L 254.574205 168.491705 
L 277.431023 168.491705 
L 277.431023 156.636591 
L 283.145227 156.636591 
L 283.145227 140.829773 
L 288.859432 140.829773 
L 288.859432 136.878068 
L 294.573636 136.878068 
L 294.573636 125.022955 
L 300.287841 125.022955 
L 300.287841 117.119545 
L 300.287841 109.216136 
L 311.71625 109.216136 
L 317.430455 101.312727 
L 351.715682 101.312727 
L 351.715682 97.361023 
L 363.144091 97.361023 
L 363.144091 85.505909 
L 368.858295 85.505909 
L 368.858295 77.6025 
L 380.286705 77.6025 
L 380.286705 73.650795 
L 397.429318 73.650795 
L 397.429318 69.699091 
L 403.143523 69.699091 
L 408.857727 65.747386 
L 408.857727 57.843977 
L 408.857727 45.988864 
L 408.857727 42.037159 
L 414.571932 38.085455 
L 431.714545 38.085455 
" style="fill:none;stroke:#2ca02c;stroke-linecap:square;stroke-opacity:0.3;"/>
   </g>
   <g id="line2d_16">
    <path clip-path="url(#pcd4ddea95b)" d="M 66.005455 290.994545 
L 71.719659 290.994545 
L 71.719659 287.042841 
L 111.719091 287.042841 
L 111.719091 283.091136 
L 117.433295 283.091136 
L 117.433295 275.187727 
L 123.1475 275.187727 
L 134.575909 271.236023 
L 140.290114 271.236023 
L 140.290114 267.284318 
L 146.004318 267.284318 
L 146.004318 251.4775 
L 151.718523 251.4775 
L 151.718523 247.525795 
L 157.432727 247.525795 
L 157.432727 239.622386 
L 163.146932 239.622386 
L 163.146932 231.718977 
L 168.861136 231.718977 
L 168.861136 223.815568 
L 174.575341 223.815568 
L 174.575341 219.863864 
L 180.289545 219.863864 
L 180.289545 215.912159 
L 191.717955 215.912159 
L 191.717955 211.960455 
L 203.146364 208.00875 
L 226.003182 208.00875 
L 226.003182 204.057045 
L 231.717386 200.105341 
L 243.145795 200.105341 
L 243.145795 192.201932 
L 243.145795 184.298523 
L 248.86 180.346818 
L 248.86 176.395114 
L 260.288409 176.395114 
L 260.288409 160.588295 
L 266.002614 160.588295 
L 266.002614 148.733182 
L 266.002614 140.829773 
L 266.002614 136.878068 
L 271.716818 136.878068 
L 271.716818 132.926364 
L 277.431023 132.926364 
L 294.573636 132.926364 
L 311.71625 132.926364 
L 311.71625 125.022955 
L 317.430455 125.022955 
L 317.430455 121.07125 
L 328.858864 121.07125 
L 328.858864 117.119545 
L 340.287273 113.167841 
L 357.429886 113.167841 
L 357.429886 109.216136 
L 357.429886 101.312727 
L 357.429886 93.409318 
L 363.144091 93.409318 
L 363.144091 85.505909 
L 380.286705 85.505909 
L 380.286705 77.6025 
L 391.715114 77.6025 
L 391.715114 73.650795 
L 403.143523 73.650795 
L 403.143523 65.747386 
L 408.857727 65.747386 
L 408.857727 61.795682 
L 414.571932 61.795682 
L 414.571932 57.843977 
L 414.571932 49.940568 
L 426.000341 42.037159 
L 426.000341 38.085455 
L 431.714545 38.085455 
" style="fill:none;stroke:#d62728;stroke-linecap:square;stroke-opacity:0.3;"/>
   </g>
   <g id="line2d_17">
    <path clip-path="url(#pcd4ddea95b)" d="M 66.005455 290.994545 
L 71.719659 290.994545 
L 94.576477 290.994545 
L 94.576477 287.042841 
L 111.719091 287.042841 
L 111.719091 283.091136 
L 123.1475 283.091136 
L 123.1475 279.139432 
L 140.290114 279.139432 
L 140.290114 267.284318 
L 146.004318 267.284318 
L 146.004318 263.332614 
L 151.718523 263.332614 
L 151.718523 259.380909 
L 168.861136 259.380909 
L 168.861136 255.429205 
L 180.289545 255.429205 
L 186.00375 247.525795 
L 191.717955 247.525795 
L 191.717955 243.574091 
L 197.432159 239.622386 
L 208.860568 235.670682 
L 220.288977 235.670682 
L 220.288977 219.863864 
L 231.717386 219.863864 
L 231.717386 211.960455 
L 237.431591 211.960455 
L 237.431591 196.153636 
L 254.574205 196.153636 
L 254.574205 180.346818 
L 260.288409 180.346818 
L 260.288409 168.491705 
L 271.716818 168.491705 
L 271.716818 160.588295 
L 288.859432 160.588295 
L 288.859432 156.636591 
L 294.573636 156.636591 
L 294.573636 148.733182 
L 311.71625 148.733182 
L 317.430455 144.781477 
L 323.144659 144.781477 
L 323.144659 136.878068 
L 328.858864 136.878068 
L 328.858864 132.926364 
L 334.573068 132.926364 
L 334.573068 113.167841 
L 334.573068 109.216136 
L 340.287273 109.216136 
L 340.287273 105.264432 
L 346.001477 105.264432 
L 346.001477 101.312727 
L 357.429886 101.312727 
L 357.429886 97.361023 
L 368.858295 97.361023 
L 368.858295 93.409318 
L 380.286705 93.409318 
L 380.286705 89.457614 
L 386.000909 89.457614 
L 391.715114 85.505909 
L 391.715114 77.6025 
L 403.143523 77.6025 
L 403.143523 73.650795 
L 408.857727 73.650795 
L 408.857727 69.699091 
L 426.000341 69.699091 
L 426.000341 65.747386 
L 426.000341 53.892273 
L 426.000341 49.940568 
L 431.714545 49.940568 
L 431.714545 38.085455 
" style="fill:none;stroke:#9467bd;stroke-linecap:square;stroke-opacity:0.3;"/>
   </g>
   <g id="line2d_18">
    <path clip-path="url(#pcd4ddea95b)" d="M 66.005455 290.994545 
L 71.719659 287.042841 
L 77.433864 287.042841 
L 77.433864 279.139432 
L 88.862273 279.139432 
L 88.862273 271.236023 
L 94.576477 271.236023 
L 94.576477 263.332614 
L 100.290682 263.332614 
L 100.290682 255.429205 
L 111.719091 255.429205 
L 111.719091 251.4775 
L 117.433295 251.4775 
L 117.433295 243.574091 
L 123.1475 239.622386 
L 123.1475 231.718977 
L 128.861705 231.718977 
L 128.861705 227.767273 
L 134.575909 227.767273 
L 134.575909 219.863864 
L 140.290114 208.00875 
L 140.290114 200.105341 
L 146.004318 200.105341 
L 151.718523 196.153636 
L 168.861136 196.153636 
L 168.861136 188.250227 
L 180.289545 184.298523 
L 180.289545 180.346818 
L 186.00375 180.346818 
L 186.00375 176.395114 
L 214.574773 176.395114 
L 214.574773 164.54 
L 220.288977 164.54 
L 220.288977 160.588295 
L 226.003182 156.636591 
L 226.003182 152.684886 
L 231.717386 152.684886 
L 231.717386 148.733182 
L 237.431591 148.733182 
L 237.431591 140.829773 
L 243.145795 140.829773 
L 243.145795 136.878068 
L 248.86 132.926364 
L 260.288409 132.926364 
L 271.716818 132.926364 
L 271.716818 128.974659 
L 277.431023 128.974659 
L 277.431023 121.07125 
L 277.431023 105.264432 
L 288.859432 105.264432 
L 288.859432 101.312727 
L 306.002045 101.312727 
L 306.002045 97.361023 
L 317.430455 97.361023 
L 317.430455 93.409318 
L 323.144659 93.409318 
L 323.144659 77.6025 
L 357.429886 77.6025 
L 357.429886 73.650795 
L 368.858295 69.699091 
L 368.858295 61.795682 
L 403.143523 61.795682 
L 403.143523 53.892273 
L 403.143523 45.988864 
L 426.000341 45.988864 
L 426.000341 38.085455 
L 431.714545 38.085455 
" style="fill:none;stroke:#8c564b;stroke-linecap:square;stroke-opacity:0.3;"/>
   </g>
   <g id="line2d_19">
    <path clip-path="url(#pcd4ddea95b)" d="M 66.005455 290.994545 
L 66.005455 287.042841 
L 66.005455 279.139432 
L 117.433295 279.139432 
L 117.433295 275.187727 
L 128.861705 275.187727 
L 128.861705 267.284318 
L 134.575909 259.380909 
L 140.290114 259.380909 
L 146.004318 255.429205 
L 146.004318 247.525795 
L 151.718523 243.574091 
L 151.718523 227.767273 
L 163.146932 227.767273 
L 163.146932 219.863864 
L 168.861136 219.863864 
L 168.861136 215.912159 
L 168.861136 204.057045 
L 191.717955 204.057045 
L 191.717955 200.105341 
L 197.432159 200.105341 
L 197.432159 192.201932 
L 214.574773 192.201932 
L 220.288977 184.298523 
L 226.003182 184.298523 
L 226.003182 180.346818 
L 243.145795 180.346818 
L 243.145795 172.443409 
L 243.145795 164.54 
L 248.86 164.54 
L 248.86 160.588295 
L 277.431023 160.588295 
L 277.431023 156.636591 
L 288.859432 156.636591 
L 288.859432 152.684886 
L 294.573636 152.684886 
L 294.573636 148.733182 
L 294.573636 136.878068 
L 294.573636 132.926364 
L 300.287841 132.926364 
L 300.287841 128.974659 
L 311.71625 128.974659 
L 311.71625 125.022955 
L 317.430455 125.022955 
L 317.430455 117.119545 
L 317.430455 109.216136 
L 357.429886 109.216136 
L 357.429886 101.312727 
L 374.5725 101.312727 
L 374.5725 97.361023 
L 380.286705 89.457614 
L 380.286705 85.505909 
L 403.143523 85.505909 
L 403.143523 81.554205 
L 403.143523 69.699091 
L 408.857727 69.699091 
L 408.857727 65.747386 
L 414.571932 61.795682 
L 414.571932 57.843977 
L 414.571932 49.940568 
L 414.571932 42.037159 
L 420.286136 42.037159 
L 426.000341 38.085455 
L 431.714545 38.085455 
" style="fill:none;stroke:#e377c2;stroke-linecap:square;stroke-opacity:0.3;"/>
   </g>
   <g id="line2d_20">
    <path clip-path="url(#pcd4ddea95b)" d="M 66.005455 290.994545 
L 66.005455 287.042841 
L 77.433864 287.042841 
L 77.433864 275.187727 
L 83.148068 275.187727 
L 83.148068 271.236023 
L 94.576477 271.236023 
L 94.576477 267.284318 
L 100.290682 267.284318 
L 100.290682 263.332614 
L 117.433295 263.332614 
L 117.433295 259.380909 
L 123.1475 259.380909 
L 123.1475 251.4775 
L 146.004318 251.4775 
L 151.718523 247.525795 
L 151.718523 243.574091 
L 157.432727 243.574091 
L 157.432727 239.622386 
L 163.146932 227.767273 
L 174.575341 227.767273 
L 174.575341 223.815568 
L 180.289545 219.863864 
L 180.289545 215.912159 
L 191.717955 215.912159 
L 191.717955 211.960455 
L 197.432159 211.960455 
L 197.432159 208.00875 
L 203.146364 204.057045 
L 208.860568 204.057045 
L 214.574773 200.105341 
L 214.574773 192.201932 
L 220.288977 192.201932 
L 220.288977 188.250227 
L 226.003182 188.250227 
L 226.003182 184.298523 
L 226.003182 176.395114 
L 231.717386 176.395114 
L 231.717386 172.443409 
L 237.431591 168.491705 
L 237.431591 160.588295 
L 248.86 160.588295 
L 248.86 156.636591 
L 254.574205 156.636591 
L 254.574205 144.781477 
L 254.574205 136.878068 
L 266.002614 136.878068 
L 266.002614 128.974659 
L 271.716818 128.974659 
L 277.431023 125.022955 
L 277.431023 121.07125 
L 288.859432 121.07125 
L 288.859432 117.119545 
L 294.573636 117.119545 
L 294.573636 113.167841 
L 323.144659 113.167841 
L 323.144659 109.216136 
L 328.858864 101.312727 
L 328.858864 89.457614 
L 340.287273 89.457614 
L 346.001477 85.505909 
L 346.001477 81.554205 
L 351.715682 81.554205 
L 351.715682 65.747386 
L 374.5725 65.747386 
L 374.5725 57.843977 
L 380.286705 57.843977 
L 380.286705 53.892273 
L 386.000909 53.892273 
L 391.715114 49.940568 
L 403.143523 49.940568 
L 414.571932 49.940568 
L 420.286136 45.988864 
L 426.000341 45.988864 
L 426.000341 42.037159 
L 431.714545 42.037159 
L 431.714545 38.085455 
" style="fill:none;stroke:#7f7f7f;stroke-linecap:square;stroke-opacity:0.3;"/>
   </g>
   <g id="line2d_21">
    <path clip-path="url(#pcd4ddea95b)" d="M 66.005455 290.994545 
L 71.719659 287.042841 
L 71.719659 279.139432 
L 100.290682 279.139432 
L 106.004886 275.187727 
L 106.004886 267.284318 
L 117.433295 267.284318 
L 117.433295 263.332614 
L 117.433295 255.429205 
L 123.1475 255.429205 
L 123.1475 223.815568 
L 134.575909 219.863864 
L 140.290114 219.863864 
L 140.290114 208.00875 
L 146.004318 208.00875 
L 146.004318 200.105341 
L 151.718523 196.153636 
L 157.432727 196.153636 
L 157.432727 192.201932 
L 163.146932 192.201932 
L 163.146932 188.250227 
L 168.861136 188.250227 
L 168.861136 164.54 
L 174.575341 164.54 
L 174.575341 160.588295 
L 191.717955 148.733182 
L 197.432159 148.733182 
L 197.432159 144.781477 
L 208.860568 144.781477 
L 220.288977 144.781477 
L 226.003182 144.781477 
L 231.717386 136.878068 
L 231.717386 132.926364 
L 243.145795 132.926364 
L 260.288409 132.926364 
L 260.288409 125.022955 
L 266.002614 125.022955 
L 266.002614 121.07125 
L 277.431023 121.07125 
L 277.431023 117.119545 
L 283.145227 117.119545 
L 283.145227 109.216136 
L 288.859432 109.216136 
L 294.573636 105.264432 
L 294.573636 101.312727 
L 300.287841 101.312727 
L 300.287841 97.361023 
L 306.002045 97.361023 
L 311.71625 93.409318 
L 311.71625 89.457614 
L 323.144659 89.457614 
L 323.144659 85.505909 
L 334.573068 85.505909 
L 334.573068 81.554205 
L 346.001477 81.554205 
L 346.001477 77.6025 
L 368.858295 77.6025 
L 368.858295 73.650795 
L 403.143523 73.650795 
L 403.143523 69.699091 
L 408.857727 69.699091 
L 408.857727 61.795682 
L 414.571932 61.795682 
L 414.571932 53.892273 
L 414.571932 45.988864 
L 426.000341 38.085455 
L 431.714545 38.085455 
" style="fill:none;stroke:#bcbd22;stroke-linecap:square;stroke-opacity:0.3;"/>
   </g>
   <g id="line2d_22">
    <path clip-path="url(#pcd4ddea95b)" d="M 66.005455 290.994545 
L 71.719659 290.994545 
L 77.433864 290.994545 
L 77.433864 279.139432 
L 83.148068 275.187727 
L 100.290682 275.187727 
L 100.290682 271.236023 
L 106.004886 271.236023 
L 106.004886 263.332614 
L 111.719091 263.332614 
L 111.719091 255.429205 
L 117.433295 251.4775 
L 123.1475 251.4775 
L 123.1475 247.525795 
L 140.290114 247.525795 
L 140.290114 239.622386 
L 146.004318 239.622386 
L 146.004318 235.670682 
L 174.575341 235.670682 
L 180.289545 231.718977 
L 197.432159 231.718977 
L 197.432159 227.767273 
L 208.860568 227.767273 
L 208.860568 223.815568 
L 214.574773 219.863864 
L 214.574773 215.912159 
L 226.003182 215.912159 
L 231.717386 215.912159 
L 231.717386 208.00875 
L 237.431591 208.00875 
L 237.431591 204.057045 
L 243.145795 196.153636 
L 254.574205 196.153636 
L 254.574205 192.201932 
L 260.288409 192.201932 
L 260.288409 188.250227 
L 260.288409 180.346818 
L 271.716818 180.346818 
L 271.716818 176.395114 
L 277.431023 176.395114 
L 283.145227 172.443409 
L 288.859432 172.443409 
L 288.859432 164.54 
L 294.573636 164.54 
L 306.002045 164.54 
L 306.002045 148.733182 
L 311.71625 144.781477 
L 323.144659 144.781477 
L 323.144659 140.829773 
L 323.144659 132.926364 
L 323.144659 128.974659 
L 334.573068 128.974659 
L 334.573068 125.022955 
L 346.001477 125.022955 
L 346.001477 109.216136 
L 368.858295 109.216136 
L 368.858295 97.361023 
L 374.5725 97.361023 
L 380.286705 93.409318 
L 380.286705 85.505909 
L 397.429318 85.505909 
L 397.429318 69.699091 
L 408.857727 69.699091 
L 408.857727 65.747386 
L 414.571932 65.747386 
L 414.571932 61.795682 
L 420.286136 61.795682 
L 420.286136 45.988864 
L 426.000341 45.988864 
L 426.000341 42.037159 
L 431.714545 38.085455 
" style="fill:none;stroke:#17becf;stroke-linecap:square;stroke-opacity:0.3;"/>
   </g>
   <g id="line2d_23">
    <path clip-path="url(#pcd4ddea95b)" d="M 66.005455 290.994545 
L 431.714545 38.085455 
" style="fill:none;stroke:#ff0000;stroke-dasharray:7.4,3.2;stroke-dashoffset:0;stroke-opacity:0.8;stroke-width:2;"/>
   </g>
   <g id="line2d_24">
    <path clip-path="url(#pcd4ddea95b)" d="M 66.005455 290.994545 
L 69.699486 287.85314 
L 73.393517 286.138524 
L 77.087548 285.88699 
L 80.781579 281.843847 
L 84.475611 281.121364 
L 88.169642 281.121364 
L 91.863673 279.15767 
L 95.557704 277.576989 
L 99.251736 277.576989 
L 102.945767 274.23809 
L 106.639798 272.050682 
L 110.333829 272.050682 
L 114.02786 269.124824 
L 117.721892 264.917656 
L 121.415923 264.662192 
L 125.109954 258.479171 
L 128.803985 258.223708 
L 132.498017 255.126333 
L 136.192048 252.7932 
L 139.886079 251.645578 
L 143.58011 246.606126 
L 147.274141 240.656585 
L 150.968173 239.469047 
L 154.662204 234.635685 
L 158.356235 232.372436 
L 162.050266 228.839852 
L 165.744298 225.504576 
L 169.438329 219.132599 
L 173.13236 219.004867 
L 176.826391 216.039093 
L 180.520422 213.578351 
L 184.214454 212.811959 
L 187.908485 211.524754 
L 191.602516 211.26929 
L 195.296547 209.309404 
L 198.990579 205.261901 
L 202.68461 204.623242 
L 206.378641 204.319878 
L 210.072672 202.801159 
L 213.766703 201.895061 
L 217.460735 198.61794 
L 221.154766 195.341741 
L 224.848797 194.742936 
L 228.542828 189.092582 
L 232.23686 184.58813 
L 235.930891 182.967532 
L 239.624922 178.465414 
L 243.318953 172.194516 
L 247.012984 171.615731 
L 250.707016 169.915301 
L 254.401047 168.266761 
L 258.095078 162.450909 
L 261.789109 156.910969 
L 265.48314 156.831136 
L 269.177172 152.879432 
L 272.871203 150.823747 
L 276.565234 149.777942 
L 280.259265 142.828899 
L 283.953297 140.258295 
L 287.647328 139.551779 
L 291.341359 134.967678 
L 295.03539 130.002102 
L 298.729421 127.954401 
L 302.423453 125.45365 
L 306.117484 122.553922 
L 309.811515 121.979129 
L 313.505546 118.207416 
L 317.199578 117.441024 
L 320.893609 114.626932 
L 324.58764 108.808868 
L 328.281671 107.651237 
L 331.975702 105.448476 
L 335.669734 102.159381 
L 339.363765 100.38311 
L 343.057796 99.437095 
L 346.751827 96.46733 
L 350.445859 95.281818 
L 354.13989 92.185487 
L 357.833921 88.166938 
L 361.527952 88.039207 
L 365.221983 85.935622 
L 368.916015 81.864261 
L 372.610046 81.864261 
L 376.304077 80.319504 
L 379.998108 79.553113 
L 383.69214 76.331875 
L 387.386171 75.362095 
L 391.080202 74.851168 
L 394.774233 73.36954 
L 398.468264 69.255284 
L 402.162296 69.255284 
L 405.856327 63.15836 
L 409.550358 57.717781 
L 413.244389 57.206853 
L 416.938421 50.838744 
L 420.632452 47.479458 
L 424.326483 46.713066 
L 428.020514 41.484043 
L 431.714545 38.085455 
" style="fill:none;stroke:#0000ff;stroke-linecap:square;stroke-opacity:0.8;stroke-width:2;"/>
   </g>
   <g id="patch_3">
    <path d="M 47.72 303.64 
L 47.72 25.44 
" style="fill:none;stroke:#000000;stroke-linecap:square;stroke-linejoin:miter;stroke-width:0.8;"/>
   </g>
   <g id="patch_4">
    <path d="M 450 303.64 
L 450 25.44 
" style="fill:none;stroke:#000000;stroke-linecap:square;stroke-linejoin:miter;stroke-width:0.8;"/>
   </g>
   <g id="patch_5">
    <path d="M 47.72 303.64 
L 450 303.64 
" style="fill:none;stroke:#000000;stroke-linecap:square;stroke-linejoin:miter;stroke-width:0.8;"/>
   </g>
   <g id="patch_6">
    <path d="M 47.72 25.44 
L 450 25.44 
" style="fill:none;stroke:#000000;stroke-linecap:square;stroke-linejoin:miter;stroke-width:0.8;"/>
   </g>
   <g id="text_15">
    <!-- Receiver operating characteristic: inversions -->
    <defs>
     <path d="M 48.78125 52.59375 
L 48.78125 44.1875 
Q 44.96875 46.296875 41.140625 47.34375 
Q 37.3125 48.390625 33.40625 48.390625 
Q 24.65625 48.390625 19.8125 42.84375 
Q 14.984375 37.3125 14.984375 27.296875 
Q 14.984375 17.28125 19.8125 11.734375 
Q 24.65625 6.203125 33.40625 6.203125 
Q 37.3125 6.203125 41.140625 7.25 
Q 44.96875 8.296875 48.78125 10.40625 
L 48.78125 2.09375 
Q 45.015625 0.34375 40.984375 -0.53125 
Q 36.96875 -1.421875 32.421875 -1.421875 
Q 20.0625 -1.421875 12.78125 6.34375 
Q 5.515625 14.109375 5.515625 27.296875 
Q 5.515625 40.671875 12.859375 48.328125 
Q 20.21875 56 33.015625 56 
Q 37.15625 56 41.109375 55.140625 
Q 45.0625 54.296875 48.78125 52.59375 
z
" id="DejaVuSans-99"/>
     <path d="M 18.109375 8.203125 
L 18.109375 -20.796875 
L 9.078125 -20.796875 
L 9.078125 54.6875 
L 18.109375 54.6875 
L 18.109375 46.390625 
Q 20.953125 51.265625 25.265625 53.625 
Q 29.59375 56 35.59375 56 
Q 45.5625 56 51.78125 48.09375 
Q 58.015625 40.1875 58.015625 27.296875 
Q 58.015625 14.40625 51.78125 6.484375 
Q 45.5625 -1.421875 35.59375 -1.421875 
Q 29.59375 -1.421875 25.265625 0.953125 
Q 20.953125 3.328125 18.109375 8.203125 
z
M 48.6875 27.296875 
Q 48.6875 37.203125 44.609375 42.84375 
Q 40.53125 48.484375 33.40625 48.484375 
Q 26.265625 48.484375 22.1875 42.84375 
Q 18.109375 37.203125 18.109375 27.296875 
Q 18.109375 17.390625 22.1875 11.75 
Q 26.265625 6.109375 33.40625 6.109375 
Q 40.53125 6.109375 44.609375 11.75 
Q 48.6875 17.390625 48.6875 27.296875 
z
" id="DejaVuSans-112"/>
     <path d="M 54.890625 33.015625 
L 54.890625 0 
L 45.90625 0 
L 45.90625 32.71875 
Q 45.90625 40.484375 42.875 44.328125 
Q 39.84375 48.1875 33.796875 48.1875 
Q 26.515625 48.1875 22.3125 43.546875 
Q 18.109375 38.921875 18.109375 30.90625 
L 18.109375 0 
L 9.078125 0 
L 9.078125 54.6875 
L 18.109375 54.6875 
L 18.109375 46.1875 
Q 21.34375 51.125 25.703125 53.5625 
Q 30.078125 56 35.796875 56 
Q 45.21875 56 50.046875 50.171875 
Q 54.890625 44.34375 54.890625 33.015625 
z
" id="DejaVuSans-110"/>
     <path d="M 45.40625 27.984375 
Q 45.40625 37.75 41.375 43.109375 
Q 37.359375 48.484375 30.078125 48.484375 
Q 22.859375 48.484375 18.828125 43.109375 
Q 14.796875 37.75 14.796875 27.984375 
Q 14.796875 18.265625 18.828125 12.890625 
Q 22.859375 7.515625 30.078125 7.515625 
Q 37.359375 7.515625 41.375 12.890625 
Q 45.40625 18.265625 45.40625 27.984375 
z
M 54.390625 6.78125 
Q 54.390625 -7.171875 48.1875 -13.984375 
Q 42 -20.796875 29.203125 -20.796875 
Q 24.46875 -20.796875 20.265625 -20.09375 
Q 16.0625 -19.390625 12.109375 -17.921875 
L 12.109375 -9.1875 
Q 16.0625 -11.328125 19.921875 -12.34375 
Q 23.78125 -13.375 27.78125 -13.375 
Q 36.625 -13.375 41.015625 -8.765625 
Q 45.40625 -4.15625 45.40625 5.171875 
L 45.40625 9.625 
Q 42.625 4.78125 38.28125 2.390625 
Q 33.9375 0 27.875 0 
Q 17.828125 0 11.671875 7.65625 
Q 5.515625 15.328125 5.515625 27.984375 
Q 5.515625 40.671875 11.671875 48.328125 
Q 17.828125 56 27.875 56 
Q 33.9375 56 38.28125 53.609375 
Q 42.625 51.21875 45.40625 46.390625 
L 45.40625 54.6875 
L 54.390625 54.6875 
z
" id="DejaVuSans-103"/>
     <path d="M 54.890625 33.015625 
L 54.890625 0 
L 45.90625 0 
L 45.90625 32.71875 
Q 45.90625 40.484375 42.875 44.328125 
Q 39.84375 48.1875 33.796875 48.1875 
Q 26.515625 48.1875 22.3125 43.546875 
Q 18.109375 38.921875 18.109375 30.90625 
L 18.109375 0 
L 9.078125 0 
L 9.078125 75.984375 
L 18.109375 75.984375 
L 18.109375 46.1875 
Q 21.34375 51.125 25.703125 53.5625 
Q 30.078125 56 35.796875 56 
Q 45.21875 56 50.046875 50.171875 
Q 54.890625 44.34375 54.890625 33.015625 
z
" id="DejaVuSans-104"/>
     <path d="M 11.71875 12.40625 
L 22.015625 12.40625 
L 22.015625 0 
L 11.71875 0 
z
M 11.71875 51.703125 
L 22.015625 51.703125 
L 22.015625 39.3125 
L 11.71875 39.3125 
z
" id="DejaVuSans-58"/>
    </defs>
    <g transform="translate(114.534062 19.44)scale(0.12 -0.12)">
     <use xlink:href="#DejaVuSans-82"/>
     <use x="69.419922" xlink:href="#DejaVuSans-101"/>
     <use x="130.943359" xlink:href="#DejaVuSans-99"/>
     <use x="185.923828" xlink:href="#DejaVuSans-101"/>
     <use x="247.447266" xlink:href="#DejaVuSans-105"/>
     <use x="275.230469" xlink:href="#DejaVuSans-118"/>
     <use x="334.410156" xlink:href="#DejaVuSans-101"/>
     <use x="395.933594" xlink:href="#DejaVuSans-114"/>
     <use x="437.046875" xlink:href="#DejaVuSans-32"/>
     <use x="468.833984" xlink:href="#DejaVuSans-111"/>
     <use x="530.015625" xlink:href="#DejaVuSans-112"/>
     <use x="593.492188" xlink:href="#DejaVuSans-101"/>
     <use x="655.015625" xlink:href="#DejaVuSans-114"/>
     <use x="696.128906" xlink:href="#DejaVuSans-97"/>
     <use x="757.408203" xlink:href="#DejaVuSans-116"/>
     <use x="796.617188" xlink:href="#DejaVuSans-105"/>
     <use x="824.400391" xlink:href="#DejaVuSans-110"/>
     <use x="887.779297" xlink:href="#DejaVuSans-103"/>
     <use x="951.255859" xlink:href="#DejaVuSans-32"/>
     <use x="983.042969" xlink:href="#DejaVuSans-99"/>
     <use x="1038.023438" xlink:href="#DejaVuSans-104"/>
     <use x="1101.402344" xlink:href="#DejaVuSans-97"/>
     <use x="1162.681641" xlink:href="#DejaVuSans-114"/>
     <use x="1203.794922" xlink:href="#DejaVuSans-97"/>
     <use x="1265.074219" xlink:href="#DejaVuSans-99"/>
     <use x="1320.054688" xlink:href="#DejaVuSans-116"/>
     <use x="1359.263672" xlink:href="#DejaVuSans-101"/>
     <use x="1420.787109" xlink:href="#DejaVuSans-114"/>
     <use x="1461.900391" xlink:href="#DejaVuSans-105"/>
     <use x="1489.683594" xlink:href="#DejaVuSans-115"/>
     <use x="1541.783203" xlink:href="#DejaVuSans-116"/>
     <use x="1580.992188" xlink:href="#DejaVuSans-105"/>
     <use x="1608.775391" xlink:href="#DejaVuSans-99"/>
     <use x="1663.755859" xlink:href="#DejaVuSans-58"/>
     <use x="1697.447266" xlink:href="#DejaVuSans-32"/>
     <use x="1729.234375" xlink:href="#DejaVuSans-105"/>
     <use x="1757.017578" xlink:href="#DejaVuSans-110"/>
     <use x="1820.396484" xlink:href="#DejaVuSans-118"/>
     <use x="1879.576172" xlink:href="#DejaVuSans-101"/>
     <use x="1941.099609" xlink:href="#DejaVuSans-114"/>
     <use x="1982.212891" xlink:href="#DejaVuSans-115"/>
     <use x="2034.3125" xlink:href="#DejaVuSans-105"/>
     <use x="2062.095703" xlink:href="#DejaVuSans-111"/>
     <use x="2123.277344" xlink:href="#DejaVuSans-110"/>
     <use x="2186.65625" xlink:href="#DejaVuSans-115"/>
    </g>
   </g>
   <g id="legend_1">
    <g id="patch_7">
     <path d="M 252.6 298.64 
L 443 298.64 
Q 445 298.64 445 296.64 
L 445 106.824375 
Q 445 104.824375 443 104.824375 
L 252.6 104.824375 
Q 250.6 104.824375 250.6 106.824375 
L 250.6 296.64 
Q 250.6 298.64 252.6 298.64 
z
" style="fill:#ffffff;opacity:0.8;stroke:#cccccc;stroke-linejoin:miter;"/>
    </g>
    <g id="line2d_25">
     <path d="M 254.6 112.922812 
L 274.6 112.922812 
" style="fill:none;stroke:#1f77b4;stroke-linecap:square;stroke-opacity:0.3;"/>
    </g>
    <g id="line2d_26"/>
    <g id="text_16">
     <!-- ROC fold 0 (AUC = 0.47) -->
     <defs>
      <path d="M 39.40625 66.21875 
Q 28.65625 66.21875 22.328125 58.203125 
Q 16.015625 50.203125 16.015625 36.375 
Q 16.015625 22.609375 22.328125 14.59375 
Q 28.65625 6.59375 39.40625 6.59375 
Q 50.140625 6.59375 56.421875 14.59375 
Q 62.703125 22.609375 62.703125 36.375 
Q 62.703125 50.203125 56.421875 58.203125 
Q 50.140625 66.21875 39.40625 66.21875 
z
M 39.40625 74.21875 
Q 54.734375 74.21875 63.90625 63.9375 
Q 73.09375 53.65625 73.09375 36.375 
Q 73.09375 19.140625 63.90625 8.859375 
Q 54.734375 -1.421875 39.40625 -1.421875 
Q 24.03125 -1.421875 14.8125 8.828125 
Q 5.609375 19.09375 5.609375 36.375 
Q 5.609375 53.65625 14.8125 63.9375 
Q 24.03125 74.21875 39.40625 74.21875 
z
" id="DejaVuSans-79"/>
      <path d="M 64.40625 67.28125 
L 64.40625 56.890625 
Q 59.421875 61.53125 53.78125 63.8125 
Q 48.140625 66.109375 41.796875 66.109375 
Q 29.296875 66.109375 22.65625 58.46875 
Q 16.015625 50.828125 16.015625 36.375 
Q 16.015625 21.96875 22.65625 14.328125 
Q 29.296875 6.6875 41.796875 6.6875 
Q 48.140625 6.6875 53.78125 8.984375 
Q 59.421875 11.28125 64.40625 15.921875 
L 64.40625 5.609375 
Q 59.234375 2.09375 53.4375 0.328125 
Q 47.65625 -1.421875 41.21875 -1.421875 
Q 24.65625 -1.421875 15.125 8.703125 
Q 5.609375 18.84375 5.609375 36.375 
Q 5.609375 53.953125 15.125 64.078125 
Q 24.65625 74.21875 41.21875 74.21875 
Q 47.75 74.21875 53.53125 72.484375 
Q 59.328125 70.75 64.40625 67.28125 
z
" id="DejaVuSans-67"/>
      <path d="M 37.109375 75.984375 
L 37.109375 68.5 
L 28.515625 68.5 
Q 23.6875 68.5 21.796875 66.546875 
Q 19.921875 64.59375 19.921875 59.515625 
L 19.921875 54.6875 
L 34.71875 54.6875 
L 34.71875 47.703125 
L 19.921875 47.703125 
L 19.921875 0 
L 10.890625 0 
L 10.890625 47.703125 
L 2.296875 47.703125 
L 2.296875 54.6875 
L 10.890625 54.6875 
L 10.890625 58.5 
Q 10.890625 67.625 15.140625 71.796875 
Q 19.390625 75.984375 28.609375 75.984375 
z
" id="DejaVuSans-102"/>
      <path d="M 45.40625 46.390625 
L 45.40625 75.984375 
L 54.390625 75.984375 
L 54.390625 0 
L 45.40625 0 
L 45.40625 8.203125 
Q 42.578125 3.328125 38.25 0.953125 
Q 33.9375 -1.421875 27.875 -1.421875 
Q 17.96875 -1.421875 11.734375 6.484375 
Q 5.515625 14.40625 5.515625 27.296875 
Q 5.515625 40.1875 11.734375 48.09375 
Q 17.96875 56 27.875 56 
Q 33.9375 56 38.25 53.625 
Q 42.578125 51.265625 45.40625 46.390625 
z
M 14.796875 27.296875 
Q 14.796875 17.390625 18.875 11.75 
Q 22.953125 6.109375 30.078125 6.109375 
Q 37.203125 6.109375 41.296875 11.75 
Q 45.40625 17.390625 45.40625 27.296875 
Q 45.40625 37.203125 41.296875 42.84375 
Q 37.203125 48.484375 30.078125 48.484375 
Q 22.953125 48.484375 18.875 42.84375 
Q 14.796875 37.203125 14.796875 27.296875 
z
" id="DejaVuSans-100"/>
      <path d="M 31 75.875 
Q 24.46875 64.65625 21.28125 53.65625 
Q 18.109375 42.671875 18.109375 31.390625 
Q 18.109375 20.125 21.3125 9.0625 
Q 24.515625 -2 31 -13.1875 
L 23.1875 -13.1875 
Q 15.875 -1.703125 12.234375 9.375 
Q 8.59375 20.453125 8.59375 31.390625 
Q 8.59375 42.28125 12.203125 53.3125 
Q 15.828125 64.359375 23.1875 75.875 
z
" id="DejaVuSans-40"/>
      <path d="M 34.1875 63.1875 
L 20.796875 26.90625 
L 47.609375 26.90625 
z
M 28.609375 72.90625 
L 39.796875 72.90625 
L 67.578125 0 
L 57.328125 0 
L 50.6875 18.703125 
L 17.828125 18.703125 
L 11.1875 0 
L 0.78125 0 
z
" id="DejaVuSans-65"/>
      <path d="M 8.6875 72.90625 
L 18.609375 72.90625 
L 18.609375 28.609375 
Q 18.609375 16.890625 22.84375 11.734375 
Q 27.09375 6.59375 36.625 6.59375 
Q 46.09375 6.59375 50.34375 11.734375 
Q 54.59375 16.890625 54.59375 28.609375 
L 54.59375 72.90625 
L 64.5 72.90625 
L 64.5 27.390625 
Q 64.5 13.140625 57.4375 5.859375 
Q 50.390625 -1.421875 36.625 -1.421875 
Q 22.796875 -1.421875 15.734375 5.859375 
Q 8.6875 13.140625 8.6875 27.390625 
z
" id="DejaVuSans-85"/>
      <path d="M 10.59375 45.40625 
L 73.1875 45.40625 
L 73.1875 37.203125 
L 10.59375 37.203125 
z
M 10.59375 25.484375 
L 73.1875 25.484375 
L 73.1875 17.1875 
L 10.59375 17.1875 
z
" id="DejaVuSans-61"/>
      <path d="M 8.203125 72.90625 
L 55.078125 72.90625 
L 55.078125 68.703125 
L 28.609375 0 
L 18.3125 0 
L 43.21875 64.59375 
L 8.203125 64.59375 
z
" id="DejaVuSans-55"/>
      <path d="M 8.015625 75.875 
L 15.828125 75.875 
Q 23.140625 64.359375 26.78125 53.3125 
Q 30.421875 42.28125 30.421875 31.390625 
Q 30.421875 20.453125 26.78125 9.375 
Q 23.140625 -1.703125 15.828125 -13.1875 
L 8.015625 -13.1875 
Q 14.5 -2 17.703125 9.0625 
Q 20.90625 20.125 20.90625 31.390625 
Q 20.90625 42.671875 17.703125 53.65625 
Q 14.5 64.65625 8.015625 75.875 
z
" id="DejaVuSans-41"/>
     </defs>
     <g transform="translate(282.6 116.422812)scale(0.1 -0.1)">
      <use xlink:href="#DejaVuSans-82"/>
      <use x="69.482422" xlink:href="#DejaVuSans-79"/>
      <use x="148.193359" xlink:href="#DejaVuSans-67"/>
      <use x="218.017578" xlink:href="#DejaVuSans-32"/>
      <use x="249.804688" xlink:href="#DejaVuSans-102"/>
      <use x="285.009766" xlink:href="#DejaVuSans-111"/>
      <use x="346.191406" xlink:href="#DejaVuSans-108"/>
      <use x="373.974609" xlink:href="#DejaVuSans-100"/>
      <use x="437.451172" xlink:href="#DejaVuSans-32"/>
      <use x="469.238281" xlink:href="#DejaVuSans-48"/>
      <use x="532.861328" xlink:href="#DejaVuSans-32"/>
      <use x="564.648438" xlink:href="#DejaVuSans-40"/>
      <use x="603.662109" xlink:href="#DejaVuSans-65"/>
      <use x="672.070312" xlink:href="#DejaVuSans-85"/>
      <use x="745.263672" xlink:href="#DejaVuSans-67"/>
      <use x="815.087891" xlink:href="#DejaVuSans-32"/>
      <use x="846.875" xlink:href="#DejaVuSans-61"/>
      <use x="930.664062" xlink:href="#DejaVuSans-32"/>
      <use x="962.451172" xlink:href="#DejaVuSans-48"/>
      <use x="1026.074219" xlink:href="#DejaVuSans-46"/>
      <use x="1057.861328" xlink:href="#DejaVuSans-52"/>
      <use x="1121.484375" xlink:href="#DejaVuSans-55"/>
      <use x="1185.107422" xlink:href="#DejaVuSans-41"/>
     </g>
    </g>
    <g id="line2d_27">
     <path d="M 254.6 127.600938 
L 274.6 127.600938 
" style="fill:none;stroke:#ff7f0e;stroke-linecap:square;stroke-opacity:0.3;"/>
    </g>
    <g id="line2d_28"/>
    <g id="text_17">
     <!-- ROC fold 1 (AUC = 0.44) -->
     <g transform="translate(282.6 131.100938)scale(0.1 -0.1)">
      <use xlink:href="#DejaVuSans-82"/>
      <use x="69.482422" xlink:href="#DejaVuSans-79"/>
      <use x="148.193359" xlink:href="#DejaVuSans-67"/>
      <use x="218.017578" xlink:href="#DejaVuSans-32"/>
      <use x="249.804688" xlink:href="#DejaVuSans-102"/>
      <use x="285.009766" xlink:href="#DejaVuSans-111"/>
      <use x="346.191406" xlink:href="#DejaVuSans-108"/>
      <use x="373.974609" xlink:href="#DejaVuSans-100"/>
      <use x="437.451172" xlink:href="#DejaVuSans-32"/>
      <use x="469.238281" xlink:href="#DejaVuSans-49"/>
      <use x="532.861328" xlink:href="#DejaVuSans-32"/>
      <use x="564.648438" xlink:href="#DejaVuSans-40"/>
      <use x="603.662109" xlink:href="#DejaVuSans-65"/>
      <use x="672.070312" xlink:href="#DejaVuSans-85"/>
      <use x="745.263672" xlink:href="#DejaVuSans-67"/>
      <use x="815.087891" xlink:href="#DejaVuSans-32"/>
      <use x="846.875" xlink:href="#DejaVuSans-61"/>
      <use x="930.664062" xlink:href="#DejaVuSans-32"/>
      <use x="962.451172" xlink:href="#DejaVuSans-48"/>
      <use x="1026.074219" xlink:href="#DejaVuSans-46"/>
      <use x="1057.861328" xlink:href="#DejaVuSans-52"/>
      <use x="1121.484375" xlink:href="#DejaVuSans-52"/>
      <use x="1185.107422" xlink:href="#DejaVuSans-41"/>
     </g>
    </g>
    <g id="line2d_29">
     <path d="M 254.6 142.279063 
L 274.6 142.279063 
" style="fill:none;stroke:#2ca02c;stroke-linecap:square;stroke-opacity:0.3;"/>
    </g>
    <g id="line2d_30"/>
    <g id="text_18">
     <!-- ROC fold 2 (AUC = 0.48) -->
     <g transform="translate(282.6 145.779063)scale(0.1 -0.1)">
      <use xlink:href="#DejaVuSans-82"/>
      <use x="69.482422" xlink:href="#DejaVuSans-79"/>
      <use x="148.193359" xlink:href="#DejaVuSans-67"/>
      <use x="218.017578" xlink:href="#DejaVuSans-32"/>
      <use x="249.804688" xlink:href="#DejaVuSans-102"/>
      <use x="285.009766" xlink:href="#DejaVuSans-111"/>
      <use x="346.191406" xlink:href="#DejaVuSans-108"/>
      <use x="373.974609" xlink:href="#DejaVuSans-100"/>
      <use x="437.451172" xlink:href="#DejaVuSans-32"/>
      <use x="469.238281" xlink:href="#DejaVuSans-50"/>
      <use x="532.861328" xlink:href="#DejaVuSans-32"/>
      <use x="564.648438" xlink:href="#DejaVuSans-40"/>
      <use x="603.662109" xlink:href="#DejaVuSans-65"/>
      <use x="672.070312" xlink:href="#DejaVuSans-85"/>
      <use x="745.263672" xlink:href="#DejaVuSans-67"/>
      <use x="815.087891" xlink:href="#DejaVuSans-32"/>
      <use x="846.875" xlink:href="#DejaVuSans-61"/>
      <use x="930.664062" xlink:href="#DejaVuSans-32"/>
      <use x="962.451172" xlink:href="#DejaVuSans-48"/>
      <use x="1026.074219" xlink:href="#DejaVuSans-46"/>
      <use x="1057.861328" xlink:href="#DejaVuSans-52"/>
      <use x="1121.484375" xlink:href="#DejaVuSans-56"/>
      <use x="1185.107422" xlink:href="#DejaVuSans-41"/>
     </g>
    </g>
    <g id="line2d_31">
     <path d="M 254.6 156.957188 
L 274.6 156.957188 
" style="fill:none;stroke:#d62728;stroke-linecap:square;stroke-opacity:0.3;"/>
    </g>
    <g id="line2d_32"/>
    <g id="text_19">
     <!-- ROC fold 3 (AUC = 0.46) -->
     <defs>
      <path d="M 40.578125 39.3125 
Q 47.65625 37.796875 51.625 33 
Q 55.609375 28.21875 55.609375 21.1875 
Q 55.609375 10.40625 48.1875 4.484375 
Q 40.765625 -1.421875 27.09375 -1.421875 
Q 22.515625 -1.421875 17.65625 -0.515625 
Q 12.796875 0.390625 7.625 2.203125 
L 7.625 11.71875 
Q 11.71875 9.328125 16.59375 8.109375 
Q 21.484375 6.890625 26.8125 6.890625 
Q 36.078125 6.890625 40.9375 10.546875 
Q 45.796875 14.203125 45.796875 21.1875 
Q 45.796875 27.640625 41.28125 31.265625 
Q 36.765625 34.90625 28.71875 34.90625 
L 20.21875 34.90625 
L 20.21875 43.015625 
L 29.109375 43.015625 
Q 36.375 43.015625 40.234375 45.921875 
Q 44.09375 48.828125 44.09375 54.296875 
Q 44.09375 59.90625 40.109375 62.90625 
Q 36.140625 65.921875 28.71875 65.921875 
Q 24.65625 65.921875 20.015625 65.03125 
Q 15.375 64.15625 9.8125 62.3125 
L 9.8125 71.09375 
Q 15.4375 72.65625 20.34375 73.4375 
Q 25.25 74.21875 29.59375 74.21875 
Q 40.828125 74.21875 47.359375 69.109375 
Q 53.90625 64.015625 53.90625 55.328125 
Q 53.90625 49.265625 50.4375 45.09375 
Q 46.96875 40.921875 40.578125 39.3125 
z
" id="DejaVuSans-51"/>
     </defs>
     <g transform="translate(282.6 160.457188)scale(0.1 -0.1)">
      <use xlink:href="#DejaVuSans-82"/>
      <use x="69.482422" xlink:href="#DejaVuSans-79"/>
      <use x="148.193359" xlink:href="#DejaVuSans-67"/>
      <use x="218.017578" xlink:href="#DejaVuSans-32"/>
      <use x="249.804688" xlink:href="#DejaVuSans-102"/>
      <use x="285.009766" xlink:href="#DejaVuSans-111"/>
      <use x="346.191406" xlink:href="#DejaVuSans-108"/>
      <use x="373.974609" xlink:href="#DejaVuSans-100"/>
      <use x="437.451172" xlink:href="#DejaVuSans-32"/>
      <use x="469.238281" xlink:href="#DejaVuSans-51"/>
      <use x="532.861328" xlink:href="#DejaVuSans-32"/>
      <use x="564.648438" xlink:href="#DejaVuSans-40"/>
      <use x="603.662109" xlink:href="#DejaVuSans-65"/>
      <use x="672.070312" xlink:href="#DejaVuSans-85"/>
      <use x="745.263672" xlink:href="#DejaVuSans-67"/>
      <use x="815.087891" xlink:href="#DejaVuSans-32"/>
      <use x="846.875" xlink:href="#DejaVuSans-61"/>
      <use x="930.664062" xlink:href="#DejaVuSans-32"/>
      <use x="962.451172" xlink:href="#DejaVuSans-48"/>
      <use x="1026.074219" xlink:href="#DejaVuSans-46"/>
      <use x="1057.861328" xlink:href="#DejaVuSans-52"/>
      <use x="1121.484375" xlink:href="#DejaVuSans-54"/>
      <use x="1185.107422" xlink:href="#DejaVuSans-41"/>
     </g>
    </g>
    <g id="line2d_33">
     <path d="M 254.6 171.635312 
L 274.6 171.635312 
" style="fill:none;stroke:#9467bd;stroke-linecap:square;stroke-opacity:0.3;"/>
    </g>
    <g id="line2d_34"/>
    <g id="text_20">
     <!-- ROC fold 4 (AUC = 0.40) -->
     <g transform="translate(282.6 175.135312)scale(0.1 -0.1)">
      <use xlink:href="#DejaVuSans-82"/>
      <use x="69.482422" xlink:href="#DejaVuSans-79"/>
      <use x="148.193359" xlink:href="#DejaVuSans-67"/>
      <use x="218.017578" xlink:href="#DejaVuSans-32"/>
      <use x="249.804688" xlink:href="#DejaVuSans-102"/>
      <use x="285.009766" xlink:href="#DejaVuSans-111"/>
      <use x="346.191406" xlink:href="#DejaVuSans-108"/>
      <use x="373.974609" xlink:href="#DejaVuSans-100"/>
      <use x="437.451172" xlink:href="#DejaVuSans-32"/>
      <use x="469.238281" xlink:href="#DejaVuSans-52"/>
      <use x="532.861328" xlink:href="#DejaVuSans-32"/>
      <use x="564.648438" xlink:href="#DejaVuSans-40"/>
      <use x="603.662109" xlink:href="#DejaVuSans-65"/>
      <use x="672.070312" xlink:href="#DejaVuSans-85"/>
      <use x="745.263672" xlink:href="#DejaVuSans-67"/>
      <use x="815.087891" xlink:href="#DejaVuSans-32"/>
      <use x="846.875" xlink:href="#DejaVuSans-61"/>
      <use x="930.664062" xlink:href="#DejaVuSans-32"/>
      <use x="962.451172" xlink:href="#DejaVuSans-48"/>
      <use x="1026.074219" xlink:href="#DejaVuSans-46"/>
      <use x="1057.861328" xlink:href="#DejaVuSans-52"/>
      <use x="1121.484375" xlink:href="#DejaVuSans-48"/>
      <use x="1185.107422" xlink:href="#DejaVuSans-41"/>
     </g>
    </g>
    <g id="line2d_35">
     <path d="M 254.6 186.313438 
L 274.6 186.313438 
" style="fill:none;stroke:#8c564b;stroke-linecap:square;stroke-opacity:0.3;"/>
    </g>
    <g id="line2d_36"/>
    <g id="text_21">
     <!-- ROC fold 5 (AUC = 0.57) -->
     <defs>
      <path d="M 10.796875 72.90625 
L 49.515625 72.90625 
L 49.515625 64.59375 
L 19.828125 64.59375 
L 19.828125 46.734375 
Q 21.96875 47.46875 24.109375 47.828125 
Q 26.265625 48.1875 28.421875 48.1875 
Q 40.625 48.1875 47.75 41.5 
Q 54.890625 34.8125 54.890625 23.390625 
Q 54.890625 11.625 47.5625 5.09375 
Q 40.234375 -1.421875 26.90625 -1.421875 
Q 22.3125 -1.421875 17.546875 -0.640625 
Q 12.796875 0.140625 7.71875 1.703125 
L 7.71875 11.625 
Q 12.109375 9.234375 16.796875 8.0625 
Q 21.484375 6.890625 26.703125 6.890625 
Q 35.15625 6.890625 40.078125 11.328125 
Q 45.015625 15.765625 45.015625 23.390625 
Q 45.015625 31 40.078125 35.4375 
Q 35.15625 39.890625 26.703125 39.890625 
Q 22.75 39.890625 18.8125 39.015625 
Q 14.890625 38.140625 10.796875 36.28125 
z
" id="DejaVuSans-53"/>
     </defs>
     <g transform="translate(282.6 189.813438)scale(0.1 -0.1)">
      <use xlink:href="#DejaVuSans-82"/>
      <use x="69.482422" xlink:href="#DejaVuSans-79"/>
      <use x="148.193359" xlink:href="#DejaVuSans-67"/>
      <use x="218.017578" xlink:href="#DejaVuSans-32"/>
      <use x="249.804688" xlink:href="#DejaVuSans-102"/>
      <use x="285.009766" xlink:href="#DejaVuSans-111"/>
      <use x="346.191406" xlink:href="#DejaVuSans-108"/>
      <use x="373.974609" xlink:href="#DejaVuSans-100"/>
      <use x="437.451172" xlink:href="#DejaVuSans-32"/>
      <use x="469.238281" xlink:href="#DejaVuSans-53"/>
      <use x="532.861328" xlink:href="#DejaVuSans-32"/>
      <use x="564.648438" xlink:href="#DejaVuSans-40"/>
      <use x="603.662109" xlink:href="#DejaVuSans-65"/>
      <use x="672.070312" xlink:href="#DejaVuSans-85"/>
      <use x="745.263672" xlink:href="#DejaVuSans-67"/>
      <use x="815.087891" xlink:href="#DejaVuSans-32"/>
      <use x="846.875" xlink:href="#DejaVuSans-61"/>
      <use x="930.664062" xlink:href="#DejaVuSans-32"/>
      <use x="962.451172" xlink:href="#DejaVuSans-48"/>
      <use x="1026.074219" xlink:href="#DejaVuSans-46"/>
      <use x="1057.861328" xlink:href="#DejaVuSans-53"/>
      <use x="1121.484375" xlink:href="#DejaVuSans-55"/>
      <use x="1185.107422" xlink:href="#DejaVuSans-41"/>
     </g>
    </g>
    <g id="line2d_37">
     <path d="M 254.6 200.991562 
L 274.6 200.991562 
" style="fill:none;stroke:#e377c2;stroke-linecap:square;stroke-opacity:0.3;"/>
    </g>
    <g id="line2d_38"/>
    <g id="text_22">
     <!-- ROC fold 6 (AUC = 0.47) -->
     <g transform="translate(282.6 204.491562)scale(0.1 -0.1)">
      <use xlink:href="#DejaVuSans-82"/>
      <use x="69.482422" xlink:href="#DejaVuSans-79"/>
      <use x="148.193359" xlink:href="#DejaVuSans-67"/>
      <use x="218.017578" xlink:href="#DejaVuSans-32"/>
      <use x="249.804688" xlink:href="#DejaVuSans-102"/>
      <use x="285.009766" xlink:href="#DejaVuSans-111"/>
      <use x="346.191406" xlink:href="#DejaVuSans-108"/>
      <use x="373.974609" xlink:href="#DejaVuSans-100"/>
      <use x="437.451172" xlink:href="#DejaVuSans-32"/>
      <use x="469.238281" xlink:href="#DejaVuSans-54"/>
      <use x="532.861328" xlink:href="#DejaVuSans-32"/>
      <use x="564.648438" xlink:href="#DejaVuSans-40"/>
      <use x="603.662109" xlink:href="#DejaVuSans-65"/>
      <use x="672.070312" xlink:href="#DejaVuSans-85"/>
      <use x="745.263672" xlink:href="#DejaVuSans-67"/>
      <use x="815.087891" xlink:href="#DejaVuSans-32"/>
      <use x="846.875" xlink:href="#DejaVuSans-61"/>
      <use x="930.664062" xlink:href="#DejaVuSans-32"/>
      <use x="962.451172" xlink:href="#DejaVuSans-48"/>
      <use x="1026.074219" xlink:href="#DejaVuSans-46"/>
      <use x="1057.861328" xlink:href="#DejaVuSans-52"/>
      <use x="1121.484375" xlink:href="#DejaVuSans-55"/>
      <use x="1185.107422" xlink:href="#DejaVuSans-41"/>
     </g>
    </g>
    <g id="line2d_39">
     <path d="M 254.6 215.669688 
L 274.6 215.669688 
" style="fill:none;stroke:#7f7f7f;stroke-linecap:square;stroke-opacity:0.3;"/>
    </g>
    <g id="line2d_40"/>
    <g id="text_23">
     <!-- ROC fold 7 (AUC = 0.52) -->
     <g transform="translate(282.6 219.169688)scale(0.1 -0.1)">
      <use xlink:href="#DejaVuSans-82"/>
      <use x="69.482422" xlink:href="#DejaVuSans-79"/>
      <use x="148.193359" xlink:href="#DejaVuSans-67"/>
      <use x="218.017578" xlink:href="#DejaVuSans-32"/>
      <use x="249.804688" xlink:href="#DejaVuSans-102"/>
      <use x="285.009766" xlink:href="#DejaVuSans-111"/>
      <use x="346.191406" xlink:href="#DejaVuSans-108"/>
      <use x="373.974609" xlink:href="#DejaVuSans-100"/>
      <use x="437.451172" xlink:href="#DejaVuSans-32"/>
      <use x="469.238281" xlink:href="#DejaVuSans-55"/>
      <use x="532.861328" xlink:href="#DejaVuSans-32"/>
      <use x="564.648438" xlink:href="#DejaVuSans-40"/>
      <use x="603.662109" xlink:href="#DejaVuSans-65"/>
      <use x="672.070312" xlink:href="#DejaVuSans-85"/>
      <use x="745.263672" xlink:href="#DejaVuSans-67"/>
      <use x="815.087891" xlink:href="#DejaVuSans-32"/>
      <use x="846.875" xlink:href="#DejaVuSans-61"/>
      <use x="930.664062" xlink:href="#DejaVuSans-32"/>
      <use x="962.451172" xlink:href="#DejaVuSans-48"/>
      <use x="1026.074219" xlink:href="#DejaVuSans-46"/>
      <use x="1057.861328" xlink:href="#DejaVuSans-53"/>
      <use x="1121.484375" xlink:href="#DejaVuSans-50"/>
      <use x="1185.107422" xlink:href="#DejaVuSans-41"/>
     </g>
    </g>
    <g id="line2d_41">
     <path d="M 254.6 230.347812 
L 274.6 230.347812 
" style="fill:none;stroke:#bcbd22;stroke-linecap:square;stroke-opacity:0.3;"/>
    </g>
    <g id="line2d_42"/>
    <g id="text_24">
     <!-- ROC fold 8 (AUC = 0.58) -->
     <g transform="translate(282.6 233.847812)scale(0.1 -0.1)">
      <use xlink:href="#DejaVuSans-82"/>
      <use x="69.482422" xlink:href="#DejaVuSans-79"/>
      <use x="148.193359" xlink:href="#DejaVuSans-67"/>
      <use x="218.017578" xlink:href="#DejaVuSans-32"/>
      <use x="249.804688" xlink:href="#DejaVuSans-102"/>
      <use x="285.009766" xlink:href="#DejaVuSans-111"/>
      <use x="346.191406" xlink:href="#DejaVuSans-108"/>
      <use x="373.974609" xlink:href="#DejaVuSans-100"/>
      <use x="437.451172" xlink:href="#DejaVuSans-32"/>
      <use x="469.238281" xlink:href="#DejaVuSans-56"/>
      <use x="532.861328" xlink:href="#DejaVuSans-32"/>
      <use x="564.648438" xlink:href="#DejaVuSans-40"/>
      <use x="603.662109" xlink:href="#DejaVuSans-65"/>
      <use x="672.070312" xlink:href="#DejaVuSans-85"/>
      <use x="745.263672" xlink:href="#DejaVuSans-67"/>
      <use x="815.087891" xlink:href="#DejaVuSans-32"/>
      <use x="846.875" xlink:href="#DejaVuSans-61"/>
      <use x="930.664062" xlink:href="#DejaVuSans-32"/>
      <use x="962.451172" xlink:href="#DejaVuSans-48"/>
      <use x="1026.074219" xlink:href="#DejaVuSans-46"/>
      <use x="1057.861328" xlink:href="#DejaVuSans-53"/>
      <use x="1121.484375" xlink:href="#DejaVuSans-56"/>
      <use x="1185.107422" xlink:href="#DejaVuSans-41"/>
     </g>
    </g>
    <g id="line2d_43">
     <path d="M 254.6 245.025937 
L 274.6 245.025937 
" style="fill:none;stroke:#17becf;stroke-linecap:square;stroke-opacity:0.3;"/>
    </g>
    <g id="line2d_44"/>
    <g id="text_25">
     <!-- ROC fold 9 (AUC = 0.43) -->
     <defs>
      <path d="M 10.984375 1.515625 
L 10.984375 10.5 
Q 14.703125 8.734375 18.5 7.8125 
Q 22.3125 6.890625 25.984375 6.890625 
Q 35.75 6.890625 40.890625 13.453125 
Q 46.046875 20.015625 46.78125 33.40625 
Q 43.953125 29.203125 39.59375 26.953125 
Q 35.25 24.703125 29.984375 24.703125 
Q 19.046875 24.703125 12.671875 31.3125 
Q 6.296875 37.9375 6.296875 49.421875 
Q 6.296875 60.640625 12.9375 67.421875 
Q 19.578125 74.21875 30.609375 74.21875 
Q 43.265625 74.21875 49.921875 64.515625 
Q 56.59375 54.828125 56.59375 36.375 
Q 56.59375 19.140625 48.40625 8.859375 
Q 40.234375 -1.421875 26.421875 -1.421875 
Q 22.703125 -1.421875 18.890625 -0.6875 
Q 15.09375 0.046875 10.984375 1.515625 
z
M 30.609375 32.421875 
Q 37.25 32.421875 41.125 36.953125 
Q 45.015625 41.5 45.015625 49.421875 
Q 45.015625 57.28125 41.125 61.84375 
Q 37.25 66.40625 30.609375 66.40625 
Q 23.96875 66.40625 20.09375 61.84375 
Q 16.21875 57.28125 16.21875 49.421875 
Q 16.21875 41.5 20.09375 36.953125 
Q 23.96875 32.421875 30.609375 32.421875 
z
" id="DejaVuSans-57"/>
     </defs>
     <g transform="translate(282.6 248.525937)scale(0.1 -0.1)">
      <use xlink:href="#DejaVuSans-82"/>
      <use x="69.482422" xlink:href="#DejaVuSans-79"/>
      <use x="148.193359" xlink:href="#DejaVuSans-67"/>
      <use x="218.017578" xlink:href="#DejaVuSans-32"/>
      <use x="249.804688" xlink:href="#DejaVuSans-102"/>
      <use x="285.009766" xlink:href="#DejaVuSans-111"/>
      <use x="346.191406" xlink:href="#DejaVuSans-108"/>
      <use x="373.974609" xlink:href="#DejaVuSans-100"/>
      <use x="437.451172" xlink:href="#DejaVuSans-32"/>
      <use x="469.238281" xlink:href="#DejaVuSans-57"/>
      <use x="532.861328" xlink:href="#DejaVuSans-32"/>
      <use x="564.648438" xlink:href="#DejaVuSans-40"/>
      <use x="603.662109" xlink:href="#DejaVuSans-65"/>
      <use x="672.070312" xlink:href="#DejaVuSans-85"/>
      <use x="745.263672" xlink:href="#DejaVuSans-67"/>
      <use x="815.087891" xlink:href="#DejaVuSans-32"/>
      <use x="846.875" xlink:href="#DejaVuSans-61"/>
      <use x="930.664062" xlink:href="#DejaVuSans-32"/>
      <use x="962.451172" xlink:href="#DejaVuSans-48"/>
      <use x="1026.074219" xlink:href="#DejaVuSans-46"/>
      <use x="1057.861328" xlink:href="#DejaVuSans-52"/>
      <use x="1121.484375" xlink:href="#DejaVuSans-51"/>
      <use x="1185.107422" xlink:href="#DejaVuSans-41"/>
     </g>
    </g>
    <g id="line2d_45">
     <path d="M 254.6 259.704062 
L 274.6 259.704062 
" style="fill:none;stroke:#ff0000;stroke-dasharray:7.4,3.2;stroke-dashoffset:0;stroke-opacity:0.8;stroke-width:2;"/>
    </g>
    <g id="line2d_46"/>
    <g id="text_26">
     <!-- Chance -->
     <g transform="translate(282.6 263.204062)scale(0.1 -0.1)">
      <use xlink:href="#DejaVuSans-67"/>
      <use x="69.824219" xlink:href="#DejaVuSans-104"/>
      <use x="133.203125" xlink:href="#DejaVuSans-97"/>
      <use x="194.482422" xlink:href="#DejaVuSans-110"/>
      <use x="257.861328" xlink:href="#DejaVuSans-99"/>
      <use x="312.841797" xlink:href="#DejaVuSans-101"/>
     </g>
    </g>
    <g id="line2d_47">
     <path d="M 254.6 274.382187 
L 274.6 274.382187 
" style="fill:none;stroke:#0000ff;stroke-linecap:square;stroke-opacity:0.8;stroke-width:2;"/>
    </g>
    <g id="line2d_48"/>
    <g id="text_27">
     <!-- Mean ROC (AUC = 0.48 $\pm$ 0.06) -->
     <defs>
      <path d="M 9.8125 72.90625 
L 24.515625 72.90625 
L 43.109375 23.296875 
L 61.8125 72.90625 
L 76.515625 72.90625 
L 76.515625 0 
L 66.890625 0 
L 66.890625 64.015625 
L 48.09375 14.015625 
L 38.1875 14.015625 
L 19.390625 64.015625 
L 19.390625 0 
L 9.8125 0 
z
" id="DejaVuSans-77"/>
      <path d="M 46 62.703125 
L 46 43.796875 
L 73.1875 43.796875 
L 73.1875 35.5 
L 46 35.5 
L 46 16.609375 
L 37.796875 16.609375 
L 37.796875 35.5 
L 10.59375 35.5 
L 10.59375 43.796875 
L 37.796875 43.796875 
L 37.796875 62.703125 
z
M 10.59375 8.296875 
L 73.1875 8.296875 
L 73.1875 0 
L 10.59375 0 
z
" id="DejaVuSans-177"/>
     </defs>
     <g transform="translate(282.6 277.882187)scale(0.1 -0.1)">
      <use transform="translate(0 0.125)" xlink:href="#DejaVuSans-77"/>
      <use transform="translate(86.279297 0.125)" xlink:href="#DejaVuSans-101"/>
      <use transform="translate(147.802734 0.125)" xlink:href="#DejaVuSans-97"/>
      <use transform="translate(209.082031 0.125)" xlink:href="#DejaVuSans-110"/>
      <use transform="translate(272.460938 0.125)" xlink:href="#DejaVuSans-32"/>
      <use transform="translate(304.248047 0.125)" xlink:href="#DejaVuSans-82"/>
      <use transform="translate(373.730469 0.125)" xlink:href="#DejaVuSans-79"/>
      <use transform="translate(452.441406 0.125)" xlink:href="#DejaVuSans-67"/>
      <use transform="translate(522.265625 0.125)" xlink:href="#DejaVuSans-32"/>
      <use transform="translate(554.052734 0.125)" xlink:href="#DejaVuSans-40"/>
      <use transform="translate(593.066406 0.125)" xlink:href="#DejaVuSans-65"/>
      <use transform="translate(661.474609 0.125)" xlink:href="#DejaVuSans-85"/>
      <use transform="translate(734.667969 0.125)" xlink:href="#DejaVuSans-67"/>
      <use transform="translate(804.492188 0.125)" xlink:href="#DejaVuSans-32"/>
      <use transform="translate(836.279297 0.125)" xlink:href="#DejaVuSans-61"/>
      <use transform="translate(920.068359 0.125)" xlink:href="#DejaVuSans-32"/>
      <use transform="translate(951.855469 0.125)" xlink:href="#DejaVuSans-48"/>
      <use transform="translate(1015.478516 0.125)" xlink:href="#DejaVuSans-46"/>
      <use transform="translate(1047.265625 0.125)" xlink:href="#DejaVuSans-52"/>
      <use transform="translate(1110.888672 0.125)" xlink:href="#DejaVuSans-56"/>
      <use transform="translate(1174.511719 0.125)" xlink:href="#DejaVuSans-32"/>
      <use transform="translate(1206.298828 0.125)" xlink:href="#DejaVuSans-177"/>
      <use transform="translate(1290.087891 0.125)" xlink:href="#DejaVuSans-32"/>
      <use transform="translate(1321.875 0.125)" xlink:href="#DejaVuSans-48"/>
      <use transform="translate(1385.498047 0.125)" xlink:href="#DejaVuSans-46"/>
      <use transform="translate(1417.285156 0.125)" xlink:href="#DejaVuSans-48"/>
      <use transform="translate(1480.908203 0.125)" xlink:href="#DejaVuSans-54"/>
      <use transform="translate(1544.53125 0.125)" xlink:href="#DejaVuSans-41"/>
     </g>
    </g>
    <g id="patch_8">
     <path d="M 254.6 292.560312 
L 274.6 292.560312 
L 274.6 285.560312 
L 254.6 285.560312 
z
" style="fill:#808080;opacity:0.2;stroke:#808080;stroke-linejoin:miter;"/>
    </g>
    <g id="text_28">
     <!-- $\pm$ 1 std. dev. -->
     <g transform="translate(282.6 292.560312)scale(0.1 -0.1)">
      <use transform="translate(0 0.015625)" xlink:href="#DejaVuSans-177"/>
      <use transform="translate(83.789062 0.015625)" xlink:href="#DejaVuSans-32"/>
      <use transform="translate(115.576172 0.015625)" xlink:href="#DejaVuSans-49"/>
      <use transform="translate(179.199219 0.015625)" xlink:href="#DejaVuSans-32"/>
      <use transform="translate(210.986328 0.015625)" xlink:href="#DejaVuSans-115"/>
      <use transform="translate(263.085938 0.015625)" xlink:href="#DejaVuSans-116"/>
      <use transform="translate(302.294922 0.015625)" xlink:href="#DejaVuSans-100"/>
      <use transform="translate(365.771484 0.015625)" xlink:href="#DejaVuSans-46"/>
      <use transform="translate(397.558594 0.015625)" xlink:href="#DejaVuSans-32"/>
      <use transform="translate(429.345703 0.015625)" xlink:href="#DejaVuSans-100"/>
      <use transform="translate(492.822266 0.015625)" xlink:href="#DejaVuSans-101"/>
      <use transform="translate(554.345703 0.015625)" xlink:href="#DejaVuSans-118"/>
      <use transform="translate(613.525391 0.015625)" xlink:href="#DejaVuSans-46"/>
     </g>
    </g>
   </g>
  </g>
 </g>
 <defs>
  <clipPath id="pcd4ddea95b">
   <rect height="278.2" width="402.28" x="47.72" y="25.44"/>
  </clipPath>
 </defs>
</svg>
